%TF.GenerationSoftware,KiCad,Pcbnew,(7.0.0)*%
%TF.CreationDate,2023-02-27T05:24:14-06:00*%
%TF.ProjectId,esp32-c3-vesc-express-gh_connectors,65737033-322d-4633-932d-766573632d65,rev?*%
%TF.SameCoordinates,Original*%
%TF.FileFunction,Paste,Bot*%
%TF.FilePolarity,Positive*%
%FSLAX46Y46*%
G04 Gerber Fmt 4.6, Leading zero omitted, Abs format (unit mm)*
G04 Created by KiCad (PCBNEW (7.0.0)) date 2023-02-27 05:24:14*
%MOMM*%
%LPD*%
G01*
G04 APERTURE LIST*
G04 Aperture macros list*
%AMFreePoly0*
4,1,6,0.725000,-0.725000,-0.125000,-0.725000,-0.725000,-0.125000,-0.725000,0.725000,0.725000,0.725000,0.725000,-0.725000,0.725000,-0.725000,$1*%
G04 Aperture macros list end*
%ADD10C,0.100000*%
%ADD11C,0.150000*%
%ADD12C,0.300000*%
%ADD13C,0.400000*%
%ADD14R,1.500000X0.800000*%
%ADD15R,1.400000X1.800000*%
%ADD16R,1.900000X1.400000*%
%ADD17R,0.400000X0.800000*%
%ADD18R,0.800000X0.400000*%
%ADD19R,0.700000X0.700000*%
%ADD20R,1.450000X1.450000*%
%ADD21FreePoly0,90.000000*%
G04 APERTURE END LIST*
D10*
D11*
X177002200Y-166007200D02*
X285002200Y-166007200D01*
X285002200Y-198007200D01*
X177002200Y-198007200D01*
X177002200Y-166007200D01*
D10*
D11*
X10000000Y-10000000D02*
X287002200Y-10000000D01*
X287002200Y-200007200D01*
X10000000Y-200007200D01*
X10000000Y-10000000D01*
D10*
D11*
X12000000Y-12000000D02*
X285002200Y-12000000D01*
X285002200Y-198007200D01*
X12000000Y-198007200D01*
X12000000Y-12000000D01*
D10*
D11*
X60000000Y-12000000D02*
X60000000Y-10000000D01*
D10*
D11*
X110000000Y-12000000D02*
X110000000Y-10000000D01*
D10*
D11*
X160000000Y-12000000D02*
X160000000Y-10000000D01*
D10*
D11*
X210000000Y-12000000D02*
X210000000Y-10000000D01*
D10*
D11*
X260000000Y-12000000D02*
X260000000Y-10000000D01*
D10*
D11*
X35990476Y-11477595D02*
X35247619Y-11477595D01*
X35619047Y-11477595D02*
X35619047Y-10177595D01*
X35619047Y-10177595D02*
X35495238Y-10363309D01*
X35495238Y-10363309D02*
X35371428Y-10487119D01*
X35371428Y-10487119D02*
X35247619Y-10549023D01*
D10*
D11*
X85247619Y-10301404D02*
X85309523Y-10239500D01*
X85309523Y-10239500D02*
X85433333Y-10177595D01*
X85433333Y-10177595D02*
X85742857Y-10177595D01*
X85742857Y-10177595D02*
X85866666Y-10239500D01*
X85866666Y-10239500D02*
X85928571Y-10301404D01*
X85928571Y-10301404D02*
X85990476Y-10425214D01*
X85990476Y-10425214D02*
X85990476Y-10549023D01*
X85990476Y-10549023D02*
X85928571Y-10734738D01*
X85928571Y-10734738D02*
X85185714Y-11477595D01*
X85185714Y-11477595D02*
X85990476Y-11477595D01*
D10*
D11*
X135185714Y-10177595D02*
X135990476Y-10177595D01*
X135990476Y-10177595D02*
X135557142Y-10672833D01*
X135557142Y-10672833D02*
X135742857Y-10672833D01*
X135742857Y-10672833D02*
X135866666Y-10734738D01*
X135866666Y-10734738D02*
X135928571Y-10796642D01*
X135928571Y-10796642D02*
X135990476Y-10920452D01*
X135990476Y-10920452D02*
X135990476Y-11229976D01*
X135990476Y-11229976D02*
X135928571Y-11353785D01*
X135928571Y-11353785D02*
X135866666Y-11415690D01*
X135866666Y-11415690D02*
X135742857Y-11477595D01*
X135742857Y-11477595D02*
X135371428Y-11477595D01*
X135371428Y-11477595D02*
X135247619Y-11415690D01*
X135247619Y-11415690D02*
X135185714Y-11353785D01*
D10*
D11*
X185866666Y-10610928D02*
X185866666Y-11477595D01*
X185557142Y-10115690D02*
X185247619Y-11044261D01*
X185247619Y-11044261D02*
X186052380Y-11044261D01*
D10*
D11*
X235928571Y-10177595D02*
X235309523Y-10177595D01*
X235309523Y-10177595D02*
X235247619Y-10796642D01*
X235247619Y-10796642D02*
X235309523Y-10734738D01*
X235309523Y-10734738D02*
X235433333Y-10672833D01*
X235433333Y-10672833D02*
X235742857Y-10672833D01*
X235742857Y-10672833D02*
X235866666Y-10734738D01*
X235866666Y-10734738D02*
X235928571Y-10796642D01*
X235928571Y-10796642D02*
X235990476Y-10920452D01*
X235990476Y-10920452D02*
X235990476Y-11229976D01*
X235990476Y-11229976D02*
X235928571Y-11353785D01*
X235928571Y-11353785D02*
X235866666Y-11415690D01*
X235866666Y-11415690D02*
X235742857Y-11477595D01*
X235742857Y-11477595D02*
X235433333Y-11477595D01*
X235433333Y-11477595D02*
X235309523Y-11415690D01*
X235309523Y-11415690D02*
X235247619Y-11353785D01*
D10*
D11*
X285866666Y-10177595D02*
X285619047Y-10177595D01*
X285619047Y-10177595D02*
X285495238Y-10239500D01*
X285495238Y-10239500D02*
X285433333Y-10301404D01*
X285433333Y-10301404D02*
X285309523Y-10487119D01*
X285309523Y-10487119D02*
X285247619Y-10734738D01*
X285247619Y-10734738D02*
X285247619Y-11229976D01*
X285247619Y-11229976D02*
X285309523Y-11353785D01*
X285309523Y-11353785D02*
X285371428Y-11415690D01*
X285371428Y-11415690D02*
X285495238Y-11477595D01*
X285495238Y-11477595D02*
X285742857Y-11477595D01*
X285742857Y-11477595D02*
X285866666Y-11415690D01*
X285866666Y-11415690D02*
X285928571Y-11353785D01*
X285928571Y-11353785D02*
X285990476Y-11229976D01*
X285990476Y-11229976D02*
X285990476Y-10920452D01*
X285990476Y-10920452D02*
X285928571Y-10796642D01*
X285928571Y-10796642D02*
X285866666Y-10734738D01*
X285866666Y-10734738D02*
X285742857Y-10672833D01*
X285742857Y-10672833D02*
X285495238Y-10672833D01*
X285495238Y-10672833D02*
X285371428Y-10734738D01*
X285371428Y-10734738D02*
X285309523Y-10796642D01*
X285309523Y-10796642D02*
X285247619Y-10920452D01*
D10*
D11*
X60000000Y-198007200D02*
X60000000Y-200007200D01*
D10*
D11*
X110000000Y-198007200D02*
X110000000Y-200007200D01*
D10*
D11*
X160000000Y-198007200D02*
X160000000Y-200007200D01*
D10*
D11*
X210000000Y-198007200D02*
X210000000Y-200007200D01*
D10*
D11*
X260000000Y-198007200D02*
X260000000Y-200007200D01*
D10*
D11*
X35990476Y-199484795D02*
X35247619Y-199484795D01*
X35619047Y-199484795D02*
X35619047Y-198184795D01*
X35619047Y-198184795D02*
X35495238Y-198370509D01*
X35495238Y-198370509D02*
X35371428Y-198494319D01*
X35371428Y-198494319D02*
X35247619Y-198556223D01*
D10*
D11*
X85247619Y-198308604D02*
X85309523Y-198246700D01*
X85309523Y-198246700D02*
X85433333Y-198184795D01*
X85433333Y-198184795D02*
X85742857Y-198184795D01*
X85742857Y-198184795D02*
X85866666Y-198246700D01*
X85866666Y-198246700D02*
X85928571Y-198308604D01*
X85928571Y-198308604D02*
X85990476Y-198432414D01*
X85990476Y-198432414D02*
X85990476Y-198556223D01*
X85990476Y-198556223D02*
X85928571Y-198741938D01*
X85928571Y-198741938D02*
X85185714Y-199484795D01*
X85185714Y-199484795D02*
X85990476Y-199484795D01*
D10*
D11*
X135185714Y-198184795D02*
X135990476Y-198184795D01*
X135990476Y-198184795D02*
X135557142Y-198680033D01*
X135557142Y-198680033D02*
X135742857Y-198680033D01*
X135742857Y-198680033D02*
X135866666Y-198741938D01*
X135866666Y-198741938D02*
X135928571Y-198803842D01*
X135928571Y-198803842D02*
X135990476Y-198927652D01*
X135990476Y-198927652D02*
X135990476Y-199237176D01*
X135990476Y-199237176D02*
X135928571Y-199360985D01*
X135928571Y-199360985D02*
X135866666Y-199422890D01*
X135866666Y-199422890D02*
X135742857Y-199484795D01*
X135742857Y-199484795D02*
X135371428Y-199484795D01*
X135371428Y-199484795D02*
X135247619Y-199422890D01*
X135247619Y-199422890D02*
X135185714Y-199360985D01*
D10*
D11*
X185866666Y-198618128D02*
X185866666Y-199484795D01*
X185557142Y-198122890D02*
X185247619Y-199051461D01*
X185247619Y-199051461D02*
X186052380Y-199051461D01*
D10*
D11*
X235928571Y-198184795D02*
X235309523Y-198184795D01*
X235309523Y-198184795D02*
X235247619Y-198803842D01*
X235247619Y-198803842D02*
X235309523Y-198741938D01*
X235309523Y-198741938D02*
X235433333Y-198680033D01*
X235433333Y-198680033D02*
X235742857Y-198680033D01*
X235742857Y-198680033D02*
X235866666Y-198741938D01*
X235866666Y-198741938D02*
X235928571Y-198803842D01*
X235928571Y-198803842D02*
X235990476Y-198927652D01*
X235990476Y-198927652D02*
X235990476Y-199237176D01*
X235990476Y-199237176D02*
X235928571Y-199360985D01*
X235928571Y-199360985D02*
X235866666Y-199422890D01*
X235866666Y-199422890D02*
X235742857Y-199484795D01*
X235742857Y-199484795D02*
X235433333Y-199484795D01*
X235433333Y-199484795D02*
X235309523Y-199422890D01*
X235309523Y-199422890D02*
X235247619Y-199360985D01*
D10*
D11*
X285866666Y-198184795D02*
X285619047Y-198184795D01*
X285619047Y-198184795D02*
X285495238Y-198246700D01*
X285495238Y-198246700D02*
X285433333Y-198308604D01*
X285433333Y-198308604D02*
X285309523Y-198494319D01*
X285309523Y-198494319D02*
X285247619Y-198741938D01*
X285247619Y-198741938D02*
X285247619Y-199237176D01*
X285247619Y-199237176D02*
X285309523Y-199360985D01*
X285309523Y-199360985D02*
X285371428Y-199422890D01*
X285371428Y-199422890D02*
X285495238Y-199484795D01*
X285495238Y-199484795D02*
X285742857Y-199484795D01*
X285742857Y-199484795D02*
X285866666Y-199422890D01*
X285866666Y-199422890D02*
X285928571Y-199360985D01*
X285928571Y-199360985D02*
X285990476Y-199237176D01*
X285990476Y-199237176D02*
X285990476Y-198927652D01*
X285990476Y-198927652D02*
X285928571Y-198803842D01*
X285928571Y-198803842D02*
X285866666Y-198741938D01*
X285866666Y-198741938D02*
X285742857Y-198680033D01*
X285742857Y-198680033D02*
X285495238Y-198680033D01*
X285495238Y-198680033D02*
X285371428Y-198741938D01*
X285371428Y-198741938D02*
X285309523Y-198803842D01*
X285309523Y-198803842D02*
X285247619Y-198927652D01*
D10*
D11*
X10000000Y-60000000D02*
X12000000Y-60000000D01*
D10*
D11*
X10000000Y-110000000D02*
X12000000Y-110000000D01*
D10*
D11*
X10000000Y-160000000D02*
X12000000Y-160000000D01*
D10*
D11*
X10690476Y-35106166D02*
X11309523Y-35106166D01*
X10566666Y-35477595D02*
X10999999Y-34177595D01*
X10999999Y-34177595D02*
X11433333Y-35477595D01*
D10*
D11*
X11092857Y-84796642D02*
X11278571Y-84858547D01*
X11278571Y-84858547D02*
X11340476Y-84920452D01*
X11340476Y-84920452D02*
X11402380Y-85044261D01*
X11402380Y-85044261D02*
X11402380Y-85229976D01*
X11402380Y-85229976D02*
X11340476Y-85353785D01*
X11340476Y-85353785D02*
X11278571Y-85415690D01*
X11278571Y-85415690D02*
X11154761Y-85477595D01*
X11154761Y-85477595D02*
X10659523Y-85477595D01*
X10659523Y-85477595D02*
X10659523Y-84177595D01*
X10659523Y-84177595D02*
X11092857Y-84177595D01*
X11092857Y-84177595D02*
X11216666Y-84239500D01*
X11216666Y-84239500D02*
X11278571Y-84301404D01*
X11278571Y-84301404D02*
X11340476Y-84425214D01*
X11340476Y-84425214D02*
X11340476Y-84549023D01*
X11340476Y-84549023D02*
X11278571Y-84672833D01*
X11278571Y-84672833D02*
X11216666Y-84734738D01*
X11216666Y-84734738D02*
X11092857Y-84796642D01*
X11092857Y-84796642D02*
X10659523Y-84796642D01*
D10*
D11*
X11402380Y-135353785D02*
X11340476Y-135415690D01*
X11340476Y-135415690D02*
X11154761Y-135477595D01*
X11154761Y-135477595D02*
X11030952Y-135477595D01*
X11030952Y-135477595D02*
X10845238Y-135415690D01*
X10845238Y-135415690D02*
X10721428Y-135291880D01*
X10721428Y-135291880D02*
X10659523Y-135168071D01*
X10659523Y-135168071D02*
X10597619Y-134920452D01*
X10597619Y-134920452D02*
X10597619Y-134734738D01*
X10597619Y-134734738D02*
X10659523Y-134487119D01*
X10659523Y-134487119D02*
X10721428Y-134363309D01*
X10721428Y-134363309D02*
X10845238Y-134239500D01*
X10845238Y-134239500D02*
X11030952Y-134177595D01*
X11030952Y-134177595D02*
X11154761Y-134177595D01*
X11154761Y-134177595D02*
X11340476Y-134239500D01*
X11340476Y-134239500D02*
X11402380Y-134301404D01*
D10*
D11*
X10659523Y-185477595D02*
X10659523Y-184177595D01*
X10659523Y-184177595D02*
X10969047Y-184177595D01*
X10969047Y-184177595D02*
X11154761Y-184239500D01*
X11154761Y-184239500D02*
X11278571Y-184363309D01*
X11278571Y-184363309D02*
X11340476Y-184487119D01*
X11340476Y-184487119D02*
X11402380Y-184734738D01*
X11402380Y-184734738D02*
X11402380Y-184920452D01*
X11402380Y-184920452D02*
X11340476Y-185168071D01*
X11340476Y-185168071D02*
X11278571Y-185291880D01*
X11278571Y-185291880D02*
X11154761Y-185415690D01*
X11154761Y-185415690D02*
X10969047Y-185477595D01*
X10969047Y-185477595D02*
X10659523Y-185477595D01*
D10*
D11*
X287002200Y-60000000D02*
X285002200Y-60000000D01*
D10*
D11*
X287002200Y-110000000D02*
X285002200Y-110000000D01*
D10*
D11*
X287002200Y-160000000D02*
X285002200Y-160000000D01*
D10*
D11*
X285692676Y-35106166D02*
X286311723Y-35106166D01*
X285568866Y-35477595D02*
X286002199Y-34177595D01*
X286002199Y-34177595D02*
X286435533Y-35477595D01*
D10*
D11*
X286095057Y-84796642D02*
X286280771Y-84858547D01*
X286280771Y-84858547D02*
X286342676Y-84920452D01*
X286342676Y-84920452D02*
X286404580Y-85044261D01*
X286404580Y-85044261D02*
X286404580Y-85229976D01*
X286404580Y-85229976D02*
X286342676Y-85353785D01*
X286342676Y-85353785D02*
X286280771Y-85415690D01*
X286280771Y-85415690D02*
X286156961Y-85477595D01*
X286156961Y-85477595D02*
X285661723Y-85477595D01*
X285661723Y-85477595D02*
X285661723Y-84177595D01*
X285661723Y-84177595D02*
X286095057Y-84177595D01*
X286095057Y-84177595D02*
X286218866Y-84239500D01*
X286218866Y-84239500D02*
X286280771Y-84301404D01*
X286280771Y-84301404D02*
X286342676Y-84425214D01*
X286342676Y-84425214D02*
X286342676Y-84549023D01*
X286342676Y-84549023D02*
X286280771Y-84672833D01*
X286280771Y-84672833D02*
X286218866Y-84734738D01*
X286218866Y-84734738D02*
X286095057Y-84796642D01*
X286095057Y-84796642D02*
X285661723Y-84796642D01*
D10*
D11*
X286404580Y-135353785D02*
X286342676Y-135415690D01*
X286342676Y-135415690D02*
X286156961Y-135477595D01*
X286156961Y-135477595D02*
X286033152Y-135477595D01*
X286033152Y-135477595D02*
X285847438Y-135415690D01*
X285847438Y-135415690D02*
X285723628Y-135291880D01*
X285723628Y-135291880D02*
X285661723Y-135168071D01*
X285661723Y-135168071D02*
X285599819Y-134920452D01*
X285599819Y-134920452D02*
X285599819Y-134734738D01*
X285599819Y-134734738D02*
X285661723Y-134487119D01*
X285661723Y-134487119D02*
X285723628Y-134363309D01*
X285723628Y-134363309D02*
X285847438Y-134239500D01*
X285847438Y-134239500D02*
X286033152Y-134177595D01*
X286033152Y-134177595D02*
X286156961Y-134177595D01*
X286156961Y-134177595D02*
X286342676Y-134239500D01*
X286342676Y-134239500D02*
X286404580Y-134301404D01*
D10*
D11*
X285661723Y-185477595D02*
X285661723Y-184177595D01*
X285661723Y-184177595D02*
X285971247Y-184177595D01*
X285971247Y-184177595D02*
X286156961Y-184239500D01*
X286156961Y-184239500D02*
X286280771Y-184363309D01*
X286280771Y-184363309D02*
X286342676Y-184487119D01*
X286342676Y-184487119D02*
X286404580Y-184734738D01*
X286404580Y-184734738D02*
X286404580Y-184920452D01*
X286404580Y-184920452D02*
X286342676Y-185168071D01*
X286342676Y-185168071D02*
X286280771Y-185291880D01*
X286280771Y-185291880D02*
X286156961Y-185415690D01*
X286156961Y-185415690D02*
X285971247Y-185477595D01*
X285971247Y-185477595D02*
X285661723Y-185477595D01*
D10*
D11*
X200359342Y-193658271D02*
X200359342Y-192158271D01*
X200359342Y-192158271D02*
X200716485Y-192158271D01*
X200716485Y-192158271D02*
X200930771Y-192229700D01*
X200930771Y-192229700D02*
X201073628Y-192372557D01*
X201073628Y-192372557D02*
X201145057Y-192515414D01*
X201145057Y-192515414D02*
X201216485Y-192801128D01*
X201216485Y-192801128D02*
X201216485Y-193015414D01*
X201216485Y-193015414D02*
X201145057Y-193301128D01*
X201145057Y-193301128D02*
X201073628Y-193443985D01*
X201073628Y-193443985D02*
X200930771Y-193586842D01*
X200930771Y-193586842D02*
X200716485Y-193658271D01*
X200716485Y-193658271D02*
X200359342Y-193658271D01*
X202502200Y-193658271D02*
X202502200Y-192872557D01*
X202502200Y-192872557D02*
X202430771Y-192729700D01*
X202430771Y-192729700D02*
X202287914Y-192658271D01*
X202287914Y-192658271D02*
X202002200Y-192658271D01*
X202002200Y-192658271D02*
X201859342Y-192729700D01*
X202502200Y-193586842D02*
X202359342Y-193658271D01*
X202359342Y-193658271D02*
X202002200Y-193658271D01*
X202002200Y-193658271D02*
X201859342Y-193586842D01*
X201859342Y-193586842D02*
X201787914Y-193443985D01*
X201787914Y-193443985D02*
X201787914Y-193301128D01*
X201787914Y-193301128D02*
X201859342Y-193158271D01*
X201859342Y-193158271D02*
X202002200Y-193086842D01*
X202002200Y-193086842D02*
X202359342Y-193086842D01*
X202359342Y-193086842D02*
X202502200Y-193015414D01*
X203002200Y-192658271D02*
X203573628Y-192658271D01*
X203216485Y-192158271D02*
X203216485Y-193443985D01*
X203216485Y-193443985D02*
X203287914Y-193586842D01*
X203287914Y-193586842D02*
X203430771Y-193658271D01*
X203430771Y-193658271D02*
X203573628Y-193658271D01*
X204645057Y-193586842D02*
X204502200Y-193658271D01*
X204502200Y-193658271D02*
X204216486Y-193658271D01*
X204216486Y-193658271D02*
X204073628Y-193586842D01*
X204073628Y-193586842D02*
X204002200Y-193443985D01*
X204002200Y-193443985D02*
X204002200Y-192872557D01*
X204002200Y-192872557D02*
X204073628Y-192729700D01*
X204073628Y-192729700D02*
X204216486Y-192658271D01*
X204216486Y-192658271D02*
X204502200Y-192658271D01*
X204502200Y-192658271D02*
X204645057Y-192729700D01*
X204645057Y-192729700D02*
X204716486Y-192872557D01*
X204716486Y-192872557D02*
X204716486Y-193015414D01*
X204716486Y-193015414D02*
X204002200Y-193158271D01*
X205359342Y-193515414D02*
X205430771Y-193586842D01*
X205430771Y-193586842D02*
X205359342Y-193658271D01*
X205359342Y-193658271D02*
X205287914Y-193586842D01*
X205287914Y-193586842D02*
X205359342Y-193515414D01*
X205359342Y-193515414D02*
X205359342Y-193658271D01*
X205359342Y-192729700D02*
X205430771Y-192801128D01*
X205430771Y-192801128D02*
X205359342Y-192872557D01*
X205359342Y-192872557D02*
X205287914Y-192801128D01*
X205287914Y-192801128D02*
X205359342Y-192729700D01*
X205359342Y-192729700D02*
X205359342Y-192872557D01*
D10*
D11*
X177002200Y-194507200D02*
X285002200Y-194507200D01*
D10*
D11*
X178359342Y-196458271D02*
X178359342Y-194958271D01*
X179216485Y-196458271D02*
X178573628Y-195601128D01*
X179216485Y-194958271D02*
X178359342Y-195815414D01*
X179859342Y-196458271D02*
X179859342Y-195458271D01*
X179859342Y-194958271D02*
X179787914Y-195029700D01*
X179787914Y-195029700D02*
X179859342Y-195101128D01*
X179859342Y-195101128D02*
X179930771Y-195029700D01*
X179930771Y-195029700D02*
X179859342Y-194958271D01*
X179859342Y-194958271D02*
X179859342Y-195101128D01*
X181430771Y-196315414D02*
X181359343Y-196386842D01*
X181359343Y-196386842D02*
X181145057Y-196458271D01*
X181145057Y-196458271D02*
X181002200Y-196458271D01*
X181002200Y-196458271D02*
X180787914Y-196386842D01*
X180787914Y-196386842D02*
X180645057Y-196243985D01*
X180645057Y-196243985D02*
X180573628Y-196101128D01*
X180573628Y-196101128D02*
X180502200Y-195815414D01*
X180502200Y-195815414D02*
X180502200Y-195601128D01*
X180502200Y-195601128D02*
X180573628Y-195315414D01*
X180573628Y-195315414D02*
X180645057Y-195172557D01*
X180645057Y-195172557D02*
X180787914Y-195029700D01*
X180787914Y-195029700D02*
X181002200Y-194958271D01*
X181002200Y-194958271D02*
X181145057Y-194958271D01*
X181145057Y-194958271D02*
X181359343Y-195029700D01*
X181359343Y-195029700D02*
X181430771Y-195101128D01*
X182716486Y-196458271D02*
X182716486Y-195672557D01*
X182716486Y-195672557D02*
X182645057Y-195529700D01*
X182645057Y-195529700D02*
X182502200Y-195458271D01*
X182502200Y-195458271D02*
X182216486Y-195458271D01*
X182216486Y-195458271D02*
X182073628Y-195529700D01*
X182716486Y-196386842D02*
X182573628Y-196458271D01*
X182573628Y-196458271D02*
X182216486Y-196458271D01*
X182216486Y-196458271D02*
X182073628Y-196386842D01*
X182073628Y-196386842D02*
X182002200Y-196243985D01*
X182002200Y-196243985D02*
X182002200Y-196101128D01*
X182002200Y-196101128D02*
X182073628Y-195958271D01*
X182073628Y-195958271D02*
X182216486Y-195886842D01*
X182216486Y-195886842D02*
X182573628Y-195886842D01*
X182573628Y-195886842D02*
X182716486Y-195815414D01*
X184073629Y-196458271D02*
X184073629Y-194958271D01*
X184073629Y-196386842D02*
X183930771Y-196458271D01*
X183930771Y-196458271D02*
X183645057Y-196458271D01*
X183645057Y-196458271D02*
X183502200Y-196386842D01*
X183502200Y-196386842D02*
X183430771Y-196315414D01*
X183430771Y-196315414D02*
X183359343Y-196172557D01*
X183359343Y-196172557D02*
X183359343Y-195743985D01*
X183359343Y-195743985D02*
X183430771Y-195601128D01*
X183430771Y-195601128D02*
X183502200Y-195529700D01*
X183502200Y-195529700D02*
X183645057Y-195458271D01*
X183645057Y-195458271D02*
X183930771Y-195458271D01*
X183930771Y-195458271D02*
X184073629Y-195529700D01*
X185687914Y-195672557D02*
X186187914Y-195672557D01*
X186402200Y-196458271D02*
X185687914Y-196458271D01*
X185687914Y-196458271D02*
X185687914Y-194958271D01*
X185687914Y-194958271D02*
X186402200Y-194958271D01*
X187045057Y-196315414D02*
X187116486Y-196386842D01*
X187116486Y-196386842D02*
X187045057Y-196458271D01*
X187045057Y-196458271D02*
X186973629Y-196386842D01*
X186973629Y-196386842D02*
X187045057Y-196315414D01*
X187045057Y-196315414D02*
X187045057Y-196458271D01*
X187759343Y-196458271D02*
X187759343Y-194958271D01*
X187759343Y-194958271D02*
X188116486Y-194958271D01*
X188116486Y-194958271D02*
X188330772Y-195029700D01*
X188330772Y-195029700D02*
X188473629Y-195172557D01*
X188473629Y-195172557D02*
X188545058Y-195315414D01*
X188545058Y-195315414D02*
X188616486Y-195601128D01*
X188616486Y-195601128D02*
X188616486Y-195815414D01*
X188616486Y-195815414D02*
X188545058Y-196101128D01*
X188545058Y-196101128D02*
X188473629Y-196243985D01*
X188473629Y-196243985D02*
X188330772Y-196386842D01*
X188330772Y-196386842D02*
X188116486Y-196458271D01*
X188116486Y-196458271D02*
X187759343Y-196458271D01*
X189259343Y-196315414D02*
X189330772Y-196386842D01*
X189330772Y-196386842D02*
X189259343Y-196458271D01*
X189259343Y-196458271D02*
X189187915Y-196386842D01*
X189187915Y-196386842D02*
X189259343Y-196315414D01*
X189259343Y-196315414D02*
X189259343Y-196458271D01*
X189902201Y-196029700D02*
X190616487Y-196029700D01*
X189759344Y-196458271D02*
X190259344Y-194958271D01*
X190259344Y-194958271D02*
X190759344Y-196458271D01*
X191259343Y-196315414D02*
X191330772Y-196386842D01*
X191330772Y-196386842D02*
X191259343Y-196458271D01*
X191259343Y-196458271D02*
X191187915Y-196386842D01*
X191187915Y-196386842D02*
X191259343Y-196315414D01*
X191259343Y-196315414D02*
X191259343Y-196458271D01*
X193773629Y-196458271D02*
X193773629Y-194958271D01*
X193916487Y-195886842D02*
X194345058Y-196458271D01*
X194345058Y-195458271D02*
X193773629Y-196029700D01*
X194987915Y-196458271D02*
X194987915Y-195458271D01*
X194987915Y-194958271D02*
X194916487Y-195029700D01*
X194916487Y-195029700D02*
X194987915Y-195101128D01*
X194987915Y-195101128D02*
X195059344Y-195029700D01*
X195059344Y-195029700D02*
X194987915Y-194958271D01*
X194987915Y-194958271D02*
X194987915Y-195101128D01*
X196345059Y-196386842D02*
X196202201Y-196458271D01*
X196202201Y-196458271D02*
X195916487Y-196458271D01*
X195916487Y-196458271D02*
X195773630Y-196386842D01*
X195773630Y-196386842D02*
X195702201Y-196315414D01*
X195702201Y-196315414D02*
X195630773Y-196172557D01*
X195630773Y-196172557D02*
X195630773Y-195743985D01*
X195630773Y-195743985D02*
X195702201Y-195601128D01*
X195702201Y-195601128D02*
X195773630Y-195529700D01*
X195773630Y-195529700D02*
X195916487Y-195458271D01*
X195916487Y-195458271D02*
X196202201Y-195458271D01*
X196202201Y-195458271D02*
X196345059Y-195529700D01*
X197630773Y-196458271D02*
X197630773Y-195672557D01*
X197630773Y-195672557D02*
X197559344Y-195529700D01*
X197559344Y-195529700D02*
X197416487Y-195458271D01*
X197416487Y-195458271D02*
X197130773Y-195458271D01*
X197130773Y-195458271D02*
X196987915Y-195529700D01*
X197630773Y-196386842D02*
X197487915Y-196458271D01*
X197487915Y-196458271D02*
X197130773Y-196458271D01*
X197130773Y-196458271D02*
X196987915Y-196386842D01*
X196987915Y-196386842D02*
X196916487Y-196243985D01*
X196916487Y-196243985D02*
X196916487Y-196101128D01*
X196916487Y-196101128D02*
X196987915Y-195958271D01*
X196987915Y-195958271D02*
X197130773Y-195886842D01*
X197130773Y-195886842D02*
X197487915Y-195886842D01*
X197487915Y-195886842D02*
X197630773Y-195815414D01*
X198987916Y-196458271D02*
X198987916Y-194958271D01*
X198987916Y-196386842D02*
X198845058Y-196458271D01*
X198845058Y-196458271D02*
X198559344Y-196458271D01*
X198559344Y-196458271D02*
X198416487Y-196386842D01*
X198416487Y-196386842D02*
X198345058Y-196315414D01*
X198345058Y-196315414D02*
X198273630Y-196172557D01*
X198273630Y-196172557D02*
X198273630Y-195743985D01*
X198273630Y-195743985D02*
X198345058Y-195601128D01*
X198345058Y-195601128D02*
X198416487Y-195529700D01*
X198416487Y-195529700D02*
X198559344Y-195458271D01*
X198559344Y-195458271D02*
X198845058Y-195458271D01*
X198845058Y-195458271D02*
X198987916Y-195529700D01*
X201030773Y-197029700D02*
X200959344Y-196958271D01*
X200959344Y-196958271D02*
X200816487Y-196743985D01*
X200816487Y-196743985D02*
X200745059Y-196601128D01*
X200745059Y-196601128D02*
X200673630Y-196386842D01*
X200673630Y-196386842D02*
X200602201Y-196029700D01*
X200602201Y-196029700D02*
X200602201Y-195743985D01*
X200602201Y-195743985D02*
X200673630Y-195386842D01*
X200673630Y-195386842D02*
X200745059Y-195172557D01*
X200745059Y-195172557D02*
X200816487Y-195029700D01*
X200816487Y-195029700D02*
X200959344Y-194815414D01*
X200959344Y-194815414D02*
X201030773Y-194743985D01*
X201459344Y-194958271D02*
X202459344Y-194958271D01*
X202459344Y-194958271D02*
X201816487Y-196458271D01*
X203030772Y-196315414D02*
X203102201Y-196386842D01*
X203102201Y-196386842D02*
X203030772Y-196458271D01*
X203030772Y-196458271D02*
X202959344Y-196386842D01*
X202959344Y-196386842D02*
X203030772Y-196315414D01*
X203030772Y-196315414D02*
X203030772Y-196458271D01*
X204030773Y-194958271D02*
X204173630Y-194958271D01*
X204173630Y-194958271D02*
X204316487Y-195029700D01*
X204316487Y-195029700D02*
X204387916Y-195101128D01*
X204387916Y-195101128D02*
X204459344Y-195243985D01*
X204459344Y-195243985D02*
X204530773Y-195529700D01*
X204530773Y-195529700D02*
X204530773Y-195886842D01*
X204530773Y-195886842D02*
X204459344Y-196172557D01*
X204459344Y-196172557D02*
X204387916Y-196315414D01*
X204387916Y-196315414D02*
X204316487Y-196386842D01*
X204316487Y-196386842D02*
X204173630Y-196458271D01*
X204173630Y-196458271D02*
X204030773Y-196458271D01*
X204030773Y-196458271D02*
X203887916Y-196386842D01*
X203887916Y-196386842D02*
X203816487Y-196315414D01*
X203816487Y-196315414D02*
X203745058Y-196172557D01*
X203745058Y-196172557D02*
X203673630Y-195886842D01*
X203673630Y-195886842D02*
X203673630Y-195529700D01*
X203673630Y-195529700D02*
X203745058Y-195243985D01*
X203745058Y-195243985D02*
X203816487Y-195101128D01*
X203816487Y-195101128D02*
X203887916Y-195029700D01*
X203887916Y-195029700D02*
X204030773Y-194958271D01*
X205173629Y-196315414D02*
X205245058Y-196386842D01*
X205245058Y-196386842D02*
X205173629Y-196458271D01*
X205173629Y-196458271D02*
X205102201Y-196386842D01*
X205102201Y-196386842D02*
X205173629Y-196315414D01*
X205173629Y-196315414D02*
X205173629Y-196458271D01*
X206173630Y-194958271D02*
X206316487Y-194958271D01*
X206316487Y-194958271D02*
X206459344Y-195029700D01*
X206459344Y-195029700D02*
X206530773Y-195101128D01*
X206530773Y-195101128D02*
X206602201Y-195243985D01*
X206602201Y-195243985D02*
X206673630Y-195529700D01*
X206673630Y-195529700D02*
X206673630Y-195886842D01*
X206673630Y-195886842D02*
X206602201Y-196172557D01*
X206602201Y-196172557D02*
X206530773Y-196315414D01*
X206530773Y-196315414D02*
X206459344Y-196386842D01*
X206459344Y-196386842D02*
X206316487Y-196458271D01*
X206316487Y-196458271D02*
X206173630Y-196458271D01*
X206173630Y-196458271D02*
X206030773Y-196386842D01*
X206030773Y-196386842D02*
X205959344Y-196315414D01*
X205959344Y-196315414D02*
X205887915Y-196172557D01*
X205887915Y-196172557D02*
X205816487Y-195886842D01*
X205816487Y-195886842D02*
X205816487Y-195529700D01*
X205816487Y-195529700D02*
X205887915Y-195243985D01*
X205887915Y-195243985D02*
X205959344Y-195101128D01*
X205959344Y-195101128D02*
X206030773Y-195029700D01*
X206030773Y-195029700D02*
X206173630Y-194958271D01*
X207173629Y-197029700D02*
X207245058Y-196958271D01*
X207245058Y-196958271D02*
X207387915Y-196743985D01*
X207387915Y-196743985D02*
X207459344Y-196601128D01*
X207459344Y-196601128D02*
X207530772Y-196386842D01*
X207530772Y-196386842D02*
X207602201Y-196029700D01*
X207602201Y-196029700D02*
X207602201Y-195743985D01*
X207602201Y-195743985D02*
X207530772Y-195386842D01*
X207530772Y-195386842D02*
X207459344Y-195172557D01*
X207459344Y-195172557D02*
X207387915Y-195029700D01*
X207387915Y-195029700D02*
X207245058Y-194815414D01*
X207245058Y-194815414D02*
X207173629Y-194743985D01*
D10*
D11*
X177002200Y-191507200D02*
X285002200Y-191507200D01*
D10*
D12*
X264216485Y-193658271D02*
X263716485Y-192943985D01*
X263359342Y-193658271D02*
X263359342Y-192158271D01*
X263359342Y-192158271D02*
X263930771Y-192158271D01*
X263930771Y-192158271D02*
X264073628Y-192229700D01*
X264073628Y-192229700D02*
X264145057Y-192301128D01*
X264145057Y-192301128D02*
X264216485Y-192443985D01*
X264216485Y-192443985D02*
X264216485Y-192658271D01*
X264216485Y-192658271D02*
X264145057Y-192801128D01*
X264145057Y-192801128D02*
X264073628Y-192872557D01*
X264073628Y-192872557D02*
X263930771Y-192943985D01*
X263930771Y-192943985D02*
X263359342Y-192943985D01*
X265430771Y-193586842D02*
X265287914Y-193658271D01*
X265287914Y-193658271D02*
X265002200Y-193658271D01*
X265002200Y-193658271D02*
X264859342Y-193586842D01*
X264859342Y-193586842D02*
X264787914Y-193443985D01*
X264787914Y-193443985D02*
X264787914Y-192872557D01*
X264787914Y-192872557D02*
X264859342Y-192729700D01*
X264859342Y-192729700D02*
X265002200Y-192658271D01*
X265002200Y-192658271D02*
X265287914Y-192658271D01*
X265287914Y-192658271D02*
X265430771Y-192729700D01*
X265430771Y-192729700D02*
X265502200Y-192872557D01*
X265502200Y-192872557D02*
X265502200Y-193015414D01*
X265502200Y-193015414D02*
X264787914Y-193158271D01*
X266002199Y-192658271D02*
X266359342Y-193658271D01*
X266359342Y-193658271D02*
X266716485Y-192658271D01*
X267287913Y-193515414D02*
X267359342Y-193586842D01*
X267359342Y-193586842D02*
X267287913Y-193658271D01*
X267287913Y-193658271D02*
X267216485Y-193586842D01*
X267216485Y-193586842D02*
X267287913Y-193515414D01*
X267287913Y-193515414D02*
X267287913Y-193658271D01*
X267287913Y-192729700D02*
X267359342Y-192801128D01*
X267359342Y-192801128D02*
X267287913Y-192872557D01*
X267287913Y-192872557D02*
X267216485Y-192801128D01*
X267216485Y-192801128D02*
X267287913Y-192729700D01*
X267287913Y-192729700D02*
X267287913Y-192872557D01*
D10*
D11*
X178287914Y-193586842D02*
X178502200Y-193658271D01*
X178502200Y-193658271D02*
X178859342Y-193658271D01*
X178859342Y-193658271D02*
X179002200Y-193586842D01*
X179002200Y-193586842D02*
X179073628Y-193515414D01*
X179073628Y-193515414D02*
X179145057Y-193372557D01*
X179145057Y-193372557D02*
X179145057Y-193229700D01*
X179145057Y-193229700D02*
X179073628Y-193086842D01*
X179073628Y-193086842D02*
X179002200Y-193015414D01*
X179002200Y-193015414D02*
X178859342Y-192943985D01*
X178859342Y-192943985D02*
X178573628Y-192872557D01*
X178573628Y-192872557D02*
X178430771Y-192801128D01*
X178430771Y-192801128D02*
X178359342Y-192729700D01*
X178359342Y-192729700D02*
X178287914Y-192586842D01*
X178287914Y-192586842D02*
X178287914Y-192443985D01*
X178287914Y-192443985D02*
X178359342Y-192301128D01*
X178359342Y-192301128D02*
X178430771Y-192229700D01*
X178430771Y-192229700D02*
X178573628Y-192158271D01*
X178573628Y-192158271D02*
X178930771Y-192158271D01*
X178930771Y-192158271D02*
X179145057Y-192229700D01*
X179787913Y-193658271D02*
X179787913Y-192658271D01*
X179787913Y-192158271D02*
X179716485Y-192229700D01*
X179716485Y-192229700D02*
X179787913Y-192301128D01*
X179787913Y-192301128D02*
X179859342Y-192229700D01*
X179859342Y-192229700D02*
X179787913Y-192158271D01*
X179787913Y-192158271D02*
X179787913Y-192301128D01*
X180359342Y-192658271D02*
X181145057Y-192658271D01*
X181145057Y-192658271D02*
X180359342Y-193658271D01*
X180359342Y-193658271D02*
X181145057Y-193658271D01*
X182287914Y-193586842D02*
X182145057Y-193658271D01*
X182145057Y-193658271D02*
X181859343Y-193658271D01*
X181859343Y-193658271D02*
X181716485Y-193586842D01*
X181716485Y-193586842D02*
X181645057Y-193443985D01*
X181645057Y-193443985D02*
X181645057Y-192872557D01*
X181645057Y-192872557D02*
X181716485Y-192729700D01*
X181716485Y-192729700D02*
X181859343Y-192658271D01*
X181859343Y-192658271D02*
X182145057Y-192658271D01*
X182145057Y-192658271D02*
X182287914Y-192729700D01*
X182287914Y-192729700D02*
X182359343Y-192872557D01*
X182359343Y-192872557D02*
X182359343Y-193015414D01*
X182359343Y-193015414D02*
X181645057Y-193158271D01*
X183002199Y-193515414D02*
X183073628Y-193586842D01*
X183073628Y-193586842D02*
X183002199Y-193658271D01*
X183002199Y-193658271D02*
X182930771Y-193586842D01*
X182930771Y-193586842D02*
X183002199Y-193515414D01*
X183002199Y-193515414D02*
X183002199Y-193658271D01*
X183002199Y-192729700D02*
X183073628Y-192801128D01*
X183073628Y-192801128D02*
X183002199Y-192872557D01*
X183002199Y-192872557D02*
X182930771Y-192801128D01*
X182930771Y-192801128D02*
X183002199Y-192729700D01*
X183002199Y-192729700D02*
X183002199Y-192872557D01*
X184545057Y-193229700D02*
X185259343Y-193229700D01*
X184402200Y-193658271D02*
X184902200Y-192158271D01*
X184902200Y-192158271D02*
X185402200Y-193658271D01*
X186545057Y-192658271D02*
X186545057Y-193658271D01*
X186187914Y-192086842D02*
X185830771Y-193158271D01*
X185830771Y-193158271D02*
X186759342Y-193158271D01*
D10*
D11*
X263359342Y-196458271D02*
X263359342Y-194958271D01*
X264716486Y-196458271D02*
X264716486Y-194958271D01*
X264716486Y-196386842D02*
X264573628Y-196458271D01*
X264573628Y-196458271D02*
X264287914Y-196458271D01*
X264287914Y-196458271D02*
X264145057Y-196386842D01*
X264145057Y-196386842D02*
X264073628Y-196315414D01*
X264073628Y-196315414D02*
X264002200Y-196172557D01*
X264002200Y-196172557D02*
X264002200Y-195743985D01*
X264002200Y-195743985D02*
X264073628Y-195601128D01*
X264073628Y-195601128D02*
X264145057Y-195529700D01*
X264145057Y-195529700D02*
X264287914Y-195458271D01*
X264287914Y-195458271D02*
X264573628Y-195458271D01*
X264573628Y-195458271D02*
X264716486Y-195529700D01*
X265430771Y-196315414D02*
X265502200Y-196386842D01*
X265502200Y-196386842D02*
X265430771Y-196458271D01*
X265430771Y-196458271D02*
X265359343Y-196386842D01*
X265359343Y-196386842D02*
X265430771Y-196315414D01*
X265430771Y-196315414D02*
X265430771Y-196458271D01*
X265430771Y-195529700D02*
X265502200Y-195601128D01*
X265502200Y-195601128D02*
X265430771Y-195672557D01*
X265430771Y-195672557D02*
X265359343Y-195601128D01*
X265359343Y-195601128D02*
X265430771Y-195529700D01*
X265430771Y-195529700D02*
X265430771Y-195672557D01*
X267830772Y-196458271D02*
X266973629Y-196458271D01*
X267402200Y-196458271D02*
X267402200Y-194958271D01*
X267402200Y-194958271D02*
X267259343Y-195172557D01*
X267259343Y-195172557D02*
X267116486Y-195315414D01*
X267116486Y-195315414D02*
X266973629Y-195386842D01*
X269545057Y-194886842D02*
X268259343Y-196815414D01*
X270830772Y-196458271D02*
X269973629Y-196458271D01*
X270402200Y-196458271D02*
X270402200Y-194958271D01*
X270402200Y-194958271D02*
X270259343Y-195172557D01*
X270259343Y-195172557D02*
X270116486Y-195315414D01*
X270116486Y-195315414D02*
X269973629Y-195386842D01*
D10*
D11*
X177002200Y-187507200D02*
X285002200Y-187507200D01*
D10*
D13*
X178454580Y-188041961D02*
X179597438Y-188041961D01*
X178776009Y-190041961D02*
X179026009Y-188041961D01*
X180014105Y-190041961D02*
X180180771Y-188708628D01*
X180264105Y-188041961D02*
X180156962Y-188137200D01*
X180156962Y-188137200D02*
X180240295Y-188232438D01*
X180240295Y-188232438D02*
X180347438Y-188137200D01*
X180347438Y-188137200D02*
X180264105Y-188041961D01*
X180264105Y-188041961D02*
X180240295Y-188232438D01*
X180847438Y-188708628D02*
X181609343Y-188708628D01*
X181216486Y-188041961D02*
X181002200Y-189756247D01*
X181002200Y-189756247D02*
X181073629Y-189946723D01*
X181073629Y-189946723D02*
X181252200Y-190041961D01*
X181252200Y-190041961D02*
X181442676Y-190041961D01*
X182395057Y-190041961D02*
X182216486Y-189946723D01*
X182216486Y-189946723D02*
X182145057Y-189756247D01*
X182145057Y-189756247D02*
X182359343Y-188041961D01*
X183930771Y-189946723D02*
X183728390Y-190041961D01*
X183728390Y-190041961D02*
X183347438Y-190041961D01*
X183347438Y-190041961D02*
X183168867Y-189946723D01*
X183168867Y-189946723D02*
X183097438Y-189756247D01*
X183097438Y-189756247D02*
X183192676Y-188994342D01*
X183192676Y-188994342D02*
X183311724Y-188803866D01*
X183311724Y-188803866D02*
X183514105Y-188708628D01*
X183514105Y-188708628D02*
X183895057Y-188708628D01*
X183895057Y-188708628D02*
X184073628Y-188803866D01*
X184073628Y-188803866D02*
X184145057Y-188994342D01*
X184145057Y-188994342D02*
X184121247Y-189184819D01*
X184121247Y-189184819D02*
X183145057Y-189375295D01*
X184895057Y-189851485D02*
X184978391Y-189946723D01*
X184978391Y-189946723D02*
X184871248Y-190041961D01*
X184871248Y-190041961D02*
X184787914Y-189946723D01*
X184787914Y-189946723D02*
X184895057Y-189851485D01*
X184895057Y-189851485D02*
X184871248Y-190041961D01*
X185026010Y-188803866D02*
X185109343Y-188899104D01*
X185109343Y-188899104D02*
X185002200Y-188994342D01*
X185002200Y-188994342D02*
X184918867Y-188899104D01*
X184918867Y-188899104D02*
X185026010Y-188803866D01*
X185026010Y-188803866D02*
X185002200Y-188994342D01*
D10*
D11*
X178859342Y-185472557D02*
X178359342Y-185472557D01*
X178359342Y-186258271D02*
X178359342Y-184758271D01*
X178359342Y-184758271D02*
X179073628Y-184758271D01*
X179645056Y-186258271D02*
X179645056Y-185258271D01*
X179645056Y-184758271D02*
X179573628Y-184829700D01*
X179573628Y-184829700D02*
X179645056Y-184901128D01*
X179645056Y-184901128D02*
X179716485Y-184829700D01*
X179716485Y-184829700D02*
X179645056Y-184758271D01*
X179645056Y-184758271D02*
X179645056Y-184901128D01*
X180573628Y-186258271D02*
X180430771Y-186186842D01*
X180430771Y-186186842D02*
X180359342Y-186043985D01*
X180359342Y-186043985D02*
X180359342Y-184758271D01*
X181716485Y-186186842D02*
X181573628Y-186258271D01*
X181573628Y-186258271D02*
X181287914Y-186258271D01*
X181287914Y-186258271D02*
X181145056Y-186186842D01*
X181145056Y-186186842D02*
X181073628Y-186043985D01*
X181073628Y-186043985D02*
X181073628Y-185472557D01*
X181073628Y-185472557D02*
X181145056Y-185329700D01*
X181145056Y-185329700D02*
X181287914Y-185258271D01*
X181287914Y-185258271D02*
X181573628Y-185258271D01*
X181573628Y-185258271D02*
X181716485Y-185329700D01*
X181716485Y-185329700D02*
X181787914Y-185472557D01*
X181787914Y-185472557D02*
X181787914Y-185615414D01*
X181787914Y-185615414D02*
X181073628Y-185758271D01*
X182430770Y-186115414D02*
X182502199Y-186186842D01*
X182502199Y-186186842D02*
X182430770Y-186258271D01*
X182430770Y-186258271D02*
X182359342Y-186186842D01*
X182359342Y-186186842D02*
X182430770Y-186115414D01*
X182430770Y-186115414D02*
X182430770Y-186258271D01*
X182430770Y-185329700D02*
X182502199Y-185401128D01*
X182502199Y-185401128D02*
X182430770Y-185472557D01*
X182430770Y-185472557D02*
X182359342Y-185401128D01*
X182359342Y-185401128D02*
X182430770Y-185329700D01*
X182430770Y-185329700D02*
X182430770Y-185472557D01*
X184616485Y-186186842D02*
X184473628Y-186258271D01*
X184473628Y-186258271D02*
X184187914Y-186258271D01*
X184187914Y-186258271D02*
X184045056Y-186186842D01*
X184045056Y-186186842D02*
X183973628Y-186043985D01*
X183973628Y-186043985D02*
X183973628Y-185472557D01*
X183973628Y-185472557D02*
X184045056Y-185329700D01*
X184045056Y-185329700D02*
X184187914Y-185258271D01*
X184187914Y-185258271D02*
X184473628Y-185258271D01*
X184473628Y-185258271D02*
X184616485Y-185329700D01*
X184616485Y-185329700D02*
X184687914Y-185472557D01*
X184687914Y-185472557D02*
X184687914Y-185615414D01*
X184687914Y-185615414D02*
X183973628Y-185758271D01*
X185259342Y-186186842D02*
X185402199Y-186258271D01*
X185402199Y-186258271D02*
X185687913Y-186258271D01*
X185687913Y-186258271D02*
X185830770Y-186186842D01*
X185830770Y-186186842D02*
X185902199Y-186043985D01*
X185902199Y-186043985D02*
X185902199Y-185972557D01*
X185902199Y-185972557D02*
X185830770Y-185829700D01*
X185830770Y-185829700D02*
X185687913Y-185758271D01*
X185687913Y-185758271D02*
X185473628Y-185758271D01*
X185473628Y-185758271D02*
X185330770Y-185686842D01*
X185330770Y-185686842D02*
X185259342Y-185543985D01*
X185259342Y-185543985D02*
X185259342Y-185472557D01*
X185259342Y-185472557D02*
X185330770Y-185329700D01*
X185330770Y-185329700D02*
X185473628Y-185258271D01*
X185473628Y-185258271D02*
X185687913Y-185258271D01*
X185687913Y-185258271D02*
X185830770Y-185329700D01*
X186545056Y-185258271D02*
X186545056Y-186758271D01*
X186545056Y-185329700D02*
X186687914Y-185258271D01*
X186687914Y-185258271D02*
X186973628Y-185258271D01*
X186973628Y-185258271D02*
X187116485Y-185329700D01*
X187116485Y-185329700D02*
X187187914Y-185401128D01*
X187187914Y-185401128D02*
X187259342Y-185543985D01*
X187259342Y-185543985D02*
X187259342Y-185972557D01*
X187259342Y-185972557D02*
X187187914Y-186115414D01*
X187187914Y-186115414D02*
X187116485Y-186186842D01*
X187116485Y-186186842D02*
X186973628Y-186258271D01*
X186973628Y-186258271D02*
X186687914Y-186258271D01*
X186687914Y-186258271D02*
X186545056Y-186186842D01*
X187759342Y-184758271D02*
X188687914Y-184758271D01*
X188687914Y-184758271D02*
X188187914Y-185329700D01*
X188187914Y-185329700D02*
X188402199Y-185329700D01*
X188402199Y-185329700D02*
X188545057Y-185401128D01*
X188545057Y-185401128D02*
X188616485Y-185472557D01*
X188616485Y-185472557D02*
X188687914Y-185615414D01*
X188687914Y-185615414D02*
X188687914Y-185972557D01*
X188687914Y-185972557D02*
X188616485Y-186115414D01*
X188616485Y-186115414D02*
X188545057Y-186186842D01*
X188545057Y-186186842D02*
X188402199Y-186258271D01*
X188402199Y-186258271D02*
X187973628Y-186258271D01*
X187973628Y-186258271D02*
X187830771Y-186186842D01*
X187830771Y-186186842D02*
X187759342Y-186115414D01*
X189259342Y-184901128D02*
X189330770Y-184829700D01*
X189330770Y-184829700D02*
X189473628Y-184758271D01*
X189473628Y-184758271D02*
X189830770Y-184758271D01*
X189830770Y-184758271D02*
X189973628Y-184829700D01*
X189973628Y-184829700D02*
X190045056Y-184901128D01*
X190045056Y-184901128D02*
X190116485Y-185043985D01*
X190116485Y-185043985D02*
X190116485Y-185186842D01*
X190116485Y-185186842D02*
X190045056Y-185401128D01*
X190045056Y-185401128D02*
X189187913Y-186258271D01*
X189187913Y-186258271D02*
X190116485Y-186258271D01*
X190759341Y-185686842D02*
X191902199Y-185686842D01*
X193259342Y-186186842D02*
X193116484Y-186258271D01*
X193116484Y-186258271D02*
X192830770Y-186258271D01*
X192830770Y-186258271D02*
X192687913Y-186186842D01*
X192687913Y-186186842D02*
X192616484Y-186115414D01*
X192616484Y-186115414D02*
X192545056Y-185972557D01*
X192545056Y-185972557D02*
X192545056Y-185543985D01*
X192545056Y-185543985D02*
X192616484Y-185401128D01*
X192616484Y-185401128D02*
X192687913Y-185329700D01*
X192687913Y-185329700D02*
X192830770Y-185258271D01*
X192830770Y-185258271D02*
X193116484Y-185258271D01*
X193116484Y-185258271D02*
X193259342Y-185329700D01*
X193759341Y-184758271D02*
X194687913Y-184758271D01*
X194687913Y-184758271D02*
X194187913Y-185329700D01*
X194187913Y-185329700D02*
X194402198Y-185329700D01*
X194402198Y-185329700D02*
X194545056Y-185401128D01*
X194545056Y-185401128D02*
X194616484Y-185472557D01*
X194616484Y-185472557D02*
X194687913Y-185615414D01*
X194687913Y-185615414D02*
X194687913Y-185972557D01*
X194687913Y-185972557D02*
X194616484Y-186115414D01*
X194616484Y-186115414D02*
X194545056Y-186186842D01*
X194545056Y-186186842D02*
X194402198Y-186258271D01*
X194402198Y-186258271D02*
X193973627Y-186258271D01*
X193973627Y-186258271D02*
X193830770Y-186186842D01*
X193830770Y-186186842D02*
X193759341Y-186115414D01*
X195330769Y-185686842D02*
X196473627Y-185686842D01*
X197045055Y-185258271D02*
X197402198Y-186258271D01*
X197402198Y-186258271D02*
X197759341Y-185258271D01*
X198902198Y-186186842D02*
X198759341Y-186258271D01*
X198759341Y-186258271D02*
X198473627Y-186258271D01*
X198473627Y-186258271D02*
X198330769Y-186186842D01*
X198330769Y-186186842D02*
X198259341Y-186043985D01*
X198259341Y-186043985D02*
X198259341Y-185472557D01*
X198259341Y-185472557D02*
X198330769Y-185329700D01*
X198330769Y-185329700D02*
X198473627Y-185258271D01*
X198473627Y-185258271D02*
X198759341Y-185258271D01*
X198759341Y-185258271D02*
X198902198Y-185329700D01*
X198902198Y-185329700D02*
X198973627Y-185472557D01*
X198973627Y-185472557D02*
X198973627Y-185615414D01*
X198973627Y-185615414D02*
X198259341Y-185758271D01*
X199545055Y-186186842D02*
X199687912Y-186258271D01*
X199687912Y-186258271D02*
X199973626Y-186258271D01*
X199973626Y-186258271D02*
X200116483Y-186186842D01*
X200116483Y-186186842D02*
X200187912Y-186043985D01*
X200187912Y-186043985D02*
X200187912Y-185972557D01*
X200187912Y-185972557D02*
X200116483Y-185829700D01*
X200116483Y-185829700D02*
X199973626Y-185758271D01*
X199973626Y-185758271D02*
X199759341Y-185758271D01*
X199759341Y-185758271D02*
X199616483Y-185686842D01*
X199616483Y-185686842D02*
X199545055Y-185543985D01*
X199545055Y-185543985D02*
X199545055Y-185472557D01*
X199545055Y-185472557D02*
X199616483Y-185329700D01*
X199616483Y-185329700D02*
X199759341Y-185258271D01*
X199759341Y-185258271D02*
X199973626Y-185258271D01*
X199973626Y-185258271D02*
X200116483Y-185329700D01*
X201473627Y-186186842D02*
X201330769Y-186258271D01*
X201330769Y-186258271D02*
X201045055Y-186258271D01*
X201045055Y-186258271D02*
X200902198Y-186186842D01*
X200902198Y-186186842D02*
X200830769Y-186115414D01*
X200830769Y-186115414D02*
X200759341Y-185972557D01*
X200759341Y-185972557D02*
X200759341Y-185543985D01*
X200759341Y-185543985D02*
X200830769Y-185401128D01*
X200830769Y-185401128D02*
X200902198Y-185329700D01*
X200902198Y-185329700D02*
X201045055Y-185258271D01*
X201045055Y-185258271D02*
X201330769Y-185258271D01*
X201330769Y-185258271D02*
X201473627Y-185329700D01*
X202116483Y-185686842D02*
X203259341Y-185686842D01*
X204545055Y-186186842D02*
X204402198Y-186258271D01*
X204402198Y-186258271D02*
X204116484Y-186258271D01*
X204116484Y-186258271D02*
X203973626Y-186186842D01*
X203973626Y-186186842D02*
X203902198Y-186043985D01*
X203902198Y-186043985D02*
X203902198Y-185472557D01*
X203902198Y-185472557D02*
X203973626Y-185329700D01*
X203973626Y-185329700D02*
X204116484Y-185258271D01*
X204116484Y-185258271D02*
X204402198Y-185258271D01*
X204402198Y-185258271D02*
X204545055Y-185329700D01*
X204545055Y-185329700D02*
X204616484Y-185472557D01*
X204616484Y-185472557D02*
X204616484Y-185615414D01*
X204616484Y-185615414D02*
X203902198Y-185758271D01*
X205116483Y-186258271D02*
X205902198Y-185258271D01*
X205116483Y-185258271D02*
X205902198Y-186258271D01*
X206473626Y-185258271D02*
X206473626Y-186758271D01*
X206473626Y-185329700D02*
X206616484Y-185258271D01*
X206616484Y-185258271D02*
X206902198Y-185258271D01*
X206902198Y-185258271D02*
X207045055Y-185329700D01*
X207045055Y-185329700D02*
X207116484Y-185401128D01*
X207116484Y-185401128D02*
X207187912Y-185543985D01*
X207187912Y-185543985D02*
X207187912Y-185972557D01*
X207187912Y-185972557D02*
X207116484Y-186115414D01*
X207116484Y-186115414D02*
X207045055Y-186186842D01*
X207045055Y-186186842D02*
X206902198Y-186258271D01*
X206902198Y-186258271D02*
X206616484Y-186258271D01*
X206616484Y-186258271D02*
X206473626Y-186186842D01*
X207830769Y-186258271D02*
X207830769Y-185258271D01*
X207830769Y-185543985D02*
X207902198Y-185401128D01*
X207902198Y-185401128D02*
X207973627Y-185329700D01*
X207973627Y-185329700D02*
X208116484Y-185258271D01*
X208116484Y-185258271D02*
X208259341Y-185258271D01*
X209330769Y-186186842D02*
X209187912Y-186258271D01*
X209187912Y-186258271D02*
X208902198Y-186258271D01*
X208902198Y-186258271D02*
X208759340Y-186186842D01*
X208759340Y-186186842D02*
X208687912Y-186043985D01*
X208687912Y-186043985D02*
X208687912Y-185472557D01*
X208687912Y-185472557D02*
X208759340Y-185329700D01*
X208759340Y-185329700D02*
X208902198Y-185258271D01*
X208902198Y-185258271D02*
X209187912Y-185258271D01*
X209187912Y-185258271D02*
X209330769Y-185329700D01*
X209330769Y-185329700D02*
X209402198Y-185472557D01*
X209402198Y-185472557D02*
X209402198Y-185615414D01*
X209402198Y-185615414D02*
X208687912Y-185758271D01*
X209973626Y-186186842D02*
X210116483Y-186258271D01*
X210116483Y-186258271D02*
X210402197Y-186258271D01*
X210402197Y-186258271D02*
X210545054Y-186186842D01*
X210545054Y-186186842D02*
X210616483Y-186043985D01*
X210616483Y-186043985D02*
X210616483Y-185972557D01*
X210616483Y-185972557D02*
X210545054Y-185829700D01*
X210545054Y-185829700D02*
X210402197Y-185758271D01*
X210402197Y-185758271D02*
X210187912Y-185758271D01*
X210187912Y-185758271D02*
X210045054Y-185686842D01*
X210045054Y-185686842D02*
X209973626Y-185543985D01*
X209973626Y-185543985D02*
X209973626Y-185472557D01*
X209973626Y-185472557D02*
X210045054Y-185329700D01*
X210045054Y-185329700D02*
X210187912Y-185258271D01*
X210187912Y-185258271D02*
X210402197Y-185258271D01*
X210402197Y-185258271D02*
X210545054Y-185329700D01*
X211187912Y-186186842D02*
X211330769Y-186258271D01*
X211330769Y-186258271D02*
X211616483Y-186258271D01*
X211616483Y-186258271D02*
X211759340Y-186186842D01*
X211759340Y-186186842D02*
X211830769Y-186043985D01*
X211830769Y-186043985D02*
X211830769Y-185972557D01*
X211830769Y-185972557D02*
X211759340Y-185829700D01*
X211759340Y-185829700D02*
X211616483Y-185758271D01*
X211616483Y-185758271D02*
X211402198Y-185758271D01*
X211402198Y-185758271D02*
X211259340Y-185686842D01*
X211259340Y-185686842D02*
X211187912Y-185543985D01*
X211187912Y-185543985D02*
X211187912Y-185472557D01*
X211187912Y-185472557D02*
X211259340Y-185329700D01*
X211259340Y-185329700D02*
X211402198Y-185258271D01*
X211402198Y-185258271D02*
X211616483Y-185258271D01*
X211616483Y-185258271D02*
X211759340Y-185329700D01*
X212473626Y-185686842D02*
X213616484Y-185686842D01*
X214973627Y-185258271D02*
X214973627Y-186472557D01*
X214973627Y-186472557D02*
X214902198Y-186615414D01*
X214902198Y-186615414D02*
X214830769Y-186686842D01*
X214830769Y-186686842D02*
X214687912Y-186758271D01*
X214687912Y-186758271D02*
X214473627Y-186758271D01*
X214473627Y-186758271D02*
X214330769Y-186686842D01*
X214973627Y-186186842D02*
X214830769Y-186258271D01*
X214830769Y-186258271D02*
X214545055Y-186258271D01*
X214545055Y-186258271D02*
X214402198Y-186186842D01*
X214402198Y-186186842D02*
X214330769Y-186115414D01*
X214330769Y-186115414D02*
X214259341Y-185972557D01*
X214259341Y-185972557D02*
X214259341Y-185543985D01*
X214259341Y-185543985D02*
X214330769Y-185401128D01*
X214330769Y-185401128D02*
X214402198Y-185329700D01*
X214402198Y-185329700D02*
X214545055Y-185258271D01*
X214545055Y-185258271D02*
X214830769Y-185258271D01*
X214830769Y-185258271D02*
X214973627Y-185329700D01*
X215687912Y-186258271D02*
X215687912Y-184758271D01*
X216330770Y-186258271D02*
X216330770Y-185472557D01*
X216330770Y-185472557D02*
X216259341Y-185329700D01*
X216259341Y-185329700D02*
X216116484Y-185258271D01*
X216116484Y-185258271D02*
X215902198Y-185258271D01*
X215902198Y-185258271D02*
X215759341Y-185329700D01*
X215759341Y-185329700D02*
X215687912Y-185401128D01*
X216687913Y-186401128D02*
X217830770Y-186401128D01*
X218830770Y-186186842D02*
X218687912Y-186258271D01*
X218687912Y-186258271D02*
X218402198Y-186258271D01*
X218402198Y-186258271D02*
X218259341Y-186186842D01*
X218259341Y-186186842D02*
X218187912Y-186115414D01*
X218187912Y-186115414D02*
X218116484Y-185972557D01*
X218116484Y-185972557D02*
X218116484Y-185543985D01*
X218116484Y-185543985D02*
X218187912Y-185401128D01*
X218187912Y-185401128D02*
X218259341Y-185329700D01*
X218259341Y-185329700D02*
X218402198Y-185258271D01*
X218402198Y-185258271D02*
X218687912Y-185258271D01*
X218687912Y-185258271D02*
X218830770Y-185329700D01*
X219687912Y-186258271D02*
X219545055Y-186186842D01*
X219545055Y-186186842D02*
X219473626Y-186115414D01*
X219473626Y-186115414D02*
X219402198Y-185972557D01*
X219402198Y-185972557D02*
X219402198Y-185543985D01*
X219402198Y-185543985D02*
X219473626Y-185401128D01*
X219473626Y-185401128D02*
X219545055Y-185329700D01*
X219545055Y-185329700D02*
X219687912Y-185258271D01*
X219687912Y-185258271D02*
X219902198Y-185258271D01*
X219902198Y-185258271D02*
X220045055Y-185329700D01*
X220045055Y-185329700D02*
X220116484Y-185401128D01*
X220116484Y-185401128D02*
X220187912Y-185543985D01*
X220187912Y-185543985D02*
X220187912Y-185972557D01*
X220187912Y-185972557D02*
X220116484Y-186115414D01*
X220116484Y-186115414D02*
X220045055Y-186186842D01*
X220045055Y-186186842D02*
X219902198Y-186258271D01*
X219902198Y-186258271D02*
X219687912Y-186258271D01*
X220830769Y-185258271D02*
X220830769Y-186258271D01*
X220830769Y-185401128D02*
X220902198Y-185329700D01*
X220902198Y-185329700D02*
X221045055Y-185258271D01*
X221045055Y-185258271D02*
X221259341Y-185258271D01*
X221259341Y-185258271D02*
X221402198Y-185329700D01*
X221402198Y-185329700D02*
X221473627Y-185472557D01*
X221473627Y-185472557D02*
X221473627Y-186258271D01*
X222187912Y-185258271D02*
X222187912Y-186258271D01*
X222187912Y-185401128D02*
X222259341Y-185329700D01*
X222259341Y-185329700D02*
X222402198Y-185258271D01*
X222402198Y-185258271D02*
X222616484Y-185258271D01*
X222616484Y-185258271D02*
X222759341Y-185329700D01*
X222759341Y-185329700D02*
X222830770Y-185472557D01*
X222830770Y-185472557D02*
X222830770Y-186258271D01*
X224116484Y-186186842D02*
X223973627Y-186258271D01*
X223973627Y-186258271D02*
X223687913Y-186258271D01*
X223687913Y-186258271D02*
X223545055Y-186186842D01*
X223545055Y-186186842D02*
X223473627Y-186043985D01*
X223473627Y-186043985D02*
X223473627Y-185472557D01*
X223473627Y-185472557D02*
X223545055Y-185329700D01*
X223545055Y-185329700D02*
X223687913Y-185258271D01*
X223687913Y-185258271D02*
X223973627Y-185258271D01*
X223973627Y-185258271D02*
X224116484Y-185329700D01*
X224116484Y-185329700D02*
X224187913Y-185472557D01*
X224187913Y-185472557D02*
X224187913Y-185615414D01*
X224187913Y-185615414D02*
X223473627Y-185758271D01*
X225473627Y-186186842D02*
X225330769Y-186258271D01*
X225330769Y-186258271D02*
X225045055Y-186258271D01*
X225045055Y-186258271D02*
X224902198Y-186186842D01*
X224902198Y-186186842D02*
X224830769Y-186115414D01*
X224830769Y-186115414D02*
X224759341Y-185972557D01*
X224759341Y-185972557D02*
X224759341Y-185543985D01*
X224759341Y-185543985D02*
X224830769Y-185401128D01*
X224830769Y-185401128D02*
X224902198Y-185329700D01*
X224902198Y-185329700D02*
X225045055Y-185258271D01*
X225045055Y-185258271D02*
X225330769Y-185258271D01*
X225330769Y-185258271D02*
X225473627Y-185329700D01*
X225902198Y-185258271D02*
X226473626Y-185258271D01*
X226116483Y-184758271D02*
X226116483Y-186043985D01*
X226116483Y-186043985D02*
X226187912Y-186186842D01*
X226187912Y-186186842D02*
X226330769Y-186258271D01*
X226330769Y-186258271D02*
X226473626Y-186258271D01*
X227187912Y-186258271D02*
X227045055Y-186186842D01*
X227045055Y-186186842D02*
X226973626Y-186115414D01*
X226973626Y-186115414D02*
X226902198Y-185972557D01*
X226902198Y-185972557D02*
X226902198Y-185543985D01*
X226902198Y-185543985D02*
X226973626Y-185401128D01*
X226973626Y-185401128D02*
X227045055Y-185329700D01*
X227045055Y-185329700D02*
X227187912Y-185258271D01*
X227187912Y-185258271D02*
X227402198Y-185258271D01*
X227402198Y-185258271D02*
X227545055Y-185329700D01*
X227545055Y-185329700D02*
X227616484Y-185401128D01*
X227616484Y-185401128D02*
X227687912Y-185543985D01*
X227687912Y-185543985D02*
X227687912Y-185972557D01*
X227687912Y-185972557D02*
X227616484Y-186115414D01*
X227616484Y-186115414D02*
X227545055Y-186186842D01*
X227545055Y-186186842D02*
X227402198Y-186258271D01*
X227402198Y-186258271D02*
X227187912Y-186258271D01*
X228330769Y-186258271D02*
X228330769Y-185258271D01*
X228330769Y-185543985D02*
X228402198Y-185401128D01*
X228402198Y-185401128D02*
X228473627Y-185329700D01*
X228473627Y-185329700D02*
X228616484Y-185258271D01*
X228616484Y-185258271D02*
X228759341Y-185258271D01*
X229187912Y-186186842D02*
X229330769Y-186258271D01*
X229330769Y-186258271D02*
X229616483Y-186258271D01*
X229616483Y-186258271D02*
X229759340Y-186186842D01*
X229759340Y-186186842D02*
X229830769Y-186043985D01*
X229830769Y-186043985D02*
X229830769Y-185972557D01*
X229830769Y-185972557D02*
X229759340Y-185829700D01*
X229759340Y-185829700D02*
X229616483Y-185758271D01*
X229616483Y-185758271D02*
X229402198Y-185758271D01*
X229402198Y-185758271D02*
X229259340Y-185686842D01*
X229259340Y-185686842D02*
X229187912Y-185543985D01*
X229187912Y-185543985D02*
X229187912Y-185472557D01*
X229187912Y-185472557D02*
X229259340Y-185329700D01*
X229259340Y-185329700D02*
X229402198Y-185258271D01*
X229402198Y-185258271D02*
X229616483Y-185258271D01*
X229616483Y-185258271D02*
X229759340Y-185329700D01*
X230473626Y-186115414D02*
X230545055Y-186186842D01*
X230545055Y-186186842D02*
X230473626Y-186258271D01*
X230473626Y-186258271D02*
X230402198Y-186186842D01*
X230402198Y-186186842D02*
X230473626Y-186115414D01*
X230473626Y-186115414D02*
X230473626Y-186258271D01*
X231187912Y-186258271D02*
X231187912Y-184758271D01*
X231330770Y-185686842D02*
X231759341Y-186258271D01*
X231759341Y-185258271D02*
X231187912Y-185829700D01*
X232402198Y-186258271D02*
X232402198Y-185258271D01*
X232402198Y-184758271D02*
X232330770Y-184829700D01*
X232330770Y-184829700D02*
X232402198Y-184901128D01*
X232402198Y-184901128D02*
X232473627Y-184829700D01*
X232473627Y-184829700D02*
X232402198Y-184758271D01*
X232402198Y-184758271D02*
X232402198Y-184901128D01*
X233759342Y-186186842D02*
X233616484Y-186258271D01*
X233616484Y-186258271D02*
X233330770Y-186258271D01*
X233330770Y-186258271D02*
X233187913Y-186186842D01*
X233187913Y-186186842D02*
X233116484Y-186115414D01*
X233116484Y-186115414D02*
X233045056Y-185972557D01*
X233045056Y-185972557D02*
X233045056Y-185543985D01*
X233045056Y-185543985D02*
X233116484Y-185401128D01*
X233116484Y-185401128D02*
X233187913Y-185329700D01*
X233187913Y-185329700D02*
X233330770Y-185258271D01*
X233330770Y-185258271D02*
X233616484Y-185258271D01*
X233616484Y-185258271D02*
X233759342Y-185329700D01*
X235045056Y-186258271D02*
X235045056Y-185472557D01*
X235045056Y-185472557D02*
X234973627Y-185329700D01*
X234973627Y-185329700D02*
X234830770Y-185258271D01*
X234830770Y-185258271D02*
X234545056Y-185258271D01*
X234545056Y-185258271D02*
X234402198Y-185329700D01*
X235045056Y-186186842D02*
X234902198Y-186258271D01*
X234902198Y-186258271D02*
X234545056Y-186258271D01*
X234545056Y-186258271D02*
X234402198Y-186186842D01*
X234402198Y-186186842D02*
X234330770Y-186043985D01*
X234330770Y-186043985D02*
X234330770Y-185901128D01*
X234330770Y-185901128D02*
X234402198Y-185758271D01*
X234402198Y-185758271D02*
X234545056Y-185686842D01*
X234545056Y-185686842D02*
X234902198Y-185686842D01*
X234902198Y-185686842D02*
X235045056Y-185615414D01*
X236402199Y-186258271D02*
X236402199Y-184758271D01*
X236402199Y-186186842D02*
X236259341Y-186258271D01*
X236259341Y-186258271D02*
X235973627Y-186258271D01*
X235973627Y-186258271D02*
X235830770Y-186186842D01*
X235830770Y-186186842D02*
X235759341Y-186115414D01*
X235759341Y-186115414D02*
X235687913Y-185972557D01*
X235687913Y-185972557D02*
X235687913Y-185543985D01*
X235687913Y-185543985D02*
X235759341Y-185401128D01*
X235759341Y-185401128D02*
X235830770Y-185329700D01*
X235830770Y-185329700D02*
X235973627Y-185258271D01*
X235973627Y-185258271D02*
X236259341Y-185258271D01*
X236259341Y-185258271D02*
X236402199Y-185329700D01*
X236759342Y-186401128D02*
X237902199Y-186401128D01*
X238259341Y-185258271D02*
X238259341Y-186758271D01*
X238259341Y-185329700D02*
X238402199Y-185258271D01*
X238402199Y-185258271D02*
X238687913Y-185258271D01*
X238687913Y-185258271D02*
X238830770Y-185329700D01*
X238830770Y-185329700D02*
X238902199Y-185401128D01*
X238902199Y-185401128D02*
X238973627Y-185543985D01*
X238973627Y-185543985D02*
X238973627Y-185972557D01*
X238973627Y-185972557D02*
X238902199Y-186115414D01*
X238902199Y-186115414D02*
X238830770Y-186186842D01*
X238830770Y-186186842D02*
X238687913Y-186258271D01*
X238687913Y-186258271D02*
X238402199Y-186258271D01*
X238402199Y-186258271D02*
X238259341Y-186186842D01*
X240259342Y-186186842D02*
X240116484Y-186258271D01*
X240116484Y-186258271D02*
X239830770Y-186258271D01*
X239830770Y-186258271D02*
X239687913Y-186186842D01*
X239687913Y-186186842D02*
X239616484Y-186115414D01*
X239616484Y-186115414D02*
X239545056Y-185972557D01*
X239545056Y-185972557D02*
X239545056Y-185543985D01*
X239545056Y-185543985D02*
X239616484Y-185401128D01*
X239616484Y-185401128D02*
X239687913Y-185329700D01*
X239687913Y-185329700D02*
X239830770Y-185258271D01*
X239830770Y-185258271D02*
X240116484Y-185258271D01*
X240116484Y-185258271D02*
X240259342Y-185329700D01*
X240902198Y-186258271D02*
X240902198Y-184758271D01*
X240902198Y-185329700D02*
X241045056Y-185258271D01*
X241045056Y-185258271D02*
X241330770Y-185258271D01*
X241330770Y-185258271D02*
X241473627Y-185329700D01*
X241473627Y-185329700D02*
X241545056Y-185401128D01*
X241545056Y-185401128D02*
X241616484Y-185543985D01*
X241616484Y-185543985D02*
X241616484Y-185972557D01*
X241616484Y-185972557D02*
X241545056Y-186115414D01*
X241545056Y-186115414D02*
X241473627Y-186186842D01*
X241473627Y-186186842D02*
X241330770Y-186258271D01*
X241330770Y-186258271D02*
X241045056Y-186258271D01*
X241045056Y-186258271D02*
X240902198Y-186186842D01*
D10*
D11*
X177002200Y-181507200D02*
X285002200Y-181507200D01*
D10*
D11*
X178287914Y-183486842D02*
X178502200Y-183558271D01*
X178502200Y-183558271D02*
X178859342Y-183558271D01*
X178859342Y-183558271D02*
X179002200Y-183486842D01*
X179002200Y-183486842D02*
X179073628Y-183415414D01*
X179073628Y-183415414D02*
X179145057Y-183272557D01*
X179145057Y-183272557D02*
X179145057Y-183129700D01*
X179145057Y-183129700D02*
X179073628Y-182986842D01*
X179073628Y-182986842D02*
X179002200Y-182915414D01*
X179002200Y-182915414D02*
X178859342Y-182843985D01*
X178859342Y-182843985D02*
X178573628Y-182772557D01*
X178573628Y-182772557D02*
X178430771Y-182701128D01*
X178430771Y-182701128D02*
X178359342Y-182629700D01*
X178359342Y-182629700D02*
X178287914Y-182486842D01*
X178287914Y-182486842D02*
X178287914Y-182343985D01*
X178287914Y-182343985D02*
X178359342Y-182201128D01*
X178359342Y-182201128D02*
X178430771Y-182129700D01*
X178430771Y-182129700D02*
X178573628Y-182058271D01*
X178573628Y-182058271D02*
X178930771Y-182058271D01*
X178930771Y-182058271D02*
X179145057Y-182129700D01*
X179787913Y-183558271D02*
X179787913Y-182058271D01*
X180430771Y-183558271D02*
X180430771Y-182772557D01*
X180430771Y-182772557D02*
X180359342Y-182629700D01*
X180359342Y-182629700D02*
X180216485Y-182558271D01*
X180216485Y-182558271D02*
X180002199Y-182558271D01*
X180002199Y-182558271D02*
X179859342Y-182629700D01*
X179859342Y-182629700D02*
X179787913Y-182701128D01*
X181716485Y-183486842D02*
X181573628Y-183558271D01*
X181573628Y-183558271D02*
X181287914Y-183558271D01*
X181287914Y-183558271D02*
X181145056Y-183486842D01*
X181145056Y-183486842D02*
X181073628Y-183343985D01*
X181073628Y-183343985D02*
X181073628Y-182772557D01*
X181073628Y-182772557D02*
X181145056Y-182629700D01*
X181145056Y-182629700D02*
X181287914Y-182558271D01*
X181287914Y-182558271D02*
X181573628Y-182558271D01*
X181573628Y-182558271D02*
X181716485Y-182629700D01*
X181716485Y-182629700D02*
X181787914Y-182772557D01*
X181787914Y-182772557D02*
X181787914Y-182915414D01*
X181787914Y-182915414D02*
X181073628Y-183058271D01*
X183002199Y-183486842D02*
X182859342Y-183558271D01*
X182859342Y-183558271D02*
X182573628Y-183558271D01*
X182573628Y-183558271D02*
X182430770Y-183486842D01*
X182430770Y-183486842D02*
X182359342Y-183343985D01*
X182359342Y-183343985D02*
X182359342Y-182772557D01*
X182359342Y-182772557D02*
X182430770Y-182629700D01*
X182430770Y-182629700D02*
X182573628Y-182558271D01*
X182573628Y-182558271D02*
X182859342Y-182558271D01*
X182859342Y-182558271D02*
X183002199Y-182629700D01*
X183002199Y-182629700D02*
X183073628Y-182772557D01*
X183073628Y-182772557D02*
X183073628Y-182915414D01*
X183073628Y-182915414D02*
X182359342Y-183058271D01*
X183502199Y-182558271D02*
X184073627Y-182558271D01*
X183716484Y-182058271D02*
X183716484Y-183343985D01*
X183716484Y-183343985D02*
X183787913Y-183486842D01*
X183787913Y-183486842D02*
X183930770Y-183558271D01*
X183930770Y-183558271D02*
X184073627Y-183558271D01*
X184573627Y-183415414D02*
X184645056Y-183486842D01*
X184645056Y-183486842D02*
X184573627Y-183558271D01*
X184573627Y-183558271D02*
X184502199Y-183486842D01*
X184502199Y-183486842D02*
X184573627Y-183415414D01*
X184573627Y-183415414D02*
X184573627Y-183558271D01*
X184573627Y-182629700D02*
X184645056Y-182701128D01*
X184645056Y-182701128D02*
X184573627Y-182772557D01*
X184573627Y-182772557D02*
X184502199Y-182701128D01*
X184502199Y-182701128D02*
X184573627Y-182629700D01*
X184573627Y-182629700D02*
X184573627Y-182772557D01*
D10*
D12*
D10*
D11*
D10*
D11*
D10*
D11*
D10*
D11*
D10*
D11*
X197002200Y-191507200D02*
X197002200Y-194507200D01*
D10*
D11*
X261002200Y-191507200D02*
X261002200Y-198007200D01*
D14*
%TO.C,J102*%
X146249999Y-79749999D03*
X145849999Y-78649999D03*
X146249999Y-77549999D03*
X146449999Y-76449999D03*
X146249999Y-75349999D03*
X146449999Y-74249999D03*
X146249999Y-73149999D03*
X146249999Y-72049999D03*
D15*
X135899999Y-72849999D03*
X135899999Y-78549999D03*
D16*
X149099999Y-71249999D03*
X150099999Y-84349999D03*
%TD*%
D17*
%TO.C,U102*%
X144799999Y-98699999D03*
X143999999Y-98699999D03*
X143199999Y-98699999D03*
X142399999Y-98699999D03*
X141599999Y-98699999D03*
X140799999Y-98699999D03*
X139999999Y-98699999D03*
X139199999Y-98699999D03*
X138399999Y-98699999D03*
X137599999Y-98699999D03*
X136799999Y-98699999D03*
D18*
X135899999Y-97599999D03*
X135899999Y-96799999D03*
X135899999Y-95999999D03*
X135899999Y-95199999D03*
X135899999Y-94399999D03*
X135899999Y-93599999D03*
X135899999Y-92799999D03*
X135899999Y-91999999D03*
X135899999Y-91199999D03*
X135899999Y-90399999D03*
X135899999Y-89599999D03*
X135899999Y-88799999D03*
X135899999Y-87999999D03*
D17*
X136799999Y-86899999D03*
X137599999Y-86899999D03*
X138399999Y-86899999D03*
X139199999Y-86899999D03*
X139999999Y-86899999D03*
X140799999Y-86899999D03*
X141599999Y-86899999D03*
X142399999Y-86899999D03*
X143199999Y-86899999D03*
X143999999Y-86899999D03*
X144799999Y-86899999D03*
D19*
X135849999Y-98749999D03*
X145749999Y-98749999D03*
D18*
X145699999Y-97599999D03*
X145699999Y-96799999D03*
X145699999Y-95999999D03*
X145699999Y-95199999D03*
D20*
X138824999Y-94774999D03*
X140799999Y-94774999D03*
D21*
X142775000Y-94775000D03*
D18*
X145699999Y-94399999D03*
X145699999Y-93599999D03*
D20*
X138824999Y-92799999D03*
X140799999Y-92799999D03*
X142774999Y-92799999D03*
D18*
X145699999Y-92799999D03*
X145699999Y-91999999D03*
X145699999Y-91199999D03*
D20*
X138824999Y-90824999D03*
X140799999Y-90824999D03*
X142774999Y-90824999D03*
D18*
X145699999Y-90399999D03*
X145699999Y-89599999D03*
X145699999Y-88799999D03*
X145699999Y-87999999D03*
D19*
X135849999Y-86849999D03*
X145749999Y-86849999D03*
%TD*%
M02*
