%TF.GenerationSoftware,KiCad,Pcbnew,(7.0.0)*%
%TF.CreationDate,2023-02-27T05:24:13-06:00*%
%TF.ProjectId,esp32-c3-vesc-express-gh_connectors,65737033-322d-4633-932d-766573632d65,rev?*%
%TF.SameCoordinates,Original*%
%TF.FileFunction,Copper,L3,Inr*%
%TF.FilePolarity,Positive*%
%FSLAX46Y46*%
G04 Gerber Fmt 4.6, Leading zero omitted, Abs format (unit mm)*
G04 Created by KiCad (PCBNEW (7.0.0)) date 2023-02-27 05:24:13*
%MOMM*%
%LPD*%
G01*
G04 APERTURE LIST*
%ADD10C,0.100000*%
%ADD11C,0.150000*%
%ADD12C,0.300000*%
%ADD13C,0.400000*%
%TA.AperFunction,ComponentPad*%
%ADD14C,0.650000*%
%TD*%
%TA.AperFunction,ViaPad*%
%ADD15C,0.600000*%
%TD*%
%TA.AperFunction,Conductor*%
%ADD16C,0.200000*%
%TD*%
%TA.AperFunction,Conductor*%
%ADD17C,0.300000*%
%TD*%
G04 APERTURE END LIST*
D10*
D11*
X177002200Y-166007200D02*
X285002200Y-166007200D01*
X285002200Y-198007200D01*
X177002200Y-198007200D01*
X177002200Y-166007200D01*
D10*
D11*
X10000000Y-10000000D02*
X287002200Y-10000000D01*
X287002200Y-200007200D01*
X10000000Y-200007200D01*
X10000000Y-10000000D01*
D10*
D11*
X12000000Y-12000000D02*
X285002200Y-12000000D01*
X285002200Y-198007200D01*
X12000000Y-198007200D01*
X12000000Y-12000000D01*
D10*
D11*
X60000000Y-12000000D02*
X60000000Y-10000000D01*
D10*
D11*
X110000000Y-12000000D02*
X110000000Y-10000000D01*
D10*
D11*
X160000000Y-12000000D02*
X160000000Y-10000000D01*
D10*
D11*
X210000000Y-12000000D02*
X210000000Y-10000000D01*
D10*
D11*
X260000000Y-12000000D02*
X260000000Y-10000000D01*
D10*
D11*
X35990476Y-11477595D02*
X35247619Y-11477595D01*
X35619047Y-11477595D02*
X35619047Y-10177595D01*
X35619047Y-10177595D02*
X35495238Y-10363309D01*
X35495238Y-10363309D02*
X35371428Y-10487119D01*
X35371428Y-10487119D02*
X35247619Y-10549023D01*
D10*
D11*
X85247619Y-10301404D02*
X85309523Y-10239500D01*
X85309523Y-10239500D02*
X85433333Y-10177595D01*
X85433333Y-10177595D02*
X85742857Y-10177595D01*
X85742857Y-10177595D02*
X85866666Y-10239500D01*
X85866666Y-10239500D02*
X85928571Y-10301404D01*
X85928571Y-10301404D02*
X85990476Y-10425214D01*
X85990476Y-10425214D02*
X85990476Y-10549023D01*
X85990476Y-10549023D02*
X85928571Y-10734738D01*
X85928571Y-10734738D02*
X85185714Y-11477595D01*
X85185714Y-11477595D02*
X85990476Y-11477595D01*
D10*
D11*
X135185714Y-10177595D02*
X135990476Y-10177595D01*
X135990476Y-10177595D02*
X135557142Y-10672833D01*
X135557142Y-10672833D02*
X135742857Y-10672833D01*
X135742857Y-10672833D02*
X135866666Y-10734738D01*
X135866666Y-10734738D02*
X135928571Y-10796642D01*
X135928571Y-10796642D02*
X135990476Y-10920452D01*
X135990476Y-10920452D02*
X135990476Y-11229976D01*
X135990476Y-11229976D02*
X135928571Y-11353785D01*
X135928571Y-11353785D02*
X135866666Y-11415690D01*
X135866666Y-11415690D02*
X135742857Y-11477595D01*
X135742857Y-11477595D02*
X135371428Y-11477595D01*
X135371428Y-11477595D02*
X135247619Y-11415690D01*
X135247619Y-11415690D02*
X135185714Y-11353785D01*
D10*
D11*
X185866666Y-10610928D02*
X185866666Y-11477595D01*
X185557142Y-10115690D02*
X185247619Y-11044261D01*
X185247619Y-11044261D02*
X186052380Y-11044261D01*
D10*
D11*
X235928571Y-10177595D02*
X235309523Y-10177595D01*
X235309523Y-10177595D02*
X235247619Y-10796642D01*
X235247619Y-10796642D02*
X235309523Y-10734738D01*
X235309523Y-10734738D02*
X235433333Y-10672833D01*
X235433333Y-10672833D02*
X235742857Y-10672833D01*
X235742857Y-10672833D02*
X235866666Y-10734738D01*
X235866666Y-10734738D02*
X235928571Y-10796642D01*
X235928571Y-10796642D02*
X235990476Y-10920452D01*
X235990476Y-10920452D02*
X235990476Y-11229976D01*
X235990476Y-11229976D02*
X235928571Y-11353785D01*
X235928571Y-11353785D02*
X235866666Y-11415690D01*
X235866666Y-11415690D02*
X235742857Y-11477595D01*
X235742857Y-11477595D02*
X235433333Y-11477595D01*
X235433333Y-11477595D02*
X235309523Y-11415690D01*
X235309523Y-11415690D02*
X235247619Y-11353785D01*
D10*
D11*
X285866666Y-10177595D02*
X285619047Y-10177595D01*
X285619047Y-10177595D02*
X285495238Y-10239500D01*
X285495238Y-10239500D02*
X285433333Y-10301404D01*
X285433333Y-10301404D02*
X285309523Y-10487119D01*
X285309523Y-10487119D02*
X285247619Y-10734738D01*
X285247619Y-10734738D02*
X285247619Y-11229976D01*
X285247619Y-11229976D02*
X285309523Y-11353785D01*
X285309523Y-11353785D02*
X285371428Y-11415690D01*
X285371428Y-11415690D02*
X285495238Y-11477595D01*
X285495238Y-11477595D02*
X285742857Y-11477595D01*
X285742857Y-11477595D02*
X285866666Y-11415690D01*
X285866666Y-11415690D02*
X285928571Y-11353785D01*
X285928571Y-11353785D02*
X285990476Y-11229976D01*
X285990476Y-11229976D02*
X285990476Y-10920452D01*
X285990476Y-10920452D02*
X285928571Y-10796642D01*
X285928571Y-10796642D02*
X285866666Y-10734738D01*
X285866666Y-10734738D02*
X285742857Y-10672833D01*
X285742857Y-10672833D02*
X285495238Y-10672833D01*
X285495238Y-10672833D02*
X285371428Y-10734738D01*
X285371428Y-10734738D02*
X285309523Y-10796642D01*
X285309523Y-10796642D02*
X285247619Y-10920452D01*
D10*
D11*
X60000000Y-198007200D02*
X60000000Y-200007200D01*
D10*
D11*
X110000000Y-198007200D02*
X110000000Y-200007200D01*
D10*
D11*
X160000000Y-198007200D02*
X160000000Y-200007200D01*
D10*
D11*
X210000000Y-198007200D02*
X210000000Y-200007200D01*
D10*
D11*
X260000000Y-198007200D02*
X260000000Y-200007200D01*
D10*
D11*
X35990476Y-199484795D02*
X35247619Y-199484795D01*
X35619047Y-199484795D02*
X35619047Y-198184795D01*
X35619047Y-198184795D02*
X35495238Y-198370509D01*
X35495238Y-198370509D02*
X35371428Y-198494319D01*
X35371428Y-198494319D02*
X35247619Y-198556223D01*
D10*
D11*
X85247619Y-198308604D02*
X85309523Y-198246700D01*
X85309523Y-198246700D02*
X85433333Y-198184795D01*
X85433333Y-198184795D02*
X85742857Y-198184795D01*
X85742857Y-198184795D02*
X85866666Y-198246700D01*
X85866666Y-198246700D02*
X85928571Y-198308604D01*
X85928571Y-198308604D02*
X85990476Y-198432414D01*
X85990476Y-198432414D02*
X85990476Y-198556223D01*
X85990476Y-198556223D02*
X85928571Y-198741938D01*
X85928571Y-198741938D02*
X85185714Y-199484795D01*
X85185714Y-199484795D02*
X85990476Y-199484795D01*
D10*
D11*
X135185714Y-198184795D02*
X135990476Y-198184795D01*
X135990476Y-198184795D02*
X135557142Y-198680033D01*
X135557142Y-198680033D02*
X135742857Y-198680033D01*
X135742857Y-198680033D02*
X135866666Y-198741938D01*
X135866666Y-198741938D02*
X135928571Y-198803842D01*
X135928571Y-198803842D02*
X135990476Y-198927652D01*
X135990476Y-198927652D02*
X135990476Y-199237176D01*
X135990476Y-199237176D02*
X135928571Y-199360985D01*
X135928571Y-199360985D02*
X135866666Y-199422890D01*
X135866666Y-199422890D02*
X135742857Y-199484795D01*
X135742857Y-199484795D02*
X135371428Y-199484795D01*
X135371428Y-199484795D02*
X135247619Y-199422890D01*
X135247619Y-199422890D02*
X135185714Y-199360985D01*
D10*
D11*
X185866666Y-198618128D02*
X185866666Y-199484795D01*
X185557142Y-198122890D02*
X185247619Y-199051461D01*
X185247619Y-199051461D02*
X186052380Y-199051461D01*
D10*
D11*
X235928571Y-198184795D02*
X235309523Y-198184795D01*
X235309523Y-198184795D02*
X235247619Y-198803842D01*
X235247619Y-198803842D02*
X235309523Y-198741938D01*
X235309523Y-198741938D02*
X235433333Y-198680033D01*
X235433333Y-198680033D02*
X235742857Y-198680033D01*
X235742857Y-198680033D02*
X235866666Y-198741938D01*
X235866666Y-198741938D02*
X235928571Y-198803842D01*
X235928571Y-198803842D02*
X235990476Y-198927652D01*
X235990476Y-198927652D02*
X235990476Y-199237176D01*
X235990476Y-199237176D02*
X235928571Y-199360985D01*
X235928571Y-199360985D02*
X235866666Y-199422890D01*
X235866666Y-199422890D02*
X235742857Y-199484795D01*
X235742857Y-199484795D02*
X235433333Y-199484795D01*
X235433333Y-199484795D02*
X235309523Y-199422890D01*
X235309523Y-199422890D02*
X235247619Y-199360985D01*
D10*
D11*
X285866666Y-198184795D02*
X285619047Y-198184795D01*
X285619047Y-198184795D02*
X285495238Y-198246700D01*
X285495238Y-198246700D02*
X285433333Y-198308604D01*
X285433333Y-198308604D02*
X285309523Y-198494319D01*
X285309523Y-198494319D02*
X285247619Y-198741938D01*
X285247619Y-198741938D02*
X285247619Y-199237176D01*
X285247619Y-199237176D02*
X285309523Y-199360985D01*
X285309523Y-199360985D02*
X285371428Y-199422890D01*
X285371428Y-199422890D02*
X285495238Y-199484795D01*
X285495238Y-199484795D02*
X285742857Y-199484795D01*
X285742857Y-199484795D02*
X285866666Y-199422890D01*
X285866666Y-199422890D02*
X285928571Y-199360985D01*
X285928571Y-199360985D02*
X285990476Y-199237176D01*
X285990476Y-199237176D02*
X285990476Y-198927652D01*
X285990476Y-198927652D02*
X285928571Y-198803842D01*
X285928571Y-198803842D02*
X285866666Y-198741938D01*
X285866666Y-198741938D02*
X285742857Y-198680033D01*
X285742857Y-198680033D02*
X285495238Y-198680033D01*
X285495238Y-198680033D02*
X285371428Y-198741938D01*
X285371428Y-198741938D02*
X285309523Y-198803842D01*
X285309523Y-198803842D02*
X285247619Y-198927652D01*
D10*
D11*
X10000000Y-60000000D02*
X12000000Y-60000000D01*
D10*
D11*
X10000000Y-110000000D02*
X12000000Y-110000000D01*
D10*
D11*
X10000000Y-160000000D02*
X12000000Y-160000000D01*
D10*
D11*
X10690476Y-35106166D02*
X11309523Y-35106166D01*
X10566666Y-35477595D02*
X10999999Y-34177595D01*
X10999999Y-34177595D02*
X11433333Y-35477595D01*
D10*
D11*
X11092857Y-84796642D02*
X11278571Y-84858547D01*
X11278571Y-84858547D02*
X11340476Y-84920452D01*
X11340476Y-84920452D02*
X11402380Y-85044261D01*
X11402380Y-85044261D02*
X11402380Y-85229976D01*
X11402380Y-85229976D02*
X11340476Y-85353785D01*
X11340476Y-85353785D02*
X11278571Y-85415690D01*
X11278571Y-85415690D02*
X11154761Y-85477595D01*
X11154761Y-85477595D02*
X10659523Y-85477595D01*
X10659523Y-85477595D02*
X10659523Y-84177595D01*
X10659523Y-84177595D02*
X11092857Y-84177595D01*
X11092857Y-84177595D02*
X11216666Y-84239500D01*
X11216666Y-84239500D02*
X11278571Y-84301404D01*
X11278571Y-84301404D02*
X11340476Y-84425214D01*
X11340476Y-84425214D02*
X11340476Y-84549023D01*
X11340476Y-84549023D02*
X11278571Y-84672833D01*
X11278571Y-84672833D02*
X11216666Y-84734738D01*
X11216666Y-84734738D02*
X11092857Y-84796642D01*
X11092857Y-84796642D02*
X10659523Y-84796642D01*
D10*
D11*
X11402380Y-135353785D02*
X11340476Y-135415690D01*
X11340476Y-135415690D02*
X11154761Y-135477595D01*
X11154761Y-135477595D02*
X11030952Y-135477595D01*
X11030952Y-135477595D02*
X10845238Y-135415690D01*
X10845238Y-135415690D02*
X10721428Y-135291880D01*
X10721428Y-135291880D02*
X10659523Y-135168071D01*
X10659523Y-135168071D02*
X10597619Y-134920452D01*
X10597619Y-134920452D02*
X10597619Y-134734738D01*
X10597619Y-134734738D02*
X10659523Y-134487119D01*
X10659523Y-134487119D02*
X10721428Y-134363309D01*
X10721428Y-134363309D02*
X10845238Y-134239500D01*
X10845238Y-134239500D02*
X11030952Y-134177595D01*
X11030952Y-134177595D02*
X11154761Y-134177595D01*
X11154761Y-134177595D02*
X11340476Y-134239500D01*
X11340476Y-134239500D02*
X11402380Y-134301404D01*
D10*
D11*
X10659523Y-185477595D02*
X10659523Y-184177595D01*
X10659523Y-184177595D02*
X10969047Y-184177595D01*
X10969047Y-184177595D02*
X11154761Y-184239500D01*
X11154761Y-184239500D02*
X11278571Y-184363309D01*
X11278571Y-184363309D02*
X11340476Y-184487119D01*
X11340476Y-184487119D02*
X11402380Y-184734738D01*
X11402380Y-184734738D02*
X11402380Y-184920452D01*
X11402380Y-184920452D02*
X11340476Y-185168071D01*
X11340476Y-185168071D02*
X11278571Y-185291880D01*
X11278571Y-185291880D02*
X11154761Y-185415690D01*
X11154761Y-185415690D02*
X10969047Y-185477595D01*
X10969047Y-185477595D02*
X10659523Y-185477595D01*
D10*
D11*
X287002200Y-60000000D02*
X285002200Y-60000000D01*
D10*
D11*
X287002200Y-110000000D02*
X285002200Y-110000000D01*
D10*
D11*
X287002200Y-160000000D02*
X285002200Y-160000000D01*
D10*
D11*
X285692676Y-35106166D02*
X286311723Y-35106166D01*
X285568866Y-35477595D02*
X286002199Y-34177595D01*
X286002199Y-34177595D02*
X286435533Y-35477595D01*
D10*
D11*
X286095057Y-84796642D02*
X286280771Y-84858547D01*
X286280771Y-84858547D02*
X286342676Y-84920452D01*
X286342676Y-84920452D02*
X286404580Y-85044261D01*
X286404580Y-85044261D02*
X286404580Y-85229976D01*
X286404580Y-85229976D02*
X286342676Y-85353785D01*
X286342676Y-85353785D02*
X286280771Y-85415690D01*
X286280771Y-85415690D02*
X286156961Y-85477595D01*
X286156961Y-85477595D02*
X285661723Y-85477595D01*
X285661723Y-85477595D02*
X285661723Y-84177595D01*
X285661723Y-84177595D02*
X286095057Y-84177595D01*
X286095057Y-84177595D02*
X286218866Y-84239500D01*
X286218866Y-84239500D02*
X286280771Y-84301404D01*
X286280771Y-84301404D02*
X286342676Y-84425214D01*
X286342676Y-84425214D02*
X286342676Y-84549023D01*
X286342676Y-84549023D02*
X286280771Y-84672833D01*
X286280771Y-84672833D02*
X286218866Y-84734738D01*
X286218866Y-84734738D02*
X286095057Y-84796642D01*
X286095057Y-84796642D02*
X285661723Y-84796642D01*
D10*
D11*
X286404580Y-135353785D02*
X286342676Y-135415690D01*
X286342676Y-135415690D02*
X286156961Y-135477595D01*
X286156961Y-135477595D02*
X286033152Y-135477595D01*
X286033152Y-135477595D02*
X285847438Y-135415690D01*
X285847438Y-135415690D02*
X285723628Y-135291880D01*
X285723628Y-135291880D02*
X285661723Y-135168071D01*
X285661723Y-135168071D02*
X285599819Y-134920452D01*
X285599819Y-134920452D02*
X285599819Y-134734738D01*
X285599819Y-134734738D02*
X285661723Y-134487119D01*
X285661723Y-134487119D02*
X285723628Y-134363309D01*
X285723628Y-134363309D02*
X285847438Y-134239500D01*
X285847438Y-134239500D02*
X286033152Y-134177595D01*
X286033152Y-134177595D02*
X286156961Y-134177595D01*
X286156961Y-134177595D02*
X286342676Y-134239500D01*
X286342676Y-134239500D02*
X286404580Y-134301404D01*
D10*
D11*
X285661723Y-185477595D02*
X285661723Y-184177595D01*
X285661723Y-184177595D02*
X285971247Y-184177595D01*
X285971247Y-184177595D02*
X286156961Y-184239500D01*
X286156961Y-184239500D02*
X286280771Y-184363309D01*
X286280771Y-184363309D02*
X286342676Y-184487119D01*
X286342676Y-184487119D02*
X286404580Y-184734738D01*
X286404580Y-184734738D02*
X286404580Y-184920452D01*
X286404580Y-184920452D02*
X286342676Y-185168071D01*
X286342676Y-185168071D02*
X286280771Y-185291880D01*
X286280771Y-185291880D02*
X286156961Y-185415690D01*
X286156961Y-185415690D02*
X285971247Y-185477595D01*
X285971247Y-185477595D02*
X285661723Y-185477595D01*
D10*
D11*
X200359342Y-193658271D02*
X200359342Y-192158271D01*
X200359342Y-192158271D02*
X200716485Y-192158271D01*
X200716485Y-192158271D02*
X200930771Y-192229700D01*
X200930771Y-192229700D02*
X201073628Y-192372557D01*
X201073628Y-192372557D02*
X201145057Y-192515414D01*
X201145057Y-192515414D02*
X201216485Y-192801128D01*
X201216485Y-192801128D02*
X201216485Y-193015414D01*
X201216485Y-193015414D02*
X201145057Y-193301128D01*
X201145057Y-193301128D02*
X201073628Y-193443985D01*
X201073628Y-193443985D02*
X200930771Y-193586842D01*
X200930771Y-193586842D02*
X200716485Y-193658271D01*
X200716485Y-193658271D02*
X200359342Y-193658271D01*
X202502200Y-193658271D02*
X202502200Y-192872557D01*
X202502200Y-192872557D02*
X202430771Y-192729700D01*
X202430771Y-192729700D02*
X202287914Y-192658271D01*
X202287914Y-192658271D02*
X202002200Y-192658271D01*
X202002200Y-192658271D02*
X201859342Y-192729700D01*
X202502200Y-193586842D02*
X202359342Y-193658271D01*
X202359342Y-193658271D02*
X202002200Y-193658271D01*
X202002200Y-193658271D02*
X201859342Y-193586842D01*
X201859342Y-193586842D02*
X201787914Y-193443985D01*
X201787914Y-193443985D02*
X201787914Y-193301128D01*
X201787914Y-193301128D02*
X201859342Y-193158271D01*
X201859342Y-193158271D02*
X202002200Y-193086842D01*
X202002200Y-193086842D02*
X202359342Y-193086842D01*
X202359342Y-193086842D02*
X202502200Y-193015414D01*
X203002200Y-192658271D02*
X203573628Y-192658271D01*
X203216485Y-192158271D02*
X203216485Y-193443985D01*
X203216485Y-193443985D02*
X203287914Y-193586842D01*
X203287914Y-193586842D02*
X203430771Y-193658271D01*
X203430771Y-193658271D02*
X203573628Y-193658271D01*
X204645057Y-193586842D02*
X204502200Y-193658271D01*
X204502200Y-193658271D02*
X204216486Y-193658271D01*
X204216486Y-193658271D02*
X204073628Y-193586842D01*
X204073628Y-193586842D02*
X204002200Y-193443985D01*
X204002200Y-193443985D02*
X204002200Y-192872557D01*
X204002200Y-192872557D02*
X204073628Y-192729700D01*
X204073628Y-192729700D02*
X204216486Y-192658271D01*
X204216486Y-192658271D02*
X204502200Y-192658271D01*
X204502200Y-192658271D02*
X204645057Y-192729700D01*
X204645057Y-192729700D02*
X204716486Y-192872557D01*
X204716486Y-192872557D02*
X204716486Y-193015414D01*
X204716486Y-193015414D02*
X204002200Y-193158271D01*
X205359342Y-193515414D02*
X205430771Y-193586842D01*
X205430771Y-193586842D02*
X205359342Y-193658271D01*
X205359342Y-193658271D02*
X205287914Y-193586842D01*
X205287914Y-193586842D02*
X205359342Y-193515414D01*
X205359342Y-193515414D02*
X205359342Y-193658271D01*
X205359342Y-192729700D02*
X205430771Y-192801128D01*
X205430771Y-192801128D02*
X205359342Y-192872557D01*
X205359342Y-192872557D02*
X205287914Y-192801128D01*
X205287914Y-192801128D02*
X205359342Y-192729700D01*
X205359342Y-192729700D02*
X205359342Y-192872557D01*
D10*
D11*
X177002200Y-194507200D02*
X285002200Y-194507200D01*
D10*
D11*
X178359342Y-196458271D02*
X178359342Y-194958271D01*
X179216485Y-196458271D02*
X178573628Y-195601128D01*
X179216485Y-194958271D02*
X178359342Y-195815414D01*
X179859342Y-196458271D02*
X179859342Y-195458271D01*
X179859342Y-194958271D02*
X179787914Y-195029700D01*
X179787914Y-195029700D02*
X179859342Y-195101128D01*
X179859342Y-195101128D02*
X179930771Y-195029700D01*
X179930771Y-195029700D02*
X179859342Y-194958271D01*
X179859342Y-194958271D02*
X179859342Y-195101128D01*
X181430771Y-196315414D02*
X181359343Y-196386842D01*
X181359343Y-196386842D02*
X181145057Y-196458271D01*
X181145057Y-196458271D02*
X181002200Y-196458271D01*
X181002200Y-196458271D02*
X180787914Y-196386842D01*
X180787914Y-196386842D02*
X180645057Y-196243985D01*
X180645057Y-196243985D02*
X180573628Y-196101128D01*
X180573628Y-196101128D02*
X180502200Y-195815414D01*
X180502200Y-195815414D02*
X180502200Y-195601128D01*
X180502200Y-195601128D02*
X180573628Y-195315414D01*
X180573628Y-195315414D02*
X180645057Y-195172557D01*
X180645057Y-195172557D02*
X180787914Y-195029700D01*
X180787914Y-195029700D02*
X181002200Y-194958271D01*
X181002200Y-194958271D02*
X181145057Y-194958271D01*
X181145057Y-194958271D02*
X181359343Y-195029700D01*
X181359343Y-195029700D02*
X181430771Y-195101128D01*
X182716486Y-196458271D02*
X182716486Y-195672557D01*
X182716486Y-195672557D02*
X182645057Y-195529700D01*
X182645057Y-195529700D02*
X182502200Y-195458271D01*
X182502200Y-195458271D02*
X182216486Y-195458271D01*
X182216486Y-195458271D02*
X182073628Y-195529700D01*
X182716486Y-196386842D02*
X182573628Y-196458271D01*
X182573628Y-196458271D02*
X182216486Y-196458271D01*
X182216486Y-196458271D02*
X182073628Y-196386842D01*
X182073628Y-196386842D02*
X182002200Y-196243985D01*
X182002200Y-196243985D02*
X182002200Y-196101128D01*
X182002200Y-196101128D02*
X182073628Y-195958271D01*
X182073628Y-195958271D02*
X182216486Y-195886842D01*
X182216486Y-195886842D02*
X182573628Y-195886842D01*
X182573628Y-195886842D02*
X182716486Y-195815414D01*
X184073629Y-196458271D02*
X184073629Y-194958271D01*
X184073629Y-196386842D02*
X183930771Y-196458271D01*
X183930771Y-196458271D02*
X183645057Y-196458271D01*
X183645057Y-196458271D02*
X183502200Y-196386842D01*
X183502200Y-196386842D02*
X183430771Y-196315414D01*
X183430771Y-196315414D02*
X183359343Y-196172557D01*
X183359343Y-196172557D02*
X183359343Y-195743985D01*
X183359343Y-195743985D02*
X183430771Y-195601128D01*
X183430771Y-195601128D02*
X183502200Y-195529700D01*
X183502200Y-195529700D02*
X183645057Y-195458271D01*
X183645057Y-195458271D02*
X183930771Y-195458271D01*
X183930771Y-195458271D02*
X184073629Y-195529700D01*
X185687914Y-195672557D02*
X186187914Y-195672557D01*
X186402200Y-196458271D02*
X185687914Y-196458271D01*
X185687914Y-196458271D02*
X185687914Y-194958271D01*
X185687914Y-194958271D02*
X186402200Y-194958271D01*
X187045057Y-196315414D02*
X187116486Y-196386842D01*
X187116486Y-196386842D02*
X187045057Y-196458271D01*
X187045057Y-196458271D02*
X186973629Y-196386842D01*
X186973629Y-196386842D02*
X187045057Y-196315414D01*
X187045057Y-196315414D02*
X187045057Y-196458271D01*
X187759343Y-196458271D02*
X187759343Y-194958271D01*
X187759343Y-194958271D02*
X188116486Y-194958271D01*
X188116486Y-194958271D02*
X188330772Y-195029700D01*
X188330772Y-195029700D02*
X188473629Y-195172557D01*
X188473629Y-195172557D02*
X188545058Y-195315414D01*
X188545058Y-195315414D02*
X188616486Y-195601128D01*
X188616486Y-195601128D02*
X188616486Y-195815414D01*
X188616486Y-195815414D02*
X188545058Y-196101128D01*
X188545058Y-196101128D02*
X188473629Y-196243985D01*
X188473629Y-196243985D02*
X188330772Y-196386842D01*
X188330772Y-196386842D02*
X188116486Y-196458271D01*
X188116486Y-196458271D02*
X187759343Y-196458271D01*
X189259343Y-196315414D02*
X189330772Y-196386842D01*
X189330772Y-196386842D02*
X189259343Y-196458271D01*
X189259343Y-196458271D02*
X189187915Y-196386842D01*
X189187915Y-196386842D02*
X189259343Y-196315414D01*
X189259343Y-196315414D02*
X189259343Y-196458271D01*
X189902201Y-196029700D02*
X190616487Y-196029700D01*
X189759344Y-196458271D02*
X190259344Y-194958271D01*
X190259344Y-194958271D02*
X190759344Y-196458271D01*
X191259343Y-196315414D02*
X191330772Y-196386842D01*
X191330772Y-196386842D02*
X191259343Y-196458271D01*
X191259343Y-196458271D02*
X191187915Y-196386842D01*
X191187915Y-196386842D02*
X191259343Y-196315414D01*
X191259343Y-196315414D02*
X191259343Y-196458271D01*
X193773629Y-196458271D02*
X193773629Y-194958271D01*
X193916487Y-195886842D02*
X194345058Y-196458271D01*
X194345058Y-195458271D02*
X193773629Y-196029700D01*
X194987915Y-196458271D02*
X194987915Y-195458271D01*
X194987915Y-194958271D02*
X194916487Y-195029700D01*
X194916487Y-195029700D02*
X194987915Y-195101128D01*
X194987915Y-195101128D02*
X195059344Y-195029700D01*
X195059344Y-195029700D02*
X194987915Y-194958271D01*
X194987915Y-194958271D02*
X194987915Y-195101128D01*
X196345059Y-196386842D02*
X196202201Y-196458271D01*
X196202201Y-196458271D02*
X195916487Y-196458271D01*
X195916487Y-196458271D02*
X195773630Y-196386842D01*
X195773630Y-196386842D02*
X195702201Y-196315414D01*
X195702201Y-196315414D02*
X195630773Y-196172557D01*
X195630773Y-196172557D02*
X195630773Y-195743985D01*
X195630773Y-195743985D02*
X195702201Y-195601128D01*
X195702201Y-195601128D02*
X195773630Y-195529700D01*
X195773630Y-195529700D02*
X195916487Y-195458271D01*
X195916487Y-195458271D02*
X196202201Y-195458271D01*
X196202201Y-195458271D02*
X196345059Y-195529700D01*
X197630773Y-196458271D02*
X197630773Y-195672557D01*
X197630773Y-195672557D02*
X197559344Y-195529700D01*
X197559344Y-195529700D02*
X197416487Y-195458271D01*
X197416487Y-195458271D02*
X197130773Y-195458271D01*
X197130773Y-195458271D02*
X196987915Y-195529700D01*
X197630773Y-196386842D02*
X197487915Y-196458271D01*
X197487915Y-196458271D02*
X197130773Y-196458271D01*
X197130773Y-196458271D02*
X196987915Y-196386842D01*
X196987915Y-196386842D02*
X196916487Y-196243985D01*
X196916487Y-196243985D02*
X196916487Y-196101128D01*
X196916487Y-196101128D02*
X196987915Y-195958271D01*
X196987915Y-195958271D02*
X197130773Y-195886842D01*
X197130773Y-195886842D02*
X197487915Y-195886842D01*
X197487915Y-195886842D02*
X197630773Y-195815414D01*
X198987916Y-196458271D02*
X198987916Y-194958271D01*
X198987916Y-196386842D02*
X198845058Y-196458271D01*
X198845058Y-196458271D02*
X198559344Y-196458271D01*
X198559344Y-196458271D02*
X198416487Y-196386842D01*
X198416487Y-196386842D02*
X198345058Y-196315414D01*
X198345058Y-196315414D02*
X198273630Y-196172557D01*
X198273630Y-196172557D02*
X198273630Y-195743985D01*
X198273630Y-195743985D02*
X198345058Y-195601128D01*
X198345058Y-195601128D02*
X198416487Y-195529700D01*
X198416487Y-195529700D02*
X198559344Y-195458271D01*
X198559344Y-195458271D02*
X198845058Y-195458271D01*
X198845058Y-195458271D02*
X198987916Y-195529700D01*
X201030773Y-197029700D02*
X200959344Y-196958271D01*
X200959344Y-196958271D02*
X200816487Y-196743985D01*
X200816487Y-196743985D02*
X200745059Y-196601128D01*
X200745059Y-196601128D02*
X200673630Y-196386842D01*
X200673630Y-196386842D02*
X200602201Y-196029700D01*
X200602201Y-196029700D02*
X200602201Y-195743985D01*
X200602201Y-195743985D02*
X200673630Y-195386842D01*
X200673630Y-195386842D02*
X200745059Y-195172557D01*
X200745059Y-195172557D02*
X200816487Y-195029700D01*
X200816487Y-195029700D02*
X200959344Y-194815414D01*
X200959344Y-194815414D02*
X201030773Y-194743985D01*
X201459344Y-194958271D02*
X202459344Y-194958271D01*
X202459344Y-194958271D02*
X201816487Y-196458271D01*
X203030772Y-196315414D02*
X203102201Y-196386842D01*
X203102201Y-196386842D02*
X203030772Y-196458271D01*
X203030772Y-196458271D02*
X202959344Y-196386842D01*
X202959344Y-196386842D02*
X203030772Y-196315414D01*
X203030772Y-196315414D02*
X203030772Y-196458271D01*
X204030773Y-194958271D02*
X204173630Y-194958271D01*
X204173630Y-194958271D02*
X204316487Y-195029700D01*
X204316487Y-195029700D02*
X204387916Y-195101128D01*
X204387916Y-195101128D02*
X204459344Y-195243985D01*
X204459344Y-195243985D02*
X204530773Y-195529700D01*
X204530773Y-195529700D02*
X204530773Y-195886842D01*
X204530773Y-195886842D02*
X204459344Y-196172557D01*
X204459344Y-196172557D02*
X204387916Y-196315414D01*
X204387916Y-196315414D02*
X204316487Y-196386842D01*
X204316487Y-196386842D02*
X204173630Y-196458271D01*
X204173630Y-196458271D02*
X204030773Y-196458271D01*
X204030773Y-196458271D02*
X203887916Y-196386842D01*
X203887916Y-196386842D02*
X203816487Y-196315414D01*
X203816487Y-196315414D02*
X203745058Y-196172557D01*
X203745058Y-196172557D02*
X203673630Y-195886842D01*
X203673630Y-195886842D02*
X203673630Y-195529700D01*
X203673630Y-195529700D02*
X203745058Y-195243985D01*
X203745058Y-195243985D02*
X203816487Y-195101128D01*
X203816487Y-195101128D02*
X203887916Y-195029700D01*
X203887916Y-195029700D02*
X204030773Y-194958271D01*
X205173629Y-196315414D02*
X205245058Y-196386842D01*
X205245058Y-196386842D02*
X205173629Y-196458271D01*
X205173629Y-196458271D02*
X205102201Y-196386842D01*
X205102201Y-196386842D02*
X205173629Y-196315414D01*
X205173629Y-196315414D02*
X205173629Y-196458271D01*
X206173630Y-194958271D02*
X206316487Y-194958271D01*
X206316487Y-194958271D02*
X206459344Y-195029700D01*
X206459344Y-195029700D02*
X206530773Y-195101128D01*
X206530773Y-195101128D02*
X206602201Y-195243985D01*
X206602201Y-195243985D02*
X206673630Y-195529700D01*
X206673630Y-195529700D02*
X206673630Y-195886842D01*
X206673630Y-195886842D02*
X206602201Y-196172557D01*
X206602201Y-196172557D02*
X206530773Y-196315414D01*
X206530773Y-196315414D02*
X206459344Y-196386842D01*
X206459344Y-196386842D02*
X206316487Y-196458271D01*
X206316487Y-196458271D02*
X206173630Y-196458271D01*
X206173630Y-196458271D02*
X206030773Y-196386842D01*
X206030773Y-196386842D02*
X205959344Y-196315414D01*
X205959344Y-196315414D02*
X205887915Y-196172557D01*
X205887915Y-196172557D02*
X205816487Y-195886842D01*
X205816487Y-195886842D02*
X205816487Y-195529700D01*
X205816487Y-195529700D02*
X205887915Y-195243985D01*
X205887915Y-195243985D02*
X205959344Y-195101128D01*
X205959344Y-195101128D02*
X206030773Y-195029700D01*
X206030773Y-195029700D02*
X206173630Y-194958271D01*
X207173629Y-197029700D02*
X207245058Y-196958271D01*
X207245058Y-196958271D02*
X207387915Y-196743985D01*
X207387915Y-196743985D02*
X207459344Y-196601128D01*
X207459344Y-196601128D02*
X207530772Y-196386842D01*
X207530772Y-196386842D02*
X207602201Y-196029700D01*
X207602201Y-196029700D02*
X207602201Y-195743985D01*
X207602201Y-195743985D02*
X207530772Y-195386842D01*
X207530772Y-195386842D02*
X207459344Y-195172557D01*
X207459344Y-195172557D02*
X207387915Y-195029700D01*
X207387915Y-195029700D02*
X207245058Y-194815414D01*
X207245058Y-194815414D02*
X207173629Y-194743985D01*
D10*
D11*
X177002200Y-191507200D02*
X285002200Y-191507200D01*
D10*
D12*
X264216485Y-193658271D02*
X263716485Y-192943985D01*
X263359342Y-193658271D02*
X263359342Y-192158271D01*
X263359342Y-192158271D02*
X263930771Y-192158271D01*
X263930771Y-192158271D02*
X264073628Y-192229700D01*
X264073628Y-192229700D02*
X264145057Y-192301128D01*
X264145057Y-192301128D02*
X264216485Y-192443985D01*
X264216485Y-192443985D02*
X264216485Y-192658271D01*
X264216485Y-192658271D02*
X264145057Y-192801128D01*
X264145057Y-192801128D02*
X264073628Y-192872557D01*
X264073628Y-192872557D02*
X263930771Y-192943985D01*
X263930771Y-192943985D02*
X263359342Y-192943985D01*
X265430771Y-193586842D02*
X265287914Y-193658271D01*
X265287914Y-193658271D02*
X265002200Y-193658271D01*
X265002200Y-193658271D02*
X264859342Y-193586842D01*
X264859342Y-193586842D02*
X264787914Y-193443985D01*
X264787914Y-193443985D02*
X264787914Y-192872557D01*
X264787914Y-192872557D02*
X264859342Y-192729700D01*
X264859342Y-192729700D02*
X265002200Y-192658271D01*
X265002200Y-192658271D02*
X265287914Y-192658271D01*
X265287914Y-192658271D02*
X265430771Y-192729700D01*
X265430771Y-192729700D02*
X265502200Y-192872557D01*
X265502200Y-192872557D02*
X265502200Y-193015414D01*
X265502200Y-193015414D02*
X264787914Y-193158271D01*
X266002199Y-192658271D02*
X266359342Y-193658271D01*
X266359342Y-193658271D02*
X266716485Y-192658271D01*
X267287913Y-193515414D02*
X267359342Y-193586842D01*
X267359342Y-193586842D02*
X267287913Y-193658271D01*
X267287913Y-193658271D02*
X267216485Y-193586842D01*
X267216485Y-193586842D02*
X267287913Y-193515414D01*
X267287913Y-193515414D02*
X267287913Y-193658271D01*
X267287913Y-192729700D02*
X267359342Y-192801128D01*
X267359342Y-192801128D02*
X267287913Y-192872557D01*
X267287913Y-192872557D02*
X267216485Y-192801128D01*
X267216485Y-192801128D02*
X267287913Y-192729700D01*
X267287913Y-192729700D02*
X267287913Y-192872557D01*
D10*
D11*
X178287914Y-193586842D02*
X178502200Y-193658271D01*
X178502200Y-193658271D02*
X178859342Y-193658271D01*
X178859342Y-193658271D02*
X179002200Y-193586842D01*
X179002200Y-193586842D02*
X179073628Y-193515414D01*
X179073628Y-193515414D02*
X179145057Y-193372557D01*
X179145057Y-193372557D02*
X179145057Y-193229700D01*
X179145057Y-193229700D02*
X179073628Y-193086842D01*
X179073628Y-193086842D02*
X179002200Y-193015414D01*
X179002200Y-193015414D02*
X178859342Y-192943985D01*
X178859342Y-192943985D02*
X178573628Y-192872557D01*
X178573628Y-192872557D02*
X178430771Y-192801128D01*
X178430771Y-192801128D02*
X178359342Y-192729700D01*
X178359342Y-192729700D02*
X178287914Y-192586842D01*
X178287914Y-192586842D02*
X178287914Y-192443985D01*
X178287914Y-192443985D02*
X178359342Y-192301128D01*
X178359342Y-192301128D02*
X178430771Y-192229700D01*
X178430771Y-192229700D02*
X178573628Y-192158271D01*
X178573628Y-192158271D02*
X178930771Y-192158271D01*
X178930771Y-192158271D02*
X179145057Y-192229700D01*
X179787913Y-193658271D02*
X179787913Y-192658271D01*
X179787913Y-192158271D02*
X179716485Y-192229700D01*
X179716485Y-192229700D02*
X179787913Y-192301128D01*
X179787913Y-192301128D02*
X179859342Y-192229700D01*
X179859342Y-192229700D02*
X179787913Y-192158271D01*
X179787913Y-192158271D02*
X179787913Y-192301128D01*
X180359342Y-192658271D02*
X181145057Y-192658271D01*
X181145057Y-192658271D02*
X180359342Y-193658271D01*
X180359342Y-193658271D02*
X181145057Y-193658271D01*
X182287914Y-193586842D02*
X182145057Y-193658271D01*
X182145057Y-193658271D02*
X181859343Y-193658271D01*
X181859343Y-193658271D02*
X181716485Y-193586842D01*
X181716485Y-193586842D02*
X181645057Y-193443985D01*
X181645057Y-193443985D02*
X181645057Y-192872557D01*
X181645057Y-192872557D02*
X181716485Y-192729700D01*
X181716485Y-192729700D02*
X181859343Y-192658271D01*
X181859343Y-192658271D02*
X182145057Y-192658271D01*
X182145057Y-192658271D02*
X182287914Y-192729700D01*
X182287914Y-192729700D02*
X182359343Y-192872557D01*
X182359343Y-192872557D02*
X182359343Y-193015414D01*
X182359343Y-193015414D02*
X181645057Y-193158271D01*
X183002199Y-193515414D02*
X183073628Y-193586842D01*
X183073628Y-193586842D02*
X183002199Y-193658271D01*
X183002199Y-193658271D02*
X182930771Y-193586842D01*
X182930771Y-193586842D02*
X183002199Y-193515414D01*
X183002199Y-193515414D02*
X183002199Y-193658271D01*
X183002199Y-192729700D02*
X183073628Y-192801128D01*
X183073628Y-192801128D02*
X183002199Y-192872557D01*
X183002199Y-192872557D02*
X182930771Y-192801128D01*
X182930771Y-192801128D02*
X183002199Y-192729700D01*
X183002199Y-192729700D02*
X183002199Y-192872557D01*
X184545057Y-193229700D02*
X185259343Y-193229700D01*
X184402200Y-193658271D02*
X184902200Y-192158271D01*
X184902200Y-192158271D02*
X185402200Y-193658271D01*
X186545057Y-192658271D02*
X186545057Y-193658271D01*
X186187914Y-192086842D02*
X185830771Y-193158271D01*
X185830771Y-193158271D02*
X186759342Y-193158271D01*
D10*
D11*
X263359342Y-196458271D02*
X263359342Y-194958271D01*
X264716486Y-196458271D02*
X264716486Y-194958271D01*
X264716486Y-196386842D02*
X264573628Y-196458271D01*
X264573628Y-196458271D02*
X264287914Y-196458271D01*
X264287914Y-196458271D02*
X264145057Y-196386842D01*
X264145057Y-196386842D02*
X264073628Y-196315414D01*
X264073628Y-196315414D02*
X264002200Y-196172557D01*
X264002200Y-196172557D02*
X264002200Y-195743985D01*
X264002200Y-195743985D02*
X264073628Y-195601128D01*
X264073628Y-195601128D02*
X264145057Y-195529700D01*
X264145057Y-195529700D02*
X264287914Y-195458271D01*
X264287914Y-195458271D02*
X264573628Y-195458271D01*
X264573628Y-195458271D02*
X264716486Y-195529700D01*
X265430771Y-196315414D02*
X265502200Y-196386842D01*
X265502200Y-196386842D02*
X265430771Y-196458271D01*
X265430771Y-196458271D02*
X265359343Y-196386842D01*
X265359343Y-196386842D02*
X265430771Y-196315414D01*
X265430771Y-196315414D02*
X265430771Y-196458271D01*
X265430771Y-195529700D02*
X265502200Y-195601128D01*
X265502200Y-195601128D02*
X265430771Y-195672557D01*
X265430771Y-195672557D02*
X265359343Y-195601128D01*
X265359343Y-195601128D02*
X265430771Y-195529700D01*
X265430771Y-195529700D02*
X265430771Y-195672557D01*
X267830772Y-196458271D02*
X266973629Y-196458271D01*
X267402200Y-196458271D02*
X267402200Y-194958271D01*
X267402200Y-194958271D02*
X267259343Y-195172557D01*
X267259343Y-195172557D02*
X267116486Y-195315414D01*
X267116486Y-195315414D02*
X266973629Y-195386842D01*
X269545057Y-194886842D02*
X268259343Y-196815414D01*
X270830772Y-196458271D02*
X269973629Y-196458271D01*
X270402200Y-196458271D02*
X270402200Y-194958271D01*
X270402200Y-194958271D02*
X270259343Y-195172557D01*
X270259343Y-195172557D02*
X270116486Y-195315414D01*
X270116486Y-195315414D02*
X269973629Y-195386842D01*
D10*
D11*
X177002200Y-187507200D02*
X285002200Y-187507200D01*
D10*
D13*
X178454580Y-188041961D02*
X179597438Y-188041961D01*
X178776009Y-190041961D02*
X179026009Y-188041961D01*
X180014105Y-190041961D02*
X180180771Y-188708628D01*
X180264105Y-188041961D02*
X180156962Y-188137200D01*
X180156962Y-188137200D02*
X180240295Y-188232438D01*
X180240295Y-188232438D02*
X180347438Y-188137200D01*
X180347438Y-188137200D02*
X180264105Y-188041961D01*
X180264105Y-188041961D02*
X180240295Y-188232438D01*
X180847438Y-188708628D02*
X181609343Y-188708628D01*
X181216486Y-188041961D02*
X181002200Y-189756247D01*
X181002200Y-189756247D02*
X181073629Y-189946723D01*
X181073629Y-189946723D02*
X181252200Y-190041961D01*
X181252200Y-190041961D02*
X181442676Y-190041961D01*
X182395057Y-190041961D02*
X182216486Y-189946723D01*
X182216486Y-189946723D02*
X182145057Y-189756247D01*
X182145057Y-189756247D02*
X182359343Y-188041961D01*
X183930771Y-189946723D02*
X183728390Y-190041961D01*
X183728390Y-190041961D02*
X183347438Y-190041961D01*
X183347438Y-190041961D02*
X183168867Y-189946723D01*
X183168867Y-189946723D02*
X183097438Y-189756247D01*
X183097438Y-189756247D02*
X183192676Y-188994342D01*
X183192676Y-188994342D02*
X183311724Y-188803866D01*
X183311724Y-188803866D02*
X183514105Y-188708628D01*
X183514105Y-188708628D02*
X183895057Y-188708628D01*
X183895057Y-188708628D02*
X184073628Y-188803866D01*
X184073628Y-188803866D02*
X184145057Y-188994342D01*
X184145057Y-188994342D02*
X184121247Y-189184819D01*
X184121247Y-189184819D02*
X183145057Y-189375295D01*
X184895057Y-189851485D02*
X184978391Y-189946723D01*
X184978391Y-189946723D02*
X184871248Y-190041961D01*
X184871248Y-190041961D02*
X184787914Y-189946723D01*
X184787914Y-189946723D02*
X184895057Y-189851485D01*
X184895057Y-189851485D02*
X184871248Y-190041961D01*
X185026010Y-188803866D02*
X185109343Y-188899104D01*
X185109343Y-188899104D02*
X185002200Y-188994342D01*
X185002200Y-188994342D02*
X184918867Y-188899104D01*
X184918867Y-188899104D02*
X185026010Y-188803866D01*
X185026010Y-188803866D02*
X185002200Y-188994342D01*
D10*
D11*
X178859342Y-185472557D02*
X178359342Y-185472557D01*
X178359342Y-186258271D02*
X178359342Y-184758271D01*
X178359342Y-184758271D02*
X179073628Y-184758271D01*
X179645056Y-186258271D02*
X179645056Y-185258271D01*
X179645056Y-184758271D02*
X179573628Y-184829700D01*
X179573628Y-184829700D02*
X179645056Y-184901128D01*
X179645056Y-184901128D02*
X179716485Y-184829700D01*
X179716485Y-184829700D02*
X179645056Y-184758271D01*
X179645056Y-184758271D02*
X179645056Y-184901128D01*
X180573628Y-186258271D02*
X180430771Y-186186842D01*
X180430771Y-186186842D02*
X180359342Y-186043985D01*
X180359342Y-186043985D02*
X180359342Y-184758271D01*
X181716485Y-186186842D02*
X181573628Y-186258271D01*
X181573628Y-186258271D02*
X181287914Y-186258271D01*
X181287914Y-186258271D02*
X181145056Y-186186842D01*
X181145056Y-186186842D02*
X181073628Y-186043985D01*
X181073628Y-186043985D02*
X181073628Y-185472557D01*
X181073628Y-185472557D02*
X181145056Y-185329700D01*
X181145056Y-185329700D02*
X181287914Y-185258271D01*
X181287914Y-185258271D02*
X181573628Y-185258271D01*
X181573628Y-185258271D02*
X181716485Y-185329700D01*
X181716485Y-185329700D02*
X181787914Y-185472557D01*
X181787914Y-185472557D02*
X181787914Y-185615414D01*
X181787914Y-185615414D02*
X181073628Y-185758271D01*
X182430770Y-186115414D02*
X182502199Y-186186842D01*
X182502199Y-186186842D02*
X182430770Y-186258271D01*
X182430770Y-186258271D02*
X182359342Y-186186842D01*
X182359342Y-186186842D02*
X182430770Y-186115414D01*
X182430770Y-186115414D02*
X182430770Y-186258271D01*
X182430770Y-185329700D02*
X182502199Y-185401128D01*
X182502199Y-185401128D02*
X182430770Y-185472557D01*
X182430770Y-185472557D02*
X182359342Y-185401128D01*
X182359342Y-185401128D02*
X182430770Y-185329700D01*
X182430770Y-185329700D02*
X182430770Y-185472557D01*
X184616485Y-186186842D02*
X184473628Y-186258271D01*
X184473628Y-186258271D02*
X184187914Y-186258271D01*
X184187914Y-186258271D02*
X184045056Y-186186842D01*
X184045056Y-186186842D02*
X183973628Y-186043985D01*
X183973628Y-186043985D02*
X183973628Y-185472557D01*
X183973628Y-185472557D02*
X184045056Y-185329700D01*
X184045056Y-185329700D02*
X184187914Y-185258271D01*
X184187914Y-185258271D02*
X184473628Y-185258271D01*
X184473628Y-185258271D02*
X184616485Y-185329700D01*
X184616485Y-185329700D02*
X184687914Y-185472557D01*
X184687914Y-185472557D02*
X184687914Y-185615414D01*
X184687914Y-185615414D02*
X183973628Y-185758271D01*
X185259342Y-186186842D02*
X185402199Y-186258271D01*
X185402199Y-186258271D02*
X185687913Y-186258271D01*
X185687913Y-186258271D02*
X185830770Y-186186842D01*
X185830770Y-186186842D02*
X185902199Y-186043985D01*
X185902199Y-186043985D02*
X185902199Y-185972557D01*
X185902199Y-185972557D02*
X185830770Y-185829700D01*
X185830770Y-185829700D02*
X185687913Y-185758271D01*
X185687913Y-185758271D02*
X185473628Y-185758271D01*
X185473628Y-185758271D02*
X185330770Y-185686842D01*
X185330770Y-185686842D02*
X185259342Y-185543985D01*
X185259342Y-185543985D02*
X185259342Y-185472557D01*
X185259342Y-185472557D02*
X185330770Y-185329700D01*
X185330770Y-185329700D02*
X185473628Y-185258271D01*
X185473628Y-185258271D02*
X185687913Y-185258271D01*
X185687913Y-185258271D02*
X185830770Y-185329700D01*
X186545056Y-185258271D02*
X186545056Y-186758271D01*
X186545056Y-185329700D02*
X186687914Y-185258271D01*
X186687914Y-185258271D02*
X186973628Y-185258271D01*
X186973628Y-185258271D02*
X187116485Y-185329700D01*
X187116485Y-185329700D02*
X187187914Y-185401128D01*
X187187914Y-185401128D02*
X187259342Y-185543985D01*
X187259342Y-185543985D02*
X187259342Y-185972557D01*
X187259342Y-185972557D02*
X187187914Y-186115414D01*
X187187914Y-186115414D02*
X187116485Y-186186842D01*
X187116485Y-186186842D02*
X186973628Y-186258271D01*
X186973628Y-186258271D02*
X186687914Y-186258271D01*
X186687914Y-186258271D02*
X186545056Y-186186842D01*
X187759342Y-184758271D02*
X188687914Y-184758271D01*
X188687914Y-184758271D02*
X188187914Y-185329700D01*
X188187914Y-185329700D02*
X188402199Y-185329700D01*
X188402199Y-185329700D02*
X188545057Y-185401128D01*
X188545057Y-185401128D02*
X188616485Y-185472557D01*
X188616485Y-185472557D02*
X188687914Y-185615414D01*
X188687914Y-185615414D02*
X188687914Y-185972557D01*
X188687914Y-185972557D02*
X188616485Y-186115414D01*
X188616485Y-186115414D02*
X188545057Y-186186842D01*
X188545057Y-186186842D02*
X188402199Y-186258271D01*
X188402199Y-186258271D02*
X187973628Y-186258271D01*
X187973628Y-186258271D02*
X187830771Y-186186842D01*
X187830771Y-186186842D02*
X187759342Y-186115414D01*
X189259342Y-184901128D02*
X189330770Y-184829700D01*
X189330770Y-184829700D02*
X189473628Y-184758271D01*
X189473628Y-184758271D02*
X189830770Y-184758271D01*
X189830770Y-184758271D02*
X189973628Y-184829700D01*
X189973628Y-184829700D02*
X190045056Y-184901128D01*
X190045056Y-184901128D02*
X190116485Y-185043985D01*
X190116485Y-185043985D02*
X190116485Y-185186842D01*
X190116485Y-185186842D02*
X190045056Y-185401128D01*
X190045056Y-185401128D02*
X189187913Y-186258271D01*
X189187913Y-186258271D02*
X190116485Y-186258271D01*
X190759341Y-185686842D02*
X191902199Y-185686842D01*
X193259342Y-186186842D02*
X193116484Y-186258271D01*
X193116484Y-186258271D02*
X192830770Y-186258271D01*
X192830770Y-186258271D02*
X192687913Y-186186842D01*
X192687913Y-186186842D02*
X192616484Y-186115414D01*
X192616484Y-186115414D02*
X192545056Y-185972557D01*
X192545056Y-185972557D02*
X192545056Y-185543985D01*
X192545056Y-185543985D02*
X192616484Y-185401128D01*
X192616484Y-185401128D02*
X192687913Y-185329700D01*
X192687913Y-185329700D02*
X192830770Y-185258271D01*
X192830770Y-185258271D02*
X193116484Y-185258271D01*
X193116484Y-185258271D02*
X193259342Y-185329700D01*
X193759341Y-184758271D02*
X194687913Y-184758271D01*
X194687913Y-184758271D02*
X194187913Y-185329700D01*
X194187913Y-185329700D02*
X194402198Y-185329700D01*
X194402198Y-185329700D02*
X194545056Y-185401128D01*
X194545056Y-185401128D02*
X194616484Y-185472557D01*
X194616484Y-185472557D02*
X194687913Y-185615414D01*
X194687913Y-185615414D02*
X194687913Y-185972557D01*
X194687913Y-185972557D02*
X194616484Y-186115414D01*
X194616484Y-186115414D02*
X194545056Y-186186842D01*
X194545056Y-186186842D02*
X194402198Y-186258271D01*
X194402198Y-186258271D02*
X193973627Y-186258271D01*
X193973627Y-186258271D02*
X193830770Y-186186842D01*
X193830770Y-186186842D02*
X193759341Y-186115414D01*
X195330769Y-185686842D02*
X196473627Y-185686842D01*
X197045055Y-185258271D02*
X197402198Y-186258271D01*
X197402198Y-186258271D02*
X197759341Y-185258271D01*
X198902198Y-186186842D02*
X198759341Y-186258271D01*
X198759341Y-186258271D02*
X198473627Y-186258271D01*
X198473627Y-186258271D02*
X198330769Y-186186842D01*
X198330769Y-186186842D02*
X198259341Y-186043985D01*
X198259341Y-186043985D02*
X198259341Y-185472557D01*
X198259341Y-185472557D02*
X198330769Y-185329700D01*
X198330769Y-185329700D02*
X198473627Y-185258271D01*
X198473627Y-185258271D02*
X198759341Y-185258271D01*
X198759341Y-185258271D02*
X198902198Y-185329700D01*
X198902198Y-185329700D02*
X198973627Y-185472557D01*
X198973627Y-185472557D02*
X198973627Y-185615414D01*
X198973627Y-185615414D02*
X198259341Y-185758271D01*
X199545055Y-186186842D02*
X199687912Y-186258271D01*
X199687912Y-186258271D02*
X199973626Y-186258271D01*
X199973626Y-186258271D02*
X200116483Y-186186842D01*
X200116483Y-186186842D02*
X200187912Y-186043985D01*
X200187912Y-186043985D02*
X200187912Y-185972557D01*
X200187912Y-185972557D02*
X200116483Y-185829700D01*
X200116483Y-185829700D02*
X199973626Y-185758271D01*
X199973626Y-185758271D02*
X199759341Y-185758271D01*
X199759341Y-185758271D02*
X199616483Y-185686842D01*
X199616483Y-185686842D02*
X199545055Y-185543985D01*
X199545055Y-185543985D02*
X199545055Y-185472557D01*
X199545055Y-185472557D02*
X199616483Y-185329700D01*
X199616483Y-185329700D02*
X199759341Y-185258271D01*
X199759341Y-185258271D02*
X199973626Y-185258271D01*
X199973626Y-185258271D02*
X200116483Y-185329700D01*
X201473627Y-186186842D02*
X201330769Y-186258271D01*
X201330769Y-186258271D02*
X201045055Y-186258271D01*
X201045055Y-186258271D02*
X200902198Y-186186842D01*
X200902198Y-186186842D02*
X200830769Y-186115414D01*
X200830769Y-186115414D02*
X200759341Y-185972557D01*
X200759341Y-185972557D02*
X200759341Y-185543985D01*
X200759341Y-185543985D02*
X200830769Y-185401128D01*
X200830769Y-185401128D02*
X200902198Y-185329700D01*
X200902198Y-185329700D02*
X201045055Y-185258271D01*
X201045055Y-185258271D02*
X201330769Y-185258271D01*
X201330769Y-185258271D02*
X201473627Y-185329700D01*
X202116483Y-185686842D02*
X203259341Y-185686842D01*
X204545055Y-186186842D02*
X204402198Y-186258271D01*
X204402198Y-186258271D02*
X204116484Y-186258271D01*
X204116484Y-186258271D02*
X203973626Y-186186842D01*
X203973626Y-186186842D02*
X203902198Y-186043985D01*
X203902198Y-186043985D02*
X203902198Y-185472557D01*
X203902198Y-185472557D02*
X203973626Y-185329700D01*
X203973626Y-185329700D02*
X204116484Y-185258271D01*
X204116484Y-185258271D02*
X204402198Y-185258271D01*
X204402198Y-185258271D02*
X204545055Y-185329700D01*
X204545055Y-185329700D02*
X204616484Y-185472557D01*
X204616484Y-185472557D02*
X204616484Y-185615414D01*
X204616484Y-185615414D02*
X203902198Y-185758271D01*
X205116483Y-186258271D02*
X205902198Y-185258271D01*
X205116483Y-185258271D02*
X205902198Y-186258271D01*
X206473626Y-185258271D02*
X206473626Y-186758271D01*
X206473626Y-185329700D02*
X206616484Y-185258271D01*
X206616484Y-185258271D02*
X206902198Y-185258271D01*
X206902198Y-185258271D02*
X207045055Y-185329700D01*
X207045055Y-185329700D02*
X207116484Y-185401128D01*
X207116484Y-185401128D02*
X207187912Y-185543985D01*
X207187912Y-185543985D02*
X207187912Y-185972557D01*
X207187912Y-185972557D02*
X207116484Y-186115414D01*
X207116484Y-186115414D02*
X207045055Y-186186842D01*
X207045055Y-186186842D02*
X206902198Y-186258271D01*
X206902198Y-186258271D02*
X206616484Y-186258271D01*
X206616484Y-186258271D02*
X206473626Y-186186842D01*
X207830769Y-186258271D02*
X207830769Y-185258271D01*
X207830769Y-185543985D02*
X207902198Y-185401128D01*
X207902198Y-185401128D02*
X207973627Y-185329700D01*
X207973627Y-185329700D02*
X208116484Y-185258271D01*
X208116484Y-185258271D02*
X208259341Y-185258271D01*
X209330769Y-186186842D02*
X209187912Y-186258271D01*
X209187912Y-186258271D02*
X208902198Y-186258271D01*
X208902198Y-186258271D02*
X208759340Y-186186842D01*
X208759340Y-186186842D02*
X208687912Y-186043985D01*
X208687912Y-186043985D02*
X208687912Y-185472557D01*
X208687912Y-185472557D02*
X208759340Y-185329700D01*
X208759340Y-185329700D02*
X208902198Y-185258271D01*
X208902198Y-185258271D02*
X209187912Y-185258271D01*
X209187912Y-185258271D02*
X209330769Y-185329700D01*
X209330769Y-185329700D02*
X209402198Y-185472557D01*
X209402198Y-185472557D02*
X209402198Y-185615414D01*
X209402198Y-185615414D02*
X208687912Y-185758271D01*
X209973626Y-186186842D02*
X210116483Y-186258271D01*
X210116483Y-186258271D02*
X210402197Y-186258271D01*
X210402197Y-186258271D02*
X210545054Y-186186842D01*
X210545054Y-186186842D02*
X210616483Y-186043985D01*
X210616483Y-186043985D02*
X210616483Y-185972557D01*
X210616483Y-185972557D02*
X210545054Y-185829700D01*
X210545054Y-185829700D02*
X210402197Y-185758271D01*
X210402197Y-185758271D02*
X210187912Y-185758271D01*
X210187912Y-185758271D02*
X210045054Y-185686842D01*
X210045054Y-185686842D02*
X209973626Y-185543985D01*
X209973626Y-185543985D02*
X209973626Y-185472557D01*
X209973626Y-185472557D02*
X210045054Y-185329700D01*
X210045054Y-185329700D02*
X210187912Y-185258271D01*
X210187912Y-185258271D02*
X210402197Y-185258271D01*
X210402197Y-185258271D02*
X210545054Y-185329700D01*
X211187912Y-186186842D02*
X211330769Y-186258271D01*
X211330769Y-186258271D02*
X211616483Y-186258271D01*
X211616483Y-186258271D02*
X211759340Y-186186842D01*
X211759340Y-186186842D02*
X211830769Y-186043985D01*
X211830769Y-186043985D02*
X211830769Y-185972557D01*
X211830769Y-185972557D02*
X211759340Y-185829700D01*
X211759340Y-185829700D02*
X211616483Y-185758271D01*
X211616483Y-185758271D02*
X211402198Y-185758271D01*
X211402198Y-185758271D02*
X211259340Y-185686842D01*
X211259340Y-185686842D02*
X211187912Y-185543985D01*
X211187912Y-185543985D02*
X211187912Y-185472557D01*
X211187912Y-185472557D02*
X211259340Y-185329700D01*
X211259340Y-185329700D02*
X211402198Y-185258271D01*
X211402198Y-185258271D02*
X211616483Y-185258271D01*
X211616483Y-185258271D02*
X211759340Y-185329700D01*
X212473626Y-185686842D02*
X213616484Y-185686842D01*
X214973627Y-185258271D02*
X214973627Y-186472557D01*
X214973627Y-186472557D02*
X214902198Y-186615414D01*
X214902198Y-186615414D02*
X214830769Y-186686842D01*
X214830769Y-186686842D02*
X214687912Y-186758271D01*
X214687912Y-186758271D02*
X214473627Y-186758271D01*
X214473627Y-186758271D02*
X214330769Y-186686842D01*
X214973627Y-186186842D02*
X214830769Y-186258271D01*
X214830769Y-186258271D02*
X214545055Y-186258271D01*
X214545055Y-186258271D02*
X214402198Y-186186842D01*
X214402198Y-186186842D02*
X214330769Y-186115414D01*
X214330769Y-186115414D02*
X214259341Y-185972557D01*
X214259341Y-185972557D02*
X214259341Y-185543985D01*
X214259341Y-185543985D02*
X214330769Y-185401128D01*
X214330769Y-185401128D02*
X214402198Y-185329700D01*
X214402198Y-185329700D02*
X214545055Y-185258271D01*
X214545055Y-185258271D02*
X214830769Y-185258271D01*
X214830769Y-185258271D02*
X214973627Y-185329700D01*
X215687912Y-186258271D02*
X215687912Y-184758271D01*
X216330770Y-186258271D02*
X216330770Y-185472557D01*
X216330770Y-185472557D02*
X216259341Y-185329700D01*
X216259341Y-185329700D02*
X216116484Y-185258271D01*
X216116484Y-185258271D02*
X215902198Y-185258271D01*
X215902198Y-185258271D02*
X215759341Y-185329700D01*
X215759341Y-185329700D02*
X215687912Y-185401128D01*
X216687913Y-186401128D02*
X217830770Y-186401128D01*
X218830770Y-186186842D02*
X218687912Y-186258271D01*
X218687912Y-186258271D02*
X218402198Y-186258271D01*
X218402198Y-186258271D02*
X218259341Y-186186842D01*
X218259341Y-186186842D02*
X218187912Y-186115414D01*
X218187912Y-186115414D02*
X218116484Y-185972557D01*
X218116484Y-185972557D02*
X218116484Y-185543985D01*
X218116484Y-185543985D02*
X218187912Y-185401128D01*
X218187912Y-185401128D02*
X218259341Y-185329700D01*
X218259341Y-185329700D02*
X218402198Y-185258271D01*
X218402198Y-185258271D02*
X218687912Y-185258271D01*
X218687912Y-185258271D02*
X218830770Y-185329700D01*
X219687912Y-186258271D02*
X219545055Y-186186842D01*
X219545055Y-186186842D02*
X219473626Y-186115414D01*
X219473626Y-186115414D02*
X219402198Y-185972557D01*
X219402198Y-185972557D02*
X219402198Y-185543985D01*
X219402198Y-185543985D02*
X219473626Y-185401128D01*
X219473626Y-185401128D02*
X219545055Y-185329700D01*
X219545055Y-185329700D02*
X219687912Y-185258271D01*
X219687912Y-185258271D02*
X219902198Y-185258271D01*
X219902198Y-185258271D02*
X220045055Y-185329700D01*
X220045055Y-185329700D02*
X220116484Y-185401128D01*
X220116484Y-185401128D02*
X220187912Y-185543985D01*
X220187912Y-185543985D02*
X220187912Y-185972557D01*
X220187912Y-185972557D02*
X220116484Y-186115414D01*
X220116484Y-186115414D02*
X220045055Y-186186842D01*
X220045055Y-186186842D02*
X219902198Y-186258271D01*
X219902198Y-186258271D02*
X219687912Y-186258271D01*
X220830769Y-185258271D02*
X220830769Y-186258271D01*
X220830769Y-185401128D02*
X220902198Y-185329700D01*
X220902198Y-185329700D02*
X221045055Y-185258271D01*
X221045055Y-185258271D02*
X221259341Y-185258271D01*
X221259341Y-185258271D02*
X221402198Y-185329700D01*
X221402198Y-185329700D02*
X221473627Y-185472557D01*
X221473627Y-185472557D02*
X221473627Y-186258271D01*
X222187912Y-185258271D02*
X222187912Y-186258271D01*
X222187912Y-185401128D02*
X222259341Y-185329700D01*
X222259341Y-185329700D02*
X222402198Y-185258271D01*
X222402198Y-185258271D02*
X222616484Y-185258271D01*
X222616484Y-185258271D02*
X222759341Y-185329700D01*
X222759341Y-185329700D02*
X222830770Y-185472557D01*
X222830770Y-185472557D02*
X222830770Y-186258271D01*
X224116484Y-186186842D02*
X223973627Y-186258271D01*
X223973627Y-186258271D02*
X223687913Y-186258271D01*
X223687913Y-186258271D02*
X223545055Y-186186842D01*
X223545055Y-186186842D02*
X223473627Y-186043985D01*
X223473627Y-186043985D02*
X223473627Y-185472557D01*
X223473627Y-185472557D02*
X223545055Y-185329700D01*
X223545055Y-185329700D02*
X223687913Y-185258271D01*
X223687913Y-185258271D02*
X223973627Y-185258271D01*
X223973627Y-185258271D02*
X224116484Y-185329700D01*
X224116484Y-185329700D02*
X224187913Y-185472557D01*
X224187913Y-185472557D02*
X224187913Y-185615414D01*
X224187913Y-185615414D02*
X223473627Y-185758271D01*
X225473627Y-186186842D02*
X225330769Y-186258271D01*
X225330769Y-186258271D02*
X225045055Y-186258271D01*
X225045055Y-186258271D02*
X224902198Y-186186842D01*
X224902198Y-186186842D02*
X224830769Y-186115414D01*
X224830769Y-186115414D02*
X224759341Y-185972557D01*
X224759341Y-185972557D02*
X224759341Y-185543985D01*
X224759341Y-185543985D02*
X224830769Y-185401128D01*
X224830769Y-185401128D02*
X224902198Y-185329700D01*
X224902198Y-185329700D02*
X225045055Y-185258271D01*
X225045055Y-185258271D02*
X225330769Y-185258271D01*
X225330769Y-185258271D02*
X225473627Y-185329700D01*
X225902198Y-185258271D02*
X226473626Y-185258271D01*
X226116483Y-184758271D02*
X226116483Y-186043985D01*
X226116483Y-186043985D02*
X226187912Y-186186842D01*
X226187912Y-186186842D02*
X226330769Y-186258271D01*
X226330769Y-186258271D02*
X226473626Y-186258271D01*
X227187912Y-186258271D02*
X227045055Y-186186842D01*
X227045055Y-186186842D02*
X226973626Y-186115414D01*
X226973626Y-186115414D02*
X226902198Y-185972557D01*
X226902198Y-185972557D02*
X226902198Y-185543985D01*
X226902198Y-185543985D02*
X226973626Y-185401128D01*
X226973626Y-185401128D02*
X227045055Y-185329700D01*
X227045055Y-185329700D02*
X227187912Y-185258271D01*
X227187912Y-185258271D02*
X227402198Y-185258271D01*
X227402198Y-185258271D02*
X227545055Y-185329700D01*
X227545055Y-185329700D02*
X227616484Y-185401128D01*
X227616484Y-185401128D02*
X227687912Y-185543985D01*
X227687912Y-185543985D02*
X227687912Y-185972557D01*
X227687912Y-185972557D02*
X227616484Y-186115414D01*
X227616484Y-186115414D02*
X227545055Y-186186842D01*
X227545055Y-186186842D02*
X227402198Y-186258271D01*
X227402198Y-186258271D02*
X227187912Y-186258271D01*
X228330769Y-186258271D02*
X228330769Y-185258271D01*
X228330769Y-185543985D02*
X228402198Y-185401128D01*
X228402198Y-185401128D02*
X228473627Y-185329700D01*
X228473627Y-185329700D02*
X228616484Y-185258271D01*
X228616484Y-185258271D02*
X228759341Y-185258271D01*
X229187912Y-186186842D02*
X229330769Y-186258271D01*
X229330769Y-186258271D02*
X229616483Y-186258271D01*
X229616483Y-186258271D02*
X229759340Y-186186842D01*
X229759340Y-186186842D02*
X229830769Y-186043985D01*
X229830769Y-186043985D02*
X229830769Y-185972557D01*
X229830769Y-185972557D02*
X229759340Y-185829700D01*
X229759340Y-185829700D02*
X229616483Y-185758271D01*
X229616483Y-185758271D02*
X229402198Y-185758271D01*
X229402198Y-185758271D02*
X229259340Y-185686842D01*
X229259340Y-185686842D02*
X229187912Y-185543985D01*
X229187912Y-185543985D02*
X229187912Y-185472557D01*
X229187912Y-185472557D02*
X229259340Y-185329700D01*
X229259340Y-185329700D02*
X229402198Y-185258271D01*
X229402198Y-185258271D02*
X229616483Y-185258271D01*
X229616483Y-185258271D02*
X229759340Y-185329700D01*
X230473626Y-186115414D02*
X230545055Y-186186842D01*
X230545055Y-186186842D02*
X230473626Y-186258271D01*
X230473626Y-186258271D02*
X230402198Y-186186842D01*
X230402198Y-186186842D02*
X230473626Y-186115414D01*
X230473626Y-186115414D02*
X230473626Y-186258271D01*
X231187912Y-186258271D02*
X231187912Y-184758271D01*
X231330770Y-185686842D02*
X231759341Y-186258271D01*
X231759341Y-185258271D02*
X231187912Y-185829700D01*
X232402198Y-186258271D02*
X232402198Y-185258271D01*
X232402198Y-184758271D02*
X232330770Y-184829700D01*
X232330770Y-184829700D02*
X232402198Y-184901128D01*
X232402198Y-184901128D02*
X232473627Y-184829700D01*
X232473627Y-184829700D02*
X232402198Y-184758271D01*
X232402198Y-184758271D02*
X232402198Y-184901128D01*
X233759342Y-186186842D02*
X233616484Y-186258271D01*
X233616484Y-186258271D02*
X233330770Y-186258271D01*
X233330770Y-186258271D02*
X233187913Y-186186842D01*
X233187913Y-186186842D02*
X233116484Y-186115414D01*
X233116484Y-186115414D02*
X233045056Y-185972557D01*
X233045056Y-185972557D02*
X233045056Y-185543985D01*
X233045056Y-185543985D02*
X233116484Y-185401128D01*
X233116484Y-185401128D02*
X233187913Y-185329700D01*
X233187913Y-185329700D02*
X233330770Y-185258271D01*
X233330770Y-185258271D02*
X233616484Y-185258271D01*
X233616484Y-185258271D02*
X233759342Y-185329700D01*
X235045056Y-186258271D02*
X235045056Y-185472557D01*
X235045056Y-185472557D02*
X234973627Y-185329700D01*
X234973627Y-185329700D02*
X234830770Y-185258271D01*
X234830770Y-185258271D02*
X234545056Y-185258271D01*
X234545056Y-185258271D02*
X234402198Y-185329700D01*
X235045056Y-186186842D02*
X234902198Y-186258271D01*
X234902198Y-186258271D02*
X234545056Y-186258271D01*
X234545056Y-186258271D02*
X234402198Y-186186842D01*
X234402198Y-186186842D02*
X234330770Y-186043985D01*
X234330770Y-186043985D02*
X234330770Y-185901128D01*
X234330770Y-185901128D02*
X234402198Y-185758271D01*
X234402198Y-185758271D02*
X234545056Y-185686842D01*
X234545056Y-185686842D02*
X234902198Y-185686842D01*
X234902198Y-185686842D02*
X235045056Y-185615414D01*
X236402199Y-186258271D02*
X236402199Y-184758271D01*
X236402199Y-186186842D02*
X236259341Y-186258271D01*
X236259341Y-186258271D02*
X235973627Y-186258271D01*
X235973627Y-186258271D02*
X235830770Y-186186842D01*
X235830770Y-186186842D02*
X235759341Y-186115414D01*
X235759341Y-186115414D02*
X235687913Y-185972557D01*
X235687913Y-185972557D02*
X235687913Y-185543985D01*
X235687913Y-185543985D02*
X235759341Y-185401128D01*
X235759341Y-185401128D02*
X235830770Y-185329700D01*
X235830770Y-185329700D02*
X235973627Y-185258271D01*
X235973627Y-185258271D02*
X236259341Y-185258271D01*
X236259341Y-185258271D02*
X236402199Y-185329700D01*
X236759342Y-186401128D02*
X237902199Y-186401128D01*
X238259341Y-185258271D02*
X238259341Y-186758271D01*
X238259341Y-185329700D02*
X238402199Y-185258271D01*
X238402199Y-185258271D02*
X238687913Y-185258271D01*
X238687913Y-185258271D02*
X238830770Y-185329700D01*
X238830770Y-185329700D02*
X238902199Y-185401128D01*
X238902199Y-185401128D02*
X238973627Y-185543985D01*
X238973627Y-185543985D02*
X238973627Y-185972557D01*
X238973627Y-185972557D02*
X238902199Y-186115414D01*
X238902199Y-186115414D02*
X238830770Y-186186842D01*
X238830770Y-186186842D02*
X238687913Y-186258271D01*
X238687913Y-186258271D02*
X238402199Y-186258271D01*
X238402199Y-186258271D02*
X238259341Y-186186842D01*
X240259342Y-186186842D02*
X240116484Y-186258271D01*
X240116484Y-186258271D02*
X239830770Y-186258271D01*
X239830770Y-186258271D02*
X239687913Y-186186842D01*
X239687913Y-186186842D02*
X239616484Y-186115414D01*
X239616484Y-186115414D02*
X239545056Y-185972557D01*
X239545056Y-185972557D02*
X239545056Y-185543985D01*
X239545056Y-185543985D02*
X239616484Y-185401128D01*
X239616484Y-185401128D02*
X239687913Y-185329700D01*
X239687913Y-185329700D02*
X239830770Y-185258271D01*
X239830770Y-185258271D02*
X240116484Y-185258271D01*
X240116484Y-185258271D02*
X240259342Y-185329700D01*
X240902198Y-186258271D02*
X240902198Y-184758271D01*
X240902198Y-185329700D02*
X241045056Y-185258271D01*
X241045056Y-185258271D02*
X241330770Y-185258271D01*
X241330770Y-185258271D02*
X241473627Y-185329700D01*
X241473627Y-185329700D02*
X241545056Y-185401128D01*
X241545056Y-185401128D02*
X241616484Y-185543985D01*
X241616484Y-185543985D02*
X241616484Y-185972557D01*
X241616484Y-185972557D02*
X241545056Y-186115414D01*
X241545056Y-186115414D02*
X241473627Y-186186842D01*
X241473627Y-186186842D02*
X241330770Y-186258271D01*
X241330770Y-186258271D02*
X241045056Y-186258271D01*
X241045056Y-186258271D02*
X240902198Y-186186842D01*
D10*
D11*
X177002200Y-181507200D02*
X285002200Y-181507200D01*
D10*
D11*
X178287914Y-183486842D02*
X178502200Y-183558271D01*
X178502200Y-183558271D02*
X178859342Y-183558271D01*
X178859342Y-183558271D02*
X179002200Y-183486842D01*
X179002200Y-183486842D02*
X179073628Y-183415414D01*
X179073628Y-183415414D02*
X179145057Y-183272557D01*
X179145057Y-183272557D02*
X179145057Y-183129700D01*
X179145057Y-183129700D02*
X179073628Y-182986842D01*
X179073628Y-182986842D02*
X179002200Y-182915414D01*
X179002200Y-182915414D02*
X178859342Y-182843985D01*
X178859342Y-182843985D02*
X178573628Y-182772557D01*
X178573628Y-182772557D02*
X178430771Y-182701128D01*
X178430771Y-182701128D02*
X178359342Y-182629700D01*
X178359342Y-182629700D02*
X178287914Y-182486842D01*
X178287914Y-182486842D02*
X178287914Y-182343985D01*
X178287914Y-182343985D02*
X178359342Y-182201128D01*
X178359342Y-182201128D02*
X178430771Y-182129700D01*
X178430771Y-182129700D02*
X178573628Y-182058271D01*
X178573628Y-182058271D02*
X178930771Y-182058271D01*
X178930771Y-182058271D02*
X179145057Y-182129700D01*
X179787913Y-183558271D02*
X179787913Y-182058271D01*
X180430771Y-183558271D02*
X180430771Y-182772557D01*
X180430771Y-182772557D02*
X180359342Y-182629700D01*
X180359342Y-182629700D02*
X180216485Y-182558271D01*
X180216485Y-182558271D02*
X180002199Y-182558271D01*
X180002199Y-182558271D02*
X179859342Y-182629700D01*
X179859342Y-182629700D02*
X179787913Y-182701128D01*
X181716485Y-183486842D02*
X181573628Y-183558271D01*
X181573628Y-183558271D02*
X181287914Y-183558271D01*
X181287914Y-183558271D02*
X181145056Y-183486842D01*
X181145056Y-183486842D02*
X181073628Y-183343985D01*
X181073628Y-183343985D02*
X181073628Y-182772557D01*
X181073628Y-182772557D02*
X181145056Y-182629700D01*
X181145056Y-182629700D02*
X181287914Y-182558271D01*
X181287914Y-182558271D02*
X181573628Y-182558271D01*
X181573628Y-182558271D02*
X181716485Y-182629700D01*
X181716485Y-182629700D02*
X181787914Y-182772557D01*
X181787914Y-182772557D02*
X181787914Y-182915414D01*
X181787914Y-182915414D02*
X181073628Y-183058271D01*
X183002199Y-183486842D02*
X182859342Y-183558271D01*
X182859342Y-183558271D02*
X182573628Y-183558271D01*
X182573628Y-183558271D02*
X182430770Y-183486842D01*
X182430770Y-183486842D02*
X182359342Y-183343985D01*
X182359342Y-183343985D02*
X182359342Y-182772557D01*
X182359342Y-182772557D02*
X182430770Y-182629700D01*
X182430770Y-182629700D02*
X182573628Y-182558271D01*
X182573628Y-182558271D02*
X182859342Y-182558271D01*
X182859342Y-182558271D02*
X183002199Y-182629700D01*
X183002199Y-182629700D02*
X183073628Y-182772557D01*
X183073628Y-182772557D02*
X183073628Y-182915414D01*
X183073628Y-182915414D02*
X182359342Y-183058271D01*
X183502199Y-182558271D02*
X184073627Y-182558271D01*
X183716484Y-182058271D02*
X183716484Y-183343985D01*
X183716484Y-183343985D02*
X183787913Y-183486842D01*
X183787913Y-183486842D02*
X183930770Y-183558271D01*
X183930770Y-183558271D02*
X184073627Y-183558271D01*
X184573627Y-183415414D02*
X184645056Y-183486842D01*
X184645056Y-183486842D02*
X184573627Y-183558271D01*
X184573627Y-183558271D02*
X184502199Y-183486842D01*
X184502199Y-183486842D02*
X184573627Y-183415414D01*
X184573627Y-183415414D02*
X184573627Y-183558271D01*
X184573627Y-182629700D02*
X184645056Y-182701128D01*
X184645056Y-182701128D02*
X184573627Y-182772557D01*
X184573627Y-182772557D02*
X184502199Y-182701128D01*
X184502199Y-182701128D02*
X184573627Y-182629700D01*
X184573627Y-182629700D02*
X184573627Y-182772557D01*
D10*
D12*
D10*
D11*
D10*
D11*
D10*
D11*
D10*
D11*
D10*
D11*
X197002200Y-191507200D02*
X197002200Y-194507200D01*
D10*
D11*
X261002200Y-191507200D02*
X261002200Y-198007200D01*
D14*
%TO.N,*%
%TO.C,J301*%
X147327500Y-79190000D03*
X147327500Y-73410000D03*
%TD*%
D15*
%TO.N,+5V*%
X149750000Y-80500000D03*
X147450000Y-83150000D03*
%TO.N,GND*%
X148050000Y-82400000D03*
%TO.N,+5V*%
X146700000Y-96050000D03*
%TO.N,/SD_MISO*%
X147250000Y-87700000D03*
%TO.N,GND*%
X146668042Y-87029781D03*
%TO.N,+3V3*%
X142015375Y-85465375D03*
X147650000Y-76500000D03*
%TO.N,/CAN_tranciever/CANL*%
X137950000Y-75550000D03*
X137850000Y-83850000D03*
%TO.N,/SD_MOSI*%
X137250000Y-90250000D03*
%TO.N,/GPS_PPS{slash}SDA*%
X138850000Y-96401911D03*
%TO.N,/GPS_BOOT{slash}SCL*%
X146949257Y-84499500D03*
%TO.N,/GPS_PPS{slash}SDA*%
X147064841Y-85336017D03*
%TO.N,+3V3*%
X149400499Y-85796810D03*
%TO.N,GND*%
X141750000Y-94650000D03*
X139599500Y-86000498D03*
%TO.N,+5V*%
X139850000Y-79250000D03*
%TO.N,GND*%
X135650000Y-86000000D03*
X135650000Y-81000000D03*
X135650000Y-77450000D03*
X135700000Y-72050000D03*
X144550000Y-72100000D03*
%TO.N,+5V*%
X143500000Y-71850000D03*
%TO.N,/CAN_RX*%
X144700000Y-85850000D03*
%TO.N,GND*%
X141550000Y-89300500D03*
X143200000Y-86000498D03*
%TO.N,/ESP32_EN*%
X145150000Y-81650000D03*
%TO.N,/SD_SCK*%
X143900000Y-81100000D03*
%TO.N,/SD_MISO*%
X143650000Y-80200000D03*
%TO.N,/SD_MOSI*%
X147800000Y-77400000D03*
%TO.N,/SD_CS*%
X144250000Y-79300000D03*
%TO.N,+3V3*%
X144150000Y-77500000D03*
%TO.N,GND*%
X148250000Y-74700000D03*
%TO.N,USB_VBUS*%
X144700000Y-74100000D03*
X144600498Y-78581423D03*
%TO.N,/CAN_tranciever/CANH*%
X146650000Y-90400000D03*
%TO.N,/CAN_R*%
X143100000Y-85100000D03*
%TO.N,+3V3*%
X142800000Y-79200000D03*
X149100000Y-82700000D03*
%TO.N,/BOOT{slash}GPIO9*%
X146700000Y-91500000D03*
%TO.N,GND*%
X150950000Y-79800000D03*
X150950000Y-72700000D03*
X144800000Y-80000000D03*
X139600000Y-77450000D03*
X142400000Y-78500000D03*
X142500000Y-73100000D03*
%TO.N,/CAN_R*%
X146684075Y-89487411D03*
%TO.N,/CAN_tranciever/CANH*%
X138600000Y-74300000D03*
X138500000Y-83100000D03*
X139407259Y-88699470D03*
%TO.N,/ESC_UART_RX*%
X144200000Y-91900000D03*
%TO.N,/ESC_UART_TX*%
X144150000Y-91000000D03*
%TO.N,/USB_DM*%
X144500000Y-76300000D03*
%TO.N,/USB_DP*%
X144500000Y-75300000D03*
%TO.N,GND*%
X144000000Y-97900000D03*
X143850000Y-93050000D03*
X136400000Y-98300000D03*
%TO.N,/SD_SCK*%
X138500000Y-88850000D03*
%TO.N,/BOOT{slash}GPIO9*%
X138500000Y-88000000D03*
%TO.N,/USB_DP*%
X136950000Y-85750000D03*
%TO.N,/USB_DM*%
X137900000Y-85750000D03*
%TO.N,/CAN_TX*%
X136900000Y-91200000D03*
%TO.N,/CAN_RX*%
X137300000Y-92000000D03*
%TO.N,/SD_CS*%
X136800000Y-94400000D03*
%TO.N,GND*%
X136800000Y-95400000D03*
%TO.N,/GPS_UART_RX*%
X137050000Y-96350000D03*
%TO.N,/GPS_UART_TX*%
X137000000Y-97400000D03*
%TO.N,/ESP32_EN*%
X138400000Y-97600000D03*
%TO.N,/GPS_BOOT{slash}SCL*%
X139650000Y-97800000D03*
%TO.N,/SD_MISO*%
X141400000Y-96600000D03*
%TO.N,+3V3*%
X141475500Y-97500000D03*
%TD*%
D16*
%TO.N,GND*%
X147850000Y-91900000D02*
X145350000Y-94400000D01*
X147850000Y-87250000D02*
X147850000Y-91900000D01*
X147629781Y-87029781D02*
X147850000Y-87250000D01*
X146668042Y-87029781D02*
X147629781Y-87029781D01*
X145350000Y-94400000D02*
X145350000Y-94550000D01*
%TO.N,/SD_MISO*%
X142650000Y-96600000D02*
X141400000Y-96600000D01*
X145850000Y-88300000D02*
X145850000Y-93400000D01*
X145850000Y-93400000D02*
X142650000Y-96600000D01*
X147100000Y-87850000D02*
X146300000Y-87850000D01*
X147250000Y-87700000D02*
X147100000Y-87850000D01*
X146300000Y-87850000D02*
X145850000Y-88300000D01*
D17*
%TO.N,USB_VBUS*%
X145300000Y-74650000D02*
X144750000Y-74100000D01*
X145300000Y-77650000D02*
X145300000Y-74650000D01*
X144750000Y-74100000D02*
X144700000Y-74100000D01*
X144600498Y-78349502D02*
X145300000Y-77650000D01*
X144600498Y-78581423D02*
X144600498Y-78349502D01*
%TO.N,+5V*%
X150050000Y-77450000D02*
X145800000Y-73200000D01*
X145800000Y-73200000D02*
X143500000Y-73200000D01*
X150050000Y-91350000D02*
X150050000Y-77450000D01*
X146700000Y-94700000D02*
X150050000Y-91350000D01*
X146700000Y-96050000D02*
X146700000Y-94700000D01*
%TO.N,+3V3*%
X149450000Y-86150000D02*
X149300000Y-86000000D01*
X143050000Y-97500000D02*
X149450000Y-91100000D01*
X149450000Y-91100000D02*
X149450000Y-86150000D01*
X141475500Y-97500000D02*
X143050000Y-97500000D01*
D16*
%TO.N,/SD_MOSI*%
X140850000Y-88600000D02*
X140850000Y-84998529D01*
X139350000Y-90100000D02*
X140850000Y-88600000D01*
X140850000Y-84998529D02*
X145600000Y-80248529D01*
X137400000Y-90100000D02*
X139350000Y-90100000D01*
X137250000Y-90250000D02*
X137400000Y-90100000D01*
X145600000Y-80248529D02*
X145600000Y-79600000D01*
X145600000Y-79600000D02*
X147800000Y-77400000D01*
D17*
%TO.N,+3V3*%
X149400499Y-85796810D02*
X149400499Y-85899501D01*
X149400499Y-85899501D02*
X149300000Y-86000000D01*
D16*
%TO.N,/GPS_BOOT{slash}SCL*%
X139650000Y-97200000D02*
X139650000Y-97800000D01*
X140950000Y-95900000D02*
X139650000Y-97200000D01*
X142600000Y-95900000D02*
X140950000Y-95900000D01*
X146450000Y-84998757D02*
X146450000Y-86400000D01*
X146450000Y-86400000D02*
X145400000Y-87450000D01*
X146949257Y-84499500D02*
X146450000Y-84998757D01*
X145400000Y-87450000D02*
X145400000Y-93100000D01*
X145400000Y-93100000D02*
X142600000Y-95900000D01*
%TO.N,/GPS_PPS{slash}SDA*%
X139048089Y-96401911D02*
X138850000Y-96401911D01*
X140050000Y-95400000D02*
X139048089Y-96401911D01*
X142348529Y-95400000D02*
X140050000Y-95400000D01*
X144900000Y-92848529D02*
X142348529Y-95400000D01*
X145950000Y-86225000D02*
X144900000Y-87275000D01*
X145950000Y-84550000D02*
X145950000Y-86225000D01*
X146600000Y-83900000D02*
X145950000Y-84550000D01*
X147300000Y-83900000D02*
X146600000Y-83900000D01*
X147600000Y-84800858D02*
X147600000Y-84200000D01*
X147600000Y-84200000D02*
X147300000Y-83900000D01*
X147064841Y-85336017D02*
X147600000Y-84800858D01*
X144900000Y-87275000D02*
X144900000Y-92848529D01*
D17*
%TO.N,+5V*%
X143500000Y-73200000D02*
X143500000Y-74550000D01*
X143500000Y-71850000D02*
X143500000Y-73200000D01*
D16*
%TO.N,/CAN_RX*%
X143000000Y-88850000D02*
X139850000Y-92000000D01*
X143000000Y-87900000D02*
X143000000Y-88850000D01*
X139850000Y-92000000D02*
X137300000Y-92000000D01*
X144700000Y-86200000D02*
X143000000Y-87900000D01*
X144700000Y-85850000D02*
X144700000Y-86200000D01*
%TO.N,/ESP32_EN*%
X145450000Y-81950000D02*
X145150000Y-81650000D01*
X145450000Y-86075000D02*
X145450000Y-81950000D01*
X141400000Y-94100000D02*
X143450000Y-92050000D01*
X139950000Y-94100000D02*
X141400000Y-94100000D01*
X138200000Y-95850000D02*
X139950000Y-94100000D01*
X143450000Y-88075000D02*
X145450000Y-86075000D01*
X138200000Y-97400000D02*
X138200000Y-95850000D01*
X143450000Y-92050000D02*
X143450000Y-88075000D01*
X138400000Y-97600000D02*
X138200000Y-97400000D01*
D17*
%TO.N,+5V*%
X139950000Y-79150000D02*
X139850000Y-79250000D01*
X139950000Y-78100000D02*
X139950000Y-79150000D01*
X143500000Y-74550000D02*
X139950000Y-78100000D01*
D16*
%TO.N,/SD_SCK*%
X138300000Y-88850000D02*
X138500000Y-88850000D01*
X138700000Y-86750000D02*
X137750000Y-87700000D01*
X140300000Y-84550000D02*
X140300000Y-86250000D01*
X139800000Y-86750000D02*
X138700000Y-86750000D01*
X143750000Y-81100000D02*
X140300000Y-84550000D01*
X137750000Y-88300000D02*
X138300000Y-88850000D01*
X143900000Y-81100000D02*
X143750000Y-81100000D01*
X137750000Y-87700000D02*
X137750000Y-88300000D01*
X140300000Y-86250000D02*
X139800000Y-86750000D01*
%TO.N,/SD_CS*%
X143600000Y-79300000D02*
X144250000Y-79300000D01*
X141750000Y-81150000D02*
X143600000Y-79300000D01*
X138700000Y-85450000D02*
X141750000Y-82400000D01*
X141750000Y-82400000D02*
X141750000Y-81150000D01*
X136000000Y-93950000D02*
X136000000Y-88600000D01*
X136000000Y-88600000D02*
X138700000Y-85900000D01*
X136450000Y-94400000D02*
X136000000Y-93950000D01*
X136800000Y-94400000D02*
X136450000Y-94400000D01*
X138700000Y-85900000D02*
X138700000Y-85450000D01*
D17*
%TO.N,+3V3*%
X149100000Y-77500000D02*
X149100000Y-82700000D01*
X148100000Y-76500000D02*
X149100000Y-77500000D01*
X147650000Y-76500000D02*
X148100000Y-76500000D01*
D16*
%TO.N,/CAN_tranciever/CANL*%
X137700000Y-83700000D02*
X137850000Y-83850000D01*
X137950000Y-75550000D02*
X137700000Y-75800000D01*
X137700000Y-75800000D02*
X137700000Y-83700000D01*
%TO.N,/USB_DM*%
X141200000Y-78400000D02*
X143300000Y-76300000D01*
X141200000Y-82200000D02*
X141200000Y-78400000D01*
X143300000Y-76300000D02*
X144500000Y-76300000D01*
X137900000Y-85750000D02*
X137900000Y-85500000D01*
X137900000Y-85500000D02*
X141200000Y-82200000D01*
%TO.N,/USB_DP*%
X143650000Y-75300000D02*
X144500000Y-75300000D01*
X140750000Y-82000000D02*
X140750000Y-78200000D01*
X136950000Y-85750000D02*
X137000000Y-85750000D01*
X137000000Y-85750000D02*
X140750000Y-82000000D01*
X140750000Y-78200000D02*
X143650000Y-75300000D01*
D17*
%TO.N,+3V3*%
X144150000Y-77598529D02*
X144150000Y-77500000D01*
X143400000Y-78348529D02*
X144150000Y-77598529D01*
X142850000Y-79200000D02*
X143400000Y-78650000D01*
X142800000Y-79200000D02*
X142850000Y-79200000D01*
X143400000Y-78650000D02*
X143400000Y-78348529D01*
X149150000Y-85850000D02*
X149150000Y-82750000D01*
X149150000Y-82750000D02*
X149100000Y-82700000D01*
X149300000Y-86000000D02*
X149150000Y-85850000D01*
D16*
%TO.N,/CAN_tranciever/CANH*%
X138800000Y-82800000D02*
X138800000Y-74500000D01*
X138500000Y-83100000D02*
X138800000Y-82800000D01*
X138800000Y-74500000D02*
X138600000Y-74300000D01*
%TD*%
%TA.AperFunction,Conductor*%
%TO.N,GND*%
G36*
X151736500Y-70417381D02*
G01*
X151782619Y-70463500D01*
X151799500Y-70526500D01*
X151799500Y-87324000D01*
X151782619Y-87387000D01*
X151736500Y-87433119D01*
X151673500Y-87450000D01*
X150453500Y-87450000D01*
X150390500Y-87433119D01*
X150344381Y-87387000D01*
X150327500Y-87324000D01*
X150327500Y-80697340D01*
X150331793Y-80664730D01*
X150331883Y-80664392D01*
X150335044Y-80656762D01*
X150355682Y-80500000D01*
X150335044Y-80343238D01*
X150331883Y-80335607D01*
X150331793Y-80335270D01*
X150327500Y-80302660D01*
X150327500Y-77497277D01*
X150327675Y-77494744D01*
X150329600Y-77489003D01*
X150327634Y-77446484D01*
X150327500Y-77440664D01*
X150327500Y-77430116D01*
X150327500Y-77424285D01*
X150326466Y-77418757D01*
X150326123Y-77413811D01*
X150324808Y-77385366D01*
X150320089Y-77374679D01*
X150318265Y-77366923D01*
X150315389Y-77359499D01*
X150313243Y-77348019D01*
X150300676Y-77327724D01*
X150292543Y-77312294D01*
X150282903Y-77290459D01*
X150274643Y-77282199D01*
X150270139Y-77275624D01*
X150264773Y-77269737D01*
X150258627Y-77259811D01*
X150249312Y-77252777D01*
X150249309Y-77252773D01*
X150239572Y-77245420D01*
X150226410Y-77233966D01*
X147292252Y-74299808D01*
X147261990Y-74251084D01*
X147256461Y-74193994D01*
X147276812Y-74140368D01*
X147318825Y-74101319D01*
X147368481Y-74086523D01*
X147368357Y-74085500D01*
X147482776Y-74071607D01*
X147482775Y-74071607D01*
X147490345Y-74070688D01*
X147643726Y-74012518D01*
X147778729Y-73919332D01*
X147887508Y-73796546D01*
X147963742Y-73651295D01*
X148003000Y-73492021D01*
X148003000Y-73327979D01*
X147963742Y-73168705D01*
X147887508Y-73023454D01*
X147808508Y-72934282D01*
X147783785Y-72906375D01*
X147783784Y-72906374D01*
X147778729Y-72900668D01*
X147772456Y-72896338D01*
X147772455Y-72896337D01*
X147650001Y-72811813D01*
X147649999Y-72811811D01*
X147643726Y-72807482D01*
X147636598Y-72804779D01*
X147636595Y-72804777D01*
X147497473Y-72752015D01*
X147497470Y-72752014D01*
X147490345Y-72749312D01*
X147482783Y-72748393D01*
X147482776Y-72748392D01*
X147372140Y-72734959D01*
X147372134Y-72734958D01*
X147368357Y-72734500D01*
X147286643Y-72734500D01*
X147282866Y-72734958D01*
X147282859Y-72734959D01*
X147172223Y-72748392D01*
X147172214Y-72748394D01*
X147164655Y-72749312D01*
X147157531Y-72752013D01*
X147157526Y-72752015D01*
X147018404Y-72804777D01*
X147018397Y-72804780D01*
X147011274Y-72807482D01*
X147005004Y-72811809D01*
X147004998Y-72811813D01*
X146882544Y-72896337D01*
X146882538Y-72896341D01*
X146876271Y-72900668D01*
X146871218Y-72906370D01*
X146871214Y-72906375D01*
X146772551Y-73017742D01*
X146772546Y-73017749D01*
X146767492Y-73023454D01*
X146763948Y-73030204D01*
X146763946Y-73030209D01*
X146694802Y-73161951D01*
X146694799Y-73161956D01*
X146691258Y-73168705D01*
X146689435Y-73176100D01*
X146689433Y-73176106D01*
X146653822Y-73320585D01*
X146652000Y-73327979D01*
X146652000Y-73335596D01*
X146652000Y-73355366D01*
X146638267Y-73412569D01*
X146600061Y-73457302D01*
X146545711Y-73479815D01*
X146487064Y-73475199D01*
X146436905Y-73444461D01*
X146029651Y-73037207D01*
X146027984Y-73035291D01*
X146025286Y-73029872D01*
X145993823Y-73001190D01*
X145989613Y-72997169D01*
X145982158Y-72989714D01*
X145978039Y-72985595D01*
X145973405Y-72982420D01*
X145969640Y-72979144D01*
X145957241Y-72967841D01*
X145957239Y-72967840D01*
X145948615Y-72959978D01*
X145937732Y-72955761D01*
X145930959Y-72951568D01*
X145923659Y-72948344D01*
X145914029Y-72941748D01*
X145902668Y-72939075D01*
X145902662Y-72939073D01*
X145890798Y-72936283D01*
X145874136Y-72931124D01*
X145862760Y-72926717D01*
X145862758Y-72926716D01*
X145851874Y-72922500D01*
X145840202Y-72922500D01*
X145832365Y-72921035D01*
X145824397Y-72920666D01*
X145813038Y-72917995D01*
X145801480Y-72919607D01*
X145801477Y-72919607D01*
X145789402Y-72921292D01*
X145771995Y-72922500D01*
X143903500Y-72922500D01*
X143840500Y-72905619D01*
X143794381Y-72859500D01*
X143777500Y-72796500D01*
X143777500Y-72456118D01*
X143790494Y-72400390D01*
X143826796Y-72356156D01*
X143921732Y-72283308D01*
X143921732Y-72283307D01*
X143928282Y-72278282D01*
X144024536Y-72152841D01*
X144085044Y-72006762D01*
X144105682Y-71850000D01*
X144085044Y-71693238D01*
X144024536Y-71547159D01*
X143928282Y-71421718D01*
X143802841Y-71325464D01*
X143795214Y-71322304D01*
X143795211Y-71322303D01*
X143664391Y-71268116D01*
X143664390Y-71268115D01*
X143656762Y-71264956D01*
X143648579Y-71263878D01*
X143648573Y-71263877D01*
X143508188Y-71245396D01*
X143500000Y-71244318D01*
X143491812Y-71245396D01*
X143351426Y-71263877D01*
X143351418Y-71263879D01*
X143343238Y-71264956D01*
X143335611Y-71268115D01*
X143335608Y-71268116D01*
X143204788Y-71322303D01*
X143204782Y-71322306D01*
X143197159Y-71325464D01*
X143190611Y-71330487D01*
X143190608Y-71330490D01*
X143078263Y-71416695D01*
X143078259Y-71416698D01*
X143071718Y-71421718D01*
X143066698Y-71428259D01*
X143066695Y-71428263D01*
X142980490Y-71540608D01*
X142980487Y-71540611D01*
X142975464Y-71547159D01*
X142972306Y-71554782D01*
X142972303Y-71554788D01*
X142918116Y-71685608D01*
X142914956Y-71693238D01*
X142913879Y-71701418D01*
X142913877Y-71701426D01*
X142896001Y-71837215D01*
X142894318Y-71850000D01*
X142895396Y-71858188D01*
X142913877Y-71998573D01*
X142913878Y-71998579D01*
X142914956Y-72006762D01*
X142918115Y-72014390D01*
X142918116Y-72014391D01*
X142972303Y-72145211D01*
X142972304Y-72145214D01*
X142975464Y-72152841D01*
X143071718Y-72278282D01*
X143078263Y-72283304D01*
X143078267Y-72283308D01*
X143173204Y-72356156D01*
X143209506Y-72400390D01*
X143222500Y-72456118D01*
X143222500Y-73152497D01*
X143222015Y-73162993D01*
X143218897Y-73173952D01*
X143219974Y-73185577D01*
X143219974Y-73185581D01*
X143221962Y-73207027D01*
X143222500Y-73218653D01*
X143222500Y-74382866D01*
X143212909Y-74431084D01*
X143185595Y-74471961D01*
X139787206Y-77870348D01*
X139785289Y-77872015D01*
X139779872Y-77874714D01*
X139772013Y-77883334D01*
X139772010Y-77883337D01*
X139751208Y-77906156D01*
X139747198Y-77910356D01*
X139739708Y-77917846D01*
X139739699Y-77917856D01*
X139735595Y-77921961D01*
X139732425Y-77926586D01*
X139729150Y-77930350D01*
X139717844Y-77942753D01*
X139717838Y-77942761D01*
X139709978Y-77951385D01*
X139705762Y-77962266D01*
X139701565Y-77969045D01*
X139698342Y-77976343D01*
X139691748Y-77985971D01*
X139689076Y-77997327D01*
X139689073Y-77997336D01*
X139686282Y-78009205D01*
X139681123Y-78025866D01*
X139672500Y-78048126D01*
X139672500Y-78059799D01*
X139671035Y-78067635D01*
X139670666Y-78075603D01*
X139667995Y-78086962D01*
X139669607Y-78098519D01*
X139669607Y-78098522D01*
X139671292Y-78110598D01*
X139672500Y-78128005D01*
X139672500Y-78589355D01*
X139662909Y-78637573D01*
X139635596Y-78678450D01*
X139594719Y-78705763D01*
X139554792Y-78722301D01*
X139554784Y-78722305D01*
X139547159Y-78725464D01*
X139540611Y-78730487D01*
X139540608Y-78730490D01*
X139428263Y-78816695D01*
X139428259Y-78816698D01*
X139421718Y-78821718D01*
X139416698Y-78828259D01*
X139416695Y-78828263D01*
X139330490Y-78940608D01*
X139330487Y-78940611D01*
X139325464Y-78947159D01*
X139322306Y-78954782D01*
X139322303Y-78954788D01*
X139269909Y-79081280D01*
X139227561Y-79134998D01*
X139163386Y-79158674D01*
X139096297Y-79145329D01*
X139046067Y-79098897D01*
X139027500Y-79033062D01*
X139027500Y-74772073D01*
X139034187Y-74731572D01*
X139053537Y-74695369D01*
X139055799Y-74692420D01*
X139124536Y-74602841D01*
X139185044Y-74456762D01*
X139205682Y-74300000D01*
X139185044Y-74143238D01*
X139124536Y-73997159D01*
X139028282Y-73871718D01*
X138902841Y-73775464D01*
X138895214Y-73772304D01*
X138895211Y-73772303D01*
X138764391Y-73718116D01*
X138764390Y-73718115D01*
X138756762Y-73714956D01*
X138748579Y-73713878D01*
X138748573Y-73713877D01*
X138608188Y-73695396D01*
X138600000Y-73694318D01*
X138591812Y-73695396D01*
X138451426Y-73713877D01*
X138451418Y-73713879D01*
X138443238Y-73714956D01*
X138435611Y-73718115D01*
X138435608Y-73718116D01*
X138304788Y-73772303D01*
X138304782Y-73772306D01*
X138297159Y-73775464D01*
X138290611Y-73780487D01*
X138290608Y-73780490D01*
X138178263Y-73866695D01*
X138178259Y-73866698D01*
X138171718Y-73871718D01*
X138166698Y-73878259D01*
X138166695Y-73878263D01*
X138080490Y-73990608D01*
X138080487Y-73990611D01*
X138075464Y-73997159D01*
X138072306Y-74004782D01*
X138072303Y-74004788D01*
X138029474Y-74108188D01*
X138014956Y-74143238D01*
X138013879Y-74151418D01*
X138013877Y-74151426D01*
X138002271Y-74239590D01*
X137994318Y-74300000D01*
X137995396Y-74308188D01*
X138013877Y-74448573D01*
X138013878Y-74448579D01*
X138014956Y-74456762D01*
X138018115Y-74464390D01*
X138018116Y-74464391D01*
X138072303Y-74595211D01*
X138072304Y-74595214D01*
X138075464Y-74602841D01*
X138171718Y-74728282D01*
X138178263Y-74733304D01*
X138178266Y-74733307D01*
X138184426Y-74738034D01*
X138224129Y-74789778D01*
X138232642Y-74854443D01*
X138207682Y-74914700D01*
X138155938Y-74954404D01*
X138091274Y-74962917D01*
X137950000Y-74944318D01*
X137941812Y-74945396D01*
X137801426Y-74963877D01*
X137801418Y-74963879D01*
X137793238Y-74964956D01*
X137785611Y-74968115D01*
X137785608Y-74968116D01*
X137654788Y-75022303D01*
X137654782Y-75022306D01*
X137647159Y-75025464D01*
X137640611Y-75030487D01*
X137640608Y-75030490D01*
X137528263Y-75116695D01*
X137528259Y-75116698D01*
X137521718Y-75121718D01*
X137516698Y-75128259D01*
X137516695Y-75128263D01*
X137430490Y-75240608D01*
X137430487Y-75240611D01*
X137425464Y-75247159D01*
X137422306Y-75254782D01*
X137422303Y-75254788D01*
X137368116Y-75385608D01*
X137364956Y-75393238D01*
X137363879Y-75401418D01*
X137363877Y-75401426D01*
X137347280Y-75527500D01*
X137344318Y-75550000D01*
X137345396Y-75558188D01*
X137363877Y-75698573D01*
X137363878Y-75698579D01*
X137364956Y-75706762D01*
X137368115Y-75714390D01*
X137368116Y-75714391D01*
X137422303Y-75845211D01*
X137422304Y-75845214D01*
X137425464Y-75852841D01*
X137430490Y-75859391D01*
X137430493Y-75859396D01*
X137446463Y-75880209D01*
X137465813Y-75916411D01*
X137472500Y-75956912D01*
X137472500Y-83320616D01*
X137459500Y-83376356D01*
X137432501Y-83409244D01*
X137434109Y-83410852D01*
X137428269Y-83416691D01*
X137421718Y-83421718D01*
X137416695Y-83428263D01*
X137416691Y-83428268D01*
X137330490Y-83540608D01*
X137330487Y-83540611D01*
X137325464Y-83547159D01*
X137322306Y-83554782D01*
X137322303Y-83554788D01*
X137271393Y-83677697D01*
X137264956Y-83693238D01*
X137263879Y-83701418D01*
X137263877Y-83701426D01*
X137251080Y-83798636D01*
X137244318Y-83850000D01*
X137245396Y-83858188D01*
X137263877Y-83998573D01*
X137263878Y-83998579D01*
X137264956Y-84006762D01*
X137268115Y-84014390D01*
X137268116Y-84014391D01*
X137322303Y-84145211D01*
X137322304Y-84145214D01*
X137325464Y-84152841D01*
X137421718Y-84278282D01*
X137547159Y-84374536D01*
X137693238Y-84435044D01*
X137701425Y-84436121D01*
X137701426Y-84436122D01*
X137705004Y-84436593D01*
X137707949Y-84437869D01*
X137709402Y-84438259D01*
X137709344Y-84438474D01*
X137768492Y-84464115D01*
X137807872Y-84521013D01*
X137811268Y-84590126D01*
X137777654Y-84650610D01*
X137276989Y-85151275D01*
X137236113Y-85178588D01*
X137187896Y-85188180D01*
X137139678Y-85178590D01*
X137114391Y-85168116D01*
X137106762Y-85164956D01*
X137098575Y-85163878D01*
X137098571Y-85163877D01*
X136958188Y-85145396D01*
X136950000Y-85144318D01*
X136941812Y-85145396D01*
X136801426Y-85163877D01*
X136801418Y-85163879D01*
X136793238Y-85164956D01*
X136785611Y-85168115D01*
X136785608Y-85168116D01*
X136654788Y-85222303D01*
X136654782Y-85222306D01*
X136647159Y-85225464D01*
X136640611Y-85230487D01*
X136640608Y-85230490D01*
X136528263Y-85316695D01*
X136528259Y-85316698D01*
X136521718Y-85321718D01*
X136516698Y-85328259D01*
X136516695Y-85328263D01*
X136430490Y-85440608D01*
X136430487Y-85440611D01*
X136425464Y-85447159D01*
X136422306Y-85454782D01*
X136422303Y-85454788D01*
X136377500Y-85562954D01*
X136364956Y-85593238D01*
X136363879Y-85601418D01*
X136363877Y-85601426D01*
X136346001Y-85737215D01*
X136344318Y-85750000D01*
X136345396Y-85758188D01*
X136363877Y-85898573D01*
X136363878Y-85898579D01*
X136364956Y-85906762D01*
X136368115Y-85914390D01*
X136368116Y-85914391D01*
X136422303Y-86045211D01*
X136422304Y-86045214D01*
X136425464Y-86052841D01*
X136521718Y-86178282D01*
X136647159Y-86274536D01*
X136793238Y-86335044D01*
X136950000Y-86355682D01*
X137106762Y-86335044D01*
X137252841Y-86274536D01*
X137348296Y-86201290D01*
X137397729Y-86178241D01*
X137452271Y-86178241D01*
X137501703Y-86201290D01*
X137597159Y-86274536D01*
X137604788Y-86277696D01*
X137710429Y-86321454D01*
X137759610Y-86357929D01*
X137785790Y-86413282D01*
X137782785Y-86474439D01*
X137751306Y-86526958D01*
X135845676Y-88432588D01*
X135840895Y-88437126D01*
X135821676Y-88454431D01*
X135821672Y-88454435D01*
X135811837Y-88463292D01*
X135806453Y-88475381D01*
X135806450Y-88475387D01*
X135803481Y-88482057D01*
X135794053Y-88499421D01*
X135790077Y-88505543D01*
X135790074Y-88505548D01*
X135782866Y-88516650D01*
X135780795Y-88529723D01*
X135778953Y-88534523D01*
X135777885Y-88539546D01*
X135772500Y-88551643D01*
X135772500Y-88564885D01*
X135772500Y-88572182D01*
X135770949Y-88591890D01*
X135767737Y-88612172D01*
X135771163Y-88624960D01*
X135771857Y-88638189D01*
X135771403Y-88638212D01*
X135772500Y-88646537D01*
X135772500Y-93940764D01*
X135772327Y-93947357D01*
X135770974Y-93973158D01*
X135770974Y-93973163D01*
X135770282Y-93986384D01*
X135775025Y-93998742D01*
X135775027Y-93998750D01*
X135777642Y-94005561D01*
X135783256Y-94024512D01*
X135784772Y-94031647D01*
X135784773Y-94031649D01*
X135787526Y-94044600D01*
X135795308Y-94055311D01*
X135797398Y-94060005D01*
X135800194Y-94064311D01*
X135804940Y-94076673D01*
X135814304Y-94086037D01*
X135819457Y-94091190D01*
X135832297Y-94106223D01*
X135844372Y-94122842D01*
X135855841Y-94129463D01*
X135865683Y-94138325D01*
X135865378Y-94138662D01*
X135872040Y-94143773D01*
X136174088Y-94445822D01*
X136197997Y-94479188D01*
X136209914Y-94518468D01*
X136214956Y-94556762D01*
X136218115Y-94564388D01*
X136218116Y-94564392D01*
X136272303Y-94695211D01*
X136272304Y-94695214D01*
X136275464Y-94702841D01*
X136371718Y-94828282D01*
X136497159Y-94924536D01*
X136643238Y-94985044D01*
X136800000Y-95005682D01*
X136956762Y-94985044D01*
X137102841Y-94924536D01*
X137228282Y-94828282D01*
X137324536Y-94702841D01*
X137385044Y-94556762D01*
X137405682Y-94400000D01*
X137385044Y-94243238D01*
X137324536Y-94097159D01*
X137228282Y-93971718D01*
X137213413Y-93960309D01*
X137109391Y-93880490D01*
X137102841Y-93875464D01*
X137095214Y-93872304D01*
X137095211Y-93872303D01*
X136964391Y-93818116D01*
X136964390Y-93818115D01*
X136956762Y-93814956D01*
X136948579Y-93813878D01*
X136948573Y-93813877D01*
X136808188Y-93795396D01*
X136800000Y-93794318D01*
X136791812Y-93795396D01*
X136651426Y-93813877D01*
X136651418Y-93813879D01*
X136643238Y-93814956D01*
X136635611Y-93818115D01*
X136635608Y-93818116D01*
X136504788Y-93872303D01*
X136504782Y-93872306D01*
X136497159Y-93875464D01*
X136490611Y-93880488D01*
X136490603Y-93880493D01*
X136443387Y-93916723D01*
X136388563Y-93940846D01*
X136328795Y-93936928D01*
X136277589Y-93905855D01*
X136264405Y-93892671D01*
X136237091Y-93851794D01*
X136227500Y-93803576D01*
X136227500Y-91681196D01*
X136242769Y-91621074D01*
X136284875Y-91575524D01*
X136343614Y-91555584D01*
X136404748Y-91566089D01*
X136453462Y-91604491D01*
X136466693Y-91621734D01*
X136466695Y-91621736D01*
X136471718Y-91628282D01*
X136597159Y-91724536D01*
X136604788Y-91727696D01*
X136634360Y-91739945D01*
X136679039Y-91771229D01*
X136706310Y-91818465D01*
X136711064Y-91872800D01*
X136694318Y-92000000D01*
X136695396Y-92008188D01*
X136713877Y-92148573D01*
X136713878Y-92148579D01*
X136714956Y-92156762D01*
X136718115Y-92164390D01*
X136718116Y-92164391D01*
X136772303Y-92295211D01*
X136772304Y-92295214D01*
X136775464Y-92302841D01*
X136871718Y-92428282D01*
X136997159Y-92524536D01*
X137143238Y-92585044D01*
X137300000Y-92605682D01*
X137456762Y-92585044D01*
X137602841Y-92524536D01*
X137728282Y-92428282D01*
X137824536Y-92302841D01*
X137827694Y-92295214D01*
X137830417Y-92290500D01*
X137876536Y-92244381D01*
X137939536Y-92227500D01*
X139840764Y-92227500D01*
X139847357Y-92227673D01*
X139849765Y-92227799D01*
X139886384Y-92229718D01*
X139905554Y-92222358D01*
X139924502Y-92216745D01*
X139944600Y-92212474D01*
X139955319Y-92204685D01*
X139960005Y-92202599D01*
X139964304Y-92199807D01*
X139976673Y-92195060D01*
X139991194Y-92180538D01*
X140006228Y-92167697D01*
X140022842Y-92155628D01*
X140029464Y-92144156D01*
X140038326Y-92134315D01*
X140038664Y-92134619D01*
X140043773Y-92127958D01*
X143007405Y-89164326D01*
X143057564Y-89133589D01*
X143116211Y-89128973D01*
X143170561Y-89151486D01*
X143208767Y-89196219D01*
X143222500Y-89253422D01*
X143222500Y-91903577D01*
X143212909Y-91951795D01*
X143185595Y-91992672D01*
X141342671Y-93835595D01*
X141301794Y-93862909D01*
X141253576Y-93872500D01*
X139959248Y-93872500D01*
X139952653Y-93872327D01*
X139926838Y-93870974D01*
X139913616Y-93870281D01*
X139901257Y-93875024D01*
X139901254Y-93875025D01*
X139894432Y-93877644D01*
X139875487Y-93883255D01*
X139868351Y-93884772D01*
X139868347Y-93884773D01*
X139855400Y-93887526D01*
X139844694Y-93895303D01*
X139840001Y-93897393D01*
X139835688Y-93900193D01*
X139823327Y-93904939D01*
X139813963Y-93914302D01*
X139813959Y-93914305D01*
X139808796Y-93919468D01*
X139793775Y-93932297D01*
X139787873Y-93936585D01*
X139787868Y-93936590D01*
X139777158Y-93944372D01*
X139770537Y-93955838D01*
X139761677Y-93965679D01*
X139761340Y-93965375D01*
X139756226Y-93972038D01*
X138045676Y-95682588D01*
X138040895Y-95687126D01*
X138021676Y-95704431D01*
X138021672Y-95704435D01*
X138011837Y-95713292D01*
X138006453Y-95725381D01*
X138006450Y-95725387D01*
X138003481Y-95732057D01*
X137994053Y-95749421D01*
X137990077Y-95755543D01*
X137990074Y-95755548D01*
X137982866Y-95766650D01*
X137980795Y-95779723D01*
X137978953Y-95784523D01*
X137977885Y-95789546D01*
X137972500Y-95801643D01*
X137972500Y-95814885D01*
X137972500Y-95822182D01*
X137970949Y-95841890D01*
X137967737Y-95862172D01*
X137971163Y-95874960D01*
X137971857Y-95888189D01*
X137971403Y-95888212D01*
X137972500Y-95896537D01*
X137972500Y-97127927D01*
X137965813Y-97168428D01*
X137946463Y-97204631D01*
X137880490Y-97290608D01*
X137880487Y-97290611D01*
X137875464Y-97297159D01*
X137872306Y-97304783D01*
X137872302Y-97304790D01*
X137840425Y-97381747D01*
X137800720Y-97433490D01*
X137740462Y-97458449D01*
X137675798Y-97449935D01*
X137624054Y-97410230D01*
X137599096Y-97349974D01*
X137585044Y-97243238D01*
X137524536Y-97097159D01*
X137430093Y-96974078D01*
X137405134Y-96913820D01*
X137413648Y-96849155D01*
X137453353Y-96797411D01*
X137471733Y-96783307D01*
X137471732Y-96783307D01*
X137478282Y-96778282D01*
X137574536Y-96652841D01*
X137635044Y-96506762D01*
X137655682Y-96350000D01*
X137635044Y-96193238D01*
X137574536Y-96047159D01*
X137478282Y-95921718D01*
X137352841Y-95825464D01*
X137345214Y-95822304D01*
X137345211Y-95822303D01*
X137214391Y-95768116D01*
X137214390Y-95768115D01*
X137206762Y-95764956D01*
X137198579Y-95763878D01*
X137198573Y-95763877D01*
X137058188Y-95745396D01*
X137050000Y-95744318D01*
X137041812Y-95745396D01*
X136901426Y-95763877D01*
X136901418Y-95763879D01*
X136893238Y-95764956D01*
X136885611Y-95768115D01*
X136885608Y-95768116D01*
X136754788Y-95822303D01*
X136754782Y-95822306D01*
X136747159Y-95825464D01*
X136740611Y-95830487D01*
X136740608Y-95830490D01*
X136628263Y-95916695D01*
X136628259Y-95916698D01*
X136621718Y-95921718D01*
X136616698Y-95928259D01*
X136616695Y-95928263D01*
X136530490Y-96040608D01*
X136530487Y-96040611D01*
X136525464Y-96047159D01*
X136522306Y-96054782D01*
X136522303Y-96054788D01*
X136468116Y-96185608D01*
X136464956Y-96193238D01*
X136463879Y-96201418D01*
X136463877Y-96201426D01*
X136446859Y-96330698D01*
X136444318Y-96350000D01*
X136445396Y-96358188D01*
X136463877Y-96498573D01*
X136463878Y-96498579D01*
X136464956Y-96506762D01*
X136468115Y-96514390D01*
X136468116Y-96514391D01*
X136522303Y-96645211D01*
X136522304Y-96645214D01*
X136525464Y-96652841D01*
X136530487Y-96659388D01*
X136530490Y-96659392D01*
X136619906Y-96775921D01*
X136644865Y-96836178D01*
X136636353Y-96900841D01*
X136596650Y-96952585D01*
X136578268Y-96966690D01*
X136578259Y-96966698D01*
X136571718Y-96971718D01*
X136566698Y-96978259D01*
X136566695Y-96978263D01*
X136480490Y-97090608D01*
X136480487Y-97090611D01*
X136475464Y-97097159D01*
X136472306Y-97104782D01*
X136472303Y-97104788D01*
X136418116Y-97235608D01*
X136414956Y-97243238D01*
X136413879Y-97251418D01*
X136413877Y-97251426D01*
X136400904Y-97349972D01*
X136394318Y-97400000D01*
X136395396Y-97408188D01*
X136413877Y-97548573D01*
X136413878Y-97548579D01*
X136414956Y-97556762D01*
X136418115Y-97564390D01*
X136418116Y-97564391D01*
X136472303Y-97695211D01*
X136472304Y-97695214D01*
X136475464Y-97702841D01*
X136480490Y-97709391D01*
X136550016Y-97800000D01*
X136571718Y-97828282D01*
X136697159Y-97924536D01*
X136843238Y-97985044D01*
X137000000Y-98005682D01*
X137156762Y-97985044D01*
X137302841Y-97924536D01*
X137428282Y-97828282D01*
X137524536Y-97702841D01*
X137559573Y-97618253D01*
X137599278Y-97566510D01*
X137659536Y-97541550D01*
X137724200Y-97550063D01*
X137775945Y-97589768D01*
X137800904Y-97650026D01*
X137813877Y-97748573D01*
X137813878Y-97748579D01*
X137814956Y-97756762D01*
X137818115Y-97764390D01*
X137818116Y-97764391D01*
X137872303Y-97895211D01*
X137872304Y-97895214D01*
X137875464Y-97902841D01*
X137971718Y-98028282D01*
X138097159Y-98124536D01*
X138243238Y-98185044D01*
X138400000Y-98205682D01*
X138556762Y-98185044D01*
X138702841Y-98124536D01*
X138828282Y-98028282D01*
X138852160Y-97997162D01*
X138868368Y-97976041D01*
X138920112Y-97936336D01*
X138984776Y-97927822D01*
X139045034Y-97952781D01*
X139084740Y-98004525D01*
X139122303Y-98095211D01*
X139125464Y-98102841D01*
X139221718Y-98228282D01*
X139347159Y-98324536D01*
X139493238Y-98385044D01*
X139650000Y-98405682D01*
X139806762Y-98385044D01*
X139952841Y-98324536D01*
X140078282Y-98228282D01*
X140174536Y-98102841D01*
X140235044Y-97956762D01*
X140255682Y-97800000D01*
X140235044Y-97643238D01*
X140174536Y-97497159D01*
X140078282Y-97371718D01*
X140071736Y-97366695D01*
X140071733Y-97366692D01*
X140034816Y-97338365D01*
X139993118Y-97281497D01*
X139988506Y-97211131D01*
X140022422Y-97149309D01*
X140587757Y-96583974D01*
X140648238Y-96550363D01*
X140717351Y-96553758D01*
X140774249Y-96593137D01*
X140801772Y-96656624D01*
X140808971Y-96711302D01*
X140814956Y-96756762D01*
X140818115Y-96764390D01*
X140818116Y-96764391D01*
X140872303Y-96895211D01*
X140872304Y-96895214D01*
X140875464Y-96902841D01*
X140880490Y-96909391D01*
X140967276Y-97022493D01*
X140990326Y-97071925D01*
X140990327Y-97126467D01*
X140967277Y-97175899D01*
X140955992Y-97190605D01*
X140955988Y-97190610D01*
X140950964Y-97197159D01*
X140947806Y-97204783D01*
X140947802Y-97204790D01*
X140893616Y-97335608D01*
X140890456Y-97343238D01*
X140889379Y-97351418D01*
X140889377Y-97351426D01*
X140876767Y-97447217D01*
X140869818Y-97500000D01*
X140870896Y-97508188D01*
X140889377Y-97648573D01*
X140889378Y-97648579D01*
X140890456Y-97656762D01*
X140893615Y-97664390D01*
X140893616Y-97664391D01*
X140947803Y-97795211D01*
X140947804Y-97795214D01*
X140950964Y-97802841D01*
X141047218Y-97928282D01*
X141172659Y-98024536D01*
X141318738Y-98085044D01*
X141475500Y-98105682D01*
X141632262Y-98085044D01*
X141778341Y-98024536D01*
X141903782Y-97928282D01*
X141923304Y-97902841D01*
X141981656Y-97826796D01*
X142025890Y-97790494D01*
X142081618Y-97777500D01*
X143002723Y-97777500D01*
X143005255Y-97777675D01*
X143010997Y-97779600D01*
X143053515Y-97777634D01*
X143059336Y-97777500D01*
X143069886Y-97777500D01*
X143075715Y-97777500D01*
X143081238Y-97776467D01*
X143086197Y-97776122D01*
X143114635Y-97774808D01*
X143125321Y-97770089D01*
X143133075Y-97768265D01*
X143140500Y-97765388D01*
X143151981Y-97763243D01*
X143172280Y-97750673D01*
X143187689Y-97742551D01*
X143209542Y-97732903D01*
X143217801Y-97724643D01*
X143224369Y-97720144D01*
X143230257Y-97714775D01*
X143240189Y-97708627D01*
X143254578Y-97689571D01*
X143266018Y-97676425D01*
X145984904Y-94957540D01*
X146035064Y-94926802D01*
X146093711Y-94922186D01*
X146148061Y-94944699D01*
X146186267Y-94989432D01*
X146200000Y-95046635D01*
X146200000Y-95673055D01*
X146183120Y-95736054D01*
X146180490Y-95740608D01*
X146175464Y-95747159D01*
X146172304Y-95754785D01*
X146172303Y-95754789D01*
X146119004Y-95883465D01*
X146114956Y-95893238D01*
X146113879Y-95901418D01*
X146113877Y-95901426D01*
X146096001Y-96037215D01*
X146094318Y-96050000D01*
X146095396Y-96058188D01*
X146113877Y-96198573D01*
X146113878Y-96198579D01*
X146114956Y-96206762D01*
X146175464Y-96352841D01*
X146180490Y-96359392D01*
X146183120Y-96363946D01*
X146200000Y-96426945D01*
X146200000Y-99473500D01*
X146183119Y-99536500D01*
X146137000Y-99582619D01*
X146074000Y-99599500D01*
X135276500Y-99599500D01*
X135213500Y-99582619D01*
X135167381Y-99536500D01*
X135150500Y-99473500D01*
X135150500Y-70526500D01*
X135167381Y-70463500D01*
X135213500Y-70417381D01*
X135276500Y-70400500D01*
X151673500Y-70400500D01*
X151736500Y-70417381D01*
G37*
%TD.AperFunction*%
%TA.AperFunction,Conductor*%
G36*
X146148061Y-93573987D02*
G01*
X146186267Y-93618720D01*
X146200000Y-93675923D01*
X146200000Y-93905365D01*
X146190409Y-93953583D01*
X146163095Y-93994460D01*
X142971961Y-97185595D01*
X142931084Y-97212909D01*
X142882866Y-97222500D01*
X142081618Y-97222500D01*
X142025890Y-97209506D01*
X141981656Y-97173204D01*
X141908224Y-97077506D01*
X141885172Y-97028072D01*
X141885173Y-96973528D01*
X141908224Y-96924098D01*
X141924536Y-96902841D01*
X141927697Y-96895208D01*
X141930418Y-96890497D01*
X141976537Y-96844380D01*
X142039536Y-96827500D01*
X142640764Y-96827500D01*
X142647357Y-96827673D01*
X142649765Y-96827799D01*
X142686384Y-96829718D01*
X142705554Y-96822358D01*
X142724502Y-96816745D01*
X142744600Y-96812474D01*
X142755319Y-96804685D01*
X142760005Y-96802599D01*
X142764304Y-96799807D01*
X142776673Y-96795060D01*
X142791194Y-96780538D01*
X142806228Y-96767697D01*
X142822842Y-96755628D01*
X142829464Y-96744156D01*
X142838326Y-96734315D01*
X142838664Y-96734619D01*
X142843773Y-96727958D01*
X145984904Y-93586828D01*
X146035064Y-93556090D01*
X146093711Y-93551474D01*
X146148061Y-93573987D01*
G37*
%TD.AperFunction*%
%TA.AperFunction,Conductor*%
G36*
X143681497Y-92243118D02*
G01*
X143738365Y-92284816D01*
X143766692Y-92321733D01*
X143766695Y-92321736D01*
X143771718Y-92328282D01*
X143897159Y-92424536D01*
X144043238Y-92485044D01*
X144200000Y-92505682D01*
X144356762Y-92485044D01*
X144498283Y-92426423D01*
X144558850Y-92417440D01*
X144616502Y-92438068D01*
X144657622Y-92483437D01*
X144672500Y-92542833D01*
X144672500Y-92702106D01*
X144662909Y-92750324D01*
X144635595Y-92791201D01*
X142291200Y-95135595D01*
X142250323Y-95162909D01*
X142202105Y-95172500D01*
X140059236Y-95172500D01*
X140052643Y-95172327D01*
X140026841Y-95170975D01*
X140013616Y-95170282D01*
X140001254Y-95175026D01*
X140001253Y-95175027D01*
X139998066Y-95176250D01*
X139994437Y-95177643D01*
X139975492Y-95183255D01*
X139968349Y-95184773D01*
X139968347Y-95184773D01*
X139955400Y-95187526D01*
X139944692Y-95195305D01*
X139940000Y-95197394D01*
X139935685Y-95200195D01*
X139923327Y-95204940D01*
X139913967Y-95214299D01*
X139913960Y-95214304D01*
X139908796Y-95219469D01*
X139893775Y-95232298D01*
X139887871Y-95236587D01*
X139887867Y-95236590D01*
X139877158Y-95244372D01*
X139870536Y-95255838D01*
X139861678Y-95265677D01*
X139861341Y-95265374D01*
X139856227Y-95272037D01*
X139281704Y-95846560D01*
X139240827Y-95873874D01*
X139192609Y-95883465D01*
X139144391Y-95873874D01*
X139014391Y-95820027D01*
X139014390Y-95820026D01*
X139006762Y-95816867D01*
X138998574Y-95815789D01*
X138860753Y-95797644D01*
X138797266Y-95770121D01*
X138757887Y-95713223D01*
X138754492Y-95644110D01*
X138788103Y-95583629D01*
X140007328Y-94364404D01*
X140048205Y-94337091D01*
X140096423Y-94327500D01*
X141390764Y-94327500D01*
X141397357Y-94327673D01*
X141399765Y-94327799D01*
X141436384Y-94329718D01*
X141455554Y-94322358D01*
X141474502Y-94316745D01*
X141494600Y-94312474D01*
X141505319Y-94304685D01*
X141510005Y-94302599D01*
X141514304Y-94299807D01*
X141526673Y-94295060D01*
X141541194Y-94280538D01*
X141556228Y-94267697D01*
X141572842Y-94255628D01*
X141579464Y-94244156D01*
X141588326Y-94234315D01*
X141588664Y-94234619D01*
X141593773Y-94227958D01*
X143549309Y-92272422D01*
X143611131Y-92238506D01*
X143681497Y-92243118D01*
G37*
%TD.AperFunction*%
%TA.AperFunction,Conductor*%
G36*
X144541639Y-81789347D02*
G01*
X144578114Y-81838528D01*
X144622303Y-81945211D01*
X144622304Y-81945214D01*
X144625464Y-81952841D01*
X144721718Y-82078282D01*
X144847159Y-82174536D01*
X144993238Y-82235044D01*
X145001425Y-82236121D01*
X145001426Y-82236122D01*
X145112946Y-82250804D01*
X145168771Y-82272513D01*
X145208263Y-82317546D01*
X145222500Y-82375726D01*
X145222500Y-85238511D01*
X145203499Y-85305048D01*
X145152228Y-85351517D01*
X145084150Y-85363904D01*
X145019796Y-85338474D01*
X145009391Y-85330490D01*
X145002841Y-85325464D01*
X144995214Y-85322304D01*
X144995211Y-85322303D01*
X144864391Y-85268116D01*
X144864390Y-85268115D01*
X144856762Y-85264956D01*
X144848579Y-85263878D01*
X144848573Y-85263877D01*
X144708188Y-85245396D01*
X144700000Y-85244318D01*
X144691812Y-85245396D01*
X144551426Y-85263877D01*
X144551418Y-85263879D01*
X144543238Y-85264956D01*
X144535611Y-85268115D01*
X144535608Y-85268116D01*
X144404788Y-85322303D01*
X144404782Y-85322306D01*
X144397159Y-85325464D01*
X144390611Y-85330487D01*
X144390608Y-85330490D01*
X144278263Y-85416695D01*
X144278259Y-85416698D01*
X144271718Y-85421718D01*
X144266698Y-85428259D01*
X144266695Y-85428263D01*
X144180490Y-85540608D01*
X144180487Y-85540611D01*
X144175464Y-85547159D01*
X144172306Y-85554782D01*
X144172303Y-85554788D01*
X144133596Y-85648236D01*
X144114956Y-85693238D01*
X144113879Y-85701418D01*
X144113877Y-85701426D01*
X144096001Y-85837215D01*
X144094318Y-85850000D01*
X144095396Y-85858188D01*
X144113877Y-85998573D01*
X144113878Y-85998579D01*
X144114956Y-86006762D01*
X144118115Y-86014390D01*
X144118116Y-86014391D01*
X144172303Y-86145211D01*
X144172304Y-86145214D01*
X144175464Y-86152841D01*
X144180490Y-86159391D01*
X144216723Y-86206611D01*
X144240846Y-86261436D01*
X144236928Y-86321204D01*
X144205855Y-86372410D01*
X142845677Y-87732587D01*
X142840896Y-87737125D01*
X142821676Y-87754431D01*
X142821672Y-87754435D01*
X142811837Y-87763292D01*
X142806453Y-87775381D01*
X142806450Y-87775387D01*
X142803481Y-87782057D01*
X142794053Y-87799421D01*
X142790077Y-87805543D01*
X142790074Y-87805548D01*
X142782866Y-87816650D01*
X142780795Y-87829723D01*
X142778953Y-87834523D01*
X142777885Y-87839546D01*
X142772500Y-87851643D01*
X142772500Y-87864885D01*
X142772500Y-87872182D01*
X142770949Y-87891890D01*
X142767737Y-87912172D01*
X142771163Y-87924960D01*
X142771857Y-87938189D01*
X142771403Y-87938212D01*
X142772500Y-87946537D01*
X142772500Y-88703576D01*
X142762909Y-88751794D01*
X142735595Y-88792671D01*
X139792671Y-91735595D01*
X139751794Y-91762909D01*
X139703576Y-91772500D01*
X137939536Y-91772500D01*
X137876536Y-91755619D01*
X137830417Y-91709500D01*
X137827694Y-91704784D01*
X137824536Y-91697159D01*
X137775538Y-91633304D01*
X137766154Y-91621074D01*
X137728282Y-91571718D01*
X137673059Y-91529344D01*
X137609392Y-91480490D01*
X137609388Y-91480487D01*
X137602841Y-91475464D01*
X137595216Y-91472305D01*
X137595210Y-91472302D01*
X137565639Y-91460054D01*
X137520960Y-91428769D01*
X137493688Y-91381533D01*
X137488935Y-91327203D01*
X137505682Y-91200000D01*
X137485044Y-91043238D01*
X137448189Y-90954264D01*
X137439677Y-90889601D01*
X137464637Y-90829343D01*
X137516382Y-90789638D01*
X137521858Y-90787369D01*
X137552841Y-90774536D01*
X137678282Y-90678282D01*
X137774536Y-90552841D01*
X137835044Y-90406762D01*
X137837058Y-90407596D01*
X137855343Y-90372491D01*
X137898611Y-90339300D01*
X137951850Y-90327500D01*
X139340764Y-90327500D01*
X139347357Y-90327673D01*
X139349765Y-90327799D01*
X139386384Y-90329718D01*
X139405554Y-90322358D01*
X139424502Y-90316745D01*
X139444600Y-90312474D01*
X139455319Y-90304685D01*
X139460005Y-90302599D01*
X139464304Y-90299807D01*
X139476673Y-90295060D01*
X139491194Y-90280538D01*
X139506228Y-90267697D01*
X139522842Y-90255628D01*
X139529464Y-90244156D01*
X139538326Y-90234315D01*
X139538664Y-90234619D01*
X139543773Y-90227958D01*
X141004346Y-88767386D01*
X141009090Y-88762883D01*
X141038163Y-88736708D01*
X141046515Y-88717946D01*
X141055951Y-88700570D01*
X141059921Y-88694456D01*
X141067134Y-88683350D01*
X141069205Y-88670265D01*
X141071044Y-88665476D01*
X141072110Y-88660460D01*
X141077500Y-88648357D01*
X141077500Y-88627818D01*
X141079051Y-88608107D01*
X141082263Y-88587828D01*
X141078835Y-88575037D01*
X141078143Y-88561811D01*
X141078596Y-88561787D01*
X141077500Y-88553463D01*
X141077500Y-85465375D01*
X141409693Y-85465375D01*
X141410771Y-85473563D01*
X141429252Y-85613948D01*
X141429253Y-85613954D01*
X141430331Y-85622137D01*
X141433490Y-85629765D01*
X141433491Y-85629766D01*
X141487678Y-85760586D01*
X141487679Y-85760589D01*
X141490839Y-85768216D01*
X141495865Y-85774766D01*
X141562657Y-85861812D01*
X141587093Y-85893657D01*
X141712534Y-85989911D01*
X141858613Y-86050419D01*
X142015375Y-86071057D01*
X142172137Y-86050419D01*
X142318216Y-85989911D01*
X142443657Y-85893657D01*
X142539911Y-85768216D01*
X142584275Y-85661109D01*
X142617606Y-85614596D01*
X142668073Y-85587621D01*
X142725266Y-85585749D01*
X142777389Y-85609366D01*
X142797159Y-85624536D01*
X142943238Y-85685044D01*
X143100000Y-85705682D01*
X143256762Y-85685044D01*
X143402841Y-85624536D01*
X143528282Y-85528282D01*
X143624536Y-85402841D01*
X143685044Y-85256762D01*
X143705682Y-85100000D01*
X143685044Y-84943238D01*
X143624536Y-84797159D01*
X143528282Y-84671718D01*
X143500773Y-84650610D01*
X143409391Y-84580490D01*
X143402841Y-84575464D01*
X143395214Y-84572304D01*
X143395211Y-84572303D01*
X143264391Y-84518116D01*
X143264390Y-84518115D01*
X143256762Y-84514956D01*
X143248579Y-84513878D01*
X143248573Y-84513877D01*
X143108188Y-84495396D01*
X143100000Y-84494318D01*
X143091812Y-84495396D01*
X142951426Y-84513877D01*
X142951418Y-84513879D01*
X142943238Y-84514956D01*
X142935611Y-84518115D01*
X142935608Y-84518116D01*
X142804788Y-84572303D01*
X142804782Y-84572306D01*
X142797159Y-84575464D01*
X142790611Y-84580487D01*
X142790608Y-84580490D01*
X142678263Y-84666695D01*
X142678259Y-84666698D01*
X142671718Y-84671718D01*
X142666698Y-84678259D01*
X142666695Y-84678263D01*
X142580490Y-84790608D01*
X142580487Y-84790611D01*
X142575464Y-84797159D01*
X142572306Y-84804781D01*
X142572304Y-84804786D01*
X142531099Y-84904265D01*
X142497767Y-84950778D01*
X142447301Y-84977753D01*
X142390109Y-84979625D01*
X142337986Y-84956009D01*
X142324766Y-84945865D01*
X142318216Y-84940839D01*
X142310589Y-84937679D01*
X142310586Y-84937678D01*
X142179766Y-84883491D01*
X142179765Y-84883490D01*
X142172137Y-84880331D01*
X142163954Y-84879253D01*
X142163948Y-84879252D01*
X142023563Y-84860771D01*
X142015375Y-84859693D01*
X142007187Y-84860771D01*
X141866801Y-84879252D01*
X141866793Y-84879254D01*
X141858613Y-84880331D01*
X141850986Y-84883490D01*
X141850983Y-84883491D01*
X141720163Y-84937678D01*
X141720157Y-84937681D01*
X141712534Y-84940839D01*
X141705986Y-84945862D01*
X141705983Y-84945865D01*
X141593638Y-85032070D01*
X141593634Y-85032073D01*
X141587093Y-85037093D01*
X141582073Y-85043634D01*
X141582070Y-85043638D01*
X141495865Y-85155983D01*
X141495862Y-85155986D01*
X141490839Y-85162534D01*
X141487681Y-85170157D01*
X141487678Y-85170163D01*
X141433491Y-85300983D01*
X141430331Y-85308613D01*
X141429254Y-85316793D01*
X141429252Y-85316801D01*
X141414579Y-85428263D01*
X141409693Y-85465375D01*
X141077500Y-85465375D01*
X141077500Y-85144952D01*
X141087091Y-85096734D01*
X141114405Y-85055857D01*
X142741994Y-83428268D01*
X144372612Y-81797649D01*
X144425129Y-81766172D01*
X144486286Y-81763167D01*
X144541639Y-81789347D01*
G37*
%TD.AperFunction*%
%TA.AperFunction,Conductor*%
G36*
X148609834Y-77402279D02*
G01*
X148785595Y-77578040D01*
X148812909Y-77618917D01*
X148822500Y-77667135D01*
X148822500Y-82093882D01*
X148809506Y-82149610D01*
X148773204Y-82193844D01*
X148678267Y-82266691D01*
X148678259Y-82266698D01*
X148671718Y-82271718D01*
X148666698Y-82278259D01*
X148666695Y-82278263D01*
X148580490Y-82390608D01*
X148580487Y-82390611D01*
X148575464Y-82397159D01*
X148572306Y-82404782D01*
X148572303Y-82404788D01*
X148518116Y-82535608D01*
X148514956Y-82543238D01*
X148513879Y-82551418D01*
X148513877Y-82551426D01*
X148498041Y-82671718D01*
X148494318Y-82700000D01*
X148495396Y-82708188D01*
X148513877Y-82848573D01*
X148513878Y-82848579D01*
X148514956Y-82856762D01*
X148518115Y-82864390D01*
X148518116Y-82864391D01*
X148572303Y-82995211D01*
X148572304Y-82995214D01*
X148575464Y-83002841D01*
X148580490Y-83009391D01*
X148653462Y-83104491D01*
X148671718Y-83128282D01*
X148699547Y-83149636D01*
X148780851Y-83212023D01*
X148797159Y-83224536D01*
X148804784Y-83227694D01*
X148809500Y-83230417D01*
X148855619Y-83276536D01*
X148872500Y-83339536D01*
X148872500Y-85477266D01*
X148862909Y-85525484D01*
X148823963Y-85619509D01*
X148815455Y-85640048D01*
X148814378Y-85648228D01*
X148814376Y-85648236D01*
X148799586Y-85760583D01*
X148794817Y-85796810D01*
X148795895Y-85804998D01*
X148814376Y-85945383D01*
X148814377Y-85945389D01*
X148815455Y-85953572D01*
X148818614Y-85961200D01*
X148818615Y-85961201D01*
X148872802Y-86092021D01*
X148872803Y-86092024D01*
X148875963Y-86099651D01*
X148880989Y-86106201D01*
X148962806Y-86212828D01*
X148972217Y-86225092D01*
X148995426Y-86242901D01*
X149030102Y-86269509D01*
X149097658Y-86321346D01*
X149105283Y-86324504D01*
X149109500Y-86326939D01*
X149155619Y-86373058D01*
X149172500Y-86436058D01*
X149172500Y-87324000D01*
X149155619Y-87387000D01*
X149109500Y-87433119D01*
X149046500Y-87450000D01*
X147876546Y-87450000D01*
X147813549Y-87433121D01*
X147776260Y-87395835D01*
X147774536Y-87397159D01*
X147678282Y-87271718D01*
X147552841Y-87175464D01*
X147545214Y-87172304D01*
X147545211Y-87172303D01*
X147414391Y-87118116D01*
X147414390Y-87118115D01*
X147406762Y-87114956D01*
X147398579Y-87113878D01*
X147398573Y-87113877D01*
X147258188Y-87095396D01*
X147250000Y-87094318D01*
X147241812Y-87095396D01*
X147101426Y-87113877D01*
X147101418Y-87113879D01*
X147093238Y-87114956D01*
X147085611Y-87118115D01*
X147085608Y-87118116D01*
X146954788Y-87172303D01*
X146954782Y-87172306D01*
X146947159Y-87175464D01*
X146940611Y-87180487D01*
X146940608Y-87180490D01*
X146828263Y-87266695D01*
X146828259Y-87266698D01*
X146821718Y-87271718D01*
X146816698Y-87278259D01*
X146816695Y-87278263D01*
X146725464Y-87397159D01*
X146723739Y-87395835D01*
X146686451Y-87433121D01*
X146623454Y-87450000D01*
X146200000Y-87450000D01*
X146200000Y-87466590D01*
X146200000Y-87576076D01*
X146190403Y-87624308D01*
X146163075Y-87665192D01*
X146158782Y-87669483D01*
X146143775Y-87682298D01*
X146137873Y-87686586D01*
X146137871Y-87686588D01*
X146127158Y-87694372D01*
X146120535Y-87705841D01*
X146111677Y-87715680D01*
X146111339Y-87715376D01*
X146106227Y-87722037D01*
X145842595Y-87985669D01*
X145792436Y-88016407D01*
X145733789Y-88021023D01*
X145679439Y-87998510D01*
X145641233Y-87953777D01*
X145627500Y-87896574D01*
X145627500Y-87596423D01*
X145637091Y-87548205D01*
X145664401Y-87507331D01*
X146604365Y-86567367D01*
X146609090Y-86562883D01*
X146638163Y-86536708D01*
X146646515Y-86517946D01*
X146655951Y-86500570D01*
X146656552Y-86499644D01*
X146667134Y-86483350D01*
X146669205Y-86470265D01*
X146671044Y-86465476D01*
X146672110Y-86460460D01*
X146677500Y-86448357D01*
X146677500Y-86427818D01*
X146679051Y-86408107D01*
X146682263Y-86387828D01*
X146678835Y-86375037D01*
X146678143Y-86361811D01*
X146678596Y-86361787D01*
X146677500Y-86353463D01*
X146677500Y-86014124D01*
X146692378Y-85954728D01*
X146733499Y-85909359D01*
X146791151Y-85888731D01*
X146851719Y-85897716D01*
X146908079Y-85921061D01*
X147064841Y-85941699D01*
X147221603Y-85921061D01*
X147367682Y-85860553D01*
X147493123Y-85764299D01*
X147589377Y-85638858D01*
X147649885Y-85492779D01*
X147670523Y-85336017D01*
X147649885Y-85179255D01*
X147646721Y-85171618D01*
X147645316Y-85166372D01*
X147645315Y-85101148D01*
X147677925Y-85044665D01*
X147754346Y-84968244D01*
X147759090Y-84963741D01*
X147788163Y-84937566D01*
X147796515Y-84918804D01*
X147805951Y-84901428D01*
X147809921Y-84895314D01*
X147817134Y-84884208D01*
X147819205Y-84871123D01*
X147821044Y-84866334D01*
X147822110Y-84861318D01*
X147827500Y-84849215D01*
X147827500Y-84828676D01*
X147829051Y-84808965D01*
X147832263Y-84788686D01*
X147828835Y-84775895D01*
X147828143Y-84762669D01*
X147828596Y-84762645D01*
X147827500Y-84754321D01*
X147827500Y-84209236D01*
X147827673Y-84202643D01*
X147827991Y-84196575D01*
X147829718Y-84163616D01*
X147822358Y-84144444D01*
X147816744Y-84125490D01*
X147812474Y-84105400D01*
X147804688Y-84094684D01*
X147802603Y-84090000D01*
X147799806Y-84085694D01*
X147795060Y-84073327D01*
X147780536Y-84058802D01*
X147767700Y-84043773D01*
X147763412Y-84037871D01*
X147763411Y-84037870D01*
X147755628Y-84027158D01*
X147744158Y-84020536D01*
X147734319Y-84011677D01*
X147734622Y-84011339D01*
X147727958Y-84006225D01*
X147634047Y-83912313D01*
X147602568Y-83859793D01*
X147599564Y-83798636D01*
X147625744Y-83743284D01*
X147674924Y-83706810D01*
X147752841Y-83674536D01*
X147878282Y-83578282D01*
X147974536Y-83452841D01*
X148035044Y-83306762D01*
X148055682Y-83150000D01*
X148035044Y-82993238D01*
X147974536Y-82847159D01*
X147878282Y-82721718D01*
X147849978Y-82700000D01*
X147759391Y-82630490D01*
X147752841Y-82625464D01*
X147745214Y-82622304D01*
X147745211Y-82622303D01*
X147614391Y-82568116D01*
X147614390Y-82568115D01*
X147606762Y-82564956D01*
X147598579Y-82563878D01*
X147598573Y-82563877D01*
X147458188Y-82545396D01*
X147450000Y-82544318D01*
X147441812Y-82545396D01*
X147301426Y-82563877D01*
X147301418Y-82563879D01*
X147293238Y-82564956D01*
X147285611Y-82568115D01*
X147285608Y-82568116D01*
X147154788Y-82622303D01*
X147154782Y-82622306D01*
X147147159Y-82625464D01*
X147140611Y-82630487D01*
X147140608Y-82630490D01*
X147028263Y-82716695D01*
X147028259Y-82716698D01*
X147021718Y-82721718D01*
X147016698Y-82728259D01*
X147016695Y-82728263D01*
X146930490Y-82840608D01*
X146930487Y-82840611D01*
X146925464Y-82847159D01*
X146922306Y-82854782D01*
X146922303Y-82854788D01*
X146882275Y-82951426D01*
X146864956Y-82993238D01*
X146863879Y-83001418D01*
X146863877Y-83001426D01*
X146850309Y-83104491D01*
X146844318Y-83150000D01*
X146845396Y-83158188D01*
X146863877Y-83298573D01*
X146863878Y-83298579D01*
X146864956Y-83306762D01*
X146868115Y-83314390D01*
X146868116Y-83314391D01*
X146922303Y-83445211D01*
X146922304Y-83445214D01*
X146925464Y-83452841D01*
X146930490Y-83459391D01*
X146938474Y-83469796D01*
X146963904Y-83534150D01*
X146951517Y-83602228D01*
X146905048Y-83653499D01*
X146838511Y-83672500D01*
X146609248Y-83672500D01*
X146602653Y-83672327D01*
X146576839Y-83670974D01*
X146563616Y-83670281D01*
X146551256Y-83675025D01*
X146551251Y-83675026D01*
X146544435Y-83677643D01*
X146525482Y-83683257D01*
X146518350Y-83684773D01*
X146518349Y-83684773D01*
X146505400Y-83687526D01*
X146494691Y-83695305D01*
X146489993Y-83697397D01*
X146485682Y-83700196D01*
X146473327Y-83704940D01*
X146463966Y-83714300D01*
X146463962Y-83714303D01*
X146458796Y-83719469D01*
X146443775Y-83732298D01*
X146437871Y-83736587D01*
X146437867Y-83736590D01*
X146427158Y-83744372D01*
X146420536Y-83755838D01*
X146411678Y-83765677D01*
X146411342Y-83765374D01*
X146406228Y-83772037D01*
X145892593Y-84285671D01*
X145842436Y-84316408D01*
X145783789Y-84321024D01*
X145729439Y-84298511D01*
X145691233Y-84253778D01*
X145677500Y-84196575D01*
X145677500Y-81970748D01*
X145687091Y-81922529D01*
X145694034Y-81905767D01*
X145735044Y-81806762D01*
X145755682Y-81650000D01*
X145735044Y-81493238D01*
X145674536Y-81347159D01*
X145578282Y-81221718D01*
X145452841Y-81125464D01*
X145445214Y-81122304D01*
X145445211Y-81122303D01*
X145338528Y-81078114D01*
X145289347Y-81041639D01*
X145263167Y-80986286D01*
X145266172Y-80925129D01*
X145297649Y-80872612D01*
X145754346Y-80415915D01*
X145759090Y-80411412D01*
X145788163Y-80385237D01*
X145796515Y-80366475D01*
X145805951Y-80349099D01*
X145809921Y-80342985D01*
X145817134Y-80331879D01*
X145819205Y-80318794D01*
X145821044Y-80314005D01*
X145822110Y-80308989D01*
X145827500Y-80296886D01*
X145827500Y-80276347D01*
X145829051Y-80256636D01*
X145832263Y-80236357D01*
X145828835Y-80223566D01*
X145828143Y-80210340D01*
X145828596Y-80210316D01*
X145827500Y-80201992D01*
X145827500Y-79746423D01*
X145837091Y-79698205D01*
X145864405Y-79657328D01*
X146436905Y-79084828D01*
X146487064Y-79054090D01*
X146545711Y-79049474D01*
X146600061Y-79071987D01*
X146638267Y-79116720D01*
X146652000Y-79173923D01*
X146652000Y-79272021D01*
X146653821Y-79279412D01*
X146653822Y-79279414D01*
X146689433Y-79423893D01*
X146689434Y-79423897D01*
X146691258Y-79431295D01*
X146694801Y-79438046D01*
X146694802Y-79438048D01*
X146758488Y-79559391D01*
X146767492Y-79576546D01*
X146772549Y-79582254D01*
X146772551Y-79582257D01*
X146851821Y-79671734D01*
X146876271Y-79699332D01*
X147011274Y-79792518D01*
X147164655Y-79850688D01*
X147172222Y-79851606D01*
X147172223Y-79851607D01*
X147186495Y-79853339D01*
X147286643Y-79865500D01*
X147364548Y-79865500D01*
X147368357Y-79865500D01*
X147490345Y-79850688D01*
X147643726Y-79792518D01*
X147778729Y-79699332D01*
X147887508Y-79576546D01*
X147963742Y-79431295D01*
X148003000Y-79272021D01*
X148003000Y-79107979D01*
X147963742Y-78948705D01*
X147887508Y-78803454D01*
X147867166Y-78780493D01*
X147783785Y-78686375D01*
X147783784Y-78686374D01*
X147778729Y-78680668D01*
X147772456Y-78676338D01*
X147772455Y-78676337D01*
X147650001Y-78591813D01*
X147649999Y-78591811D01*
X147643726Y-78587482D01*
X147636598Y-78584779D01*
X147636595Y-78584777D01*
X147497473Y-78532015D01*
X147497470Y-78532014D01*
X147490345Y-78529312D01*
X147482783Y-78528393D01*
X147482776Y-78528392D01*
X147372140Y-78514959D01*
X147372134Y-78514958D01*
X147368357Y-78514500D01*
X147311422Y-78514500D01*
X147254219Y-78500767D01*
X147209486Y-78462561D01*
X147186973Y-78408211D01*
X147191589Y-78349564D01*
X147222324Y-78299408D01*
X147508647Y-78013084D01*
X147565126Y-77980476D01*
X147630347Y-77980475D01*
X147635614Y-77981886D01*
X147643238Y-77985044D01*
X147800000Y-78005682D01*
X147956762Y-77985044D01*
X148102841Y-77924536D01*
X148228282Y-77828282D01*
X148324536Y-77702841D01*
X148385044Y-77556762D01*
X148395817Y-77474927D01*
X148423339Y-77411441D01*
X148480237Y-77372061D01*
X148549350Y-77368665D01*
X148609834Y-77402279D01*
G37*
%TD.AperFunction*%
%TA.AperFunction,Conductor*%
G36*
X140020561Y-84601487D02*
G01*
X140058767Y-84646220D01*
X140072500Y-84703423D01*
X140072500Y-86103576D01*
X140062909Y-86151794D01*
X140035595Y-86192671D01*
X139742671Y-86485595D01*
X139701794Y-86512909D01*
X139653576Y-86522500D01*
X138709248Y-86522500D01*
X138702634Y-86522326D01*
X138697098Y-86522035D01*
X138641844Y-86505974D01*
X138599493Y-86467022D01*
X138578877Y-86413301D01*
X138584294Y-86356016D01*
X138614615Y-86307116D01*
X138854336Y-86067395D01*
X138859080Y-86062892D01*
X138888163Y-86036708D01*
X138896517Y-86017942D01*
X138905953Y-86000565D01*
X138917134Y-85983349D01*
X138919205Y-85970269D01*
X138921045Y-85965478D01*
X138922112Y-85960457D01*
X138927500Y-85948357D01*
X138927500Y-85927825D01*
X138929051Y-85908113D01*
X138929265Y-85906762D01*
X138932264Y-85887828D01*
X138928836Y-85875037D01*
X138928144Y-85861812D01*
X138928596Y-85861788D01*
X138927500Y-85853460D01*
X138927500Y-85596423D01*
X138937091Y-85548205D01*
X138964405Y-85507328D01*
X139857405Y-84614328D01*
X139907564Y-84583590D01*
X139966211Y-84578974D01*
X140020561Y-84601487D01*
G37*
%TD.AperFunction*%
%TA.AperFunction,Conductor*%
G36*
X143923464Y-76544381D02*
G01*
X143969583Y-76590500D01*
X143972305Y-76595216D01*
X143975464Y-76602841D01*
X143980486Y-76609386D01*
X143980488Y-76609389D01*
X144063060Y-76716999D01*
X144087414Y-76773178D01*
X144082410Y-76834204D01*
X144049231Y-76885665D01*
X143997545Y-76914388D01*
X143993238Y-76914956D01*
X143985612Y-76918114D01*
X143985611Y-76918115D01*
X143854788Y-76972303D01*
X143854782Y-76972306D01*
X143847159Y-76975464D01*
X143840611Y-76980487D01*
X143840608Y-76980490D01*
X143728263Y-77066695D01*
X143728259Y-77066698D01*
X143721718Y-77071718D01*
X143716698Y-77078259D01*
X143716695Y-77078263D01*
X143630490Y-77190608D01*
X143630487Y-77190611D01*
X143625464Y-77197159D01*
X143622306Y-77204782D01*
X143622303Y-77204788D01*
X143577778Y-77312282D01*
X143564956Y-77343238D01*
X143563879Y-77351418D01*
X143563877Y-77351426D01*
X143551745Y-77443586D01*
X143544318Y-77500000D01*
X143545396Y-77508188D01*
X143563877Y-77648573D01*
X143563878Y-77648579D01*
X143564956Y-77656762D01*
X143568116Y-77664392D01*
X143568117Y-77664394D01*
X143572094Y-77673997D01*
X143581683Y-77722214D01*
X143572091Y-77770430D01*
X143544778Y-77811305D01*
X143237206Y-78118877D01*
X143235289Y-78120544D01*
X143229872Y-78123243D01*
X143222013Y-78131863D01*
X143222010Y-78131866D01*
X143201208Y-78154685D01*
X143197198Y-78158885D01*
X143189708Y-78166375D01*
X143189699Y-78166385D01*
X143185595Y-78170490D01*
X143182425Y-78175115D01*
X143179150Y-78178879D01*
X143167844Y-78191282D01*
X143167838Y-78191290D01*
X143159978Y-78199914D01*
X143155762Y-78210795D01*
X143151565Y-78217574D01*
X143148342Y-78224872D01*
X143141748Y-78234500D01*
X143139076Y-78245856D01*
X143139073Y-78245865D01*
X143136282Y-78257734D01*
X143131123Y-78274395D01*
X143122500Y-78296655D01*
X143122500Y-78308328D01*
X143121035Y-78316164D01*
X143120666Y-78324132D01*
X143117995Y-78335491D01*
X143119607Y-78347048D01*
X143119607Y-78347051D01*
X143121292Y-78359127D01*
X143122500Y-78376534D01*
X143122500Y-78482865D01*
X143112908Y-78531086D01*
X143085591Y-78571965D01*
X143075014Y-78582541D01*
X143018531Y-78615148D01*
X142957226Y-78615148D01*
X142956762Y-78614956D01*
X142948573Y-78613877D01*
X142948570Y-78613877D01*
X142808188Y-78595396D01*
X142800000Y-78594318D01*
X142791812Y-78595396D01*
X142651426Y-78613877D01*
X142651418Y-78613879D01*
X142643238Y-78614956D01*
X142635611Y-78618115D01*
X142635608Y-78618116D01*
X142504788Y-78672303D01*
X142504782Y-78672306D01*
X142497159Y-78675464D01*
X142490611Y-78680487D01*
X142490608Y-78680490D01*
X142378263Y-78766695D01*
X142378259Y-78766698D01*
X142371718Y-78771718D01*
X142366698Y-78778259D01*
X142366695Y-78778263D01*
X142280490Y-78890608D01*
X142280487Y-78890611D01*
X142275464Y-78897159D01*
X142272306Y-78904782D01*
X142272303Y-78904788D01*
X142219171Y-79033062D01*
X142214956Y-79043238D01*
X142213879Y-79051418D01*
X142213877Y-79051426D01*
X142199543Y-79160312D01*
X142194318Y-79200000D01*
X142195396Y-79208188D01*
X142213877Y-79348573D01*
X142213878Y-79348579D01*
X142214956Y-79356762D01*
X142218115Y-79364390D01*
X142218116Y-79364391D01*
X142272303Y-79495211D01*
X142272304Y-79495214D01*
X142275464Y-79502841D01*
X142371718Y-79628282D01*
X142497159Y-79724536D01*
X142575075Y-79756810D01*
X142624255Y-79793284D01*
X142650435Y-79848636D01*
X142647431Y-79909794D01*
X142615952Y-79962313D01*
X142184168Y-80394097D01*
X141642593Y-80935671D01*
X141592436Y-80966408D01*
X141533789Y-80971024D01*
X141479439Y-80948511D01*
X141441233Y-80903778D01*
X141427500Y-80846575D01*
X141427500Y-78546423D01*
X141437091Y-78498205D01*
X141464405Y-78457328D01*
X143357329Y-76564405D01*
X143398206Y-76537091D01*
X143446424Y-76527500D01*
X143860464Y-76527500D01*
X143923464Y-76544381D01*
G37*
%TD.AperFunction*%
%TA.AperFunction,Conductor*%
G36*
X145681083Y-73487091D02*
G01*
X145721960Y-73514405D01*
X147907916Y-75700361D01*
X147939632Y-75753670D01*
X147942068Y-75815653D01*
X147914632Y-75871286D01*
X147863976Y-75907087D01*
X147802375Y-75914378D01*
X147658188Y-75895396D01*
X147650000Y-75894318D01*
X147641812Y-75895396D01*
X147501426Y-75913877D01*
X147501418Y-75913879D01*
X147493238Y-75914956D01*
X147485611Y-75918115D01*
X147485608Y-75918116D01*
X147354788Y-75972303D01*
X147354782Y-75972306D01*
X147347159Y-75975464D01*
X147340611Y-75980487D01*
X147340608Y-75980490D01*
X147228263Y-76066695D01*
X147228259Y-76066698D01*
X147221718Y-76071718D01*
X147216698Y-76078259D01*
X147216695Y-76078263D01*
X147130490Y-76190608D01*
X147130487Y-76190611D01*
X147125464Y-76197159D01*
X147122306Y-76204782D01*
X147122303Y-76204788D01*
X147083180Y-76299241D01*
X147064956Y-76343238D01*
X147063879Y-76351418D01*
X147063877Y-76351426D01*
X147046001Y-76487215D01*
X147044318Y-76500000D01*
X147045396Y-76508188D01*
X147063877Y-76648573D01*
X147063878Y-76648579D01*
X147064956Y-76656762D01*
X147068115Y-76664390D01*
X147068116Y-76664391D01*
X147122303Y-76795211D01*
X147122304Y-76795214D01*
X147125464Y-76802841D01*
X147130490Y-76809391D01*
X147188190Y-76884588D01*
X147221718Y-76928282D01*
X147228263Y-76933304D01*
X147228269Y-76933310D01*
X147239729Y-76942104D01*
X147277218Y-76988813D01*
X147288904Y-77047554D01*
X147274559Y-77096784D01*
X147275464Y-77097159D01*
X147218797Y-77233966D01*
X147214956Y-77243238D01*
X147213879Y-77251418D01*
X147213877Y-77251426D01*
X147198615Y-77367363D01*
X147194318Y-77400000D01*
X147195396Y-77408188D01*
X147213877Y-77548571D01*
X147213878Y-77548573D01*
X147214956Y-77556762D01*
X147218115Y-77564390D01*
X147219525Y-77569650D01*
X147219523Y-77634871D01*
X147186912Y-77691353D01*
X145445677Y-79432587D01*
X145440896Y-79437125D01*
X145421676Y-79454431D01*
X145421672Y-79454435D01*
X145411837Y-79463292D01*
X145406453Y-79475381D01*
X145406450Y-79475387D01*
X145403481Y-79482057D01*
X145394053Y-79499421D01*
X145390077Y-79505543D01*
X145390074Y-79505548D01*
X145382866Y-79516650D01*
X145380795Y-79529723D01*
X145378953Y-79534523D01*
X145377885Y-79539546D01*
X145372500Y-79551643D01*
X145372500Y-79564885D01*
X145372500Y-79572182D01*
X145370949Y-79591890D01*
X145367737Y-79612172D01*
X145371163Y-79624960D01*
X145371857Y-79638189D01*
X145371403Y-79638212D01*
X145372500Y-79646537D01*
X145372500Y-80102104D01*
X145362909Y-80150322D01*
X145335595Y-80191200D01*
X144647237Y-80879556D01*
X144594717Y-80911035D01*
X144533560Y-80914039D01*
X144478207Y-80887858D01*
X144441734Y-80838678D01*
X144424536Y-80797159D01*
X144328282Y-80671718D01*
X144321736Y-80666695D01*
X144321731Y-80666690D01*
X144235240Y-80600323D01*
X144200180Y-80558541D01*
X144186064Y-80505856D01*
X144195536Y-80452142D01*
X144210534Y-80415934D01*
X144235044Y-80356762D01*
X144255682Y-80200000D01*
X144235044Y-80043238D01*
X144236236Y-80043081D01*
X144237598Y-79980691D01*
X144276776Y-79922059D01*
X144341319Y-79893659D01*
X144406762Y-79885044D01*
X144552841Y-79824536D01*
X144678282Y-79728282D01*
X144774536Y-79602841D01*
X144835044Y-79456762D01*
X144855682Y-79300000D01*
X144846143Y-79227546D01*
X144849359Y-79178489D01*
X144871108Y-79134392D01*
X144903418Y-79106062D01*
X144903339Y-79105959D01*
X144903338Y-79105959D01*
X145028780Y-79009705D01*
X145125034Y-78884264D01*
X145185542Y-78738185D01*
X145206180Y-78581423D01*
X145185542Y-78424661D01*
X145139334Y-78313107D01*
X145129744Y-78264890D01*
X145139335Y-78216672D01*
X145166646Y-78175797D01*
X145462800Y-77879642D01*
X145464704Y-77877985D01*
X145470128Y-77875286D01*
X145498823Y-77843807D01*
X145502801Y-77839641D01*
X145514405Y-77828039D01*
X145517580Y-77823402D01*
X145520855Y-77819639D01*
X145540022Y-77798615D01*
X145544240Y-77787723D01*
X145548432Y-77780954D01*
X145551649Y-77773667D01*
X145558252Y-77764030D01*
X145563714Y-77740799D01*
X145568879Y-77724124D01*
X145569619Y-77722214D01*
X145577500Y-77701874D01*
X145577500Y-77690198D01*
X145578964Y-77682368D01*
X145579332Y-77674401D01*
X145582005Y-77663038D01*
X145578708Y-77639402D01*
X145577500Y-77621995D01*
X145577500Y-74697273D01*
X145577675Y-74694742D01*
X145579600Y-74689002D01*
X145577634Y-74646483D01*
X145577500Y-74640663D01*
X145577500Y-74630116D01*
X145577500Y-74624285D01*
X145576466Y-74618757D01*
X145576123Y-74613811D01*
X145574808Y-74585365D01*
X145570089Y-74574678D01*
X145568266Y-74566926D01*
X145565389Y-74559499D01*
X145563243Y-74548019D01*
X145550672Y-74527716D01*
X145542549Y-74512307D01*
X145532902Y-74490458D01*
X145524643Y-74482199D01*
X145520139Y-74475624D01*
X145514773Y-74469737D01*
X145508627Y-74459811D01*
X145499312Y-74452777D01*
X145499309Y-74452773D01*
X145489572Y-74445420D01*
X145476410Y-74433966D01*
X145330628Y-74288184D01*
X145300410Y-74239590D01*
X145294801Y-74182644D01*
X145305682Y-74100000D01*
X145285044Y-73943238D01*
X145224536Y-73797159D01*
X145219510Y-73790609D01*
X145219509Y-73790607D01*
X145134794Y-73680204D01*
X145109364Y-73615850D01*
X145121751Y-73547771D01*
X145168221Y-73496500D01*
X145234757Y-73477500D01*
X145632865Y-73477500D01*
X145681083Y-73487091D01*
G37*
%TD.AperFunction*%
%TD*%
%TA.AperFunction,NonConductor*%
G36*
X144231779Y-73496500D02*
G01*
X144278249Y-73547771D01*
X144290636Y-73615850D01*
X144265206Y-73680204D01*
X144180490Y-73790607D01*
X144180485Y-73790614D01*
X144175464Y-73797159D01*
X144172306Y-73804782D01*
X144172303Y-73804788D01*
X144118116Y-73935608D01*
X144114956Y-73943238D01*
X144113879Y-73951418D01*
X144113877Y-73951426D01*
X144106405Y-74008186D01*
X144094318Y-74100000D01*
X144095396Y-74108186D01*
X144095396Y-74108188D01*
X144113877Y-74248573D01*
X144113878Y-74248579D01*
X144114956Y-74256762D01*
X144118115Y-74264390D01*
X144118116Y-74264391D01*
X144172303Y-74395211D01*
X144172304Y-74395214D01*
X144175464Y-74402841D01*
X144271718Y-74528282D01*
X144278263Y-74533304D01*
X144278268Y-74533309D01*
X144281642Y-74535898D01*
X144321347Y-74587642D01*
X144329860Y-74652306D01*
X144304901Y-74712564D01*
X144253157Y-74752269D01*
X144204786Y-74772304D01*
X144204781Y-74772306D01*
X144197159Y-74775464D01*
X144190611Y-74780487D01*
X144190608Y-74780490D01*
X144078263Y-74866695D01*
X144078259Y-74866698D01*
X144071718Y-74871718D01*
X144066698Y-74878259D01*
X144066695Y-74878263D01*
X143980488Y-74990610D01*
X143980484Y-74990616D01*
X143975464Y-74997159D01*
X143972306Y-75004783D01*
X143969583Y-75009500D01*
X143923464Y-75055619D01*
X143860464Y-75072500D01*
X143674133Y-75072500D01*
X143616930Y-75058767D01*
X143572197Y-75020561D01*
X143549684Y-74966211D01*
X143554300Y-74907564D01*
X143585035Y-74857407D01*
X143662804Y-74779638D01*
X143664703Y-74777986D01*
X143670128Y-74775286D01*
X143698823Y-74743807D01*
X143702801Y-74739641D01*
X143714405Y-74728039D01*
X143717580Y-74723402D01*
X143720855Y-74719639D01*
X143740022Y-74698615D01*
X143744240Y-74687723D01*
X143748432Y-74680954D01*
X143751649Y-74673667D01*
X143758252Y-74664030D01*
X143763714Y-74640799D01*
X143768879Y-74624124D01*
X143770632Y-74619600D01*
X143777500Y-74601874D01*
X143777500Y-74590198D01*
X143778964Y-74582368D01*
X143779332Y-74574401D01*
X143782005Y-74563038D01*
X143778708Y-74539402D01*
X143777500Y-74521995D01*
X143777500Y-73603500D01*
X143794381Y-73540500D01*
X143840500Y-73494381D01*
X143903500Y-73477500D01*
X144165243Y-73477500D01*
X144231779Y-73496500D01*
G37*
%TD.AperFunction*%
%TA.AperFunction,NonConductor*%
G36*
X143923464Y-75544381D02*
G01*
X143969583Y-75590500D01*
X143972305Y-75595216D01*
X143975464Y-75602841D01*
X143980486Y-75609386D01*
X143980488Y-75609389D01*
X144067892Y-75723296D01*
X144090942Y-75772729D01*
X144090942Y-75827271D01*
X144067892Y-75876704D01*
X143980488Y-75990610D01*
X143980484Y-75990616D01*
X143975464Y-75997159D01*
X143972306Y-76004783D01*
X143969583Y-76009500D01*
X143923464Y-76055619D01*
X143860464Y-76072500D01*
X143503424Y-76072500D01*
X143446221Y-76058767D01*
X143401488Y-76020561D01*
X143378975Y-75966211D01*
X143383591Y-75907564D01*
X143414329Y-75857404D01*
X143444463Y-75827271D01*
X143707329Y-75564404D01*
X143748207Y-75537091D01*
X143796425Y-75527500D01*
X143860464Y-75527500D01*
X143923464Y-75544381D01*
G37*
%TD.AperFunction*%
%TA.AperFunction,NonConductor*%
G36*
X144952228Y-76798483D02*
G01*
X145003499Y-76844952D01*
X145022500Y-76911489D01*
X145022500Y-77482865D01*
X145012909Y-77531083D01*
X144985595Y-77571960D01*
X144969699Y-77587856D01*
X144919540Y-77618594D01*
X144860893Y-77623210D01*
X144806543Y-77600697D01*
X144768337Y-77555964D01*
X144755405Y-77502099D01*
X144755682Y-77500000D01*
X144735044Y-77343238D01*
X144674536Y-77197159D01*
X144586939Y-77083000D01*
X144562585Y-77026819D01*
X144567590Y-76965792D01*
X144600773Y-76914330D01*
X144652456Y-76885610D01*
X144656762Y-76885044D01*
X144802841Y-76824536D01*
X144819796Y-76811525D01*
X144884150Y-76786096D01*
X144952228Y-76798483D01*
G37*
%TD.AperFunction*%
%TA.AperFunction,NonConductor*%
G36*
X143969266Y-78335916D02*
G01*
X144005067Y-78386573D01*
X144012358Y-78448174D01*
X144001443Y-78531086D01*
X143994816Y-78581423D01*
X143995894Y-78589611D01*
X144004354Y-78653872D01*
X144001139Y-78702929D01*
X143979395Y-78747021D01*
X143947079Y-78775361D01*
X143947158Y-78775464D01*
X143945600Y-78776659D01*
X143945588Y-78776669D01*
X143940611Y-78780488D01*
X143940603Y-78780493D01*
X143874745Y-78831027D01*
X143819664Y-78855195D01*
X143759657Y-78851075D01*
X143708396Y-78819606D01*
X143677565Y-78767960D01*
X143674311Y-78710103D01*
X143677500Y-78701874D01*
X143677500Y-78690191D01*
X143678964Y-78682361D01*
X143679331Y-78674403D01*
X143682005Y-78663038D01*
X143678708Y-78639402D01*
X143677500Y-78621995D01*
X143677500Y-78515665D01*
X143687091Y-78467447D01*
X143714404Y-78426570D01*
X143754401Y-78386573D01*
X143798341Y-78342632D01*
X143851649Y-78310917D01*
X143913632Y-78308481D01*
X143969266Y-78335916D01*
G37*
%TD.AperFunction*%
%TA.AperFunction,NonConductor*%
G36*
X140465847Y-78121396D02*
G01*
X140504797Y-78163754D01*
X140518134Y-78209661D01*
X140517737Y-78212172D01*
X140521163Y-78224960D01*
X140521857Y-78238188D01*
X140521403Y-78238211D01*
X140522500Y-78246537D01*
X140522500Y-78768804D01*
X140507231Y-78828926D01*
X140465125Y-78874476D01*
X140406386Y-78894416D01*
X140345252Y-78883911D01*
X140296538Y-78845509D01*
X140283310Y-78828270D01*
X140283307Y-78828267D01*
X140278282Y-78821718D01*
X140271729Y-78816690D01*
X140265891Y-78810852D01*
X140267498Y-78809244D01*
X140240500Y-78776356D01*
X140227500Y-78720616D01*
X140227500Y-78267135D01*
X140237091Y-78218918D01*
X140264401Y-78178043D01*
X140305933Y-78136511D01*
X140354835Y-78106191D01*
X140412124Y-78100775D01*
X140465847Y-78121396D01*
G37*
%TD.AperFunction*%
%TA.AperFunction,NonConductor*%
G36*
X149540110Y-77353560D02*
G01*
X149592579Y-77385024D01*
X149735595Y-77528040D01*
X149762909Y-77568917D01*
X149772500Y-77617135D01*
X149772500Y-79780857D01*
X149758263Y-79839037D01*
X149718770Y-79884070D01*
X149662946Y-79905778D01*
X149593238Y-79914956D01*
X149585611Y-79918115D01*
X149585608Y-79918116D01*
X149551718Y-79932154D01*
X149491150Y-79941138D01*
X149433498Y-79920510D01*
X149392378Y-79875141D01*
X149377500Y-79815745D01*
X149377500Y-77547277D01*
X149377675Y-77544744D01*
X149379600Y-77539003D01*
X149377634Y-77496484D01*
X149377500Y-77490664D01*
X149377500Y-77474285D01*
X149379857Y-77474285D01*
X149387156Y-77425707D01*
X149423672Y-77376620D01*
X149479006Y-77350520D01*
X149540110Y-77353560D01*
G37*
%TD.AperFunction*%
%TA.AperFunction,NonConductor*%
G36*
X149551718Y-81067846D02*
G01*
X149593238Y-81085044D01*
X149662946Y-81094221D01*
X149718770Y-81115930D01*
X149758263Y-81160963D01*
X149772500Y-81219143D01*
X149772500Y-82218804D01*
X149757231Y-82278926D01*
X149715125Y-82324476D01*
X149656386Y-82344416D01*
X149595252Y-82333911D01*
X149546538Y-82295509D01*
X149533306Y-82278265D01*
X149533304Y-82278263D01*
X149528282Y-82271718D01*
X149521736Y-82266695D01*
X149521732Y-82266691D01*
X149426796Y-82193844D01*
X149390494Y-82149610D01*
X149377500Y-82093882D01*
X149377500Y-81184255D01*
X149392378Y-81124859D01*
X149433498Y-81079490D01*
X149491150Y-81058862D01*
X149551718Y-81067846D01*
G37*
%TD.AperFunction*%
%TA.AperFunction,NonConductor*%
G36*
X143042070Y-80340387D02*
G01*
X143078545Y-80389568D01*
X143122303Y-80495211D01*
X143122304Y-80495214D01*
X143125464Y-80502841D01*
X143221718Y-80628282D01*
X143228263Y-80633304D01*
X143228268Y-80633309D01*
X143314759Y-80699676D01*
X143349818Y-80741458D01*
X143363935Y-80794142D01*
X143354464Y-80847856D01*
X143322457Y-80925129D01*
X143314956Y-80943238D01*
X143313879Y-80951418D01*
X143313877Y-80951426D01*
X143298551Y-81067846D01*
X143294318Y-81100000D01*
X143295396Y-81108189D01*
X143301790Y-81156761D01*
X143296181Y-81213708D01*
X143265963Y-81262301D01*
X142192595Y-82335670D01*
X142142436Y-82366408D01*
X142083789Y-82371024D01*
X142029439Y-82348511D01*
X141991233Y-82303778D01*
X141977500Y-82246575D01*
X141977500Y-81296423D01*
X141987091Y-81248205D01*
X142014401Y-81207331D01*
X142873044Y-80348688D01*
X142925560Y-80317212D01*
X142986717Y-80314207D01*
X143042070Y-80340387D01*
G37*
%TD.AperFunction*%
%TA.AperFunction,NonConductor*%
G36*
X138502229Y-75971751D02*
G01*
X138553500Y-76018221D01*
X138572500Y-76084757D01*
X138572500Y-82374274D01*
X138558263Y-82432454D01*
X138518771Y-82477487D01*
X138462946Y-82499196D01*
X138351426Y-82513877D01*
X138351418Y-82513879D01*
X138343238Y-82514956D01*
X138335611Y-82518115D01*
X138335608Y-82518116D01*
X138204788Y-82572303D01*
X138204782Y-82572306D01*
X138197159Y-82575464D01*
X138190614Y-82580485D01*
X138190607Y-82580490D01*
X138130204Y-82626840D01*
X138065850Y-82652270D01*
X137997771Y-82639883D01*
X137946500Y-82593413D01*
X137927500Y-82526877D01*
X137927500Y-76269143D01*
X137941737Y-76210963D01*
X137981230Y-76165930D01*
X138037053Y-76144221D01*
X138106762Y-76135044D01*
X138252841Y-76074536D01*
X138323183Y-76020561D01*
X138369796Y-75984794D01*
X138434150Y-75959364D01*
X138502229Y-75971751D01*
G37*
%TD.AperFunction*%
%TA.AperFunction,NonConductor*%
G36*
X139227561Y-79365002D02*
G01*
X139269909Y-79418720D01*
X139322303Y-79545211D01*
X139322304Y-79545214D01*
X139325464Y-79552841D01*
X139330490Y-79559391D01*
X139416693Y-79671734D01*
X139421718Y-79678282D01*
X139547159Y-79774536D01*
X139693238Y-79835044D01*
X139850000Y-79855682D01*
X140006762Y-79835044D01*
X140152841Y-79774536D01*
X140278282Y-79678282D01*
X140294361Y-79657328D01*
X140296538Y-79654491D01*
X140345252Y-79616089D01*
X140406386Y-79605584D01*
X140465125Y-79625524D01*
X140507231Y-79671074D01*
X140522500Y-79731196D01*
X140522500Y-81853577D01*
X140512909Y-81901795D01*
X140485597Y-81942669D01*
X139596017Y-82832249D01*
X139312243Y-83116023D01*
X139251759Y-83149636D01*
X139182646Y-83146240D01*
X139125748Y-83106860D01*
X139098227Y-83043374D01*
X139085044Y-82943238D01*
X139039069Y-82832246D01*
X139030927Y-82796260D01*
X139032263Y-82787828D01*
X139028834Y-82775033D01*
X139028142Y-82761807D01*
X139028595Y-82761783D01*
X139027500Y-82753463D01*
X139027500Y-79466938D01*
X139046067Y-79401103D01*
X139096297Y-79354671D01*
X139163386Y-79341326D01*
X139227561Y-79365002D01*
G37*
%TD.AperFunction*%
%TA.AperFunction,NonConductor*%
G36*
X149715125Y-83075524D02*
G01*
X149757231Y-83121074D01*
X149772500Y-83181196D01*
X149772500Y-85112348D01*
X149757622Y-85171744D01*
X149716502Y-85217113D01*
X149658851Y-85237741D01*
X149598283Y-85228757D01*
X149564893Y-85214927D01*
X149564891Y-85214926D01*
X149557261Y-85211766D01*
X149549076Y-85210688D01*
X149549071Y-85210687D01*
X149537056Y-85209106D01*
X149481230Y-85187398D01*
X149441737Y-85142365D01*
X149427500Y-85084184D01*
X149427500Y-83267751D01*
X149440494Y-83212023D01*
X149476796Y-83167789D01*
X149489308Y-83158188D01*
X149528282Y-83128282D01*
X149544720Y-83106860D01*
X149546538Y-83104491D01*
X149595252Y-83066089D01*
X149656386Y-83055584D01*
X149715125Y-83075524D01*
G37*
%TD.AperFunction*%
%TA.AperFunction,NonConductor*%
G36*
X140570561Y-86451486D02*
G01*
X140608767Y-86496219D01*
X140622500Y-86553422D01*
X140622500Y-88453577D01*
X140612909Y-88501795D01*
X140585597Y-88542669D01*
X140396388Y-88731879D01*
X140212358Y-88915909D01*
X140159049Y-88947624D01*
X140097066Y-88950060D01*
X140041432Y-88922624D01*
X140005632Y-88871967D01*
X139998341Y-88810367D01*
X140002278Y-88780467D01*
X140012941Y-88699470D01*
X139992303Y-88542708D01*
X139931795Y-88396629D01*
X139835541Y-88271188D01*
X139764465Y-88216650D01*
X139716650Y-88179960D01*
X139710100Y-88174934D01*
X139702473Y-88171774D01*
X139702470Y-88171773D01*
X139571650Y-88117586D01*
X139571649Y-88117585D01*
X139564021Y-88114426D01*
X139555838Y-88113348D01*
X139555832Y-88113347D01*
X139415447Y-88094866D01*
X139407259Y-88093788D01*
X139250497Y-88114426D01*
X139250250Y-88112557D01*
X139206032Y-88114009D01*
X139153905Y-88090394D01*
X139117599Y-88046159D01*
X139106801Y-87999852D01*
X139105682Y-88000000D01*
X139086122Y-87851426D01*
X139086121Y-87851425D01*
X139085044Y-87843238D01*
X139024536Y-87697159D01*
X138928282Y-87571718D01*
X138802841Y-87475464D01*
X138795214Y-87472304D01*
X138795211Y-87472303D01*
X138664391Y-87418116D01*
X138664390Y-87418115D01*
X138656762Y-87414956D01*
X138648577Y-87413878D01*
X138648568Y-87413876D01*
X138644987Y-87413405D01*
X138642040Y-87412127D01*
X138640598Y-87411741D01*
X138640655Y-87411527D01*
X138581502Y-87385881D01*
X138542124Y-87328983D01*
X138538730Y-87259871D01*
X138572341Y-87199391D01*
X138757328Y-87014404D01*
X138798206Y-86987091D01*
X138846424Y-86977500D01*
X139790764Y-86977500D01*
X139797357Y-86977673D01*
X139799765Y-86977799D01*
X139836384Y-86979718D01*
X139855554Y-86972358D01*
X139874502Y-86966745D01*
X139894600Y-86962474D01*
X139905319Y-86954685D01*
X139910005Y-86952599D01*
X139914304Y-86949807D01*
X139926673Y-86945060D01*
X139941194Y-86930538D01*
X139956228Y-86917697D01*
X139972842Y-86905628D01*
X139979464Y-86894156D01*
X139988326Y-86884315D01*
X139988664Y-86884619D01*
X139993770Y-86877961D01*
X140407407Y-86464324D01*
X140457564Y-86433589D01*
X140516211Y-86428973D01*
X140570561Y-86451486D01*
G37*
%TD.AperFunction*%
%TA.AperFunction,NonConductor*%
G36*
X144620561Y-87376487D02*
G01*
X144658767Y-87421220D01*
X144672500Y-87478423D01*
X144672500Y-90388511D01*
X144653499Y-90455048D01*
X144602228Y-90501517D01*
X144534150Y-90513904D01*
X144469796Y-90488474D01*
X144459391Y-90480490D01*
X144452841Y-90475464D01*
X144445214Y-90472304D01*
X144445211Y-90472303D01*
X144314391Y-90418116D01*
X144314390Y-90418115D01*
X144306762Y-90414956D01*
X144298579Y-90413878D01*
X144298573Y-90413877D01*
X144158188Y-90395396D01*
X144150000Y-90394318D01*
X144141812Y-90395396D01*
X144001426Y-90413877D01*
X144001418Y-90413879D01*
X143993238Y-90414956D01*
X143985611Y-90418115D01*
X143985608Y-90418116D01*
X143914610Y-90447524D01*
X143851716Y-90473576D01*
X143791150Y-90482560D01*
X143733498Y-90461932D01*
X143692378Y-90416563D01*
X143677500Y-90357167D01*
X143677500Y-88221423D01*
X143687091Y-88173205D01*
X143714405Y-88132328D01*
X144457405Y-87389328D01*
X144507564Y-87358590D01*
X144566211Y-87353974D01*
X144620561Y-87376487D01*
G37*
%TD.AperFunction*%
%TA.AperFunction,NonConductor*%
G36*
X137464814Y-87601715D02*
G01*
X137503765Y-87644073D01*
X137519788Y-87699221D01*
X137517737Y-87712172D01*
X137521163Y-87724960D01*
X137521857Y-87738186D01*
X137521403Y-87738209D01*
X137522500Y-87746537D01*
X137522500Y-88290764D01*
X137522327Y-88297357D01*
X137520974Y-88323158D01*
X137520974Y-88323163D01*
X137520282Y-88336384D01*
X137525025Y-88348742D01*
X137525027Y-88348750D01*
X137527642Y-88355561D01*
X137533256Y-88374512D01*
X137534772Y-88381647D01*
X137534773Y-88381649D01*
X137537526Y-88394600D01*
X137545308Y-88405311D01*
X137547398Y-88410005D01*
X137550194Y-88414311D01*
X137554940Y-88426673D01*
X137564304Y-88436037D01*
X137569457Y-88441190D01*
X137582297Y-88456223D01*
X137594372Y-88472842D01*
X137605841Y-88479463D01*
X137615683Y-88488325D01*
X137615379Y-88488662D01*
X137622042Y-88493775D01*
X137860146Y-88731879D01*
X137890362Y-88780467D01*
X137895975Y-88837409D01*
X137895396Y-88841810D01*
X137894318Y-88850000D01*
X137895396Y-88858188D01*
X137913877Y-88998573D01*
X137913878Y-88998579D01*
X137914956Y-89006762D01*
X137918115Y-89014390D01*
X137918116Y-89014391D01*
X137972303Y-89145211D01*
X137972304Y-89145214D01*
X137975464Y-89152841D01*
X138071718Y-89278282D01*
X138197159Y-89374536D01*
X138343238Y-89435044D01*
X138500000Y-89455682D01*
X138656762Y-89435044D01*
X138802841Y-89374536D01*
X138928282Y-89278282D01*
X138944611Y-89257000D01*
X138991324Y-89219509D01*
X139050071Y-89207823D01*
X139103699Y-89223454D01*
X139104418Y-89224006D01*
X139250497Y-89284514D01*
X139407259Y-89305152D01*
X139518156Y-89290552D01*
X139579756Y-89297843D01*
X139630413Y-89333643D01*
X139657849Y-89389277D01*
X139655413Y-89451260D01*
X139623697Y-89504569D01*
X139292671Y-89835595D01*
X139251794Y-89862909D01*
X139203576Y-89872500D01*
X137779384Y-89872500D01*
X137723644Y-89859500D01*
X137690755Y-89832501D01*
X137689148Y-89834109D01*
X137683309Y-89828270D01*
X137678282Y-89821718D01*
X137552841Y-89725464D01*
X137545214Y-89722304D01*
X137545211Y-89722303D01*
X137414391Y-89668116D01*
X137414390Y-89668115D01*
X137406762Y-89664956D01*
X137398579Y-89663878D01*
X137398573Y-89663877D01*
X137258188Y-89645396D01*
X137250000Y-89644318D01*
X137241812Y-89645396D01*
X137101426Y-89663877D01*
X137101418Y-89663879D01*
X137093238Y-89664956D01*
X137085611Y-89668115D01*
X137085608Y-89668116D01*
X136954788Y-89722303D01*
X136954782Y-89722306D01*
X136947159Y-89725464D01*
X136940611Y-89730487D01*
X136940608Y-89730490D01*
X136828263Y-89816695D01*
X136828259Y-89816698D01*
X136821718Y-89821718D01*
X136816698Y-89828259D01*
X136816695Y-89828263D01*
X136730490Y-89940608D01*
X136730487Y-89940611D01*
X136725464Y-89947159D01*
X136722306Y-89954782D01*
X136722303Y-89954788D01*
X136703567Y-90000022D01*
X136664956Y-90093238D01*
X136663879Y-90101418D01*
X136663877Y-90101426D01*
X136649195Y-90212954D01*
X136644318Y-90250000D01*
X136645396Y-90258188D01*
X136663877Y-90398573D01*
X136663878Y-90398579D01*
X136664956Y-90406762D01*
X136668115Y-90414390D01*
X136668116Y-90414391D01*
X136701809Y-90495734D01*
X136710322Y-90560397D01*
X136685364Y-90620654D01*
X136633621Y-90660359D01*
X136604795Y-90672300D01*
X136604788Y-90672303D01*
X136597159Y-90675464D01*
X136590611Y-90680487D01*
X136590608Y-90680490D01*
X136478263Y-90766695D01*
X136478259Y-90766698D01*
X136471718Y-90771718D01*
X136466698Y-90778259D01*
X136466693Y-90778265D01*
X136453462Y-90795509D01*
X136404748Y-90833911D01*
X136343614Y-90844416D01*
X136284875Y-90824476D01*
X136242769Y-90778926D01*
X136227500Y-90718804D01*
X136227500Y-88746423D01*
X136237091Y-88698205D01*
X136264402Y-88657330D01*
X137304903Y-87616828D01*
X137353804Y-87586509D01*
X137411092Y-87581094D01*
X137464814Y-87601715D01*
G37*
%TD.AperFunction*%
%TA.AperFunction,NonConductor*%
G36*
X140653778Y-95641233D02*
G01*
X140698511Y-95679439D01*
X140721024Y-95733789D01*
X140716408Y-95792436D01*
X140685670Y-95842595D01*
X139495676Y-97032588D01*
X139490895Y-97037126D01*
X139471676Y-97054431D01*
X139471672Y-97054435D01*
X139461837Y-97063292D01*
X139456453Y-97075381D01*
X139456450Y-97075387D01*
X139453481Y-97082057D01*
X139444053Y-97099421D01*
X139440077Y-97105543D01*
X139440074Y-97105548D01*
X139432866Y-97116650D01*
X139430795Y-97129723D01*
X139428953Y-97134523D01*
X139427885Y-97139546D01*
X139422500Y-97151643D01*
X139422500Y-97164885D01*
X139419747Y-97177838D01*
X139417947Y-97177455D01*
X139405619Y-97223464D01*
X139359500Y-97269583D01*
X139354783Y-97272306D01*
X139347159Y-97275464D01*
X139340616Y-97280484D01*
X139340610Y-97280488D01*
X139228263Y-97366695D01*
X139228259Y-97366698D01*
X139221718Y-97371718D01*
X139216698Y-97378259D01*
X139216693Y-97378265D01*
X139181630Y-97423960D01*
X139129885Y-97463664D01*
X139065221Y-97472177D01*
X139004964Y-97447217D01*
X138965259Y-97395473D01*
X138959573Y-97381747D01*
X138924536Y-97297159D01*
X138919510Y-97290609D01*
X138919509Y-97290607D01*
X138848747Y-97198388D01*
X138823788Y-97138130D01*
X138832302Y-97073465D01*
X138872007Y-97021721D01*
X138932262Y-96996762D01*
X139006762Y-96986955D01*
X139152841Y-96926447D01*
X139278282Y-96830193D01*
X139374536Y-96704752D01*
X139435044Y-96558673D01*
X139455682Y-96401911D01*
X139453804Y-96387647D01*
X139459411Y-96330698D01*
X139489628Y-96282103D01*
X140107329Y-95664404D01*
X140148207Y-95637091D01*
X140196425Y-95627500D01*
X140596575Y-95627500D01*
X140653778Y-95641233D01*
G37*
%TD.AperFunction*%
M02*
