%TF.GenerationSoftware,KiCad,Pcbnew,(7.0.0)*%
%TF.CreationDate,2023-02-27T05:24:17-06:00*%
%TF.ProjectId,esp32-c3-vesc-express-gh_connectors,65737033-322d-4633-932d-766573632d65,rev?*%
%TF.SameCoordinates,Original*%
%TF.FileFunction,Drillmap*%
%TF.FilePolarity,Positive*%
%FSLAX45Y45*%
G04 Gerber Fmt 4.5, Leading zero omitted, Abs format (unit mm)*
G04 Created by KiCad (PCBNEW (7.0.0)) date 2023-02-27 05:24:17*
%MOMM*%
%LPD*%
G01*
G04 APERTURE LIST*
%ADD10C,0.100000*%
%ADD11C,0.200000*%
G04 APERTURE END LIST*
D10*
X13475000Y-7000000D02*
X15220000Y-7000000D01*
X15220000Y-7000000D02*
X15220000Y-10000000D01*
X15220000Y-10000000D02*
X13475000Y-10000000D01*
X13475000Y-10000000D02*
X13475000Y-7000000D01*
D11*
X13717619Y-10298476D02*
X13717619Y-10098476D01*
X13717619Y-10098476D02*
X13765238Y-10098476D01*
X13765238Y-10098476D02*
X13793809Y-10108000D01*
X13793809Y-10108000D02*
X13812857Y-10127048D01*
X13812857Y-10127048D02*
X13822381Y-10146095D01*
X13822381Y-10146095D02*
X13831905Y-10184190D01*
X13831905Y-10184190D02*
X13831905Y-10212762D01*
X13831905Y-10212762D02*
X13822381Y-10250857D01*
X13822381Y-10250857D02*
X13812857Y-10269905D01*
X13812857Y-10269905D02*
X13793809Y-10288952D01*
X13793809Y-10288952D02*
X13765238Y-10298476D01*
X13765238Y-10298476D02*
X13717619Y-10298476D01*
X13917619Y-10298476D02*
X13917619Y-10165143D01*
X13917619Y-10203238D02*
X13927143Y-10184190D01*
X13927143Y-10184190D02*
X13936667Y-10174667D01*
X13936667Y-10174667D02*
X13955714Y-10165143D01*
X13955714Y-10165143D02*
X13974762Y-10165143D01*
X14041428Y-10298476D02*
X14041428Y-10165143D01*
X14041428Y-10098476D02*
X14031905Y-10108000D01*
X14031905Y-10108000D02*
X14041428Y-10117524D01*
X14041428Y-10117524D02*
X14050952Y-10108000D01*
X14050952Y-10108000D02*
X14041428Y-10098476D01*
X14041428Y-10098476D02*
X14041428Y-10117524D01*
X14165238Y-10298476D02*
X14146190Y-10288952D01*
X14146190Y-10288952D02*
X14136667Y-10269905D01*
X14136667Y-10269905D02*
X14136667Y-10098476D01*
X14270000Y-10298476D02*
X14250952Y-10288952D01*
X14250952Y-10288952D02*
X14241428Y-10269905D01*
X14241428Y-10269905D02*
X14241428Y-10098476D01*
X14466190Y-10298476D02*
X14466190Y-10098476D01*
X14466190Y-10098476D02*
X14532857Y-10241333D01*
X14532857Y-10241333D02*
X14599524Y-10098476D01*
X14599524Y-10098476D02*
X14599524Y-10298476D01*
X14780476Y-10298476D02*
X14780476Y-10193714D01*
X14780476Y-10193714D02*
X14770952Y-10174667D01*
X14770952Y-10174667D02*
X14751905Y-10165143D01*
X14751905Y-10165143D02*
X14713809Y-10165143D01*
X14713809Y-10165143D02*
X14694762Y-10174667D01*
X14780476Y-10288952D02*
X14761428Y-10298476D01*
X14761428Y-10298476D02*
X14713809Y-10298476D01*
X14713809Y-10298476D02*
X14694762Y-10288952D01*
X14694762Y-10288952D02*
X14685238Y-10269905D01*
X14685238Y-10269905D02*
X14685238Y-10250857D01*
X14685238Y-10250857D02*
X14694762Y-10231810D01*
X14694762Y-10231810D02*
X14713809Y-10222286D01*
X14713809Y-10222286D02*
X14761428Y-10222286D01*
X14761428Y-10222286D02*
X14780476Y-10212762D01*
X14875714Y-10165143D02*
X14875714Y-10365143D01*
X14875714Y-10174667D02*
X14894762Y-10165143D01*
X14894762Y-10165143D02*
X14932857Y-10165143D01*
X14932857Y-10165143D02*
X14951905Y-10174667D01*
X14951905Y-10174667D02*
X14961428Y-10184190D01*
X14961428Y-10184190D02*
X14970952Y-10203238D01*
X14970952Y-10203238D02*
X14970952Y-10260381D01*
X14970952Y-10260381D02*
X14961428Y-10279429D01*
X14961428Y-10279429D02*
X14951905Y-10288952D01*
X14951905Y-10288952D02*
X14932857Y-10298476D01*
X14932857Y-10298476D02*
X14894762Y-10298476D01*
X14894762Y-10298476D02*
X14875714Y-10288952D01*
X15056667Y-10279429D02*
X15066190Y-10288952D01*
X15066190Y-10288952D02*
X15056667Y-10298476D01*
X15056667Y-10298476D02*
X15047143Y-10288952D01*
X15047143Y-10288952D02*
X15056667Y-10279429D01*
X15056667Y-10279429D02*
X15056667Y-10298476D01*
X15056667Y-10174667D02*
X15066190Y-10184190D01*
X15066190Y-10184190D02*
X15056667Y-10193714D01*
X15056667Y-10193714D02*
X15047143Y-10184190D01*
X15047143Y-10184190D02*
X15056667Y-10174667D01*
X15056667Y-10174667D02*
X15056667Y-10193714D01*
M02*
