%TF.GenerationSoftware,KiCad,Pcbnew,(7.0.0)*%
%TF.CreationDate,2023-02-27T05:24:13-06:00*%
%TF.ProjectId,esp32-c3-vesc-express-gh_connectors,65737033-322d-4633-932d-766573632d65,rev?*%
%TF.SameCoordinates,Original*%
%TF.FileFunction,Copper,L4,Bot*%
%TF.FilePolarity,Positive*%
%FSLAX46Y46*%
G04 Gerber Fmt 4.6, Leading zero omitted, Abs format (unit mm)*
G04 Created by KiCad (PCBNEW (7.0.0)) date 2023-02-27 05:24:13*
%MOMM*%
%LPD*%
G01*
G04 APERTURE LIST*
G04 Aperture macros list*
%AMFreePoly0*
4,1,6,0.725000,-0.725000,-0.125000,-0.725000,-0.725000,-0.125000,-0.725000,0.725000,0.725000,0.725000,0.725000,-0.725000,0.725000,-0.725000,$1*%
G04 Aperture macros list end*
%ADD10C,0.100000*%
%ADD11C,0.150000*%
%ADD12C,0.300000*%
%ADD13C,0.400000*%
%TA.AperFunction,ComponentPad*%
%ADD14C,0.650000*%
%TD*%
%TA.AperFunction,SMDPad,CuDef*%
%ADD15R,1.500000X0.800000*%
%TD*%
%TA.AperFunction,SMDPad,CuDef*%
%ADD16R,1.400000X1.800000*%
%TD*%
%TA.AperFunction,SMDPad,CuDef*%
%ADD17R,1.900000X1.400000*%
%TD*%
%TA.AperFunction,SMDPad,CuDef*%
%ADD18R,0.400000X0.800000*%
%TD*%
%TA.AperFunction,SMDPad,CuDef*%
%ADD19R,0.800000X0.400000*%
%TD*%
%TA.AperFunction,SMDPad,CuDef*%
%ADD20R,0.700000X0.700000*%
%TD*%
%TA.AperFunction,SMDPad,CuDef*%
%ADD21R,1.450000X1.450000*%
%TD*%
%TA.AperFunction,SMDPad,CuDef*%
%ADD22FreePoly0,90.000000*%
%TD*%
%TA.AperFunction,ViaPad*%
%ADD23C,0.600000*%
%TD*%
%TA.AperFunction,Conductor*%
%ADD24C,0.200000*%
%TD*%
%TA.AperFunction,Conductor*%
%ADD25C,0.300000*%
%TD*%
G04 APERTURE END LIST*
D10*
D11*
X177002200Y-166007200D02*
X285002200Y-166007200D01*
X285002200Y-198007200D01*
X177002200Y-198007200D01*
X177002200Y-166007200D01*
D10*
D11*
X10000000Y-10000000D02*
X287002200Y-10000000D01*
X287002200Y-200007200D01*
X10000000Y-200007200D01*
X10000000Y-10000000D01*
D10*
D11*
X12000000Y-12000000D02*
X285002200Y-12000000D01*
X285002200Y-198007200D01*
X12000000Y-198007200D01*
X12000000Y-12000000D01*
D10*
D11*
X60000000Y-12000000D02*
X60000000Y-10000000D01*
D10*
D11*
X110000000Y-12000000D02*
X110000000Y-10000000D01*
D10*
D11*
X160000000Y-12000000D02*
X160000000Y-10000000D01*
D10*
D11*
X210000000Y-12000000D02*
X210000000Y-10000000D01*
D10*
D11*
X260000000Y-12000000D02*
X260000000Y-10000000D01*
D10*
D11*
X35990476Y-11477595D02*
X35247619Y-11477595D01*
X35619047Y-11477595D02*
X35619047Y-10177595D01*
X35619047Y-10177595D02*
X35495238Y-10363309D01*
X35495238Y-10363309D02*
X35371428Y-10487119D01*
X35371428Y-10487119D02*
X35247619Y-10549023D01*
D10*
D11*
X85247619Y-10301404D02*
X85309523Y-10239500D01*
X85309523Y-10239500D02*
X85433333Y-10177595D01*
X85433333Y-10177595D02*
X85742857Y-10177595D01*
X85742857Y-10177595D02*
X85866666Y-10239500D01*
X85866666Y-10239500D02*
X85928571Y-10301404D01*
X85928571Y-10301404D02*
X85990476Y-10425214D01*
X85990476Y-10425214D02*
X85990476Y-10549023D01*
X85990476Y-10549023D02*
X85928571Y-10734738D01*
X85928571Y-10734738D02*
X85185714Y-11477595D01*
X85185714Y-11477595D02*
X85990476Y-11477595D01*
D10*
D11*
X135185714Y-10177595D02*
X135990476Y-10177595D01*
X135990476Y-10177595D02*
X135557142Y-10672833D01*
X135557142Y-10672833D02*
X135742857Y-10672833D01*
X135742857Y-10672833D02*
X135866666Y-10734738D01*
X135866666Y-10734738D02*
X135928571Y-10796642D01*
X135928571Y-10796642D02*
X135990476Y-10920452D01*
X135990476Y-10920452D02*
X135990476Y-11229976D01*
X135990476Y-11229976D02*
X135928571Y-11353785D01*
X135928571Y-11353785D02*
X135866666Y-11415690D01*
X135866666Y-11415690D02*
X135742857Y-11477595D01*
X135742857Y-11477595D02*
X135371428Y-11477595D01*
X135371428Y-11477595D02*
X135247619Y-11415690D01*
X135247619Y-11415690D02*
X135185714Y-11353785D01*
D10*
D11*
X185866666Y-10610928D02*
X185866666Y-11477595D01*
X185557142Y-10115690D02*
X185247619Y-11044261D01*
X185247619Y-11044261D02*
X186052380Y-11044261D01*
D10*
D11*
X235928571Y-10177595D02*
X235309523Y-10177595D01*
X235309523Y-10177595D02*
X235247619Y-10796642D01*
X235247619Y-10796642D02*
X235309523Y-10734738D01*
X235309523Y-10734738D02*
X235433333Y-10672833D01*
X235433333Y-10672833D02*
X235742857Y-10672833D01*
X235742857Y-10672833D02*
X235866666Y-10734738D01*
X235866666Y-10734738D02*
X235928571Y-10796642D01*
X235928571Y-10796642D02*
X235990476Y-10920452D01*
X235990476Y-10920452D02*
X235990476Y-11229976D01*
X235990476Y-11229976D02*
X235928571Y-11353785D01*
X235928571Y-11353785D02*
X235866666Y-11415690D01*
X235866666Y-11415690D02*
X235742857Y-11477595D01*
X235742857Y-11477595D02*
X235433333Y-11477595D01*
X235433333Y-11477595D02*
X235309523Y-11415690D01*
X235309523Y-11415690D02*
X235247619Y-11353785D01*
D10*
D11*
X285866666Y-10177595D02*
X285619047Y-10177595D01*
X285619047Y-10177595D02*
X285495238Y-10239500D01*
X285495238Y-10239500D02*
X285433333Y-10301404D01*
X285433333Y-10301404D02*
X285309523Y-10487119D01*
X285309523Y-10487119D02*
X285247619Y-10734738D01*
X285247619Y-10734738D02*
X285247619Y-11229976D01*
X285247619Y-11229976D02*
X285309523Y-11353785D01*
X285309523Y-11353785D02*
X285371428Y-11415690D01*
X285371428Y-11415690D02*
X285495238Y-11477595D01*
X285495238Y-11477595D02*
X285742857Y-11477595D01*
X285742857Y-11477595D02*
X285866666Y-11415690D01*
X285866666Y-11415690D02*
X285928571Y-11353785D01*
X285928571Y-11353785D02*
X285990476Y-11229976D01*
X285990476Y-11229976D02*
X285990476Y-10920452D01*
X285990476Y-10920452D02*
X285928571Y-10796642D01*
X285928571Y-10796642D02*
X285866666Y-10734738D01*
X285866666Y-10734738D02*
X285742857Y-10672833D01*
X285742857Y-10672833D02*
X285495238Y-10672833D01*
X285495238Y-10672833D02*
X285371428Y-10734738D01*
X285371428Y-10734738D02*
X285309523Y-10796642D01*
X285309523Y-10796642D02*
X285247619Y-10920452D01*
D10*
D11*
X60000000Y-198007200D02*
X60000000Y-200007200D01*
D10*
D11*
X110000000Y-198007200D02*
X110000000Y-200007200D01*
D10*
D11*
X160000000Y-198007200D02*
X160000000Y-200007200D01*
D10*
D11*
X210000000Y-198007200D02*
X210000000Y-200007200D01*
D10*
D11*
X260000000Y-198007200D02*
X260000000Y-200007200D01*
D10*
D11*
X35990476Y-199484795D02*
X35247619Y-199484795D01*
X35619047Y-199484795D02*
X35619047Y-198184795D01*
X35619047Y-198184795D02*
X35495238Y-198370509D01*
X35495238Y-198370509D02*
X35371428Y-198494319D01*
X35371428Y-198494319D02*
X35247619Y-198556223D01*
D10*
D11*
X85247619Y-198308604D02*
X85309523Y-198246700D01*
X85309523Y-198246700D02*
X85433333Y-198184795D01*
X85433333Y-198184795D02*
X85742857Y-198184795D01*
X85742857Y-198184795D02*
X85866666Y-198246700D01*
X85866666Y-198246700D02*
X85928571Y-198308604D01*
X85928571Y-198308604D02*
X85990476Y-198432414D01*
X85990476Y-198432414D02*
X85990476Y-198556223D01*
X85990476Y-198556223D02*
X85928571Y-198741938D01*
X85928571Y-198741938D02*
X85185714Y-199484795D01*
X85185714Y-199484795D02*
X85990476Y-199484795D01*
D10*
D11*
X135185714Y-198184795D02*
X135990476Y-198184795D01*
X135990476Y-198184795D02*
X135557142Y-198680033D01*
X135557142Y-198680033D02*
X135742857Y-198680033D01*
X135742857Y-198680033D02*
X135866666Y-198741938D01*
X135866666Y-198741938D02*
X135928571Y-198803842D01*
X135928571Y-198803842D02*
X135990476Y-198927652D01*
X135990476Y-198927652D02*
X135990476Y-199237176D01*
X135990476Y-199237176D02*
X135928571Y-199360985D01*
X135928571Y-199360985D02*
X135866666Y-199422890D01*
X135866666Y-199422890D02*
X135742857Y-199484795D01*
X135742857Y-199484795D02*
X135371428Y-199484795D01*
X135371428Y-199484795D02*
X135247619Y-199422890D01*
X135247619Y-199422890D02*
X135185714Y-199360985D01*
D10*
D11*
X185866666Y-198618128D02*
X185866666Y-199484795D01*
X185557142Y-198122890D02*
X185247619Y-199051461D01*
X185247619Y-199051461D02*
X186052380Y-199051461D01*
D10*
D11*
X235928571Y-198184795D02*
X235309523Y-198184795D01*
X235309523Y-198184795D02*
X235247619Y-198803842D01*
X235247619Y-198803842D02*
X235309523Y-198741938D01*
X235309523Y-198741938D02*
X235433333Y-198680033D01*
X235433333Y-198680033D02*
X235742857Y-198680033D01*
X235742857Y-198680033D02*
X235866666Y-198741938D01*
X235866666Y-198741938D02*
X235928571Y-198803842D01*
X235928571Y-198803842D02*
X235990476Y-198927652D01*
X235990476Y-198927652D02*
X235990476Y-199237176D01*
X235990476Y-199237176D02*
X235928571Y-199360985D01*
X235928571Y-199360985D02*
X235866666Y-199422890D01*
X235866666Y-199422890D02*
X235742857Y-199484795D01*
X235742857Y-199484795D02*
X235433333Y-199484795D01*
X235433333Y-199484795D02*
X235309523Y-199422890D01*
X235309523Y-199422890D02*
X235247619Y-199360985D01*
D10*
D11*
X285866666Y-198184795D02*
X285619047Y-198184795D01*
X285619047Y-198184795D02*
X285495238Y-198246700D01*
X285495238Y-198246700D02*
X285433333Y-198308604D01*
X285433333Y-198308604D02*
X285309523Y-198494319D01*
X285309523Y-198494319D02*
X285247619Y-198741938D01*
X285247619Y-198741938D02*
X285247619Y-199237176D01*
X285247619Y-199237176D02*
X285309523Y-199360985D01*
X285309523Y-199360985D02*
X285371428Y-199422890D01*
X285371428Y-199422890D02*
X285495238Y-199484795D01*
X285495238Y-199484795D02*
X285742857Y-199484795D01*
X285742857Y-199484795D02*
X285866666Y-199422890D01*
X285866666Y-199422890D02*
X285928571Y-199360985D01*
X285928571Y-199360985D02*
X285990476Y-199237176D01*
X285990476Y-199237176D02*
X285990476Y-198927652D01*
X285990476Y-198927652D02*
X285928571Y-198803842D01*
X285928571Y-198803842D02*
X285866666Y-198741938D01*
X285866666Y-198741938D02*
X285742857Y-198680033D01*
X285742857Y-198680033D02*
X285495238Y-198680033D01*
X285495238Y-198680033D02*
X285371428Y-198741938D01*
X285371428Y-198741938D02*
X285309523Y-198803842D01*
X285309523Y-198803842D02*
X285247619Y-198927652D01*
D10*
D11*
X10000000Y-60000000D02*
X12000000Y-60000000D01*
D10*
D11*
X10000000Y-110000000D02*
X12000000Y-110000000D01*
D10*
D11*
X10000000Y-160000000D02*
X12000000Y-160000000D01*
D10*
D11*
X10690476Y-35106166D02*
X11309523Y-35106166D01*
X10566666Y-35477595D02*
X10999999Y-34177595D01*
X10999999Y-34177595D02*
X11433333Y-35477595D01*
D10*
D11*
X11092857Y-84796642D02*
X11278571Y-84858547D01*
X11278571Y-84858547D02*
X11340476Y-84920452D01*
X11340476Y-84920452D02*
X11402380Y-85044261D01*
X11402380Y-85044261D02*
X11402380Y-85229976D01*
X11402380Y-85229976D02*
X11340476Y-85353785D01*
X11340476Y-85353785D02*
X11278571Y-85415690D01*
X11278571Y-85415690D02*
X11154761Y-85477595D01*
X11154761Y-85477595D02*
X10659523Y-85477595D01*
X10659523Y-85477595D02*
X10659523Y-84177595D01*
X10659523Y-84177595D02*
X11092857Y-84177595D01*
X11092857Y-84177595D02*
X11216666Y-84239500D01*
X11216666Y-84239500D02*
X11278571Y-84301404D01*
X11278571Y-84301404D02*
X11340476Y-84425214D01*
X11340476Y-84425214D02*
X11340476Y-84549023D01*
X11340476Y-84549023D02*
X11278571Y-84672833D01*
X11278571Y-84672833D02*
X11216666Y-84734738D01*
X11216666Y-84734738D02*
X11092857Y-84796642D01*
X11092857Y-84796642D02*
X10659523Y-84796642D01*
D10*
D11*
X11402380Y-135353785D02*
X11340476Y-135415690D01*
X11340476Y-135415690D02*
X11154761Y-135477595D01*
X11154761Y-135477595D02*
X11030952Y-135477595D01*
X11030952Y-135477595D02*
X10845238Y-135415690D01*
X10845238Y-135415690D02*
X10721428Y-135291880D01*
X10721428Y-135291880D02*
X10659523Y-135168071D01*
X10659523Y-135168071D02*
X10597619Y-134920452D01*
X10597619Y-134920452D02*
X10597619Y-134734738D01*
X10597619Y-134734738D02*
X10659523Y-134487119D01*
X10659523Y-134487119D02*
X10721428Y-134363309D01*
X10721428Y-134363309D02*
X10845238Y-134239500D01*
X10845238Y-134239500D02*
X11030952Y-134177595D01*
X11030952Y-134177595D02*
X11154761Y-134177595D01*
X11154761Y-134177595D02*
X11340476Y-134239500D01*
X11340476Y-134239500D02*
X11402380Y-134301404D01*
D10*
D11*
X10659523Y-185477595D02*
X10659523Y-184177595D01*
X10659523Y-184177595D02*
X10969047Y-184177595D01*
X10969047Y-184177595D02*
X11154761Y-184239500D01*
X11154761Y-184239500D02*
X11278571Y-184363309D01*
X11278571Y-184363309D02*
X11340476Y-184487119D01*
X11340476Y-184487119D02*
X11402380Y-184734738D01*
X11402380Y-184734738D02*
X11402380Y-184920452D01*
X11402380Y-184920452D02*
X11340476Y-185168071D01*
X11340476Y-185168071D02*
X11278571Y-185291880D01*
X11278571Y-185291880D02*
X11154761Y-185415690D01*
X11154761Y-185415690D02*
X10969047Y-185477595D01*
X10969047Y-185477595D02*
X10659523Y-185477595D01*
D10*
D11*
X287002200Y-60000000D02*
X285002200Y-60000000D01*
D10*
D11*
X287002200Y-110000000D02*
X285002200Y-110000000D01*
D10*
D11*
X287002200Y-160000000D02*
X285002200Y-160000000D01*
D10*
D11*
X285692676Y-35106166D02*
X286311723Y-35106166D01*
X285568866Y-35477595D02*
X286002199Y-34177595D01*
X286002199Y-34177595D02*
X286435533Y-35477595D01*
D10*
D11*
X286095057Y-84796642D02*
X286280771Y-84858547D01*
X286280771Y-84858547D02*
X286342676Y-84920452D01*
X286342676Y-84920452D02*
X286404580Y-85044261D01*
X286404580Y-85044261D02*
X286404580Y-85229976D01*
X286404580Y-85229976D02*
X286342676Y-85353785D01*
X286342676Y-85353785D02*
X286280771Y-85415690D01*
X286280771Y-85415690D02*
X286156961Y-85477595D01*
X286156961Y-85477595D02*
X285661723Y-85477595D01*
X285661723Y-85477595D02*
X285661723Y-84177595D01*
X285661723Y-84177595D02*
X286095057Y-84177595D01*
X286095057Y-84177595D02*
X286218866Y-84239500D01*
X286218866Y-84239500D02*
X286280771Y-84301404D01*
X286280771Y-84301404D02*
X286342676Y-84425214D01*
X286342676Y-84425214D02*
X286342676Y-84549023D01*
X286342676Y-84549023D02*
X286280771Y-84672833D01*
X286280771Y-84672833D02*
X286218866Y-84734738D01*
X286218866Y-84734738D02*
X286095057Y-84796642D01*
X286095057Y-84796642D02*
X285661723Y-84796642D01*
D10*
D11*
X286404580Y-135353785D02*
X286342676Y-135415690D01*
X286342676Y-135415690D02*
X286156961Y-135477595D01*
X286156961Y-135477595D02*
X286033152Y-135477595D01*
X286033152Y-135477595D02*
X285847438Y-135415690D01*
X285847438Y-135415690D02*
X285723628Y-135291880D01*
X285723628Y-135291880D02*
X285661723Y-135168071D01*
X285661723Y-135168071D02*
X285599819Y-134920452D01*
X285599819Y-134920452D02*
X285599819Y-134734738D01*
X285599819Y-134734738D02*
X285661723Y-134487119D01*
X285661723Y-134487119D02*
X285723628Y-134363309D01*
X285723628Y-134363309D02*
X285847438Y-134239500D01*
X285847438Y-134239500D02*
X286033152Y-134177595D01*
X286033152Y-134177595D02*
X286156961Y-134177595D01*
X286156961Y-134177595D02*
X286342676Y-134239500D01*
X286342676Y-134239500D02*
X286404580Y-134301404D01*
D10*
D11*
X285661723Y-185477595D02*
X285661723Y-184177595D01*
X285661723Y-184177595D02*
X285971247Y-184177595D01*
X285971247Y-184177595D02*
X286156961Y-184239500D01*
X286156961Y-184239500D02*
X286280771Y-184363309D01*
X286280771Y-184363309D02*
X286342676Y-184487119D01*
X286342676Y-184487119D02*
X286404580Y-184734738D01*
X286404580Y-184734738D02*
X286404580Y-184920452D01*
X286404580Y-184920452D02*
X286342676Y-185168071D01*
X286342676Y-185168071D02*
X286280771Y-185291880D01*
X286280771Y-185291880D02*
X286156961Y-185415690D01*
X286156961Y-185415690D02*
X285971247Y-185477595D01*
X285971247Y-185477595D02*
X285661723Y-185477595D01*
D10*
D11*
X200359342Y-193658271D02*
X200359342Y-192158271D01*
X200359342Y-192158271D02*
X200716485Y-192158271D01*
X200716485Y-192158271D02*
X200930771Y-192229700D01*
X200930771Y-192229700D02*
X201073628Y-192372557D01*
X201073628Y-192372557D02*
X201145057Y-192515414D01*
X201145057Y-192515414D02*
X201216485Y-192801128D01*
X201216485Y-192801128D02*
X201216485Y-193015414D01*
X201216485Y-193015414D02*
X201145057Y-193301128D01*
X201145057Y-193301128D02*
X201073628Y-193443985D01*
X201073628Y-193443985D02*
X200930771Y-193586842D01*
X200930771Y-193586842D02*
X200716485Y-193658271D01*
X200716485Y-193658271D02*
X200359342Y-193658271D01*
X202502200Y-193658271D02*
X202502200Y-192872557D01*
X202502200Y-192872557D02*
X202430771Y-192729700D01*
X202430771Y-192729700D02*
X202287914Y-192658271D01*
X202287914Y-192658271D02*
X202002200Y-192658271D01*
X202002200Y-192658271D02*
X201859342Y-192729700D01*
X202502200Y-193586842D02*
X202359342Y-193658271D01*
X202359342Y-193658271D02*
X202002200Y-193658271D01*
X202002200Y-193658271D02*
X201859342Y-193586842D01*
X201859342Y-193586842D02*
X201787914Y-193443985D01*
X201787914Y-193443985D02*
X201787914Y-193301128D01*
X201787914Y-193301128D02*
X201859342Y-193158271D01*
X201859342Y-193158271D02*
X202002200Y-193086842D01*
X202002200Y-193086842D02*
X202359342Y-193086842D01*
X202359342Y-193086842D02*
X202502200Y-193015414D01*
X203002200Y-192658271D02*
X203573628Y-192658271D01*
X203216485Y-192158271D02*
X203216485Y-193443985D01*
X203216485Y-193443985D02*
X203287914Y-193586842D01*
X203287914Y-193586842D02*
X203430771Y-193658271D01*
X203430771Y-193658271D02*
X203573628Y-193658271D01*
X204645057Y-193586842D02*
X204502200Y-193658271D01*
X204502200Y-193658271D02*
X204216486Y-193658271D01*
X204216486Y-193658271D02*
X204073628Y-193586842D01*
X204073628Y-193586842D02*
X204002200Y-193443985D01*
X204002200Y-193443985D02*
X204002200Y-192872557D01*
X204002200Y-192872557D02*
X204073628Y-192729700D01*
X204073628Y-192729700D02*
X204216486Y-192658271D01*
X204216486Y-192658271D02*
X204502200Y-192658271D01*
X204502200Y-192658271D02*
X204645057Y-192729700D01*
X204645057Y-192729700D02*
X204716486Y-192872557D01*
X204716486Y-192872557D02*
X204716486Y-193015414D01*
X204716486Y-193015414D02*
X204002200Y-193158271D01*
X205359342Y-193515414D02*
X205430771Y-193586842D01*
X205430771Y-193586842D02*
X205359342Y-193658271D01*
X205359342Y-193658271D02*
X205287914Y-193586842D01*
X205287914Y-193586842D02*
X205359342Y-193515414D01*
X205359342Y-193515414D02*
X205359342Y-193658271D01*
X205359342Y-192729700D02*
X205430771Y-192801128D01*
X205430771Y-192801128D02*
X205359342Y-192872557D01*
X205359342Y-192872557D02*
X205287914Y-192801128D01*
X205287914Y-192801128D02*
X205359342Y-192729700D01*
X205359342Y-192729700D02*
X205359342Y-192872557D01*
D10*
D11*
X177002200Y-194507200D02*
X285002200Y-194507200D01*
D10*
D11*
X178359342Y-196458271D02*
X178359342Y-194958271D01*
X179216485Y-196458271D02*
X178573628Y-195601128D01*
X179216485Y-194958271D02*
X178359342Y-195815414D01*
X179859342Y-196458271D02*
X179859342Y-195458271D01*
X179859342Y-194958271D02*
X179787914Y-195029700D01*
X179787914Y-195029700D02*
X179859342Y-195101128D01*
X179859342Y-195101128D02*
X179930771Y-195029700D01*
X179930771Y-195029700D02*
X179859342Y-194958271D01*
X179859342Y-194958271D02*
X179859342Y-195101128D01*
X181430771Y-196315414D02*
X181359343Y-196386842D01*
X181359343Y-196386842D02*
X181145057Y-196458271D01*
X181145057Y-196458271D02*
X181002200Y-196458271D01*
X181002200Y-196458271D02*
X180787914Y-196386842D01*
X180787914Y-196386842D02*
X180645057Y-196243985D01*
X180645057Y-196243985D02*
X180573628Y-196101128D01*
X180573628Y-196101128D02*
X180502200Y-195815414D01*
X180502200Y-195815414D02*
X180502200Y-195601128D01*
X180502200Y-195601128D02*
X180573628Y-195315414D01*
X180573628Y-195315414D02*
X180645057Y-195172557D01*
X180645057Y-195172557D02*
X180787914Y-195029700D01*
X180787914Y-195029700D02*
X181002200Y-194958271D01*
X181002200Y-194958271D02*
X181145057Y-194958271D01*
X181145057Y-194958271D02*
X181359343Y-195029700D01*
X181359343Y-195029700D02*
X181430771Y-195101128D01*
X182716486Y-196458271D02*
X182716486Y-195672557D01*
X182716486Y-195672557D02*
X182645057Y-195529700D01*
X182645057Y-195529700D02*
X182502200Y-195458271D01*
X182502200Y-195458271D02*
X182216486Y-195458271D01*
X182216486Y-195458271D02*
X182073628Y-195529700D01*
X182716486Y-196386842D02*
X182573628Y-196458271D01*
X182573628Y-196458271D02*
X182216486Y-196458271D01*
X182216486Y-196458271D02*
X182073628Y-196386842D01*
X182073628Y-196386842D02*
X182002200Y-196243985D01*
X182002200Y-196243985D02*
X182002200Y-196101128D01*
X182002200Y-196101128D02*
X182073628Y-195958271D01*
X182073628Y-195958271D02*
X182216486Y-195886842D01*
X182216486Y-195886842D02*
X182573628Y-195886842D01*
X182573628Y-195886842D02*
X182716486Y-195815414D01*
X184073629Y-196458271D02*
X184073629Y-194958271D01*
X184073629Y-196386842D02*
X183930771Y-196458271D01*
X183930771Y-196458271D02*
X183645057Y-196458271D01*
X183645057Y-196458271D02*
X183502200Y-196386842D01*
X183502200Y-196386842D02*
X183430771Y-196315414D01*
X183430771Y-196315414D02*
X183359343Y-196172557D01*
X183359343Y-196172557D02*
X183359343Y-195743985D01*
X183359343Y-195743985D02*
X183430771Y-195601128D01*
X183430771Y-195601128D02*
X183502200Y-195529700D01*
X183502200Y-195529700D02*
X183645057Y-195458271D01*
X183645057Y-195458271D02*
X183930771Y-195458271D01*
X183930771Y-195458271D02*
X184073629Y-195529700D01*
X185687914Y-195672557D02*
X186187914Y-195672557D01*
X186402200Y-196458271D02*
X185687914Y-196458271D01*
X185687914Y-196458271D02*
X185687914Y-194958271D01*
X185687914Y-194958271D02*
X186402200Y-194958271D01*
X187045057Y-196315414D02*
X187116486Y-196386842D01*
X187116486Y-196386842D02*
X187045057Y-196458271D01*
X187045057Y-196458271D02*
X186973629Y-196386842D01*
X186973629Y-196386842D02*
X187045057Y-196315414D01*
X187045057Y-196315414D02*
X187045057Y-196458271D01*
X187759343Y-196458271D02*
X187759343Y-194958271D01*
X187759343Y-194958271D02*
X188116486Y-194958271D01*
X188116486Y-194958271D02*
X188330772Y-195029700D01*
X188330772Y-195029700D02*
X188473629Y-195172557D01*
X188473629Y-195172557D02*
X188545058Y-195315414D01*
X188545058Y-195315414D02*
X188616486Y-195601128D01*
X188616486Y-195601128D02*
X188616486Y-195815414D01*
X188616486Y-195815414D02*
X188545058Y-196101128D01*
X188545058Y-196101128D02*
X188473629Y-196243985D01*
X188473629Y-196243985D02*
X188330772Y-196386842D01*
X188330772Y-196386842D02*
X188116486Y-196458271D01*
X188116486Y-196458271D02*
X187759343Y-196458271D01*
X189259343Y-196315414D02*
X189330772Y-196386842D01*
X189330772Y-196386842D02*
X189259343Y-196458271D01*
X189259343Y-196458271D02*
X189187915Y-196386842D01*
X189187915Y-196386842D02*
X189259343Y-196315414D01*
X189259343Y-196315414D02*
X189259343Y-196458271D01*
X189902201Y-196029700D02*
X190616487Y-196029700D01*
X189759344Y-196458271D02*
X190259344Y-194958271D01*
X190259344Y-194958271D02*
X190759344Y-196458271D01*
X191259343Y-196315414D02*
X191330772Y-196386842D01*
X191330772Y-196386842D02*
X191259343Y-196458271D01*
X191259343Y-196458271D02*
X191187915Y-196386842D01*
X191187915Y-196386842D02*
X191259343Y-196315414D01*
X191259343Y-196315414D02*
X191259343Y-196458271D01*
X193773629Y-196458271D02*
X193773629Y-194958271D01*
X193916487Y-195886842D02*
X194345058Y-196458271D01*
X194345058Y-195458271D02*
X193773629Y-196029700D01*
X194987915Y-196458271D02*
X194987915Y-195458271D01*
X194987915Y-194958271D02*
X194916487Y-195029700D01*
X194916487Y-195029700D02*
X194987915Y-195101128D01*
X194987915Y-195101128D02*
X195059344Y-195029700D01*
X195059344Y-195029700D02*
X194987915Y-194958271D01*
X194987915Y-194958271D02*
X194987915Y-195101128D01*
X196345059Y-196386842D02*
X196202201Y-196458271D01*
X196202201Y-196458271D02*
X195916487Y-196458271D01*
X195916487Y-196458271D02*
X195773630Y-196386842D01*
X195773630Y-196386842D02*
X195702201Y-196315414D01*
X195702201Y-196315414D02*
X195630773Y-196172557D01*
X195630773Y-196172557D02*
X195630773Y-195743985D01*
X195630773Y-195743985D02*
X195702201Y-195601128D01*
X195702201Y-195601128D02*
X195773630Y-195529700D01*
X195773630Y-195529700D02*
X195916487Y-195458271D01*
X195916487Y-195458271D02*
X196202201Y-195458271D01*
X196202201Y-195458271D02*
X196345059Y-195529700D01*
X197630773Y-196458271D02*
X197630773Y-195672557D01*
X197630773Y-195672557D02*
X197559344Y-195529700D01*
X197559344Y-195529700D02*
X197416487Y-195458271D01*
X197416487Y-195458271D02*
X197130773Y-195458271D01*
X197130773Y-195458271D02*
X196987915Y-195529700D01*
X197630773Y-196386842D02*
X197487915Y-196458271D01*
X197487915Y-196458271D02*
X197130773Y-196458271D01*
X197130773Y-196458271D02*
X196987915Y-196386842D01*
X196987915Y-196386842D02*
X196916487Y-196243985D01*
X196916487Y-196243985D02*
X196916487Y-196101128D01*
X196916487Y-196101128D02*
X196987915Y-195958271D01*
X196987915Y-195958271D02*
X197130773Y-195886842D01*
X197130773Y-195886842D02*
X197487915Y-195886842D01*
X197487915Y-195886842D02*
X197630773Y-195815414D01*
X198987916Y-196458271D02*
X198987916Y-194958271D01*
X198987916Y-196386842D02*
X198845058Y-196458271D01*
X198845058Y-196458271D02*
X198559344Y-196458271D01*
X198559344Y-196458271D02*
X198416487Y-196386842D01*
X198416487Y-196386842D02*
X198345058Y-196315414D01*
X198345058Y-196315414D02*
X198273630Y-196172557D01*
X198273630Y-196172557D02*
X198273630Y-195743985D01*
X198273630Y-195743985D02*
X198345058Y-195601128D01*
X198345058Y-195601128D02*
X198416487Y-195529700D01*
X198416487Y-195529700D02*
X198559344Y-195458271D01*
X198559344Y-195458271D02*
X198845058Y-195458271D01*
X198845058Y-195458271D02*
X198987916Y-195529700D01*
X201030773Y-197029700D02*
X200959344Y-196958271D01*
X200959344Y-196958271D02*
X200816487Y-196743985D01*
X200816487Y-196743985D02*
X200745059Y-196601128D01*
X200745059Y-196601128D02*
X200673630Y-196386842D01*
X200673630Y-196386842D02*
X200602201Y-196029700D01*
X200602201Y-196029700D02*
X200602201Y-195743985D01*
X200602201Y-195743985D02*
X200673630Y-195386842D01*
X200673630Y-195386842D02*
X200745059Y-195172557D01*
X200745059Y-195172557D02*
X200816487Y-195029700D01*
X200816487Y-195029700D02*
X200959344Y-194815414D01*
X200959344Y-194815414D02*
X201030773Y-194743985D01*
X201459344Y-194958271D02*
X202459344Y-194958271D01*
X202459344Y-194958271D02*
X201816487Y-196458271D01*
X203030772Y-196315414D02*
X203102201Y-196386842D01*
X203102201Y-196386842D02*
X203030772Y-196458271D01*
X203030772Y-196458271D02*
X202959344Y-196386842D01*
X202959344Y-196386842D02*
X203030772Y-196315414D01*
X203030772Y-196315414D02*
X203030772Y-196458271D01*
X204030773Y-194958271D02*
X204173630Y-194958271D01*
X204173630Y-194958271D02*
X204316487Y-195029700D01*
X204316487Y-195029700D02*
X204387916Y-195101128D01*
X204387916Y-195101128D02*
X204459344Y-195243985D01*
X204459344Y-195243985D02*
X204530773Y-195529700D01*
X204530773Y-195529700D02*
X204530773Y-195886842D01*
X204530773Y-195886842D02*
X204459344Y-196172557D01*
X204459344Y-196172557D02*
X204387916Y-196315414D01*
X204387916Y-196315414D02*
X204316487Y-196386842D01*
X204316487Y-196386842D02*
X204173630Y-196458271D01*
X204173630Y-196458271D02*
X204030773Y-196458271D01*
X204030773Y-196458271D02*
X203887916Y-196386842D01*
X203887916Y-196386842D02*
X203816487Y-196315414D01*
X203816487Y-196315414D02*
X203745058Y-196172557D01*
X203745058Y-196172557D02*
X203673630Y-195886842D01*
X203673630Y-195886842D02*
X203673630Y-195529700D01*
X203673630Y-195529700D02*
X203745058Y-195243985D01*
X203745058Y-195243985D02*
X203816487Y-195101128D01*
X203816487Y-195101128D02*
X203887916Y-195029700D01*
X203887916Y-195029700D02*
X204030773Y-194958271D01*
X205173629Y-196315414D02*
X205245058Y-196386842D01*
X205245058Y-196386842D02*
X205173629Y-196458271D01*
X205173629Y-196458271D02*
X205102201Y-196386842D01*
X205102201Y-196386842D02*
X205173629Y-196315414D01*
X205173629Y-196315414D02*
X205173629Y-196458271D01*
X206173630Y-194958271D02*
X206316487Y-194958271D01*
X206316487Y-194958271D02*
X206459344Y-195029700D01*
X206459344Y-195029700D02*
X206530773Y-195101128D01*
X206530773Y-195101128D02*
X206602201Y-195243985D01*
X206602201Y-195243985D02*
X206673630Y-195529700D01*
X206673630Y-195529700D02*
X206673630Y-195886842D01*
X206673630Y-195886842D02*
X206602201Y-196172557D01*
X206602201Y-196172557D02*
X206530773Y-196315414D01*
X206530773Y-196315414D02*
X206459344Y-196386842D01*
X206459344Y-196386842D02*
X206316487Y-196458271D01*
X206316487Y-196458271D02*
X206173630Y-196458271D01*
X206173630Y-196458271D02*
X206030773Y-196386842D01*
X206030773Y-196386842D02*
X205959344Y-196315414D01*
X205959344Y-196315414D02*
X205887915Y-196172557D01*
X205887915Y-196172557D02*
X205816487Y-195886842D01*
X205816487Y-195886842D02*
X205816487Y-195529700D01*
X205816487Y-195529700D02*
X205887915Y-195243985D01*
X205887915Y-195243985D02*
X205959344Y-195101128D01*
X205959344Y-195101128D02*
X206030773Y-195029700D01*
X206030773Y-195029700D02*
X206173630Y-194958271D01*
X207173629Y-197029700D02*
X207245058Y-196958271D01*
X207245058Y-196958271D02*
X207387915Y-196743985D01*
X207387915Y-196743985D02*
X207459344Y-196601128D01*
X207459344Y-196601128D02*
X207530772Y-196386842D01*
X207530772Y-196386842D02*
X207602201Y-196029700D01*
X207602201Y-196029700D02*
X207602201Y-195743985D01*
X207602201Y-195743985D02*
X207530772Y-195386842D01*
X207530772Y-195386842D02*
X207459344Y-195172557D01*
X207459344Y-195172557D02*
X207387915Y-195029700D01*
X207387915Y-195029700D02*
X207245058Y-194815414D01*
X207245058Y-194815414D02*
X207173629Y-194743985D01*
D10*
D11*
X177002200Y-191507200D02*
X285002200Y-191507200D01*
D10*
D12*
X264216485Y-193658271D02*
X263716485Y-192943985D01*
X263359342Y-193658271D02*
X263359342Y-192158271D01*
X263359342Y-192158271D02*
X263930771Y-192158271D01*
X263930771Y-192158271D02*
X264073628Y-192229700D01*
X264073628Y-192229700D02*
X264145057Y-192301128D01*
X264145057Y-192301128D02*
X264216485Y-192443985D01*
X264216485Y-192443985D02*
X264216485Y-192658271D01*
X264216485Y-192658271D02*
X264145057Y-192801128D01*
X264145057Y-192801128D02*
X264073628Y-192872557D01*
X264073628Y-192872557D02*
X263930771Y-192943985D01*
X263930771Y-192943985D02*
X263359342Y-192943985D01*
X265430771Y-193586842D02*
X265287914Y-193658271D01*
X265287914Y-193658271D02*
X265002200Y-193658271D01*
X265002200Y-193658271D02*
X264859342Y-193586842D01*
X264859342Y-193586842D02*
X264787914Y-193443985D01*
X264787914Y-193443985D02*
X264787914Y-192872557D01*
X264787914Y-192872557D02*
X264859342Y-192729700D01*
X264859342Y-192729700D02*
X265002200Y-192658271D01*
X265002200Y-192658271D02*
X265287914Y-192658271D01*
X265287914Y-192658271D02*
X265430771Y-192729700D01*
X265430771Y-192729700D02*
X265502200Y-192872557D01*
X265502200Y-192872557D02*
X265502200Y-193015414D01*
X265502200Y-193015414D02*
X264787914Y-193158271D01*
X266002199Y-192658271D02*
X266359342Y-193658271D01*
X266359342Y-193658271D02*
X266716485Y-192658271D01*
X267287913Y-193515414D02*
X267359342Y-193586842D01*
X267359342Y-193586842D02*
X267287913Y-193658271D01*
X267287913Y-193658271D02*
X267216485Y-193586842D01*
X267216485Y-193586842D02*
X267287913Y-193515414D01*
X267287913Y-193515414D02*
X267287913Y-193658271D01*
X267287913Y-192729700D02*
X267359342Y-192801128D01*
X267359342Y-192801128D02*
X267287913Y-192872557D01*
X267287913Y-192872557D02*
X267216485Y-192801128D01*
X267216485Y-192801128D02*
X267287913Y-192729700D01*
X267287913Y-192729700D02*
X267287913Y-192872557D01*
D10*
D11*
X178287914Y-193586842D02*
X178502200Y-193658271D01*
X178502200Y-193658271D02*
X178859342Y-193658271D01*
X178859342Y-193658271D02*
X179002200Y-193586842D01*
X179002200Y-193586842D02*
X179073628Y-193515414D01*
X179073628Y-193515414D02*
X179145057Y-193372557D01*
X179145057Y-193372557D02*
X179145057Y-193229700D01*
X179145057Y-193229700D02*
X179073628Y-193086842D01*
X179073628Y-193086842D02*
X179002200Y-193015414D01*
X179002200Y-193015414D02*
X178859342Y-192943985D01*
X178859342Y-192943985D02*
X178573628Y-192872557D01*
X178573628Y-192872557D02*
X178430771Y-192801128D01*
X178430771Y-192801128D02*
X178359342Y-192729700D01*
X178359342Y-192729700D02*
X178287914Y-192586842D01*
X178287914Y-192586842D02*
X178287914Y-192443985D01*
X178287914Y-192443985D02*
X178359342Y-192301128D01*
X178359342Y-192301128D02*
X178430771Y-192229700D01*
X178430771Y-192229700D02*
X178573628Y-192158271D01*
X178573628Y-192158271D02*
X178930771Y-192158271D01*
X178930771Y-192158271D02*
X179145057Y-192229700D01*
X179787913Y-193658271D02*
X179787913Y-192658271D01*
X179787913Y-192158271D02*
X179716485Y-192229700D01*
X179716485Y-192229700D02*
X179787913Y-192301128D01*
X179787913Y-192301128D02*
X179859342Y-192229700D01*
X179859342Y-192229700D02*
X179787913Y-192158271D01*
X179787913Y-192158271D02*
X179787913Y-192301128D01*
X180359342Y-192658271D02*
X181145057Y-192658271D01*
X181145057Y-192658271D02*
X180359342Y-193658271D01*
X180359342Y-193658271D02*
X181145057Y-193658271D01*
X182287914Y-193586842D02*
X182145057Y-193658271D01*
X182145057Y-193658271D02*
X181859343Y-193658271D01*
X181859343Y-193658271D02*
X181716485Y-193586842D01*
X181716485Y-193586842D02*
X181645057Y-193443985D01*
X181645057Y-193443985D02*
X181645057Y-192872557D01*
X181645057Y-192872557D02*
X181716485Y-192729700D01*
X181716485Y-192729700D02*
X181859343Y-192658271D01*
X181859343Y-192658271D02*
X182145057Y-192658271D01*
X182145057Y-192658271D02*
X182287914Y-192729700D01*
X182287914Y-192729700D02*
X182359343Y-192872557D01*
X182359343Y-192872557D02*
X182359343Y-193015414D01*
X182359343Y-193015414D02*
X181645057Y-193158271D01*
X183002199Y-193515414D02*
X183073628Y-193586842D01*
X183073628Y-193586842D02*
X183002199Y-193658271D01*
X183002199Y-193658271D02*
X182930771Y-193586842D01*
X182930771Y-193586842D02*
X183002199Y-193515414D01*
X183002199Y-193515414D02*
X183002199Y-193658271D01*
X183002199Y-192729700D02*
X183073628Y-192801128D01*
X183073628Y-192801128D02*
X183002199Y-192872557D01*
X183002199Y-192872557D02*
X182930771Y-192801128D01*
X182930771Y-192801128D02*
X183002199Y-192729700D01*
X183002199Y-192729700D02*
X183002199Y-192872557D01*
X184545057Y-193229700D02*
X185259343Y-193229700D01*
X184402200Y-193658271D02*
X184902200Y-192158271D01*
X184902200Y-192158271D02*
X185402200Y-193658271D01*
X186545057Y-192658271D02*
X186545057Y-193658271D01*
X186187914Y-192086842D02*
X185830771Y-193158271D01*
X185830771Y-193158271D02*
X186759342Y-193158271D01*
D10*
D11*
X263359342Y-196458271D02*
X263359342Y-194958271D01*
X264716486Y-196458271D02*
X264716486Y-194958271D01*
X264716486Y-196386842D02*
X264573628Y-196458271D01*
X264573628Y-196458271D02*
X264287914Y-196458271D01*
X264287914Y-196458271D02*
X264145057Y-196386842D01*
X264145057Y-196386842D02*
X264073628Y-196315414D01*
X264073628Y-196315414D02*
X264002200Y-196172557D01*
X264002200Y-196172557D02*
X264002200Y-195743985D01*
X264002200Y-195743985D02*
X264073628Y-195601128D01*
X264073628Y-195601128D02*
X264145057Y-195529700D01*
X264145057Y-195529700D02*
X264287914Y-195458271D01*
X264287914Y-195458271D02*
X264573628Y-195458271D01*
X264573628Y-195458271D02*
X264716486Y-195529700D01*
X265430771Y-196315414D02*
X265502200Y-196386842D01*
X265502200Y-196386842D02*
X265430771Y-196458271D01*
X265430771Y-196458271D02*
X265359343Y-196386842D01*
X265359343Y-196386842D02*
X265430771Y-196315414D01*
X265430771Y-196315414D02*
X265430771Y-196458271D01*
X265430771Y-195529700D02*
X265502200Y-195601128D01*
X265502200Y-195601128D02*
X265430771Y-195672557D01*
X265430771Y-195672557D02*
X265359343Y-195601128D01*
X265359343Y-195601128D02*
X265430771Y-195529700D01*
X265430771Y-195529700D02*
X265430771Y-195672557D01*
X267830772Y-196458271D02*
X266973629Y-196458271D01*
X267402200Y-196458271D02*
X267402200Y-194958271D01*
X267402200Y-194958271D02*
X267259343Y-195172557D01*
X267259343Y-195172557D02*
X267116486Y-195315414D01*
X267116486Y-195315414D02*
X266973629Y-195386842D01*
X269545057Y-194886842D02*
X268259343Y-196815414D01*
X270830772Y-196458271D02*
X269973629Y-196458271D01*
X270402200Y-196458271D02*
X270402200Y-194958271D01*
X270402200Y-194958271D02*
X270259343Y-195172557D01*
X270259343Y-195172557D02*
X270116486Y-195315414D01*
X270116486Y-195315414D02*
X269973629Y-195386842D01*
D10*
D11*
X177002200Y-187507200D02*
X285002200Y-187507200D01*
D10*
D13*
X178454580Y-188041961D02*
X179597438Y-188041961D01*
X178776009Y-190041961D02*
X179026009Y-188041961D01*
X180014105Y-190041961D02*
X180180771Y-188708628D01*
X180264105Y-188041961D02*
X180156962Y-188137200D01*
X180156962Y-188137200D02*
X180240295Y-188232438D01*
X180240295Y-188232438D02*
X180347438Y-188137200D01*
X180347438Y-188137200D02*
X180264105Y-188041961D01*
X180264105Y-188041961D02*
X180240295Y-188232438D01*
X180847438Y-188708628D02*
X181609343Y-188708628D01*
X181216486Y-188041961D02*
X181002200Y-189756247D01*
X181002200Y-189756247D02*
X181073629Y-189946723D01*
X181073629Y-189946723D02*
X181252200Y-190041961D01*
X181252200Y-190041961D02*
X181442676Y-190041961D01*
X182395057Y-190041961D02*
X182216486Y-189946723D01*
X182216486Y-189946723D02*
X182145057Y-189756247D01*
X182145057Y-189756247D02*
X182359343Y-188041961D01*
X183930771Y-189946723D02*
X183728390Y-190041961D01*
X183728390Y-190041961D02*
X183347438Y-190041961D01*
X183347438Y-190041961D02*
X183168867Y-189946723D01*
X183168867Y-189946723D02*
X183097438Y-189756247D01*
X183097438Y-189756247D02*
X183192676Y-188994342D01*
X183192676Y-188994342D02*
X183311724Y-188803866D01*
X183311724Y-188803866D02*
X183514105Y-188708628D01*
X183514105Y-188708628D02*
X183895057Y-188708628D01*
X183895057Y-188708628D02*
X184073628Y-188803866D01*
X184073628Y-188803866D02*
X184145057Y-188994342D01*
X184145057Y-188994342D02*
X184121247Y-189184819D01*
X184121247Y-189184819D02*
X183145057Y-189375295D01*
X184895057Y-189851485D02*
X184978391Y-189946723D01*
X184978391Y-189946723D02*
X184871248Y-190041961D01*
X184871248Y-190041961D02*
X184787914Y-189946723D01*
X184787914Y-189946723D02*
X184895057Y-189851485D01*
X184895057Y-189851485D02*
X184871248Y-190041961D01*
X185026010Y-188803866D02*
X185109343Y-188899104D01*
X185109343Y-188899104D02*
X185002200Y-188994342D01*
X185002200Y-188994342D02*
X184918867Y-188899104D01*
X184918867Y-188899104D02*
X185026010Y-188803866D01*
X185026010Y-188803866D02*
X185002200Y-188994342D01*
D10*
D11*
X178859342Y-185472557D02*
X178359342Y-185472557D01*
X178359342Y-186258271D02*
X178359342Y-184758271D01*
X178359342Y-184758271D02*
X179073628Y-184758271D01*
X179645056Y-186258271D02*
X179645056Y-185258271D01*
X179645056Y-184758271D02*
X179573628Y-184829700D01*
X179573628Y-184829700D02*
X179645056Y-184901128D01*
X179645056Y-184901128D02*
X179716485Y-184829700D01*
X179716485Y-184829700D02*
X179645056Y-184758271D01*
X179645056Y-184758271D02*
X179645056Y-184901128D01*
X180573628Y-186258271D02*
X180430771Y-186186842D01*
X180430771Y-186186842D02*
X180359342Y-186043985D01*
X180359342Y-186043985D02*
X180359342Y-184758271D01*
X181716485Y-186186842D02*
X181573628Y-186258271D01*
X181573628Y-186258271D02*
X181287914Y-186258271D01*
X181287914Y-186258271D02*
X181145056Y-186186842D01*
X181145056Y-186186842D02*
X181073628Y-186043985D01*
X181073628Y-186043985D02*
X181073628Y-185472557D01*
X181073628Y-185472557D02*
X181145056Y-185329700D01*
X181145056Y-185329700D02*
X181287914Y-185258271D01*
X181287914Y-185258271D02*
X181573628Y-185258271D01*
X181573628Y-185258271D02*
X181716485Y-185329700D01*
X181716485Y-185329700D02*
X181787914Y-185472557D01*
X181787914Y-185472557D02*
X181787914Y-185615414D01*
X181787914Y-185615414D02*
X181073628Y-185758271D01*
X182430770Y-186115414D02*
X182502199Y-186186842D01*
X182502199Y-186186842D02*
X182430770Y-186258271D01*
X182430770Y-186258271D02*
X182359342Y-186186842D01*
X182359342Y-186186842D02*
X182430770Y-186115414D01*
X182430770Y-186115414D02*
X182430770Y-186258271D01*
X182430770Y-185329700D02*
X182502199Y-185401128D01*
X182502199Y-185401128D02*
X182430770Y-185472557D01*
X182430770Y-185472557D02*
X182359342Y-185401128D01*
X182359342Y-185401128D02*
X182430770Y-185329700D01*
X182430770Y-185329700D02*
X182430770Y-185472557D01*
X184616485Y-186186842D02*
X184473628Y-186258271D01*
X184473628Y-186258271D02*
X184187914Y-186258271D01*
X184187914Y-186258271D02*
X184045056Y-186186842D01*
X184045056Y-186186842D02*
X183973628Y-186043985D01*
X183973628Y-186043985D02*
X183973628Y-185472557D01*
X183973628Y-185472557D02*
X184045056Y-185329700D01*
X184045056Y-185329700D02*
X184187914Y-185258271D01*
X184187914Y-185258271D02*
X184473628Y-185258271D01*
X184473628Y-185258271D02*
X184616485Y-185329700D01*
X184616485Y-185329700D02*
X184687914Y-185472557D01*
X184687914Y-185472557D02*
X184687914Y-185615414D01*
X184687914Y-185615414D02*
X183973628Y-185758271D01*
X185259342Y-186186842D02*
X185402199Y-186258271D01*
X185402199Y-186258271D02*
X185687913Y-186258271D01*
X185687913Y-186258271D02*
X185830770Y-186186842D01*
X185830770Y-186186842D02*
X185902199Y-186043985D01*
X185902199Y-186043985D02*
X185902199Y-185972557D01*
X185902199Y-185972557D02*
X185830770Y-185829700D01*
X185830770Y-185829700D02*
X185687913Y-185758271D01*
X185687913Y-185758271D02*
X185473628Y-185758271D01*
X185473628Y-185758271D02*
X185330770Y-185686842D01*
X185330770Y-185686842D02*
X185259342Y-185543985D01*
X185259342Y-185543985D02*
X185259342Y-185472557D01*
X185259342Y-185472557D02*
X185330770Y-185329700D01*
X185330770Y-185329700D02*
X185473628Y-185258271D01*
X185473628Y-185258271D02*
X185687913Y-185258271D01*
X185687913Y-185258271D02*
X185830770Y-185329700D01*
X186545056Y-185258271D02*
X186545056Y-186758271D01*
X186545056Y-185329700D02*
X186687914Y-185258271D01*
X186687914Y-185258271D02*
X186973628Y-185258271D01*
X186973628Y-185258271D02*
X187116485Y-185329700D01*
X187116485Y-185329700D02*
X187187914Y-185401128D01*
X187187914Y-185401128D02*
X187259342Y-185543985D01*
X187259342Y-185543985D02*
X187259342Y-185972557D01*
X187259342Y-185972557D02*
X187187914Y-186115414D01*
X187187914Y-186115414D02*
X187116485Y-186186842D01*
X187116485Y-186186842D02*
X186973628Y-186258271D01*
X186973628Y-186258271D02*
X186687914Y-186258271D01*
X186687914Y-186258271D02*
X186545056Y-186186842D01*
X187759342Y-184758271D02*
X188687914Y-184758271D01*
X188687914Y-184758271D02*
X188187914Y-185329700D01*
X188187914Y-185329700D02*
X188402199Y-185329700D01*
X188402199Y-185329700D02*
X188545057Y-185401128D01*
X188545057Y-185401128D02*
X188616485Y-185472557D01*
X188616485Y-185472557D02*
X188687914Y-185615414D01*
X188687914Y-185615414D02*
X188687914Y-185972557D01*
X188687914Y-185972557D02*
X188616485Y-186115414D01*
X188616485Y-186115414D02*
X188545057Y-186186842D01*
X188545057Y-186186842D02*
X188402199Y-186258271D01*
X188402199Y-186258271D02*
X187973628Y-186258271D01*
X187973628Y-186258271D02*
X187830771Y-186186842D01*
X187830771Y-186186842D02*
X187759342Y-186115414D01*
X189259342Y-184901128D02*
X189330770Y-184829700D01*
X189330770Y-184829700D02*
X189473628Y-184758271D01*
X189473628Y-184758271D02*
X189830770Y-184758271D01*
X189830770Y-184758271D02*
X189973628Y-184829700D01*
X189973628Y-184829700D02*
X190045056Y-184901128D01*
X190045056Y-184901128D02*
X190116485Y-185043985D01*
X190116485Y-185043985D02*
X190116485Y-185186842D01*
X190116485Y-185186842D02*
X190045056Y-185401128D01*
X190045056Y-185401128D02*
X189187913Y-186258271D01*
X189187913Y-186258271D02*
X190116485Y-186258271D01*
X190759341Y-185686842D02*
X191902199Y-185686842D01*
X193259342Y-186186842D02*
X193116484Y-186258271D01*
X193116484Y-186258271D02*
X192830770Y-186258271D01*
X192830770Y-186258271D02*
X192687913Y-186186842D01*
X192687913Y-186186842D02*
X192616484Y-186115414D01*
X192616484Y-186115414D02*
X192545056Y-185972557D01*
X192545056Y-185972557D02*
X192545056Y-185543985D01*
X192545056Y-185543985D02*
X192616484Y-185401128D01*
X192616484Y-185401128D02*
X192687913Y-185329700D01*
X192687913Y-185329700D02*
X192830770Y-185258271D01*
X192830770Y-185258271D02*
X193116484Y-185258271D01*
X193116484Y-185258271D02*
X193259342Y-185329700D01*
X193759341Y-184758271D02*
X194687913Y-184758271D01*
X194687913Y-184758271D02*
X194187913Y-185329700D01*
X194187913Y-185329700D02*
X194402198Y-185329700D01*
X194402198Y-185329700D02*
X194545056Y-185401128D01*
X194545056Y-185401128D02*
X194616484Y-185472557D01*
X194616484Y-185472557D02*
X194687913Y-185615414D01*
X194687913Y-185615414D02*
X194687913Y-185972557D01*
X194687913Y-185972557D02*
X194616484Y-186115414D01*
X194616484Y-186115414D02*
X194545056Y-186186842D01*
X194545056Y-186186842D02*
X194402198Y-186258271D01*
X194402198Y-186258271D02*
X193973627Y-186258271D01*
X193973627Y-186258271D02*
X193830770Y-186186842D01*
X193830770Y-186186842D02*
X193759341Y-186115414D01*
X195330769Y-185686842D02*
X196473627Y-185686842D01*
X197045055Y-185258271D02*
X197402198Y-186258271D01*
X197402198Y-186258271D02*
X197759341Y-185258271D01*
X198902198Y-186186842D02*
X198759341Y-186258271D01*
X198759341Y-186258271D02*
X198473627Y-186258271D01*
X198473627Y-186258271D02*
X198330769Y-186186842D01*
X198330769Y-186186842D02*
X198259341Y-186043985D01*
X198259341Y-186043985D02*
X198259341Y-185472557D01*
X198259341Y-185472557D02*
X198330769Y-185329700D01*
X198330769Y-185329700D02*
X198473627Y-185258271D01*
X198473627Y-185258271D02*
X198759341Y-185258271D01*
X198759341Y-185258271D02*
X198902198Y-185329700D01*
X198902198Y-185329700D02*
X198973627Y-185472557D01*
X198973627Y-185472557D02*
X198973627Y-185615414D01*
X198973627Y-185615414D02*
X198259341Y-185758271D01*
X199545055Y-186186842D02*
X199687912Y-186258271D01*
X199687912Y-186258271D02*
X199973626Y-186258271D01*
X199973626Y-186258271D02*
X200116483Y-186186842D01*
X200116483Y-186186842D02*
X200187912Y-186043985D01*
X200187912Y-186043985D02*
X200187912Y-185972557D01*
X200187912Y-185972557D02*
X200116483Y-185829700D01*
X200116483Y-185829700D02*
X199973626Y-185758271D01*
X199973626Y-185758271D02*
X199759341Y-185758271D01*
X199759341Y-185758271D02*
X199616483Y-185686842D01*
X199616483Y-185686842D02*
X199545055Y-185543985D01*
X199545055Y-185543985D02*
X199545055Y-185472557D01*
X199545055Y-185472557D02*
X199616483Y-185329700D01*
X199616483Y-185329700D02*
X199759341Y-185258271D01*
X199759341Y-185258271D02*
X199973626Y-185258271D01*
X199973626Y-185258271D02*
X200116483Y-185329700D01*
X201473627Y-186186842D02*
X201330769Y-186258271D01*
X201330769Y-186258271D02*
X201045055Y-186258271D01*
X201045055Y-186258271D02*
X200902198Y-186186842D01*
X200902198Y-186186842D02*
X200830769Y-186115414D01*
X200830769Y-186115414D02*
X200759341Y-185972557D01*
X200759341Y-185972557D02*
X200759341Y-185543985D01*
X200759341Y-185543985D02*
X200830769Y-185401128D01*
X200830769Y-185401128D02*
X200902198Y-185329700D01*
X200902198Y-185329700D02*
X201045055Y-185258271D01*
X201045055Y-185258271D02*
X201330769Y-185258271D01*
X201330769Y-185258271D02*
X201473627Y-185329700D01*
X202116483Y-185686842D02*
X203259341Y-185686842D01*
X204545055Y-186186842D02*
X204402198Y-186258271D01*
X204402198Y-186258271D02*
X204116484Y-186258271D01*
X204116484Y-186258271D02*
X203973626Y-186186842D01*
X203973626Y-186186842D02*
X203902198Y-186043985D01*
X203902198Y-186043985D02*
X203902198Y-185472557D01*
X203902198Y-185472557D02*
X203973626Y-185329700D01*
X203973626Y-185329700D02*
X204116484Y-185258271D01*
X204116484Y-185258271D02*
X204402198Y-185258271D01*
X204402198Y-185258271D02*
X204545055Y-185329700D01*
X204545055Y-185329700D02*
X204616484Y-185472557D01*
X204616484Y-185472557D02*
X204616484Y-185615414D01*
X204616484Y-185615414D02*
X203902198Y-185758271D01*
X205116483Y-186258271D02*
X205902198Y-185258271D01*
X205116483Y-185258271D02*
X205902198Y-186258271D01*
X206473626Y-185258271D02*
X206473626Y-186758271D01*
X206473626Y-185329700D02*
X206616484Y-185258271D01*
X206616484Y-185258271D02*
X206902198Y-185258271D01*
X206902198Y-185258271D02*
X207045055Y-185329700D01*
X207045055Y-185329700D02*
X207116484Y-185401128D01*
X207116484Y-185401128D02*
X207187912Y-185543985D01*
X207187912Y-185543985D02*
X207187912Y-185972557D01*
X207187912Y-185972557D02*
X207116484Y-186115414D01*
X207116484Y-186115414D02*
X207045055Y-186186842D01*
X207045055Y-186186842D02*
X206902198Y-186258271D01*
X206902198Y-186258271D02*
X206616484Y-186258271D01*
X206616484Y-186258271D02*
X206473626Y-186186842D01*
X207830769Y-186258271D02*
X207830769Y-185258271D01*
X207830769Y-185543985D02*
X207902198Y-185401128D01*
X207902198Y-185401128D02*
X207973627Y-185329700D01*
X207973627Y-185329700D02*
X208116484Y-185258271D01*
X208116484Y-185258271D02*
X208259341Y-185258271D01*
X209330769Y-186186842D02*
X209187912Y-186258271D01*
X209187912Y-186258271D02*
X208902198Y-186258271D01*
X208902198Y-186258271D02*
X208759340Y-186186842D01*
X208759340Y-186186842D02*
X208687912Y-186043985D01*
X208687912Y-186043985D02*
X208687912Y-185472557D01*
X208687912Y-185472557D02*
X208759340Y-185329700D01*
X208759340Y-185329700D02*
X208902198Y-185258271D01*
X208902198Y-185258271D02*
X209187912Y-185258271D01*
X209187912Y-185258271D02*
X209330769Y-185329700D01*
X209330769Y-185329700D02*
X209402198Y-185472557D01*
X209402198Y-185472557D02*
X209402198Y-185615414D01*
X209402198Y-185615414D02*
X208687912Y-185758271D01*
X209973626Y-186186842D02*
X210116483Y-186258271D01*
X210116483Y-186258271D02*
X210402197Y-186258271D01*
X210402197Y-186258271D02*
X210545054Y-186186842D01*
X210545054Y-186186842D02*
X210616483Y-186043985D01*
X210616483Y-186043985D02*
X210616483Y-185972557D01*
X210616483Y-185972557D02*
X210545054Y-185829700D01*
X210545054Y-185829700D02*
X210402197Y-185758271D01*
X210402197Y-185758271D02*
X210187912Y-185758271D01*
X210187912Y-185758271D02*
X210045054Y-185686842D01*
X210045054Y-185686842D02*
X209973626Y-185543985D01*
X209973626Y-185543985D02*
X209973626Y-185472557D01*
X209973626Y-185472557D02*
X210045054Y-185329700D01*
X210045054Y-185329700D02*
X210187912Y-185258271D01*
X210187912Y-185258271D02*
X210402197Y-185258271D01*
X210402197Y-185258271D02*
X210545054Y-185329700D01*
X211187912Y-186186842D02*
X211330769Y-186258271D01*
X211330769Y-186258271D02*
X211616483Y-186258271D01*
X211616483Y-186258271D02*
X211759340Y-186186842D01*
X211759340Y-186186842D02*
X211830769Y-186043985D01*
X211830769Y-186043985D02*
X211830769Y-185972557D01*
X211830769Y-185972557D02*
X211759340Y-185829700D01*
X211759340Y-185829700D02*
X211616483Y-185758271D01*
X211616483Y-185758271D02*
X211402198Y-185758271D01*
X211402198Y-185758271D02*
X211259340Y-185686842D01*
X211259340Y-185686842D02*
X211187912Y-185543985D01*
X211187912Y-185543985D02*
X211187912Y-185472557D01*
X211187912Y-185472557D02*
X211259340Y-185329700D01*
X211259340Y-185329700D02*
X211402198Y-185258271D01*
X211402198Y-185258271D02*
X211616483Y-185258271D01*
X211616483Y-185258271D02*
X211759340Y-185329700D01*
X212473626Y-185686842D02*
X213616484Y-185686842D01*
X214973627Y-185258271D02*
X214973627Y-186472557D01*
X214973627Y-186472557D02*
X214902198Y-186615414D01*
X214902198Y-186615414D02*
X214830769Y-186686842D01*
X214830769Y-186686842D02*
X214687912Y-186758271D01*
X214687912Y-186758271D02*
X214473627Y-186758271D01*
X214473627Y-186758271D02*
X214330769Y-186686842D01*
X214973627Y-186186842D02*
X214830769Y-186258271D01*
X214830769Y-186258271D02*
X214545055Y-186258271D01*
X214545055Y-186258271D02*
X214402198Y-186186842D01*
X214402198Y-186186842D02*
X214330769Y-186115414D01*
X214330769Y-186115414D02*
X214259341Y-185972557D01*
X214259341Y-185972557D02*
X214259341Y-185543985D01*
X214259341Y-185543985D02*
X214330769Y-185401128D01*
X214330769Y-185401128D02*
X214402198Y-185329700D01*
X214402198Y-185329700D02*
X214545055Y-185258271D01*
X214545055Y-185258271D02*
X214830769Y-185258271D01*
X214830769Y-185258271D02*
X214973627Y-185329700D01*
X215687912Y-186258271D02*
X215687912Y-184758271D01*
X216330770Y-186258271D02*
X216330770Y-185472557D01*
X216330770Y-185472557D02*
X216259341Y-185329700D01*
X216259341Y-185329700D02*
X216116484Y-185258271D01*
X216116484Y-185258271D02*
X215902198Y-185258271D01*
X215902198Y-185258271D02*
X215759341Y-185329700D01*
X215759341Y-185329700D02*
X215687912Y-185401128D01*
X216687913Y-186401128D02*
X217830770Y-186401128D01*
X218830770Y-186186842D02*
X218687912Y-186258271D01*
X218687912Y-186258271D02*
X218402198Y-186258271D01*
X218402198Y-186258271D02*
X218259341Y-186186842D01*
X218259341Y-186186842D02*
X218187912Y-186115414D01*
X218187912Y-186115414D02*
X218116484Y-185972557D01*
X218116484Y-185972557D02*
X218116484Y-185543985D01*
X218116484Y-185543985D02*
X218187912Y-185401128D01*
X218187912Y-185401128D02*
X218259341Y-185329700D01*
X218259341Y-185329700D02*
X218402198Y-185258271D01*
X218402198Y-185258271D02*
X218687912Y-185258271D01*
X218687912Y-185258271D02*
X218830770Y-185329700D01*
X219687912Y-186258271D02*
X219545055Y-186186842D01*
X219545055Y-186186842D02*
X219473626Y-186115414D01*
X219473626Y-186115414D02*
X219402198Y-185972557D01*
X219402198Y-185972557D02*
X219402198Y-185543985D01*
X219402198Y-185543985D02*
X219473626Y-185401128D01*
X219473626Y-185401128D02*
X219545055Y-185329700D01*
X219545055Y-185329700D02*
X219687912Y-185258271D01*
X219687912Y-185258271D02*
X219902198Y-185258271D01*
X219902198Y-185258271D02*
X220045055Y-185329700D01*
X220045055Y-185329700D02*
X220116484Y-185401128D01*
X220116484Y-185401128D02*
X220187912Y-185543985D01*
X220187912Y-185543985D02*
X220187912Y-185972557D01*
X220187912Y-185972557D02*
X220116484Y-186115414D01*
X220116484Y-186115414D02*
X220045055Y-186186842D01*
X220045055Y-186186842D02*
X219902198Y-186258271D01*
X219902198Y-186258271D02*
X219687912Y-186258271D01*
X220830769Y-185258271D02*
X220830769Y-186258271D01*
X220830769Y-185401128D02*
X220902198Y-185329700D01*
X220902198Y-185329700D02*
X221045055Y-185258271D01*
X221045055Y-185258271D02*
X221259341Y-185258271D01*
X221259341Y-185258271D02*
X221402198Y-185329700D01*
X221402198Y-185329700D02*
X221473627Y-185472557D01*
X221473627Y-185472557D02*
X221473627Y-186258271D01*
X222187912Y-185258271D02*
X222187912Y-186258271D01*
X222187912Y-185401128D02*
X222259341Y-185329700D01*
X222259341Y-185329700D02*
X222402198Y-185258271D01*
X222402198Y-185258271D02*
X222616484Y-185258271D01*
X222616484Y-185258271D02*
X222759341Y-185329700D01*
X222759341Y-185329700D02*
X222830770Y-185472557D01*
X222830770Y-185472557D02*
X222830770Y-186258271D01*
X224116484Y-186186842D02*
X223973627Y-186258271D01*
X223973627Y-186258271D02*
X223687913Y-186258271D01*
X223687913Y-186258271D02*
X223545055Y-186186842D01*
X223545055Y-186186842D02*
X223473627Y-186043985D01*
X223473627Y-186043985D02*
X223473627Y-185472557D01*
X223473627Y-185472557D02*
X223545055Y-185329700D01*
X223545055Y-185329700D02*
X223687913Y-185258271D01*
X223687913Y-185258271D02*
X223973627Y-185258271D01*
X223973627Y-185258271D02*
X224116484Y-185329700D01*
X224116484Y-185329700D02*
X224187913Y-185472557D01*
X224187913Y-185472557D02*
X224187913Y-185615414D01*
X224187913Y-185615414D02*
X223473627Y-185758271D01*
X225473627Y-186186842D02*
X225330769Y-186258271D01*
X225330769Y-186258271D02*
X225045055Y-186258271D01*
X225045055Y-186258271D02*
X224902198Y-186186842D01*
X224902198Y-186186842D02*
X224830769Y-186115414D01*
X224830769Y-186115414D02*
X224759341Y-185972557D01*
X224759341Y-185972557D02*
X224759341Y-185543985D01*
X224759341Y-185543985D02*
X224830769Y-185401128D01*
X224830769Y-185401128D02*
X224902198Y-185329700D01*
X224902198Y-185329700D02*
X225045055Y-185258271D01*
X225045055Y-185258271D02*
X225330769Y-185258271D01*
X225330769Y-185258271D02*
X225473627Y-185329700D01*
X225902198Y-185258271D02*
X226473626Y-185258271D01*
X226116483Y-184758271D02*
X226116483Y-186043985D01*
X226116483Y-186043985D02*
X226187912Y-186186842D01*
X226187912Y-186186842D02*
X226330769Y-186258271D01*
X226330769Y-186258271D02*
X226473626Y-186258271D01*
X227187912Y-186258271D02*
X227045055Y-186186842D01*
X227045055Y-186186842D02*
X226973626Y-186115414D01*
X226973626Y-186115414D02*
X226902198Y-185972557D01*
X226902198Y-185972557D02*
X226902198Y-185543985D01*
X226902198Y-185543985D02*
X226973626Y-185401128D01*
X226973626Y-185401128D02*
X227045055Y-185329700D01*
X227045055Y-185329700D02*
X227187912Y-185258271D01*
X227187912Y-185258271D02*
X227402198Y-185258271D01*
X227402198Y-185258271D02*
X227545055Y-185329700D01*
X227545055Y-185329700D02*
X227616484Y-185401128D01*
X227616484Y-185401128D02*
X227687912Y-185543985D01*
X227687912Y-185543985D02*
X227687912Y-185972557D01*
X227687912Y-185972557D02*
X227616484Y-186115414D01*
X227616484Y-186115414D02*
X227545055Y-186186842D01*
X227545055Y-186186842D02*
X227402198Y-186258271D01*
X227402198Y-186258271D02*
X227187912Y-186258271D01*
X228330769Y-186258271D02*
X228330769Y-185258271D01*
X228330769Y-185543985D02*
X228402198Y-185401128D01*
X228402198Y-185401128D02*
X228473627Y-185329700D01*
X228473627Y-185329700D02*
X228616484Y-185258271D01*
X228616484Y-185258271D02*
X228759341Y-185258271D01*
X229187912Y-186186842D02*
X229330769Y-186258271D01*
X229330769Y-186258271D02*
X229616483Y-186258271D01*
X229616483Y-186258271D02*
X229759340Y-186186842D01*
X229759340Y-186186842D02*
X229830769Y-186043985D01*
X229830769Y-186043985D02*
X229830769Y-185972557D01*
X229830769Y-185972557D02*
X229759340Y-185829700D01*
X229759340Y-185829700D02*
X229616483Y-185758271D01*
X229616483Y-185758271D02*
X229402198Y-185758271D01*
X229402198Y-185758271D02*
X229259340Y-185686842D01*
X229259340Y-185686842D02*
X229187912Y-185543985D01*
X229187912Y-185543985D02*
X229187912Y-185472557D01*
X229187912Y-185472557D02*
X229259340Y-185329700D01*
X229259340Y-185329700D02*
X229402198Y-185258271D01*
X229402198Y-185258271D02*
X229616483Y-185258271D01*
X229616483Y-185258271D02*
X229759340Y-185329700D01*
X230473626Y-186115414D02*
X230545055Y-186186842D01*
X230545055Y-186186842D02*
X230473626Y-186258271D01*
X230473626Y-186258271D02*
X230402198Y-186186842D01*
X230402198Y-186186842D02*
X230473626Y-186115414D01*
X230473626Y-186115414D02*
X230473626Y-186258271D01*
X231187912Y-186258271D02*
X231187912Y-184758271D01*
X231330770Y-185686842D02*
X231759341Y-186258271D01*
X231759341Y-185258271D02*
X231187912Y-185829700D01*
X232402198Y-186258271D02*
X232402198Y-185258271D01*
X232402198Y-184758271D02*
X232330770Y-184829700D01*
X232330770Y-184829700D02*
X232402198Y-184901128D01*
X232402198Y-184901128D02*
X232473627Y-184829700D01*
X232473627Y-184829700D02*
X232402198Y-184758271D01*
X232402198Y-184758271D02*
X232402198Y-184901128D01*
X233759342Y-186186842D02*
X233616484Y-186258271D01*
X233616484Y-186258271D02*
X233330770Y-186258271D01*
X233330770Y-186258271D02*
X233187913Y-186186842D01*
X233187913Y-186186842D02*
X233116484Y-186115414D01*
X233116484Y-186115414D02*
X233045056Y-185972557D01*
X233045056Y-185972557D02*
X233045056Y-185543985D01*
X233045056Y-185543985D02*
X233116484Y-185401128D01*
X233116484Y-185401128D02*
X233187913Y-185329700D01*
X233187913Y-185329700D02*
X233330770Y-185258271D01*
X233330770Y-185258271D02*
X233616484Y-185258271D01*
X233616484Y-185258271D02*
X233759342Y-185329700D01*
X235045056Y-186258271D02*
X235045056Y-185472557D01*
X235045056Y-185472557D02*
X234973627Y-185329700D01*
X234973627Y-185329700D02*
X234830770Y-185258271D01*
X234830770Y-185258271D02*
X234545056Y-185258271D01*
X234545056Y-185258271D02*
X234402198Y-185329700D01*
X235045056Y-186186842D02*
X234902198Y-186258271D01*
X234902198Y-186258271D02*
X234545056Y-186258271D01*
X234545056Y-186258271D02*
X234402198Y-186186842D01*
X234402198Y-186186842D02*
X234330770Y-186043985D01*
X234330770Y-186043985D02*
X234330770Y-185901128D01*
X234330770Y-185901128D02*
X234402198Y-185758271D01*
X234402198Y-185758271D02*
X234545056Y-185686842D01*
X234545056Y-185686842D02*
X234902198Y-185686842D01*
X234902198Y-185686842D02*
X235045056Y-185615414D01*
X236402199Y-186258271D02*
X236402199Y-184758271D01*
X236402199Y-186186842D02*
X236259341Y-186258271D01*
X236259341Y-186258271D02*
X235973627Y-186258271D01*
X235973627Y-186258271D02*
X235830770Y-186186842D01*
X235830770Y-186186842D02*
X235759341Y-186115414D01*
X235759341Y-186115414D02*
X235687913Y-185972557D01*
X235687913Y-185972557D02*
X235687913Y-185543985D01*
X235687913Y-185543985D02*
X235759341Y-185401128D01*
X235759341Y-185401128D02*
X235830770Y-185329700D01*
X235830770Y-185329700D02*
X235973627Y-185258271D01*
X235973627Y-185258271D02*
X236259341Y-185258271D01*
X236259341Y-185258271D02*
X236402199Y-185329700D01*
X236759342Y-186401128D02*
X237902199Y-186401128D01*
X238259341Y-185258271D02*
X238259341Y-186758271D01*
X238259341Y-185329700D02*
X238402199Y-185258271D01*
X238402199Y-185258271D02*
X238687913Y-185258271D01*
X238687913Y-185258271D02*
X238830770Y-185329700D01*
X238830770Y-185329700D02*
X238902199Y-185401128D01*
X238902199Y-185401128D02*
X238973627Y-185543985D01*
X238973627Y-185543985D02*
X238973627Y-185972557D01*
X238973627Y-185972557D02*
X238902199Y-186115414D01*
X238902199Y-186115414D02*
X238830770Y-186186842D01*
X238830770Y-186186842D02*
X238687913Y-186258271D01*
X238687913Y-186258271D02*
X238402199Y-186258271D01*
X238402199Y-186258271D02*
X238259341Y-186186842D01*
X240259342Y-186186842D02*
X240116484Y-186258271D01*
X240116484Y-186258271D02*
X239830770Y-186258271D01*
X239830770Y-186258271D02*
X239687913Y-186186842D01*
X239687913Y-186186842D02*
X239616484Y-186115414D01*
X239616484Y-186115414D02*
X239545056Y-185972557D01*
X239545056Y-185972557D02*
X239545056Y-185543985D01*
X239545056Y-185543985D02*
X239616484Y-185401128D01*
X239616484Y-185401128D02*
X239687913Y-185329700D01*
X239687913Y-185329700D02*
X239830770Y-185258271D01*
X239830770Y-185258271D02*
X240116484Y-185258271D01*
X240116484Y-185258271D02*
X240259342Y-185329700D01*
X240902198Y-186258271D02*
X240902198Y-184758271D01*
X240902198Y-185329700D02*
X241045056Y-185258271D01*
X241045056Y-185258271D02*
X241330770Y-185258271D01*
X241330770Y-185258271D02*
X241473627Y-185329700D01*
X241473627Y-185329700D02*
X241545056Y-185401128D01*
X241545056Y-185401128D02*
X241616484Y-185543985D01*
X241616484Y-185543985D02*
X241616484Y-185972557D01*
X241616484Y-185972557D02*
X241545056Y-186115414D01*
X241545056Y-186115414D02*
X241473627Y-186186842D01*
X241473627Y-186186842D02*
X241330770Y-186258271D01*
X241330770Y-186258271D02*
X241045056Y-186258271D01*
X241045056Y-186258271D02*
X240902198Y-186186842D01*
D10*
D11*
X177002200Y-181507200D02*
X285002200Y-181507200D01*
D10*
D11*
X178287914Y-183486842D02*
X178502200Y-183558271D01*
X178502200Y-183558271D02*
X178859342Y-183558271D01*
X178859342Y-183558271D02*
X179002200Y-183486842D01*
X179002200Y-183486842D02*
X179073628Y-183415414D01*
X179073628Y-183415414D02*
X179145057Y-183272557D01*
X179145057Y-183272557D02*
X179145057Y-183129700D01*
X179145057Y-183129700D02*
X179073628Y-182986842D01*
X179073628Y-182986842D02*
X179002200Y-182915414D01*
X179002200Y-182915414D02*
X178859342Y-182843985D01*
X178859342Y-182843985D02*
X178573628Y-182772557D01*
X178573628Y-182772557D02*
X178430771Y-182701128D01*
X178430771Y-182701128D02*
X178359342Y-182629700D01*
X178359342Y-182629700D02*
X178287914Y-182486842D01*
X178287914Y-182486842D02*
X178287914Y-182343985D01*
X178287914Y-182343985D02*
X178359342Y-182201128D01*
X178359342Y-182201128D02*
X178430771Y-182129700D01*
X178430771Y-182129700D02*
X178573628Y-182058271D01*
X178573628Y-182058271D02*
X178930771Y-182058271D01*
X178930771Y-182058271D02*
X179145057Y-182129700D01*
X179787913Y-183558271D02*
X179787913Y-182058271D01*
X180430771Y-183558271D02*
X180430771Y-182772557D01*
X180430771Y-182772557D02*
X180359342Y-182629700D01*
X180359342Y-182629700D02*
X180216485Y-182558271D01*
X180216485Y-182558271D02*
X180002199Y-182558271D01*
X180002199Y-182558271D02*
X179859342Y-182629700D01*
X179859342Y-182629700D02*
X179787913Y-182701128D01*
X181716485Y-183486842D02*
X181573628Y-183558271D01*
X181573628Y-183558271D02*
X181287914Y-183558271D01*
X181287914Y-183558271D02*
X181145056Y-183486842D01*
X181145056Y-183486842D02*
X181073628Y-183343985D01*
X181073628Y-183343985D02*
X181073628Y-182772557D01*
X181073628Y-182772557D02*
X181145056Y-182629700D01*
X181145056Y-182629700D02*
X181287914Y-182558271D01*
X181287914Y-182558271D02*
X181573628Y-182558271D01*
X181573628Y-182558271D02*
X181716485Y-182629700D01*
X181716485Y-182629700D02*
X181787914Y-182772557D01*
X181787914Y-182772557D02*
X181787914Y-182915414D01*
X181787914Y-182915414D02*
X181073628Y-183058271D01*
X183002199Y-183486842D02*
X182859342Y-183558271D01*
X182859342Y-183558271D02*
X182573628Y-183558271D01*
X182573628Y-183558271D02*
X182430770Y-183486842D01*
X182430770Y-183486842D02*
X182359342Y-183343985D01*
X182359342Y-183343985D02*
X182359342Y-182772557D01*
X182359342Y-182772557D02*
X182430770Y-182629700D01*
X182430770Y-182629700D02*
X182573628Y-182558271D01*
X182573628Y-182558271D02*
X182859342Y-182558271D01*
X182859342Y-182558271D02*
X183002199Y-182629700D01*
X183002199Y-182629700D02*
X183073628Y-182772557D01*
X183073628Y-182772557D02*
X183073628Y-182915414D01*
X183073628Y-182915414D02*
X182359342Y-183058271D01*
X183502199Y-182558271D02*
X184073627Y-182558271D01*
X183716484Y-182058271D02*
X183716484Y-183343985D01*
X183716484Y-183343985D02*
X183787913Y-183486842D01*
X183787913Y-183486842D02*
X183930770Y-183558271D01*
X183930770Y-183558271D02*
X184073627Y-183558271D01*
X184573627Y-183415414D02*
X184645056Y-183486842D01*
X184645056Y-183486842D02*
X184573627Y-183558271D01*
X184573627Y-183558271D02*
X184502199Y-183486842D01*
X184502199Y-183486842D02*
X184573627Y-183415414D01*
X184573627Y-183415414D02*
X184573627Y-183558271D01*
X184573627Y-182629700D02*
X184645056Y-182701128D01*
X184645056Y-182701128D02*
X184573627Y-182772557D01*
X184573627Y-182772557D02*
X184502199Y-182701128D01*
X184502199Y-182701128D02*
X184573627Y-182629700D01*
X184573627Y-182629700D02*
X184573627Y-182772557D01*
D10*
D12*
D10*
D11*
D10*
D11*
D10*
D11*
D10*
D11*
D10*
D11*
X197002200Y-191507200D02*
X197002200Y-194507200D01*
D10*
D11*
X261002200Y-191507200D02*
X261002200Y-198007200D01*
D14*
%TO.P,J301,*%
%TO.N,*%
X147327500Y-79190000D03*
X147327500Y-73410000D03*
%TD*%
D15*
%TO.P,J102,1,DAT2*%
%TO.N,unconnected-(J102-DAT2-Pad1)*%
X146249999Y-79749999D03*
%TO.P,J102,2,DAT3/CD*%
%TO.N,/SD_CS*%
X145849999Y-78649999D03*
%TO.P,J102,3,CMD*%
%TO.N,/SD_MOSI*%
X146249999Y-77549999D03*
%TO.P,J102,4,VDD*%
%TO.N,+3V3*%
X146449999Y-76449999D03*
%TO.P,J102,5,CLK*%
%TO.N,/SD_SCK*%
X146249999Y-75349999D03*
%TO.P,J102,6,VSS*%
%TO.N,GND*%
X146449999Y-74249999D03*
%TO.P,J102,7,DAT0*%
%TO.N,/SD_MISO*%
X146249999Y-73149999D03*
%TO.P,J102,8,DAT1*%
%TO.N,unconnected-(J102-DAT1-Pad8)*%
X146249999Y-72049999D03*
D16*
%TO.P,J102,9,SHIELD*%
%TO.N,GND*%
X135899999Y-72849999D03*
X135899999Y-78549999D03*
D17*
X149099999Y-71249999D03*
X150099999Y-84349999D03*
%TD*%
D18*
%TO.P,U102,1,GND*%
%TO.N,GND*%
X144799999Y-98699999D03*
%TO.P,U102,2,GND*%
X143999999Y-98699999D03*
%TO.P,U102,3,3V3*%
%TO.N,+3V3*%
X143199999Y-98699999D03*
%TO.P,U102,4,NC*%
%TO.N,unconnected-(U102-NC-Pad4)*%
X142399999Y-98699999D03*
%TO.P,U102,5,GPIO2/ADC1_CH2*%
%TO.N,/SD_MISO*%
X141599999Y-98699999D03*
%TO.P,U102,6,GPIO3/ADC1_CH3*%
%TO.N,/GPS_BOOT{slash}SCL*%
X140799999Y-98699999D03*
%TO.P,U102,7,NC*%
%TO.N,unconnected-(U102-NC-Pad7)*%
X139999999Y-98699999D03*
%TO.P,U102,8,EN/CHIP_PU*%
%TO.N,/ESP32_EN*%
X139199999Y-98699999D03*
%TO.P,U102,9,NC*%
%TO.N,unconnected-(U102-NC-Pad9)*%
X138399999Y-98699999D03*
%TO.P,U102,10,NC*%
%TO.N,unconnected-(U102-NC-Pad10)*%
X137599999Y-98699999D03*
%TO.P,U102,11,GND*%
%TO.N,GND*%
X136799999Y-98699999D03*
D19*
%TO.P,U102,12,GPIO0/ADC1_CH0/XTAL_32K_P*%
%TO.N,/GPS_UART_TX*%
X135899999Y-97599999D03*
%TO.P,U102,13,GPIO1/ADC1_CH1/XTAL_32K_N*%
%TO.N,/GPS_UART_RX*%
X135899999Y-96799999D03*
%TO.P,U102,14,GND*%
%TO.N,GND*%
X135899999Y-95999999D03*
%TO.P,U102,15,NC*%
%TO.N,unconnected-(U102-NC-Pad15)*%
X135899999Y-95199999D03*
%TO.P,U102,16,GPIO10*%
%TO.N,/SD_CS*%
X135899999Y-94399999D03*
%TO.P,U102,17,NC*%
%TO.N,unconnected-(U102-NC-Pad17)*%
X135899999Y-93599999D03*
%TO.P,U102,18,GPIO4/ADC1_CH4*%
%TO.N,/GPS_PPS{slash}SDA*%
X135899999Y-92799999D03*
%TO.P,U102,19,GPIO5/ADC2_CH0*%
%TO.N,/CAN_RX*%
X135899999Y-91999999D03*
%TO.P,U102,20,GPIO6*%
%TO.N,/CAN_TX*%
X135899999Y-91199999D03*
%TO.P,U102,21,GPIO7*%
%TO.N,/SD_MOSI*%
X135899999Y-90399999D03*
%TO.P,U102,22,GPIO8*%
%TO.N,/SD_SCK*%
X135899999Y-89599999D03*
%TO.P,U102,23,GPIO9*%
%TO.N,/BOOT{slash}GPIO9*%
X135899999Y-88799999D03*
%TO.P,U102,24,NC*%
%TO.N,unconnected-(U102-NC-Pad24)*%
X135899999Y-87999999D03*
D18*
%TO.P,U102,25,NC*%
%TO.N,unconnected-(U102-NC-Pad25)*%
X136799999Y-86899999D03*
%TO.P,U102,26,GPIO18/USB_D-*%
%TO.N,/USB_DP*%
X137599999Y-86899999D03*
%TO.P,U102,27,GPIO19/USB_D+*%
%TO.N,/USB_DM*%
X138399999Y-86899999D03*
%TO.P,U102,28,NC*%
%TO.N,unconnected-(U102-NC-Pad28)*%
X139199999Y-86899999D03*
%TO.P,U102,29,NC*%
%TO.N,unconnected-(U102-NC-Pad29)*%
X139999999Y-86899999D03*
%TO.P,U102,30,GPIO20/U0RXD*%
%TO.N,/ESC_UART_TX*%
X140799999Y-86899999D03*
%TO.P,U102,31,GPIO21/U0TXD*%
%TO.N,/ESC_UART_RX*%
X141599999Y-86899999D03*
%TO.P,U102,32,NC*%
%TO.N,unconnected-(U102-NC-Pad32)*%
X142399999Y-86899999D03*
%TO.P,U102,33,NC*%
%TO.N,unconnected-(U102-NC-Pad33)*%
X143199999Y-86899999D03*
%TO.P,U102,34,NC*%
%TO.N,unconnected-(U102-NC-Pad34)*%
X143999999Y-86899999D03*
%TO.P,U102,35,NC*%
%TO.N,unconnected-(U102-NC-Pad35)*%
X144799999Y-86899999D03*
D20*
%TO.P,U102,36,GND*%
%TO.N,GND*%
X135849999Y-98749999D03*
X145749999Y-98749999D03*
D19*
X145699999Y-97599999D03*
X145699999Y-96799999D03*
X145699999Y-95999999D03*
X145699999Y-95199999D03*
D21*
X138824999Y-94774999D03*
X140799999Y-94774999D03*
D22*
X142775000Y-94775000D03*
D19*
X145699999Y-94399999D03*
X145699999Y-93599999D03*
D21*
X138824999Y-92799999D03*
X140799999Y-92799999D03*
X142774999Y-92799999D03*
D19*
X145699999Y-92799999D03*
X145699999Y-91999999D03*
X145699999Y-91199999D03*
D21*
X138824999Y-90824999D03*
X140799999Y-90824999D03*
X142774999Y-90824999D03*
D19*
X145699999Y-90399999D03*
X145699999Y-89599999D03*
X145699999Y-88799999D03*
X145699999Y-87999999D03*
D20*
X135849999Y-86849999D03*
X145749999Y-86849999D03*
%TD*%
D23*
%TO.N,+5V*%
X149750000Y-80500000D03*
X147450000Y-83150000D03*
%TO.N,GND*%
X148050000Y-82400000D03*
%TO.N,+5V*%
X146700000Y-96050000D03*
%TO.N,/SD_MISO*%
X147250000Y-87700000D03*
%TO.N,GND*%
X146668042Y-87029781D03*
%TO.N,+3V3*%
X142015375Y-85465375D03*
X147650000Y-76500000D03*
%TO.N,/CAN_tranciever/CANL*%
X137950000Y-75550000D03*
X137850000Y-83850000D03*
%TO.N,/SD_MOSI*%
X137250000Y-90250000D03*
%TO.N,/GPS_PPS{slash}SDA*%
X138850000Y-96401911D03*
%TO.N,/GPS_BOOT{slash}SCL*%
X146949257Y-84499500D03*
%TO.N,/GPS_PPS{slash}SDA*%
X147064841Y-85336017D03*
%TO.N,+3V3*%
X149400499Y-85796810D03*
%TO.N,GND*%
X141750000Y-94650000D03*
X139599500Y-86000498D03*
%TO.N,+5V*%
X139850000Y-79250000D03*
%TO.N,GND*%
X135650000Y-86000000D03*
X135650000Y-81000000D03*
X135650000Y-77450000D03*
X135700000Y-72050000D03*
X144550000Y-72100000D03*
%TO.N,+5V*%
X143500000Y-71850000D03*
%TO.N,/CAN_RX*%
X144700000Y-85850000D03*
%TO.N,GND*%
X141550000Y-89300500D03*
X143200000Y-86000498D03*
%TO.N,/ESP32_EN*%
X145150000Y-81650000D03*
%TO.N,/SD_SCK*%
X143900000Y-81100000D03*
%TO.N,/SD_MISO*%
X143650000Y-80200000D03*
%TO.N,/SD_MOSI*%
X147800000Y-77400000D03*
%TO.N,/SD_CS*%
X144250000Y-79300000D03*
%TO.N,+3V3*%
X144150000Y-77500000D03*
%TO.N,GND*%
X148250000Y-74700000D03*
%TO.N,USB_VBUS*%
X144700000Y-74100000D03*
X144600498Y-78581423D03*
%TO.N,/CAN_tranciever/CANH*%
X146650000Y-90400000D03*
%TO.N,/CAN_R*%
X143100000Y-85100000D03*
%TO.N,+3V3*%
X142800000Y-79200000D03*
X149100000Y-82700000D03*
%TO.N,/BOOT{slash}GPIO9*%
X146700000Y-91500000D03*
%TO.N,GND*%
X150950000Y-79800000D03*
X150950000Y-72700000D03*
X144800000Y-80000000D03*
X139600000Y-77450000D03*
X142400000Y-78500000D03*
X142500000Y-73100000D03*
%TO.N,/CAN_R*%
X146684075Y-89487411D03*
%TO.N,/CAN_tranciever/CANH*%
X138600000Y-74300000D03*
X138500000Y-83100000D03*
X139407259Y-88699470D03*
%TO.N,/ESC_UART_RX*%
X144200000Y-91900000D03*
%TO.N,/ESC_UART_TX*%
X144150000Y-91000000D03*
%TO.N,/USB_DM*%
X144500000Y-76300000D03*
%TO.N,/USB_DP*%
X144500000Y-75300000D03*
%TO.N,GND*%
X144000000Y-97900000D03*
X143850000Y-93050000D03*
X136400000Y-98300000D03*
%TO.N,/SD_SCK*%
X138500000Y-88850000D03*
%TO.N,/BOOT{slash}GPIO9*%
X138500000Y-88000000D03*
%TO.N,/USB_DP*%
X136950000Y-85750000D03*
%TO.N,/USB_DM*%
X137900000Y-85750000D03*
%TO.N,/CAN_TX*%
X136900000Y-91200000D03*
%TO.N,/CAN_RX*%
X137300000Y-92000000D03*
%TO.N,/SD_CS*%
X136800000Y-94400000D03*
%TO.N,GND*%
X136800000Y-95400000D03*
%TO.N,/GPS_UART_RX*%
X137050000Y-96350000D03*
%TO.N,/GPS_UART_TX*%
X137000000Y-97400000D03*
%TO.N,/ESP32_EN*%
X138400000Y-97600000D03*
%TO.N,/GPS_BOOT{slash}SCL*%
X139650000Y-97800000D03*
%TO.N,/SD_MISO*%
X141400000Y-96600000D03*
%TO.N,+3V3*%
X141475500Y-97500000D03*
%TD*%
D24*
%TO.N,/SD_MISO*%
X147350000Y-87600000D02*
X147350000Y-86750000D01*
X143200000Y-82600000D02*
X143200000Y-80650000D01*
X147250000Y-87700000D02*
X147350000Y-87600000D01*
X147350000Y-86750000D02*
X143200000Y-82600000D01*
X143200000Y-80650000D02*
X143650000Y-80200000D01*
%TO.N,+5V*%
X148850000Y-80500000D02*
X149750000Y-80500000D01*
X147450000Y-81900000D02*
X148850000Y-80500000D01*
X147450000Y-83150000D02*
X147450000Y-81900000D01*
D25*
%TO.N,+3V3*%
X142650000Y-84100000D02*
X142015375Y-84734625D01*
X142650000Y-79350000D02*
X142650000Y-84100000D01*
X142800000Y-79200000D02*
X142650000Y-79350000D01*
X142015375Y-84734625D02*
X142015375Y-85465375D01*
D24*
%TO.N,/GPS_PPS{slash}SDA*%
X136650000Y-92800000D02*
X135900000Y-92800000D01*
X138301911Y-96401911D02*
X137550000Y-95650000D01*
X137550000Y-95650000D02*
X137550000Y-93700000D01*
X138850000Y-96401911D02*
X138301911Y-96401911D01*
X137550000Y-93700000D02*
X136650000Y-92800000D01*
D25*
%TO.N,+3V3*%
X147600000Y-76450000D02*
X147650000Y-76500000D01*
X146450000Y-76450000D02*
X147600000Y-76450000D01*
D24*
%TO.N,/USB_DM*%
X137900000Y-85750000D02*
X138400000Y-86250000D01*
X138400000Y-86250000D02*
X138400000Y-86900000D01*
%TO.N,/USB_DP*%
X137600000Y-86400000D02*
X137600000Y-86900000D01*
X136950000Y-85750000D02*
X137600000Y-86400000D01*
%TO.N,/SD_SCK*%
X146550000Y-75650000D02*
X146250000Y-75350000D01*
X148500000Y-79900000D02*
X148500000Y-76350000D01*
X148500000Y-76350000D02*
X147800000Y-75650000D01*
X147650000Y-80750000D02*
X148500000Y-79900000D01*
X147800000Y-75650000D02*
X146550000Y-75650000D01*
X144250000Y-80750000D02*
X147650000Y-80750000D01*
X143900000Y-81100000D02*
X144250000Y-80750000D01*
%TO.N,/SD_MISO*%
X144550000Y-73150000D02*
X146250000Y-73150000D01*
X143450000Y-74250000D02*
X144550000Y-73150000D01*
X143450000Y-80000000D02*
X143450000Y-74250000D01*
X143650000Y-80200000D02*
X143450000Y-80000000D01*
%TO.N,/SD_CS*%
X144800000Y-79300000D02*
X144250000Y-79300000D01*
X145450000Y-78650000D02*
X144800000Y-79300000D01*
X145850000Y-78650000D02*
X145450000Y-78650000D01*
%TO.N,/SD_MOSI*%
X137250000Y-90350000D02*
X137250000Y-90250000D01*
X137300000Y-90400000D02*
X137250000Y-90350000D01*
%TO.N,/GPS_UART_RX*%
X135900000Y-96800000D02*
X136600000Y-96800000D01*
X136600000Y-96800000D02*
X137050000Y-96350000D01*
%TO.N,GND*%
X136200000Y-96000000D02*
X136800000Y-95400000D01*
X135900000Y-96000000D02*
X136200000Y-96000000D01*
%TO.N,/SD_SCK*%
X136850000Y-88950000D02*
X136200000Y-89600000D01*
X138400000Y-88950000D02*
X136850000Y-88950000D01*
X138500000Y-88850000D02*
X138400000Y-88950000D01*
X136200000Y-89600000D02*
X135900000Y-89600000D01*
%TO.N,/BOOT{slash}GPIO9*%
X137050000Y-88000000D02*
X138500000Y-88000000D01*
X136250000Y-88800000D02*
X137050000Y-88000000D01*
X135900000Y-88800000D02*
X136250000Y-88800000D01*
%TO.N,/ESC_UART_TX*%
X140800000Y-87200000D02*
X140800000Y-86900000D01*
X144000000Y-89900000D02*
X143200000Y-89100000D01*
X143200000Y-89100000D02*
X142700000Y-89100000D01*
X144000000Y-90850000D02*
X144000000Y-89900000D01*
X144150000Y-91000000D02*
X144000000Y-90850000D01*
X142700000Y-89100000D02*
X140800000Y-87200000D01*
%TO.N,/ESC_UART_RX*%
X143000000Y-88600000D02*
X141600000Y-87200000D01*
X144800000Y-89900000D02*
X143500000Y-88600000D01*
X144800000Y-91300000D02*
X144800000Y-89900000D01*
X143500000Y-88600000D02*
X143000000Y-88600000D01*
X144200000Y-91900000D02*
X144800000Y-91300000D01*
X141600000Y-87200000D02*
X141600000Y-86900000D01*
%TO.N,/GPS_BOOT{slash}SCL*%
X140800000Y-98400000D02*
X140800000Y-98700000D01*
X139650000Y-97800000D02*
X140200000Y-97800000D01*
X140200000Y-97800000D02*
X140800000Y-98400000D01*
%TO.N,/SD_MOSI*%
X147650000Y-77550000D02*
X147800000Y-77400000D01*
X146250000Y-77550000D02*
X147650000Y-77550000D01*
D25*
%TO.N,+3V3*%
X144400000Y-77500000D02*
X144150000Y-77500000D01*
X145450000Y-76450000D02*
X144400000Y-77500000D01*
X146450000Y-76450000D02*
X145450000Y-76450000D01*
D24*
%TO.N,GND*%
X147800000Y-74250000D02*
X148250000Y-74700000D01*
X146450000Y-74250000D02*
X147800000Y-74250000D01*
X143600000Y-92800000D02*
X142775000Y-92800000D01*
X143850000Y-93050000D02*
X143600000Y-92800000D01*
X144000000Y-97900000D02*
X144000000Y-98700000D01*
X136800000Y-98700000D02*
X136400000Y-98300000D01*
%TO.N,/CAN_RX*%
X137300000Y-92000000D02*
X135900000Y-92000000D01*
%TO.N,/SD_MOSI*%
X135900000Y-90400000D02*
X137300000Y-90400000D01*
%TO.N,/CAN_TX*%
X135900000Y-91200000D02*
X136900000Y-91200000D01*
%TO.N,/SD_CS*%
X135900000Y-94400000D02*
X136800000Y-94400000D01*
%TO.N,/GPS_UART_TX*%
X136800000Y-97600000D02*
X137000000Y-97400000D01*
X135900000Y-97600000D02*
X136800000Y-97600000D01*
%TO.N,/ESP32_EN*%
X139200000Y-98400000D02*
X138400000Y-97600000D01*
X139200000Y-98700000D02*
X139200000Y-98400000D01*
%TO.N,/SD_MISO*%
X140875500Y-97124500D02*
X141400000Y-96600000D01*
X141600000Y-98522200D02*
X140875500Y-97797700D01*
X140875500Y-97797700D02*
X140875500Y-97124500D01*
X141600000Y-98700000D02*
X141600000Y-98522200D01*
D25*
%TO.N,+3V3*%
X143200000Y-98700000D02*
X143200000Y-97950000D01*
X143200000Y-97950000D02*
X142750000Y-97500000D01*
X142750000Y-97500000D02*
X141475500Y-97500000D01*
%TD*%
%TA.AperFunction,Conductor*%
%TO.N,GND*%
G36*
X143054336Y-82741609D02*
G01*
X143104495Y-82772347D01*
X147123695Y-86791547D01*
X147151009Y-86832424D01*
X147160600Y-86880642D01*
X147160600Y-87002863D01*
X147151009Y-87051081D01*
X147123696Y-87091958D01*
X147082818Y-87119272D01*
X146954788Y-87172303D01*
X146954782Y-87172306D01*
X146947159Y-87175464D01*
X146940611Y-87180487D01*
X146940608Y-87180490D01*
X146828263Y-87266695D01*
X146828259Y-87266698D01*
X146821718Y-87271718D01*
X146816698Y-87278259D01*
X146816695Y-87278263D01*
X146725464Y-87397159D01*
X146723739Y-87395835D01*
X146686451Y-87433121D01*
X146623454Y-87450000D01*
X146200000Y-87450000D01*
X146200000Y-87466590D01*
X146200000Y-89089068D01*
X146193313Y-89129569D01*
X146173963Y-89165771D01*
X146164568Y-89178014D01*
X146164563Y-89178022D01*
X146159539Y-89184570D01*
X146156381Y-89192193D01*
X146156378Y-89192199D01*
X146109592Y-89305152D01*
X146099031Y-89330649D01*
X146097954Y-89338829D01*
X146097952Y-89338837D01*
X146085892Y-89430447D01*
X146078393Y-89487411D01*
X146079471Y-89495599D01*
X146097952Y-89635984D01*
X146097953Y-89635990D01*
X146099031Y-89644173D01*
X146102190Y-89651801D01*
X146102191Y-89651802D01*
X146156378Y-89782622D01*
X146156379Y-89782625D01*
X146159539Y-89790252D01*
X146164565Y-89796802D01*
X146164568Y-89796807D01*
X146173963Y-89809051D01*
X146193313Y-89845253D01*
X146200000Y-89885754D01*
X146200000Y-89957251D01*
X146193313Y-89997752D01*
X146173964Y-90033951D01*
X146125464Y-90097159D01*
X146122306Y-90104782D01*
X146122303Y-90104788D01*
X146078475Y-90210600D01*
X146064956Y-90243238D01*
X146063879Y-90251418D01*
X146063877Y-90251426D01*
X146051271Y-90347186D01*
X146044318Y-90400000D01*
X146045396Y-90408188D01*
X146063877Y-90548573D01*
X146063878Y-90548579D01*
X146064956Y-90556762D01*
X146068115Y-90564390D01*
X146068116Y-90564391D01*
X146122303Y-90695211D01*
X146122304Y-90695214D01*
X146125464Y-90702841D01*
X146173964Y-90766048D01*
X146193313Y-90802248D01*
X146200000Y-90842749D01*
X146200000Y-91123055D01*
X146183120Y-91186054D01*
X146180490Y-91190608D01*
X146175464Y-91197159D01*
X146172304Y-91204785D01*
X146172303Y-91204789D01*
X146128975Y-91309392D01*
X146114956Y-91343238D01*
X146113879Y-91351418D01*
X146113877Y-91351426D01*
X146096001Y-91487215D01*
X146094318Y-91500000D01*
X146095396Y-91508188D01*
X146113877Y-91648573D01*
X146113878Y-91648579D01*
X146114956Y-91656762D01*
X146118115Y-91664390D01*
X146118116Y-91664391D01*
X146150775Y-91743238D01*
X146175464Y-91802841D01*
X146180490Y-91809392D01*
X146183120Y-91813946D01*
X146200000Y-91876945D01*
X146200000Y-95673055D01*
X146183120Y-95736054D01*
X146180490Y-95740608D01*
X146175464Y-95747159D01*
X146172304Y-95754785D01*
X146172303Y-95754789D01*
X146118116Y-95885608D01*
X146114956Y-95893238D01*
X146113879Y-95901418D01*
X146113877Y-95901426D01*
X146098503Y-96018210D01*
X146094318Y-96050000D01*
X146095396Y-96058188D01*
X146113877Y-96198573D01*
X146113878Y-96198579D01*
X146114956Y-96206762D01*
X146118115Y-96214390D01*
X146118116Y-96214391D01*
X146154124Y-96301323D01*
X146175464Y-96352841D01*
X146180490Y-96359392D01*
X146183120Y-96363946D01*
X146200000Y-96426945D01*
X146200000Y-99473500D01*
X146183119Y-99536500D01*
X146137000Y-99582619D01*
X146074000Y-99599500D01*
X143610002Y-99599500D01*
X143544664Y-99581236D01*
X143498268Y-99531737D01*
X143484266Y-99465355D01*
X143506715Y-99401335D01*
X143552534Y-99363643D01*
X143552451Y-99363521D01*
X143553838Y-99362570D01*
X143559107Y-99358236D01*
X143572765Y-99352206D01*
X143652206Y-99272765D01*
X143697585Y-99169991D01*
X143700500Y-99144865D01*
X143700499Y-98255136D01*
X143697585Y-98230009D01*
X143652206Y-98127235D01*
X143572765Y-98047794D01*
X143562086Y-98043078D01*
X143562085Y-98043078D01*
X143514870Y-98022231D01*
X143465920Y-97983824D01*
X143441316Y-97926677D01*
X143441040Y-97924939D01*
X143441734Y-97911713D01*
X143433804Y-97891055D01*
X143428188Y-97872095D01*
X143426341Y-97863406D01*
X143423588Y-97850452D01*
X143415801Y-97839735D01*
X143413323Y-97834169D01*
X143410009Y-97829066D01*
X143405263Y-97816700D01*
X143389614Y-97801050D01*
X143376773Y-97786017D01*
X143375602Y-97784405D01*
X143363768Y-97768117D01*
X143352296Y-97761493D01*
X143342459Y-97752636D01*
X143342678Y-97752392D01*
X143335267Y-97746704D01*
X142926047Y-97337484D01*
X142921506Y-97332700D01*
X142902719Y-97311835D01*
X142893859Y-97301995D01*
X142881762Y-97296608D01*
X142881757Y-97296605D01*
X142873634Y-97292988D01*
X142856267Y-97283558D01*
X142848819Y-97278721D01*
X142848814Y-97278719D01*
X142837710Y-97271508D01*
X142824631Y-97269436D01*
X142818943Y-97267253D01*
X142812983Y-97265986D01*
X142800886Y-97260600D01*
X142787644Y-97260600D01*
X142778754Y-97260600D01*
X142759044Y-97259049D01*
X142750267Y-97257659D01*
X142737191Y-97255588D01*
X142724402Y-97259014D01*
X142711174Y-97259708D01*
X142711156Y-97259380D01*
X142701897Y-97260600D01*
X142108165Y-97260600D01*
X142045163Y-97243718D01*
X142001046Y-97199598D01*
X142000036Y-97197159D01*
X141980514Y-97171718D01*
X141927907Y-97103159D01*
X141908222Y-97077505D01*
X141885172Y-97028072D01*
X141885173Y-96973528D01*
X141908224Y-96924098D01*
X141924536Y-96902841D01*
X141985044Y-96756762D01*
X142005682Y-96600000D01*
X141985044Y-96443238D01*
X141924536Y-96297159D01*
X141828282Y-96171718D01*
X141702841Y-96075464D01*
X141695214Y-96072304D01*
X141695211Y-96072303D01*
X141564391Y-96018116D01*
X141564390Y-96018115D01*
X141556762Y-96014956D01*
X141548579Y-96013878D01*
X141548573Y-96013877D01*
X141408188Y-95995396D01*
X141400000Y-95994318D01*
X141391812Y-95995396D01*
X141251426Y-96013877D01*
X141251418Y-96013879D01*
X141243238Y-96014956D01*
X141235611Y-96018115D01*
X141235608Y-96018116D01*
X141104788Y-96072303D01*
X141104782Y-96072306D01*
X141097159Y-96075464D01*
X141090611Y-96080487D01*
X141090608Y-96080490D01*
X140978263Y-96166695D01*
X140978259Y-96166698D01*
X140971718Y-96171718D01*
X140966698Y-96178259D01*
X140966695Y-96178263D01*
X140880490Y-96290608D01*
X140880487Y-96290611D01*
X140875464Y-96297159D01*
X140872306Y-96304782D01*
X140872303Y-96304788D01*
X140818116Y-96435608D01*
X140814956Y-96443238D01*
X140813879Y-96451418D01*
X140813877Y-96451426D01*
X140800029Y-96556622D01*
X140794318Y-96600000D01*
X140795396Y-96608188D01*
X140813877Y-96748571D01*
X140813878Y-96748573D01*
X140814956Y-96756762D01*
X140818116Y-96764391D01*
X140829727Y-96792423D01*
X140839317Y-96840641D01*
X140829725Y-96888858D01*
X140802412Y-96929734D01*
X140764917Y-96967229D01*
X140764174Y-96967892D01*
X140754374Y-96972613D01*
X140745528Y-96983704D01*
X140745524Y-96983708D01*
X140738457Y-96992570D01*
X140733626Y-96997976D01*
X140731478Y-97000669D01*
X140726484Y-97005664D01*
X140722727Y-97011641D01*
X140720581Y-97014333D01*
X140716383Y-97020251D01*
X140709317Y-97029111D01*
X140709315Y-97029113D01*
X140700468Y-97040209D01*
X140698009Y-97050980D01*
X140692131Y-97060336D01*
X140690541Y-97074441D01*
X140690541Y-97074442D01*
X140689272Y-97085700D01*
X140688058Y-97092848D01*
X140687673Y-97096261D01*
X140686100Y-97103159D01*
X140686100Y-97110230D01*
X140685713Y-97113666D01*
X140685308Y-97120893D01*
X140684040Y-97132143D01*
X140684040Y-97132145D01*
X140682451Y-97146251D01*
X140686045Y-97156523D01*
X140686100Y-97157501D01*
X140686100Y-97714058D01*
X140672367Y-97771261D01*
X140634161Y-97815994D01*
X140579811Y-97838507D01*
X140521164Y-97833891D01*
X140471005Y-97803153D01*
X140357263Y-97689411D01*
X140356608Y-97688678D01*
X140351887Y-97678874D01*
X140331933Y-97662961D01*
X140326545Y-97658145D01*
X140323839Y-97655987D01*
X140318836Y-97650984D01*
X140312843Y-97647218D01*
X140310157Y-97645076D01*
X140304250Y-97640885D01*
X140284291Y-97624968D01*
X140273519Y-97622509D01*
X140264164Y-97616631D01*
X140258390Y-97615980D01*
X140221577Y-97589076D01*
X140196727Y-97550733D01*
X140174536Y-97497159D01*
X140078282Y-97371718D01*
X139991059Y-97304790D01*
X139959391Y-97280490D01*
X139952841Y-97275464D01*
X139945214Y-97272304D01*
X139945211Y-97272303D01*
X139814391Y-97218116D01*
X139814390Y-97218115D01*
X139806762Y-97214956D01*
X139798579Y-97213878D01*
X139798573Y-97213877D01*
X139658188Y-97195396D01*
X139650000Y-97194318D01*
X139641812Y-97195396D01*
X139501426Y-97213877D01*
X139501418Y-97213879D01*
X139493238Y-97214956D01*
X139485611Y-97218115D01*
X139485608Y-97218116D01*
X139354788Y-97272303D01*
X139354782Y-97272306D01*
X139347159Y-97275464D01*
X139340611Y-97280487D01*
X139340608Y-97280490D01*
X139228263Y-97366695D01*
X139228259Y-97366698D01*
X139221718Y-97371718D01*
X139216698Y-97378259D01*
X139216693Y-97378265D01*
X139181630Y-97423960D01*
X139129885Y-97463664D01*
X139065221Y-97472177D01*
X139004964Y-97447217D01*
X138965259Y-97395473D01*
X138959573Y-97381747D01*
X138924536Y-97297159D01*
X138919510Y-97290609D01*
X138919509Y-97290607D01*
X138848747Y-97198388D01*
X138823788Y-97138130D01*
X138832302Y-97073465D01*
X138872007Y-97021721D01*
X138932262Y-96996762D01*
X139006762Y-96986955D01*
X139152841Y-96926447D01*
X139278282Y-96830193D01*
X139374536Y-96704752D01*
X139435044Y-96558673D01*
X139455682Y-96401911D01*
X139435044Y-96245149D01*
X139374536Y-96099070D01*
X139278282Y-95973629D01*
X139152841Y-95877375D01*
X139145214Y-95874215D01*
X139145211Y-95874214D01*
X139014391Y-95820027D01*
X139014390Y-95820026D01*
X139006762Y-95816867D01*
X138998579Y-95815789D01*
X138998573Y-95815788D01*
X138858188Y-95797307D01*
X138850000Y-95796229D01*
X138841812Y-95797307D01*
X138701426Y-95815788D01*
X138701418Y-95815790D01*
X138693238Y-95816867D01*
X138685611Y-95820026D01*
X138685608Y-95820027D01*
X138554788Y-95874214D01*
X138554782Y-95874217D01*
X138547159Y-95877375D01*
X138540611Y-95882398D01*
X138540608Y-95882401D01*
X138428263Y-95968606D01*
X138428259Y-95968609D01*
X138421718Y-95973629D01*
X138416698Y-95980170D01*
X138416693Y-95980176D01*
X138387509Y-96018210D01*
X138330641Y-96059906D01*
X138260275Y-96064518D01*
X138198452Y-96030600D01*
X137776305Y-95608453D01*
X137748991Y-95567576D01*
X137739400Y-95519358D01*
X137739400Y-93732998D01*
X137739454Y-93732022D01*
X137743049Y-93721751D01*
X137740192Y-93696393D01*
X137739786Y-93689166D01*
X137739400Y-93685741D01*
X137739400Y-93678659D01*
X137737823Y-93671751D01*
X137737438Y-93668331D01*
X137736226Y-93661194D01*
X137734958Y-93649943D01*
X137733369Y-93635836D01*
X137727490Y-93626480D01*
X137725032Y-93615709D01*
X137709117Y-93595752D01*
X137704935Y-93589858D01*
X137702784Y-93587160D01*
X137699016Y-93581164D01*
X137694007Y-93576155D01*
X137691849Y-93573449D01*
X137687041Y-93568069D01*
X137679976Y-93559210D01*
X137679974Y-93559209D01*
X137671126Y-93548113D01*
X137661321Y-93543390D01*
X137660583Y-93542731D01*
X136831563Y-92713711D01*
X136800490Y-92662505D01*
X136796572Y-92602737D01*
X136820695Y-92547912D01*
X136867408Y-92510421D01*
X136926153Y-92498736D01*
X136983657Y-92515496D01*
X136990606Y-92519508D01*
X136997159Y-92524536D01*
X137143238Y-92585044D01*
X137300000Y-92605682D01*
X137456762Y-92585044D01*
X137602841Y-92524536D01*
X137728282Y-92428282D01*
X137824536Y-92302841D01*
X137885044Y-92156762D01*
X137905682Y-92000000D01*
X137885044Y-91843238D01*
X137824536Y-91697159D01*
X137728282Y-91571718D01*
X137647653Y-91509849D01*
X137609392Y-91480490D01*
X137609388Y-91480487D01*
X137602841Y-91475464D01*
X137595216Y-91472305D01*
X137595210Y-91472302D01*
X137565639Y-91460054D01*
X137520960Y-91428769D01*
X137493688Y-91381533D01*
X137488935Y-91327203D01*
X137505682Y-91200000D01*
X137485044Y-91043238D01*
X137448189Y-90954264D01*
X137439677Y-90889601D01*
X137464637Y-90829343D01*
X137516382Y-90789638D01*
X137521858Y-90787369D01*
X137552841Y-90774536D01*
X137678282Y-90678282D01*
X137774536Y-90552841D01*
X137835044Y-90406762D01*
X137855682Y-90250000D01*
X137835044Y-90093238D01*
X137774536Y-89947159D01*
X137678282Y-89821718D01*
X137552841Y-89725464D01*
X137545214Y-89722304D01*
X137545211Y-89722303D01*
X137414391Y-89668116D01*
X137414390Y-89668115D01*
X137406762Y-89664956D01*
X137398579Y-89663878D01*
X137398573Y-89663877D01*
X137258188Y-89645396D01*
X137250000Y-89644318D01*
X137241812Y-89645396D01*
X137101426Y-89663877D01*
X137101418Y-89663879D01*
X137093238Y-89664956D01*
X137085611Y-89668115D01*
X137085608Y-89668116D01*
X136954788Y-89722303D01*
X136954782Y-89722306D01*
X136947159Y-89725464D01*
X136940611Y-89730487D01*
X136940608Y-89730490D01*
X136828266Y-89816693D01*
X136828263Y-89816695D01*
X136821718Y-89821718D01*
X136816695Y-89828263D01*
X136815592Y-89829367D01*
X136765433Y-89860103D01*
X136706786Y-89864717D01*
X136652437Y-89842204D01*
X136614232Y-89797471D01*
X136600499Y-89740272D01*
X136600499Y-89519542D01*
X136610090Y-89471325D01*
X136637401Y-89430450D01*
X136891548Y-89176304D01*
X136932426Y-89148991D01*
X136980644Y-89139400D01*
X137903013Y-89139400D01*
X137958741Y-89152394D01*
X138002975Y-89188696D01*
X138066690Y-89271731D01*
X138066695Y-89271736D01*
X138071718Y-89278282D01*
X138197159Y-89374536D01*
X138343238Y-89435044D01*
X138500000Y-89455682D01*
X138656762Y-89435044D01*
X138802841Y-89374536D01*
X138928282Y-89278282D01*
X138944611Y-89257000D01*
X138991324Y-89219509D01*
X139050071Y-89207823D01*
X139103699Y-89223454D01*
X139104418Y-89224006D01*
X139250497Y-89284514D01*
X139258684Y-89285591D01*
X139258685Y-89285592D01*
X139293626Y-89290192D01*
X139407259Y-89305152D01*
X139564021Y-89284514D01*
X139710100Y-89224006D01*
X139835541Y-89127752D01*
X139931795Y-89002311D01*
X139992303Y-88856232D01*
X140012941Y-88699470D01*
X139992303Y-88542708D01*
X139931795Y-88396629D01*
X139835541Y-88271188D01*
X139710100Y-88174934D01*
X139702473Y-88171774D01*
X139702470Y-88171773D01*
X139571650Y-88117586D01*
X139571649Y-88117585D01*
X139564021Y-88114426D01*
X139555838Y-88113348D01*
X139555832Y-88113347D01*
X139415447Y-88094866D01*
X139407259Y-88093788D01*
X139250497Y-88114426D01*
X139250250Y-88112557D01*
X139206032Y-88114009D01*
X139153905Y-88090394D01*
X139117599Y-88046159D01*
X139106801Y-87999852D01*
X139105682Y-88000000D01*
X139086122Y-87851426D01*
X139086121Y-87851425D01*
X139085044Y-87843238D01*
X139056661Y-87774717D01*
X139047677Y-87714150D01*
X139068305Y-87656498D01*
X139113674Y-87615377D01*
X139173067Y-87600499D01*
X139444864Y-87600499D01*
X139469991Y-87597585D01*
X139549107Y-87562651D01*
X139600000Y-87551916D01*
X139650892Y-87562651D01*
X139730009Y-87597585D01*
X139755135Y-87600500D01*
X140244864Y-87600499D01*
X140269991Y-87597585D01*
X140349107Y-87562651D01*
X140400000Y-87551916D01*
X140450892Y-87562651D01*
X140530009Y-87597585D01*
X140555135Y-87600500D01*
X140880457Y-87600499D01*
X140928675Y-87610090D01*
X140969552Y-87637404D01*
X142542731Y-89210583D01*
X142543390Y-89211321D01*
X142548113Y-89221126D01*
X142559209Y-89229974D01*
X142559210Y-89229976D01*
X142568069Y-89237041D01*
X142573451Y-89241851D01*
X142576156Y-89244008D01*
X142581165Y-89249017D01*
X142587162Y-89252785D01*
X142589858Y-89254935D01*
X142595747Y-89259113D01*
X142615709Y-89275032D01*
X142626481Y-89277490D01*
X142635837Y-89283369D01*
X142661188Y-89286225D01*
X142668316Y-89287436D01*
X142671752Y-89287823D01*
X142678659Y-89289400D01*
X142685741Y-89289400D01*
X142689174Y-89289787D01*
X142696387Y-89290191D01*
X142721751Y-89293050D01*
X142732024Y-89289455D01*
X142733006Y-89289400D01*
X143069358Y-89289400D01*
X143117576Y-89298991D01*
X143158453Y-89326305D01*
X143773695Y-89941547D01*
X143801009Y-89982424D01*
X143810600Y-90030642D01*
X143810600Y-90441380D01*
X143797606Y-90497109D01*
X143761303Y-90541343D01*
X143728266Y-90566692D01*
X143728259Y-90566698D01*
X143721718Y-90571718D01*
X143716698Y-90578259D01*
X143716695Y-90578263D01*
X143630490Y-90690608D01*
X143630487Y-90690611D01*
X143625464Y-90697159D01*
X143622306Y-90704782D01*
X143622303Y-90704788D01*
X143568350Y-90835044D01*
X143564956Y-90843238D01*
X143563879Y-90851418D01*
X143563877Y-90851426D01*
X143546001Y-90987215D01*
X143544318Y-91000000D01*
X143545396Y-91008188D01*
X143563877Y-91148573D01*
X143563878Y-91148579D01*
X143564956Y-91156762D01*
X143568115Y-91164390D01*
X143568116Y-91164391D01*
X143622303Y-91295211D01*
X143622304Y-91295214D01*
X143625464Y-91302841D01*
X143630487Y-91309388D01*
X143630490Y-91309392D01*
X143704525Y-91405876D01*
X143727575Y-91455308D01*
X143727576Y-91509849D01*
X143704526Y-91559281D01*
X143680495Y-91590599D01*
X143680486Y-91590612D01*
X143675464Y-91597159D01*
X143672306Y-91604782D01*
X143672303Y-91604788D01*
X143618116Y-91735608D01*
X143614956Y-91743238D01*
X143613879Y-91751418D01*
X143613877Y-91751426D01*
X143600713Y-91851426D01*
X143594318Y-91900000D01*
X143595396Y-91908188D01*
X143613877Y-92048573D01*
X143613878Y-92048579D01*
X143614956Y-92056762D01*
X143618115Y-92064390D01*
X143618116Y-92064391D01*
X143672303Y-92195211D01*
X143672304Y-92195214D01*
X143675464Y-92202841D01*
X143771718Y-92328282D01*
X143897159Y-92424536D01*
X144043238Y-92485044D01*
X144200000Y-92505682D01*
X144356762Y-92485044D01*
X144502841Y-92424536D01*
X144628282Y-92328282D01*
X144724536Y-92202841D01*
X144785044Y-92056762D01*
X144805682Y-91900000D01*
X144785044Y-91743238D01*
X144770272Y-91707576D01*
X144760681Y-91659360D01*
X144770272Y-91611142D01*
X144797583Y-91570267D01*
X144910595Y-91457255D01*
X144911318Y-91456609D01*
X144921126Y-91451887D01*
X144937039Y-91431931D01*
X144941849Y-91426549D01*
X144944002Y-91423849D01*
X144949016Y-91418836D01*
X144952786Y-91412834D01*
X144954941Y-91410133D01*
X144959114Y-91404249D01*
X144975032Y-91384291D01*
X144977490Y-91373519D01*
X144983369Y-91364164D01*
X144986226Y-91338805D01*
X144987438Y-91331674D01*
X144987824Y-91328243D01*
X144989400Y-91321341D01*
X144989400Y-91314262D01*
X144989786Y-91310836D01*
X144990192Y-91303607D01*
X144991459Y-91292358D01*
X144993049Y-91278249D01*
X144989454Y-91267977D01*
X144989400Y-91267002D01*
X144989400Y-89933007D01*
X144989455Y-89932025D01*
X144993050Y-89921752D01*
X144990191Y-89896388D01*
X144989786Y-89889173D01*
X144989400Y-89885747D01*
X144989400Y-89878659D01*
X144987823Y-89871751D01*
X144987436Y-89868316D01*
X144986225Y-89861187D01*
X144984958Y-89849944D01*
X144983369Y-89835837D01*
X144977490Y-89826481D01*
X144975032Y-89815709D01*
X144959113Y-89795747D01*
X144954935Y-89789858D01*
X144952785Y-89787162D01*
X144949017Y-89781165D01*
X144944008Y-89776156D01*
X144941851Y-89773451D01*
X144937041Y-89768069D01*
X144929976Y-89759210D01*
X144929974Y-89759209D01*
X144921126Y-89748113D01*
X144911321Y-89743390D01*
X144910583Y-89742731D01*
X143657263Y-88489411D01*
X143656608Y-88488678D01*
X143651887Y-88478874D01*
X143631933Y-88462961D01*
X143626545Y-88458145D01*
X143623839Y-88455987D01*
X143618836Y-88450984D01*
X143612843Y-88447218D01*
X143610157Y-88445076D01*
X143604250Y-88440885D01*
X143584291Y-88424968D01*
X143573519Y-88422509D01*
X143564164Y-88416631D01*
X143550062Y-88415041D01*
X143550060Y-88415041D01*
X143538798Y-88413772D01*
X143531641Y-88412557D01*
X143528238Y-88412173D01*
X143521341Y-88410600D01*
X143514270Y-88410600D01*
X143510844Y-88410214D01*
X143503607Y-88409808D01*
X143492356Y-88408540D01*
X143492354Y-88408540D01*
X143478249Y-88406951D01*
X143467976Y-88410545D01*
X143466999Y-88410600D01*
X143130642Y-88410600D01*
X143082424Y-88401009D01*
X143041547Y-88373695D01*
X142483446Y-87815594D01*
X142452708Y-87765435D01*
X142448092Y-87706788D01*
X142470605Y-87652438D01*
X142515338Y-87614232D01*
X142572541Y-87600499D01*
X142641226Y-87600499D01*
X142644864Y-87600499D01*
X142669991Y-87597585D01*
X142749107Y-87562651D01*
X142800000Y-87551916D01*
X142850892Y-87562651D01*
X142930009Y-87597585D01*
X142955135Y-87600500D01*
X143444864Y-87600499D01*
X143469991Y-87597585D01*
X143549107Y-87562651D01*
X143600000Y-87551916D01*
X143650892Y-87562651D01*
X143730009Y-87597585D01*
X143755135Y-87600500D01*
X144244864Y-87600499D01*
X144269991Y-87597585D01*
X144349107Y-87562651D01*
X144400000Y-87551916D01*
X144450892Y-87562651D01*
X144530009Y-87597585D01*
X144555135Y-87600500D01*
X145044864Y-87600499D01*
X145069991Y-87597585D01*
X145172765Y-87552206D01*
X145252206Y-87472765D01*
X145297585Y-87369991D01*
X145300500Y-87344865D01*
X145300499Y-86455136D01*
X145297585Y-86430009D01*
X145252206Y-86327235D01*
X145238407Y-86313436D01*
X145209100Y-86267434D01*
X145201982Y-86213356D01*
X145218385Y-86161337D01*
X145219504Y-86159398D01*
X145224536Y-86152841D01*
X145285044Y-86006762D01*
X145305682Y-85850000D01*
X145285044Y-85693238D01*
X145224536Y-85547159D01*
X145128282Y-85421718D01*
X145002841Y-85325464D01*
X144995214Y-85322304D01*
X144995211Y-85322303D01*
X144864391Y-85268116D01*
X144864390Y-85268115D01*
X144856762Y-85264956D01*
X144848579Y-85263878D01*
X144848573Y-85263877D01*
X144708188Y-85245396D01*
X144700000Y-85244318D01*
X144691812Y-85245396D01*
X144551426Y-85263877D01*
X144551418Y-85263879D01*
X144543238Y-85264956D01*
X144535611Y-85268115D01*
X144535608Y-85268116D01*
X144404788Y-85322303D01*
X144404782Y-85322306D01*
X144397159Y-85325464D01*
X144390611Y-85330487D01*
X144390608Y-85330490D01*
X144278263Y-85416695D01*
X144278259Y-85416698D01*
X144271718Y-85421718D01*
X144266698Y-85428259D01*
X144266695Y-85428263D01*
X144180490Y-85540608D01*
X144180487Y-85540611D01*
X144175464Y-85547159D01*
X144172306Y-85554782D01*
X144172303Y-85554788D01*
X144133596Y-85648236D01*
X144114956Y-85693238D01*
X144113879Y-85701418D01*
X144113877Y-85701426D01*
X144096001Y-85837215D01*
X144094318Y-85850000D01*
X144095396Y-85858188D01*
X144113877Y-85998573D01*
X144113878Y-85998579D01*
X144114956Y-86006762D01*
X144118116Y-86014391D01*
X144118117Y-86014394D01*
X144122627Y-86025283D01*
X144131611Y-86085851D01*
X144110983Y-86143502D01*
X144065614Y-86184622D01*
X144006219Y-86199500D01*
X143758774Y-86199500D01*
X143758756Y-86199500D01*
X143755136Y-86199501D01*
X143751526Y-86199919D01*
X143751520Y-86199920D01*
X143739424Y-86201323D01*
X143739423Y-86201323D01*
X143730009Y-86202415D01*
X143721342Y-86206241D01*
X143721341Y-86206242D01*
X143650892Y-86237348D01*
X143599998Y-86248083D01*
X143549105Y-86237347D01*
X143506524Y-86218546D01*
X143469991Y-86202415D01*
X143460580Y-86201323D01*
X143460576Y-86201322D01*
X143448469Y-86199918D01*
X143448466Y-86199917D01*
X143444865Y-86199500D01*
X143441231Y-86199500D01*
X142958774Y-86199500D01*
X142958756Y-86199500D01*
X142955136Y-86199501D01*
X142951526Y-86199919D01*
X142951520Y-86199920D01*
X142939424Y-86201323D01*
X142939423Y-86201323D01*
X142930009Y-86202415D01*
X142921342Y-86206241D01*
X142921341Y-86206242D01*
X142850892Y-86237348D01*
X142799998Y-86248083D01*
X142749105Y-86237347D01*
X142706524Y-86218546D01*
X142669991Y-86202415D01*
X142660580Y-86201323D01*
X142660576Y-86201322D01*
X142648469Y-86199918D01*
X142648466Y-86199917D01*
X142644865Y-86199500D01*
X142641232Y-86199500D01*
X142416258Y-86199500D01*
X142356136Y-86184231D01*
X142310585Y-86142124D01*
X142290646Y-86083385D01*
X142301152Y-86022251D01*
X142339555Y-85973537D01*
X142437108Y-85898682D01*
X142437107Y-85898682D01*
X142443657Y-85893657D01*
X142539911Y-85768216D01*
X142584275Y-85661109D01*
X142617606Y-85614596D01*
X142668073Y-85587621D01*
X142725266Y-85585749D01*
X142777389Y-85609366D01*
X142797159Y-85624536D01*
X142943238Y-85685044D01*
X143100000Y-85705682D01*
X143256762Y-85685044D01*
X143402841Y-85624536D01*
X143528282Y-85528282D01*
X143624536Y-85402841D01*
X143685044Y-85256762D01*
X143705682Y-85100000D01*
X143685044Y-84943238D01*
X143624536Y-84797159D01*
X143528282Y-84671718D01*
X143520887Y-84666044D01*
X143409391Y-84580490D01*
X143402841Y-84575464D01*
X143395214Y-84572304D01*
X143395211Y-84572303D01*
X143264391Y-84518116D01*
X143264390Y-84518115D01*
X143256762Y-84514956D01*
X143248579Y-84513878D01*
X143248573Y-84513877D01*
X143108188Y-84495396D01*
X143100000Y-84494318D01*
X143091812Y-84495396D01*
X142951426Y-84513877D01*
X142951418Y-84513879D01*
X142943238Y-84514956D01*
X142935611Y-84518114D01*
X142935604Y-84518117D01*
X142897462Y-84533916D01*
X142829533Y-84541956D01*
X142767414Y-84513318D01*
X142729412Y-84456443D01*
X142726726Y-84388093D01*
X142760150Y-84328412D01*
X142812531Y-84276031D01*
X142817275Y-84271526D01*
X142848005Y-84243859D01*
X142857009Y-84223633D01*
X142866438Y-84206269D01*
X142878491Y-84187710D01*
X142880563Y-84174624D01*
X142882748Y-84168933D01*
X142884012Y-84162985D01*
X142889400Y-84150886D01*
X142889400Y-84128754D01*
X142890951Y-84109043D01*
X142891072Y-84108276D01*
X142894412Y-84087191D01*
X142890984Y-84074400D01*
X142890292Y-84061174D01*
X142890619Y-84061156D01*
X142889400Y-84051897D01*
X142889400Y-82861442D01*
X142903133Y-82804239D01*
X142941339Y-82759506D01*
X142995689Y-82736993D01*
X143054336Y-82741609D01*
G37*
%TD.AperFunction*%
%TA.AperFunction,Conductor*%
G36*
X136702364Y-97926692D02*
G01*
X136843238Y-97985044D01*
X137000000Y-98005682D01*
X137008188Y-98004604D01*
X137008571Y-98004604D01*
X137068608Y-98019827D01*
X137114138Y-98061817D01*
X137134159Y-98120429D01*
X137123835Y-98181496D01*
X137102415Y-98230009D01*
X137101323Y-98239417D01*
X137101322Y-98239423D01*
X137099919Y-98251520D01*
X137099500Y-98255135D01*
X137099500Y-98258767D01*
X137099500Y-98258768D01*
X137099500Y-99141226D01*
X137099500Y-99141243D01*
X137099501Y-99144864D01*
X137102415Y-99169991D01*
X137106242Y-99178660D01*
X137106243Y-99178661D01*
X137106243Y-99178662D01*
X137147794Y-99272765D01*
X137227235Y-99352206D01*
X137240892Y-99358236D01*
X137246161Y-99362570D01*
X137247549Y-99363521D01*
X137247465Y-99363643D01*
X137293285Y-99401335D01*
X137315734Y-99465355D01*
X137301732Y-99531737D01*
X137255336Y-99581236D01*
X137189998Y-99599500D01*
X135276500Y-99599500D01*
X135213500Y-99582619D01*
X135167381Y-99536500D01*
X135150500Y-99473500D01*
X135150500Y-98167540D01*
X135165723Y-98107503D01*
X135207713Y-98061973D01*
X135266324Y-98041952D01*
X135327393Y-98052275D01*
X135430009Y-98097585D01*
X135455135Y-98100500D01*
X136344864Y-98100499D01*
X136369991Y-98097585D01*
X136472765Y-98052206D01*
X136552206Y-97972765D01*
X136554220Y-97968202D01*
X136591991Y-97933502D01*
X136646393Y-97917341D01*
X136702364Y-97926692D01*
G37*
%TD.AperFunction*%
%TA.AperFunction,Conductor*%
G36*
X137290328Y-94869248D02*
G01*
X137341600Y-94915718D01*
X137360600Y-94982254D01*
X137360600Y-95616999D01*
X137360545Y-95617977D01*
X137356951Y-95628249D01*
X137358540Y-95642352D01*
X137356953Y-95656433D01*
X137339668Y-95707351D01*
X137302727Y-95746425D01*
X137252858Y-95766540D01*
X137206836Y-95764389D01*
X137206762Y-95764956D01*
X137200049Y-95764072D01*
X137200046Y-95764071D01*
X137198587Y-95763879D01*
X137198581Y-95763878D01*
X137058188Y-95745396D01*
X137050000Y-95744318D01*
X137041812Y-95745396D01*
X136901426Y-95763877D01*
X136901418Y-95763879D01*
X136893238Y-95764956D01*
X136885611Y-95768115D01*
X136885608Y-95768116D01*
X136754788Y-95822303D01*
X136754782Y-95822306D01*
X136747159Y-95825464D01*
X136740611Y-95830487D01*
X136740608Y-95830490D01*
X136628263Y-95916695D01*
X136628259Y-95916698D01*
X136621718Y-95921718D01*
X136616698Y-95928259D01*
X136616695Y-95928263D01*
X136530490Y-96040608D01*
X136530487Y-96040611D01*
X136525464Y-96047159D01*
X136522306Y-96054782D01*
X136522303Y-96054788D01*
X136468115Y-96185610D01*
X136468113Y-96185614D01*
X136464956Y-96193238D01*
X136463878Y-96201419D01*
X136462621Y-96206114D01*
X136437435Y-96254493D01*
X136394164Y-96287695D01*
X136340915Y-96299500D01*
X135458773Y-96299500D01*
X135458755Y-96299500D01*
X135455136Y-96299501D01*
X135451526Y-96299919D01*
X135451520Y-96299920D01*
X135439424Y-96301323D01*
X135439423Y-96301323D01*
X135430009Y-96302415D01*
X135421341Y-96306242D01*
X135421338Y-96306243D01*
X135353846Y-96336044D01*
X135333088Y-96345210D01*
X135327394Y-96347724D01*
X135266324Y-96358048D01*
X135207713Y-96338027D01*
X135165723Y-96292497D01*
X135150500Y-96232460D01*
X135150500Y-95767540D01*
X135165723Y-95707503D01*
X135207713Y-95661973D01*
X135266324Y-95641952D01*
X135327393Y-95652275D01*
X135430009Y-95697585D01*
X135455135Y-95700500D01*
X136344864Y-95700499D01*
X136369991Y-95697585D01*
X136472765Y-95652206D01*
X136552206Y-95572765D01*
X136597585Y-95469991D01*
X136600500Y-95444865D01*
X136600499Y-95123090D01*
X136620232Y-95055392D01*
X136673250Y-95008897D01*
X136742943Y-94998170D01*
X136800000Y-95005682D01*
X136956762Y-94985044D01*
X137102841Y-94924536D01*
X137157895Y-94882291D01*
X137222250Y-94856861D01*
X137290328Y-94869248D01*
G37*
%TD.AperFunction*%
%TA.AperFunction,Conductor*%
G36*
X151736500Y-70417381D02*
G01*
X151782619Y-70463500D01*
X151799500Y-70526500D01*
X151799500Y-87324000D01*
X151782619Y-87387000D01*
X151736500Y-87433119D01*
X151673500Y-87450000D01*
X147876546Y-87450000D01*
X147813549Y-87433121D01*
X147776260Y-87395835D01*
X147774536Y-87397159D01*
X147678282Y-87271718D01*
X147671736Y-87266695D01*
X147671731Y-87266690D01*
X147588696Y-87202975D01*
X147552394Y-87158741D01*
X147539400Y-87103013D01*
X147539400Y-86782998D01*
X147539454Y-86782022D01*
X147543049Y-86771751D01*
X147540192Y-86746393D01*
X147539786Y-86739166D01*
X147539400Y-86735741D01*
X147539400Y-86728659D01*
X147537823Y-86721751D01*
X147537438Y-86718331D01*
X147536226Y-86711194D01*
X147534958Y-86699943D01*
X147533369Y-86685836D01*
X147527490Y-86676480D01*
X147525032Y-86665709D01*
X147509117Y-86645752D01*
X147504935Y-86639858D01*
X147502784Y-86637160D01*
X147499016Y-86631164D01*
X147494007Y-86626155D01*
X147491849Y-86623449D01*
X147487041Y-86618069D01*
X147479976Y-86609210D01*
X147479974Y-86609209D01*
X147471126Y-86598113D01*
X147461321Y-86593390D01*
X147460583Y-86592731D01*
X147019917Y-86152065D01*
X146986303Y-86091581D01*
X146989699Y-86022468D01*
X147029079Y-85965570D01*
X147092564Y-85938049D01*
X147221603Y-85921061D01*
X147367682Y-85860553D01*
X147450754Y-85796810D01*
X148794817Y-85796810D01*
X148795895Y-85804998D01*
X148814376Y-85945383D01*
X148814377Y-85945389D01*
X148815455Y-85953572D01*
X148818614Y-85961200D01*
X148818615Y-85961201D01*
X148872802Y-86092021D01*
X148872803Y-86092024D01*
X148875963Y-86099651D01*
X148880989Y-86106201D01*
X148936298Y-86178282D01*
X148972217Y-86225092D01*
X149097658Y-86321346D01*
X149243737Y-86381854D01*
X149400499Y-86402492D01*
X149557261Y-86381854D01*
X149703340Y-86321346D01*
X149828781Y-86225092D01*
X149925035Y-86099651D01*
X149985543Y-85953572D01*
X150006181Y-85796810D01*
X149985543Y-85640048D01*
X149925035Y-85493969D01*
X149828781Y-85368528D01*
X149776306Y-85328263D01*
X149709890Y-85277300D01*
X149703340Y-85272274D01*
X149695713Y-85269114D01*
X149695710Y-85269113D01*
X149564890Y-85214926D01*
X149564889Y-85214925D01*
X149557261Y-85211766D01*
X149549078Y-85210688D01*
X149549072Y-85210687D01*
X149408687Y-85192206D01*
X149400499Y-85191128D01*
X149392311Y-85192206D01*
X149251925Y-85210687D01*
X149251917Y-85210689D01*
X149243737Y-85211766D01*
X149236110Y-85214925D01*
X149236107Y-85214926D01*
X149105287Y-85269113D01*
X149105281Y-85269116D01*
X149097658Y-85272274D01*
X149091110Y-85277297D01*
X149091107Y-85277300D01*
X148978762Y-85363505D01*
X148978758Y-85363508D01*
X148972217Y-85368528D01*
X148967197Y-85375069D01*
X148967194Y-85375073D01*
X148880989Y-85487418D01*
X148880986Y-85487421D01*
X148875963Y-85493969D01*
X148872805Y-85501592D01*
X148872802Y-85501598D01*
X148819108Y-85631228D01*
X148815455Y-85640048D01*
X148814378Y-85648228D01*
X148814376Y-85648236D01*
X148799586Y-85760583D01*
X148794817Y-85796810D01*
X147450754Y-85796810D01*
X147493123Y-85764299D01*
X147589377Y-85638858D01*
X147649885Y-85492779D01*
X147670523Y-85336017D01*
X147656630Y-85230490D01*
X147650963Y-85187443D01*
X147650962Y-85187442D01*
X147649885Y-85179255D01*
X147589377Y-85033176D01*
X147496502Y-84912139D01*
X147471544Y-84851882D01*
X147480057Y-84787218D01*
X147481917Y-84782728D01*
X147534301Y-84656262D01*
X147554939Y-84499500D01*
X147534301Y-84342738D01*
X147473793Y-84196659D01*
X147377539Y-84071218D01*
X147370993Y-84066195D01*
X147258646Y-83979988D01*
X147258643Y-83979986D01*
X147252098Y-83974964D01*
X147246641Y-83972704D01*
X147199699Y-83924516D01*
X147185627Y-83862326D01*
X147140076Y-83900211D01*
X147072380Y-83910027D01*
X146957445Y-83894896D01*
X146949257Y-83893818D01*
X146941069Y-83894896D01*
X146800683Y-83913377D01*
X146800675Y-83913379D01*
X146792495Y-83914456D01*
X146784868Y-83917615D01*
X146784865Y-83917616D01*
X146654045Y-83971803D01*
X146654039Y-83971806D01*
X146646416Y-83974964D01*
X146639868Y-83979987D01*
X146639865Y-83979990D01*
X146527520Y-84066195D01*
X146527516Y-84066198D01*
X146520975Y-84071218D01*
X146515955Y-84077759D01*
X146515952Y-84077763D01*
X146429747Y-84190108D01*
X146429744Y-84190111D01*
X146424721Y-84196659D01*
X146421563Y-84204282D01*
X146421560Y-84204288D01*
X146388831Y-84283304D01*
X146364213Y-84342738D01*
X146363136Y-84350918D01*
X146363134Y-84350926D01*
X146345258Y-84486715D01*
X146343575Y-84499500D01*
X146344653Y-84507688D01*
X146363134Y-84648073D01*
X146363135Y-84648079D01*
X146364213Y-84656262D01*
X146367372Y-84663890D01*
X146367373Y-84663891D01*
X146421560Y-84794711D01*
X146421561Y-84794714D01*
X146424721Y-84802341D01*
X146429744Y-84808888D01*
X146429747Y-84808892D01*
X146517594Y-84923376D01*
X146542553Y-84983633D01*
X146534040Y-85048297D01*
X146482958Y-85171622D01*
X146482957Y-85171625D01*
X146479797Y-85179255D01*
X146478720Y-85187435D01*
X146478718Y-85187443D01*
X146462809Y-85308291D01*
X146435286Y-85371779D01*
X146378388Y-85411158D01*
X146309275Y-85414553D01*
X146248792Y-85380940D01*
X144017852Y-83150000D01*
X146844318Y-83150000D01*
X146845396Y-83158188D01*
X146863877Y-83298573D01*
X146863878Y-83298579D01*
X146864956Y-83306762D01*
X146868115Y-83314390D01*
X146868116Y-83314391D01*
X146922303Y-83445211D01*
X146922304Y-83445214D01*
X146925464Y-83452841D01*
X146930490Y-83459391D01*
X146997836Y-83547159D01*
X147021718Y-83578282D01*
X147028263Y-83583304D01*
X147140607Y-83669509D01*
X147147159Y-83674536D01*
X147152613Y-83676795D01*
X147199556Y-83724981D01*
X147213628Y-83787172D01*
X147259181Y-83749287D01*
X147326874Y-83739472D01*
X147450000Y-83755682D01*
X147606762Y-83735044D01*
X147752841Y-83674536D01*
X147878282Y-83578282D01*
X147974536Y-83452841D01*
X148035044Y-83306762D01*
X148055682Y-83150000D01*
X148035044Y-82993238D01*
X147974536Y-82847159D01*
X147878282Y-82721718D01*
X147849978Y-82700000D01*
X148494318Y-82700000D01*
X148495396Y-82708188D01*
X148513877Y-82848573D01*
X148513878Y-82848579D01*
X148514956Y-82856762D01*
X148518115Y-82864390D01*
X148518116Y-82864391D01*
X148572303Y-82995211D01*
X148572304Y-82995214D01*
X148575464Y-83002841D01*
X148580490Y-83009391D01*
X148650016Y-83100000D01*
X148671718Y-83128282D01*
X148797159Y-83224536D01*
X148943238Y-83285044D01*
X149100000Y-83305682D01*
X149256762Y-83285044D01*
X149402841Y-83224536D01*
X149528282Y-83128282D01*
X149624536Y-83002841D01*
X149685044Y-82856762D01*
X149705682Y-82700000D01*
X149685044Y-82543238D01*
X149624536Y-82397159D01*
X149528282Y-82271718D01*
X149507383Y-82255682D01*
X149409391Y-82180490D01*
X149402841Y-82175464D01*
X149395214Y-82172304D01*
X149395211Y-82172303D01*
X149264391Y-82118116D01*
X149264390Y-82118115D01*
X149256762Y-82114956D01*
X149248579Y-82113878D01*
X149248573Y-82113877D01*
X149108188Y-82095396D01*
X149100000Y-82094318D01*
X149091812Y-82095396D01*
X148951426Y-82113877D01*
X148951418Y-82113879D01*
X148943238Y-82114956D01*
X148935611Y-82118115D01*
X148935608Y-82118116D01*
X148804788Y-82172303D01*
X148804782Y-82172306D01*
X148797159Y-82175464D01*
X148790611Y-82180487D01*
X148790608Y-82180490D01*
X148678263Y-82266695D01*
X148678259Y-82266698D01*
X148671718Y-82271718D01*
X148666698Y-82278259D01*
X148666695Y-82278263D01*
X148580490Y-82390608D01*
X148580487Y-82390611D01*
X148575464Y-82397159D01*
X148572306Y-82404782D01*
X148572303Y-82404788D01*
X148523940Y-82521548D01*
X148514956Y-82543238D01*
X148513879Y-82551418D01*
X148513877Y-82551426D01*
X148499036Y-82664164D01*
X148494318Y-82700000D01*
X147849978Y-82700000D01*
X147759391Y-82630490D01*
X147752841Y-82625464D01*
X147745213Y-82622304D01*
X147745209Y-82622302D01*
X147717180Y-82610692D01*
X147676304Y-82583379D01*
X147648991Y-82542502D01*
X147639400Y-82494284D01*
X147639400Y-82030642D01*
X147648991Y-81982424D01*
X147676305Y-81941547D01*
X148891547Y-80726305D01*
X148932424Y-80698991D01*
X148980642Y-80689400D01*
X149094284Y-80689400D01*
X149142502Y-80698991D01*
X149183379Y-80726304D01*
X149210692Y-80767180D01*
X149222302Y-80795209D01*
X149222304Y-80795213D01*
X149225464Y-80802841D01*
X149230490Y-80809391D01*
X149312429Y-80916177D01*
X149321718Y-80928282D01*
X149447159Y-81024536D01*
X149593238Y-81085044D01*
X149750000Y-81105682D01*
X149906762Y-81085044D01*
X150052841Y-81024536D01*
X150178282Y-80928282D01*
X150274536Y-80802841D01*
X150335044Y-80656762D01*
X150355682Y-80500000D01*
X150335044Y-80343238D01*
X150274536Y-80197159D01*
X150178282Y-80071718D01*
X150140961Y-80043081D01*
X150059391Y-79980490D01*
X150052841Y-79975464D01*
X150045214Y-79972304D01*
X150045211Y-79972303D01*
X149914391Y-79918116D01*
X149914390Y-79918115D01*
X149906762Y-79914956D01*
X149898579Y-79913878D01*
X149898573Y-79913877D01*
X149763429Y-79896085D01*
X149750000Y-79894318D01*
X149737215Y-79896001D01*
X149601426Y-79913877D01*
X149601418Y-79913879D01*
X149593238Y-79914956D01*
X149585611Y-79918115D01*
X149585608Y-79918116D01*
X149454788Y-79972303D01*
X149454782Y-79972306D01*
X149447159Y-79975464D01*
X149440611Y-79980487D01*
X149440608Y-79980490D01*
X149328263Y-80066695D01*
X149328259Y-80066698D01*
X149321718Y-80071718D01*
X149316698Y-80078259D01*
X149316695Y-80078263D01*
X149230490Y-80190608D01*
X149230487Y-80190611D01*
X149225464Y-80197159D01*
X149222305Y-80204783D01*
X149222302Y-80204790D01*
X149210692Y-80232820D01*
X149183379Y-80273696D01*
X149142502Y-80301009D01*
X149094284Y-80310600D01*
X148883001Y-80310600D01*
X148882023Y-80310545D01*
X148871751Y-80306951D01*
X148857645Y-80308540D01*
X148857643Y-80308540D01*
X148846393Y-80309808D01*
X148839166Y-80310213D01*
X148835730Y-80310600D01*
X148828659Y-80310600D01*
X148821761Y-80312173D01*
X148818348Y-80312558D01*
X148811200Y-80313772D01*
X148799942Y-80315041D01*
X148799941Y-80315041D01*
X148785836Y-80316631D01*
X148776480Y-80322509D01*
X148765709Y-80324968D01*
X148754613Y-80333815D01*
X148754611Y-80333817D01*
X148745751Y-80340883D01*
X148739833Y-80345081D01*
X148737141Y-80347227D01*
X148731164Y-80350984D01*
X148726169Y-80355978D01*
X148723476Y-80358126D01*
X148718070Y-80362957D01*
X148709208Y-80370024D01*
X148709204Y-80370028D01*
X148698113Y-80378874D01*
X148693392Y-80388674D01*
X148692729Y-80389417D01*
X147339417Y-81742729D01*
X147338674Y-81743392D01*
X147328874Y-81748113D01*
X147320028Y-81759204D01*
X147320024Y-81759208D01*
X147312957Y-81768070D01*
X147308126Y-81773476D01*
X147305978Y-81776169D01*
X147300984Y-81781164D01*
X147297227Y-81787141D01*
X147295081Y-81789833D01*
X147290883Y-81795751D01*
X147283817Y-81804611D01*
X147283815Y-81804613D01*
X147274968Y-81815709D01*
X147272509Y-81826480D01*
X147266631Y-81835836D01*
X147265041Y-81849941D01*
X147265041Y-81849942D01*
X147263772Y-81861200D01*
X147262558Y-81868348D01*
X147262173Y-81871761D01*
X147260600Y-81878659D01*
X147260600Y-81885730D01*
X147260213Y-81889166D01*
X147259808Y-81896393D01*
X147258540Y-81907643D01*
X147258540Y-81907645D01*
X147256951Y-81921751D01*
X147260545Y-81932023D01*
X147260600Y-81933001D01*
X147260600Y-82494284D01*
X147251009Y-82542502D01*
X147223696Y-82583379D01*
X147182820Y-82610692D01*
X147154790Y-82622302D01*
X147154783Y-82622305D01*
X147147159Y-82625464D01*
X147140611Y-82630487D01*
X147140608Y-82630490D01*
X147028263Y-82716695D01*
X147028259Y-82716698D01*
X147021718Y-82721718D01*
X147016698Y-82728259D01*
X147016695Y-82728263D01*
X146930490Y-82840608D01*
X146930487Y-82840611D01*
X146925464Y-82847159D01*
X146922306Y-82854782D01*
X146922303Y-82854788D01*
X146882275Y-82951426D01*
X146864956Y-82993238D01*
X146863879Y-83001418D01*
X146863877Y-83001426D01*
X146849822Y-83108193D01*
X146844318Y-83150000D01*
X144017852Y-83150000D01*
X143426305Y-82558453D01*
X143398991Y-82517576D01*
X143389400Y-82469358D01*
X143389400Y-81720620D01*
X143408401Y-81654083D01*
X143459673Y-81607613D01*
X143527752Y-81595227D01*
X143582579Y-81616894D01*
X143583454Y-81615379D01*
X143590608Y-81619509D01*
X143597159Y-81624536D01*
X143743238Y-81685044D01*
X143900000Y-81705682D01*
X144056762Y-81685044D01*
X144202841Y-81624536D01*
X144328282Y-81528282D01*
X144333297Y-81521745D01*
X144386596Y-81490035D01*
X144448578Y-81487598D01*
X144504213Y-81515031D01*
X144540015Y-81565687D01*
X144547308Y-81627288D01*
X144544318Y-81650000D01*
X144545396Y-81658188D01*
X144563877Y-81798573D01*
X144563878Y-81798579D01*
X144564956Y-81806762D01*
X144568115Y-81814390D01*
X144568116Y-81814391D01*
X144622303Y-81945211D01*
X144622304Y-81945214D01*
X144625464Y-81952841D01*
X144721718Y-82078282D01*
X144847159Y-82174536D01*
X144993238Y-82235044D01*
X145150000Y-82255682D01*
X145306762Y-82235044D01*
X145452841Y-82174536D01*
X145578282Y-82078282D01*
X145674536Y-81952841D01*
X145735044Y-81806762D01*
X145755682Y-81650000D01*
X145735044Y-81493238D01*
X145674536Y-81347159D01*
X145578282Y-81221718D01*
X145571736Y-81216695D01*
X145571731Y-81216690D01*
X145504839Y-81165362D01*
X145466436Y-81116649D01*
X145455931Y-81055514D01*
X145475871Y-80996775D01*
X145521421Y-80954669D01*
X145581543Y-80939400D01*
X147616999Y-80939400D01*
X147617976Y-80939454D01*
X147628249Y-80943049D01*
X147653606Y-80940192D01*
X147660836Y-80939786D01*
X147664262Y-80939400D01*
X147671341Y-80939400D01*
X147678243Y-80937824D01*
X147681674Y-80937438D01*
X147688805Y-80936226D01*
X147714164Y-80933369D01*
X147723519Y-80927490D01*
X147734291Y-80925032D01*
X147754249Y-80909114D01*
X147760133Y-80904941D01*
X147762834Y-80902786D01*
X147768836Y-80899016D01*
X147773849Y-80894002D01*
X147776549Y-80891849D01*
X147781931Y-80887039D01*
X147801887Y-80871126D01*
X147806609Y-80861318D01*
X147807255Y-80860595D01*
X148610595Y-80057255D01*
X148611318Y-80056609D01*
X148621126Y-80051887D01*
X148637039Y-80031931D01*
X148641851Y-80026547D01*
X148644004Y-80023847D01*
X148649017Y-80018835D01*
X148652786Y-80012834D01*
X148654943Y-80010131D01*
X148659125Y-80004237D01*
X148675032Y-79984291D01*
X148677490Y-79973518D01*
X148683369Y-79964163D01*
X148686225Y-79938807D01*
X148687437Y-79931681D01*
X148687824Y-79928240D01*
X148689400Y-79921341D01*
X148689400Y-79914261D01*
X148689786Y-79910836D01*
X148690192Y-79903611D01*
X148691460Y-79892356D01*
X148693050Y-79878248D01*
X148689455Y-79867974D01*
X148689400Y-79866993D01*
X148689400Y-76382998D01*
X148689454Y-76382022D01*
X148693049Y-76371751D01*
X148690192Y-76346393D01*
X148689786Y-76339166D01*
X148689400Y-76335741D01*
X148689400Y-76328659D01*
X148687823Y-76321751D01*
X148687438Y-76318331D01*
X148686226Y-76311194D01*
X148685303Y-76303002D01*
X148683369Y-76285836D01*
X148677490Y-76276480D01*
X148675032Y-76265709D01*
X148659117Y-76245752D01*
X148654935Y-76239858D01*
X148652784Y-76237160D01*
X148649016Y-76231164D01*
X148644007Y-76226155D01*
X148641849Y-76223449D01*
X148637041Y-76218069D01*
X148629976Y-76209210D01*
X148629974Y-76209209D01*
X148621126Y-76198113D01*
X148611321Y-76193390D01*
X148610583Y-76192731D01*
X147957263Y-75539411D01*
X147956608Y-75538678D01*
X147951887Y-75528874D01*
X147931933Y-75512961D01*
X147926545Y-75508145D01*
X147923839Y-75505987D01*
X147918836Y-75500984D01*
X147912843Y-75497218D01*
X147910157Y-75495076D01*
X147904250Y-75490885D01*
X147884291Y-75474968D01*
X147873519Y-75472509D01*
X147864164Y-75466631D01*
X147850062Y-75465041D01*
X147850060Y-75465041D01*
X147838798Y-75463772D01*
X147831641Y-75462557D01*
X147828238Y-75462173D01*
X147821341Y-75460600D01*
X147814270Y-75460600D01*
X147810844Y-75460214D01*
X147803607Y-75459808D01*
X147792356Y-75458540D01*
X147792354Y-75458540D01*
X147778249Y-75456951D01*
X147767976Y-75460545D01*
X147766999Y-75460600D01*
X147426500Y-75460600D01*
X147363500Y-75443719D01*
X147317381Y-75397600D01*
X147300500Y-75334600D01*
X147300499Y-74908774D01*
X147300499Y-74905136D01*
X147297585Y-74880009D01*
X147252206Y-74777235D01*
X147172765Y-74697794D01*
X147162084Y-74693078D01*
X147162083Y-74693077D01*
X147078662Y-74656243D01*
X147078658Y-74656242D01*
X147069991Y-74652415D01*
X147060580Y-74651323D01*
X147060576Y-74651322D01*
X147048469Y-74649918D01*
X147048466Y-74649917D01*
X147044865Y-74649500D01*
X147041231Y-74649500D01*
X145458773Y-74649500D01*
X145458755Y-74649500D01*
X145455136Y-74649501D01*
X145451526Y-74649919D01*
X145451520Y-74649920D01*
X145439424Y-74651323D01*
X145439423Y-74651323D01*
X145430009Y-74652415D01*
X145421341Y-74656242D01*
X145421338Y-74656243D01*
X145337916Y-74693077D01*
X145337912Y-74693079D01*
X145327235Y-74697794D01*
X145318980Y-74706048D01*
X145318977Y-74706051D01*
X145256051Y-74768977D01*
X145256048Y-74768980D01*
X145247794Y-74777235D01*
X145243079Y-74787912D01*
X145243077Y-74787916D01*
X145206242Y-74871341D01*
X145202415Y-74880009D01*
X145201323Y-74889415D01*
X145200159Y-74893696D01*
X145164444Y-74952826D01*
X145102921Y-74984239D01*
X145034082Y-74978493D01*
X144978617Y-74937316D01*
X144940071Y-74887082D01*
X144928282Y-74871718D01*
X144921736Y-74866695D01*
X144921733Y-74866692D01*
X144918355Y-74864100D01*
X144878651Y-74812355D01*
X144870139Y-74747691D01*
X144895100Y-74687433D01*
X144946841Y-74647731D01*
X145002841Y-74624536D01*
X145128282Y-74528282D01*
X145224536Y-74402841D01*
X145285044Y-74256762D01*
X145305682Y-74100000D01*
X145291102Y-73989253D01*
X145296556Y-73932766D01*
X145326245Y-73884401D01*
X145374148Y-73853970D01*
X145430545Y-73847648D01*
X145451513Y-73850080D01*
X145451516Y-73850080D01*
X145455135Y-73850500D01*
X146758582Y-73850499D01*
X146810294Y-73861600D01*
X146852894Y-73892945D01*
X146876271Y-73919332D01*
X147011274Y-74012518D01*
X147164655Y-74070688D01*
X147172222Y-74071606D01*
X147172223Y-74071607D01*
X147186495Y-74073339D01*
X147286643Y-74085500D01*
X147364548Y-74085500D01*
X147368357Y-74085500D01*
X147490345Y-74070688D01*
X147643726Y-74012518D01*
X147778729Y-73919332D01*
X147887508Y-73796546D01*
X147963742Y-73651295D01*
X148003000Y-73492021D01*
X148003000Y-73327979D01*
X147963742Y-73168705D01*
X147887508Y-73023454D01*
X147878208Y-73012957D01*
X147783785Y-72906375D01*
X147783784Y-72906374D01*
X147778729Y-72900668D01*
X147772456Y-72896338D01*
X147772455Y-72896337D01*
X147650001Y-72811813D01*
X147649999Y-72811811D01*
X147643726Y-72807482D01*
X147636598Y-72804779D01*
X147636595Y-72804777D01*
X147497473Y-72752015D01*
X147497470Y-72752014D01*
X147490345Y-72749312D01*
X147478408Y-72747862D01*
X147390131Y-72737143D01*
X147330288Y-72713285D01*
X147290060Y-72662965D01*
X147284733Y-72650903D01*
X147273993Y-72600003D01*
X147284729Y-72549105D01*
X147297585Y-72519991D01*
X147300500Y-72494865D01*
X147300499Y-71605136D01*
X147297585Y-71580009D01*
X147252206Y-71477235D01*
X147172765Y-71397794D01*
X147162084Y-71393078D01*
X147162083Y-71393077D01*
X147078662Y-71356243D01*
X147078658Y-71356242D01*
X147069991Y-71352415D01*
X147060580Y-71351323D01*
X147060576Y-71351322D01*
X147048469Y-71349918D01*
X147048466Y-71349917D01*
X147044865Y-71349500D01*
X147041231Y-71349500D01*
X145458773Y-71349500D01*
X145458755Y-71349500D01*
X145455136Y-71349501D01*
X145451526Y-71349919D01*
X145451520Y-71349920D01*
X145439424Y-71351323D01*
X145439423Y-71351323D01*
X145430009Y-71352415D01*
X145421341Y-71356242D01*
X145421338Y-71356243D01*
X145337916Y-71393077D01*
X145337912Y-71393079D01*
X145327235Y-71397794D01*
X145318980Y-71406048D01*
X145318977Y-71406051D01*
X145256051Y-71468977D01*
X145256048Y-71468980D01*
X145247794Y-71477235D01*
X145243079Y-71487912D01*
X145243077Y-71487916D01*
X145206243Y-71571337D01*
X145206241Y-71571343D01*
X145202415Y-71580009D01*
X145201323Y-71589417D01*
X145201322Y-71589423D01*
X145199919Y-71601520D01*
X145199500Y-71605135D01*
X145199500Y-71608767D01*
X145199500Y-71608768D01*
X145199500Y-72491226D01*
X145199500Y-72491243D01*
X145199501Y-72494864D01*
X145202415Y-72519991D01*
X145206242Y-72528659D01*
X145206243Y-72528661D01*
X145215271Y-72549108D01*
X145226006Y-72599999D01*
X145215271Y-72650891D01*
X145206242Y-72671340D01*
X145206240Y-72671343D01*
X145202415Y-72680009D01*
X145201323Y-72689413D01*
X145201323Y-72689417D01*
X145199918Y-72701530D01*
X145199500Y-72705135D01*
X145199500Y-72708768D01*
X145199500Y-72834600D01*
X145182619Y-72897600D01*
X145136500Y-72943719D01*
X145073500Y-72960600D01*
X144583001Y-72960600D01*
X144582023Y-72960545D01*
X144571751Y-72956951D01*
X144557645Y-72958540D01*
X144557643Y-72958540D01*
X144546393Y-72959808D01*
X144539166Y-72960213D01*
X144535730Y-72960600D01*
X144528659Y-72960600D01*
X144521761Y-72962173D01*
X144518348Y-72962558D01*
X144511200Y-72963772D01*
X144499942Y-72965041D01*
X144499941Y-72965041D01*
X144485836Y-72966631D01*
X144476480Y-72972509D01*
X144465709Y-72974968D01*
X144454613Y-72983815D01*
X144454611Y-72983817D01*
X144445751Y-72990883D01*
X144439833Y-72995081D01*
X144437141Y-72997227D01*
X144431164Y-73000984D01*
X144426169Y-73005978D01*
X144423476Y-73008126D01*
X144418070Y-73012957D01*
X144409208Y-73020024D01*
X144409204Y-73020028D01*
X144398113Y-73028874D01*
X144393392Y-73038674D01*
X144392729Y-73039417D01*
X143339417Y-74092729D01*
X143338674Y-74093392D01*
X143328874Y-74098113D01*
X143320028Y-74109204D01*
X143320024Y-74109208D01*
X143312957Y-74118070D01*
X143308126Y-74123476D01*
X143305978Y-74126169D01*
X143300984Y-74131164D01*
X143297227Y-74137141D01*
X143295081Y-74139833D01*
X143290883Y-74145751D01*
X143283817Y-74154611D01*
X143283815Y-74154613D01*
X143274968Y-74165709D01*
X143272509Y-74176480D01*
X143266631Y-74185836D01*
X143265041Y-74199941D01*
X143265041Y-74199942D01*
X143263772Y-74211200D01*
X143262558Y-74218348D01*
X143262173Y-74221761D01*
X143260600Y-74228659D01*
X143260600Y-74235730D01*
X143260213Y-74239166D01*
X143259808Y-74246393D01*
X143258540Y-74257643D01*
X143258540Y-74257645D01*
X143256951Y-74271751D01*
X143260545Y-74282023D01*
X143260600Y-74283001D01*
X143260600Y-78552237D01*
X143245722Y-78611633D01*
X143204602Y-78657002D01*
X143146950Y-78677630D01*
X143086382Y-78668646D01*
X142964391Y-78618116D01*
X142964390Y-78618115D01*
X142956762Y-78614956D01*
X142948579Y-78613878D01*
X142948573Y-78613877D01*
X142808188Y-78595396D01*
X142800000Y-78594318D01*
X142791812Y-78595396D01*
X142651426Y-78613877D01*
X142651418Y-78613879D01*
X142643238Y-78614956D01*
X142635611Y-78618115D01*
X142635608Y-78618116D01*
X142504788Y-78672303D01*
X142504782Y-78672306D01*
X142497159Y-78675464D01*
X142490611Y-78680487D01*
X142490608Y-78680490D01*
X142378263Y-78766695D01*
X142378259Y-78766698D01*
X142371718Y-78771718D01*
X142366698Y-78778259D01*
X142366695Y-78778263D01*
X142280490Y-78890608D01*
X142280487Y-78890611D01*
X142275464Y-78897159D01*
X142272306Y-78904782D01*
X142272303Y-78904788D01*
X142218116Y-79035608D01*
X142214956Y-79043238D01*
X142213879Y-79051418D01*
X142213877Y-79051426D01*
X142196001Y-79187215D01*
X142194318Y-79200000D01*
X142195396Y-79208188D01*
X142213877Y-79348573D01*
X142213878Y-79348579D01*
X142214956Y-79356762D01*
X142218115Y-79364390D01*
X142218116Y-79364391D01*
X142272303Y-79495211D01*
X142272304Y-79495214D01*
X142275464Y-79502841D01*
X142371718Y-79628282D01*
X142375152Y-79630917D01*
X142401009Y-79669613D01*
X142410600Y-79717831D01*
X142410600Y-83948646D01*
X142401009Y-83996864D01*
X142373695Y-84037742D01*
X141852848Y-84558587D01*
X141848067Y-84563124D01*
X141827209Y-84581905D01*
X141827205Y-84581909D01*
X141817370Y-84590766D01*
X141811986Y-84602855D01*
X141811983Y-84602861D01*
X141808367Y-84610984D01*
X141798939Y-84628349D01*
X141794093Y-84635811D01*
X141794092Y-84635813D01*
X141786883Y-84646915D01*
X141784811Y-84659990D01*
X141782626Y-84665685D01*
X141781359Y-84671644D01*
X141775975Y-84683739D01*
X141775975Y-84696981D01*
X141775975Y-84705871D01*
X141774423Y-84725581D01*
X141770963Y-84747434D01*
X141774389Y-84760222D01*
X141775083Y-84773451D01*
X141774755Y-84773468D01*
X141775975Y-84782728D01*
X141775975Y-84832710D01*
X141759093Y-84895712D01*
X141714973Y-84939828D01*
X141712534Y-84940839D01*
X141705991Y-84945859D01*
X141705985Y-84945863D01*
X141593638Y-85032070D01*
X141593634Y-85032073D01*
X141587093Y-85037093D01*
X141582073Y-85043634D01*
X141582070Y-85043638D01*
X141495865Y-85155983D01*
X141495862Y-85155986D01*
X141490839Y-85162534D01*
X141487681Y-85170157D01*
X141487678Y-85170163D01*
X141433491Y-85300983D01*
X141430331Y-85308613D01*
X141429254Y-85316793D01*
X141429252Y-85316801D01*
X141414579Y-85428263D01*
X141409693Y-85465375D01*
X141410771Y-85473563D01*
X141429252Y-85613948D01*
X141429253Y-85613954D01*
X141430331Y-85622137D01*
X141433490Y-85629765D01*
X141433491Y-85629766D01*
X141487678Y-85760586D01*
X141487679Y-85760589D01*
X141490839Y-85768216D01*
X141587093Y-85893657D01*
X141593638Y-85898679D01*
X141691195Y-85973537D01*
X141729598Y-86022251D01*
X141740103Y-86083386D01*
X141720164Y-86142124D01*
X141674613Y-86184231D01*
X141614491Y-86199500D01*
X141358774Y-86199500D01*
X141358756Y-86199500D01*
X141355136Y-86199501D01*
X141351526Y-86199919D01*
X141351520Y-86199920D01*
X141339424Y-86201323D01*
X141339423Y-86201323D01*
X141330009Y-86202415D01*
X141321342Y-86206241D01*
X141321341Y-86206242D01*
X141250892Y-86237348D01*
X141199998Y-86248083D01*
X141149105Y-86237347D01*
X141106524Y-86218546D01*
X141069991Y-86202415D01*
X141060580Y-86201323D01*
X141060576Y-86201322D01*
X141048469Y-86199918D01*
X141048466Y-86199917D01*
X141044865Y-86199500D01*
X141041231Y-86199500D01*
X140558774Y-86199500D01*
X140558756Y-86199500D01*
X140555136Y-86199501D01*
X140551526Y-86199919D01*
X140551520Y-86199920D01*
X140539424Y-86201323D01*
X140539423Y-86201323D01*
X140530009Y-86202415D01*
X140521342Y-86206241D01*
X140521341Y-86206242D01*
X140450892Y-86237348D01*
X140399998Y-86248083D01*
X140349105Y-86237347D01*
X140306524Y-86218546D01*
X140269991Y-86202415D01*
X140260580Y-86201323D01*
X140260576Y-86201322D01*
X140248469Y-86199918D01*
X140248466Y-86199917D01*
X140244865Y-86199500D01*
X140241231Y-86199500D01*
X139758774Y-86199500D01*
X139758756Y-86199500D01*
X139755136Y-86199501D01*
X139751526Y-86199919D01*
X139751520Y-86199920D01*
X139739424Y-86201323D01*
X139739423Y-86201323D01*
X139730009Y-86202415D01*
X139721342Y-86206241D01*
X139721341Y-86206242D01*
X139650892Y-86237348D01*
X139599998Y-86248083D01*
X139549105Y-86237347D01*
X139506524Y-86218546D01*
X139469991Y-86202415D01*
X139460580Y-86201323D01*
X139460576Y-86201322D01*
X139448469Y-86199918D01*
X139448466Y-86199917D01*
X139444865Y-86199500D01*
X139441231Y-86199500D01*
X138958774Y-86199500D01*
X138958756Y-86199500D01*
X138955136Y-86199501D01*
X138951526Y-86199919D01*
X138951520Y-86199920D01*
X138939424Y-86201323D01*
X138939423Y-86201323D01*
X138930009Y-86202415D01*
X138921342Y-86206241D01*
X138921341Y-86206242D01*
X138850892Y-86237348D01*
X138799998Y-86248083D01*
X138749105Y-86237347D01*
X138706524Y-86218546D01*
X138669991Y-86202415D01*
X138660576Y-86201322D01*
X138660570Y-86201321D01*
X138649203Y-86200002D01*
X138602594Y-86185018D01*
X138565217Y-86153401D01*
X138559118Y-86145754D01*
X138554934Y-86139856D01*
X138552784Y-86137160D01*
X138549017Y-86131164D01*
X138544010Y-86126157D01*
X138541857Y-86123457D01*
X138537037Y-86118064D01*
X138529976Y-86109210D01*
X138529974Y-86109209D01*
X138521126Y-86098113D01*
X138511322Y-86093391D01*
X138510588Y-86092735D01*
X138497587Y-86079734D01*
X138470273Y-86038856D01*
X138460682Y-85990637D01*
X138470273Y-85942420D01*
X138485044Y-85906762D01*
X138505682Y-85750000D01*
X138488503Y-85619509D01*
X138486122Y-85601426D01*
X138486121Y-85601425D01*
X138485044Y-85593238D01*
X138424536Y-85447159D01*
X138328282Y-85321718D01*
X138202841Y-85225464D01*
X138195214Y-85222304D01*
X138195211Y-85222303D01*
X138064391Y-85168116D01*
X138064390Y-85168115D01*
X138056762Y-85164956D01*
X138048579Y-85163878D01*
X138048573Y-85163877D01*
X137908188Y-85145396D01*
X137900000Y-85144318D01*
X137891812Y-85145396D01*
X137751426Y-85163877D01*
X137751418Y-85163879D01*
X137743238Y-85164956D01*
X137735611Y-85168115D01*
X137735608Y-85168116D01*
X137604788Y-85222303D01*
X137604782Y-85222306D01*
X137597159Y-85225464D01*
X137590611Y-85230488D01*
X137590603Y-85230493D01*
X137501703Y-85298708D01*
X137452271Y-85321758D01*
X137397729Y-85321758D01*
X137348297Y-85298708D01*
X137259396Y-85230493D01*
X137259391Y-85230490D01*
X137252841Y-85225464D01*
X137245214Y-85222304D01*
X137245211Y-85222303D01*
X137114391Y-85168116D01*
X137114390Y-85168115D01*
X137106762Y-85164956D01*
X137098579Y-85163878D01*
X137098573Y-85163877D01*
X136958188Y-85145396D01*
X136950000Y-85144318D01*
X136941812Y-85145396D01*
X136801426Y-85163877D01*
X136801418Y-85163879D01*
X136793238Y-85164956D01*
X136785611Y-85168115D01*
X136785608Y-85168116D01*
X136654788Y-85222303D01*
X136654782Y-85222306D01*
X136647159Y-85225464D01*
X136640611Y-85230487D01*
X136640608Y-85230490D01*
X136528263Y-85316695D01*
X136528259Y-85316698D01*
X136521718Y-85321718D01*
X136516698Y-85328259D01*
X136516695Y-85328263D01*
X136430490Y-85440608D01*
X136430487Y-85440611D01*
X136425464Y-85447159D01*
X136422306Y-85454782D01*
X136422303Y-85454788D01*
X136368116Y-85585608D01*
X136364956Y-85593238D01*
X136363879Y-85601418D01*
X136363877Y-85601426D01*
X136346001Y-85737215D01*
X136344318Y-85750000D01*
X136345396Y-85758188D01*
X136363877Y-85898573D01*
X136363878Y-85898576D01*
X136364956Y-85906762D01*
X136368115Y-85914388D01*
X136368116Y-85914391D01*
X136422303Y-86045211D01*
X136422304Y-86045214D01*
X136425464Y-86052841D01*
X136430490Y-86059391D01*
X136430493Y-86059396D01*
X136444481Y-86077626D01*
X136469715Y-86140126D01*
X136459123Y-86206691D01*
X136425776Y-86246335D01*
X136427235Y-86247794D01*
X136356051Y-86318977D01*
X136356048Y-86318980D01*
X136347794Y-86327235D01*
X136343079Y-86337912D01*
X136343077Y-86337916D01*
X136306243Y-86421337D01*
X136306241Y-86421343D01*
X136302415Y-86430009D01*
X136301323Y-86439417D01*
X136301322Y-86439423D01*
X136299919Y-86451520D01*
X136299500Y-86455135D01*
X136299500Y-86458767D01*
X136299500Y-86458768D01*
X136299500Y-87341226D01*
X136299500Y-87341243D01*
X136299501Y-87344864D01*
X136299918Y-87348462D01*
X136299919Y-87348474D01*
X136301139Y-87358990D01*
X136289616Y-87427926D01*
X136243127Y-87480115D01*
X136175977Y-87499500D01*
X135458774Y-87499500D01*
X135458756Y-87499500D01*
X135455136Y-87499501D01*
X135451526Y-87499919D01*
X135451520Y-87499920D01*
X135439424Y-87501323D01*
X135439423Y-87501323D01*
X135430009Y-87502415D01*
X135421341Y-87506242D01*
X135421338Y-87506243D01*
X135378924Y-87524971D01*
X135335946Y-87543948D01*
X135327394Y-87547724D01*
X135266324Y-87558048D01*
X135207713Y-87538027D01*
X135165723Y-87492497D01*
X135150500Y-87432460D01*
X135150500Y-83850000D01*
X137244318Y-83850000D01*
X137245396Y-83858188D01*
X137263877Y-83998573D01*
X137263878Y-83998579D01*
X137264956Y-84006762D01*
X137268115Y-84014390D01*
X137268116Y-84014391D01*
X137322303Y-84145211D01*
X137322304Y-84145214D01*
X137325464Y-84152841D01*
X137421718Y-84278282D01*
X137547159Y-84374536D01*
X137693238Y-84435044D01*
X137850000Y-84455682D01*
X138006762Y-84435044D01*
X138152841Y-84374536D01*
X138278282Y-84278282D01*
X138374536Y-84152841D01*
X138435044Y-84006762D01*
X138455682Y-83850000D01*
X138454207Y-83838798D01*
X138454604Y-83835784D01*
X138454604Y-83833553D01*
X138454898Y-83833553D01*
X138462720Y-83774134D01*
X138502425Y-83722389D01*
X138562682Y-83697429D01*
X138656762Y-83685044D01*
X138802841Y-83624536D01*
X138928282Y-83528282D01*
X139024536Y-83402841D01*
X139085044Y-83256762D01*
X139105682Y-83100000D01*
X139085044Y-82943238D01*
X139024536Y-82797159D01*
X138928282Y-82671718D01*
X138918437Y-82664164D01*
X138809391Y-82580490D01*
X138802841Y-82575464D01*
X138795214Y-82572304D01*
X138795211Y-82572303D01*
X138664391Y-82518116D01*
X138664390Y-82518115D01*
X138656762Y-82514956D01*
X138648579Y-82513878D01*
X138648573Y-82513877D01*
X138508188Y-82495396D01*
X138500000Y-82494318D01*
X138491812Y-82495396D01*
X138351426Y-82513877D01*
X138351418Y-82513879D01*
X138343238Y-82514956D01*
X138335611Y-82518115D01*
X138335608Y-82518116D01*
X138204788Y-82572303D01*
X138204782Y-82572306D01*
X138197159Y-82575464D01*
X138190611Y-82580487D01*
X138190608Y-82580490D01*
X138078263Y-82666695D01*
X138078259Y-82666698D01*
X138071718Y-82671718D01*
X138066698Y-82678259D01*
X138066695Y-82678263D01*
X137980490Y-82790608D01*
X137980487Y-82790611D01*
X137975464Y-82797159D01*
X137972306Y-82804782D01*
X137972303Y-82804788D01*
X137918116Y-82935608D01*
X137914956Y-82943238D01*
X137913879Y-82951418D01*
X137913877Y-82951426D01*
X137896001Y-83087215D01*
X137894318Y-83100000D01*
X137895396Y-83108188D01*
X137895396Y-83108193D01*
X137895793Y-83111210D01*
X137895396Y-83114224D01*
X137895396Y-83116446D01*
X137895103Y-83116446D01*
X137887277Y-83175871D01*
X137847572Y-83227612D01*
X137787317Y-83252570D01*
X137701425Y-83263878D01*
X137701423Y-83263878D01*
X137693238Y-83264956D01*
X137685611Y-83268115D01*
X137685608Y-83268116D01*
X137554788Y-83322303D01*
X137554782Y-83322306D01*
X137547159Y-83325464D01*
X137540611Y-83330487D01*
X137540608Y-83330490D01*
X137428263Y-83416695D01*
X137428259Y-83416698D01*
X137421718Y-83421718D01*
X137416698Y-83428259D01*
X137416695Y-83428263D01*
X137330490Y-83540608D01*
X137330487Y-83540611D01*
X137325464Y-83547159D01*
X137322306Y-83554782D01*
X137322303Y-83554788D01*
X137269659Y-83681883D01*
X137264956Y-83693238D01*
X137263879Y-83701418D01*
X137263877Y-83701426D01*
X137252589Y-83787172D01*
X137244318Y-83850000D01*
X135150500Y-83850000D01*
X135150500Y-79250000D01*
X139244318Y-79250000D01*
X139245396Y-79258188D01*
X139263877Y-79398573D01*
X139263878Y-79398579D01*
X139264956Y-79406762D01*
X139268115Y-79414390D01*
X139268116Y-79414391D01*
X139322303Y-79545211D01*
X139322304Y-79545214D01*
X139325464Y-79552841D01*
X139421718Y-79678282D01*
X139547159Y-79774536D01*
X139693238Y-79835044D01*
X139850000Y-79855682D01*
X140006762Y-79835044D01*
X140152841Y-79774536D01*
X140278282Y-79678282D01*
X140374536Y-79552841D01*
X140435044Y-79406762D01*
X140455682Y-79250000D01*
X140435044Y-79093238D01*
X140374536Y-78947159D01*
X140278282Y-78821718D01*
X140224552Y-78780490D01*
X140159391Y-78730490D01*
X140152841Y-78725464D01*
X140145214Y-78722304D01*
X140145211Y-78722303D01*
X140014391Y-78668116D01*
X140014390Y-78668115D01*
X140006762Y-78664956D01*
X139998579Y-78663878D01*
X139998573Y-78663877D01*
X139858188Y-78645396D01*
X139850000Y-78644318D01*
X139841812Y-78645396D01*
X139701426Y-78663877D01*
X139701418Y-78663879D01*
X139693238Y-78664956D01*
X139685611Y-78668115D01*
X139685608Y-78668116D01*
X139554788Y-78722303D01*
X139554782Y-78722306D01*
X139547159Y-78725464D01*
X139540611Y-78730487D01*
X139540608Y-78730490D01*
X139428263Y-78816695D01*
X139428259Y-78816698D01*
X139421718Y-78821718D01*
X139416698Y-78828259D01*
X139416695Y-78828263D01*
X139330490Y-78940608D01*
X139330487Y-78940611D01*
X139325464Y-78947159D01*
X139322306Y-78954782D01*
X139322303Y-78954788D01*
X139282275Y-79051426D01*
X139264956Y-79093238D01*
X139263879Y-79101418D01*
X139263877Y-79101426D01*
X139246001Y-79237215D01*
X139244318Y-79250000D01*
X135150500Y-79250000D01*
X135150500Y-75550000D01*
X137344318Y-75550000D01*
X137345396Y-75558188D01*
X137363877Y-75698573D01*
X137363878Y-75698579D01*
X137364956Y-75706762D01*
X137368115Y-75714390D01*
X137368116Y-75714391D01*
X137422303Y-75845211D01*
X137422304Y-75845214D01*
X137425464Y-75852841D01*
X137430490Y-75859391D01*
X137479675Y-75923491D01*
X137521718Y-75978282D01*
X137647159Y-76074536D01*
X137793238Y-76135044D01*
X137950000Y-76155682D01*
X138106762Y-76135044D01*
X138252841Y-76074536D01*
X138378282Y-75978282D01*
X138474536Y-75852841D01*
X138535044Y-75706762D01*
X138555682Y-75550000D01*
X138535044Y-75393238D01*
X138474536Y-75247159D01*
X138378282Y-75121718D01*
X138371736Y-75116695D01*
X138371732Y-75116691D01*
X138365572Y-75111964D01*
X138325869Y-75060219D01*
X138317357Y-74995555D01*
X138342318Y-74935299D01*
X138394062Y-74895595D01*
X138458722Y-74887082D01*
X138600000Y-74905682D01*
X138756762Y-74885044D01*
X138902841Y-74824536D01*
X139028282Y-74728282D01*
X139124536Y-74602841D01*
X139185044Y-74456762D01*
X139205682Y-74300000D01*
X139185044Y-74143238D01*
X139124536Y-73997159D01*
X139028282Y-73871718D01*
X138902841Y-73775464D01*
X138895214Y-73772304D01*
X138895211Y-73772303D01*
X138764391Y-73718116D01*
X138764390Y-73718115D01*
X138756762Y-73714956D01*
X138748579Y-73713878D01*
X138748573Y-73713877D01*
X138608188Y-73695396D01*
X138600000Y-73694318D01*
X138591812Y-73695396D01*
X138451426Y-73713877D01*
X138451418Y-73713879D01*
X138443238Y-73714956D01*
X138435611Y-73718115D01*
X138435608Y-73718116D01*
X138304788Y-73772303D01*
X138304782Y-73772306D01*
X138297159Y-73775464D01*
X138290611Y-73780487D01*
X138290608Y-73780490D01*
X138178263Y-73866695D01*
X138178259Y-73866698D01*
X138171718Y-73871718D01*
X138166698Y-73878259D01*
X138166695Y-73878263D01*
X138080490Y-73990608D01*
X138080487Y-73990611D01*
X138075464Y-73997159D01*
X138072306Y-74004782D01*
X138072303Y-74004788D01*
X138019957Y-74131164D01*
X138014956Y-74143238D01*
X138013879Y-74151418D01*
X138013877Y-74151426D01*
X138001375Y-74246393D01*
X137994318Y-74300000D01*
X137995396Y-74308188D01*
X138013877Y-74448573D01*
X138013878Y-74448579D01*
X138014956Y-74456762D01*
X138018115Y-74464390D01*
X138018116Y-74464391D01*
X138072303Y-74595211D01*
X138072304Y-74595214D01*
X138075464Y-74602841D01*
X138080490Y-74609391D01*
X138140373Y-74687433D01*
X138171718Y-74728282D01*
X138178263Y-74733304D01*
X138178266Y-74733307D01*
X138184426Y-74738034D01*
X138224129Y-74789778D01*
X138232642Y-74854443D01*
X138207682Y-74914700D01*
X138155938Y-74954404D01*
X138091274Y-74962917D01*
X137950000Y-74944318D01*
X137941812Y-74945396D01*
X137801426Y-74963877D01*
X137801418Y-74963879D01*
X137793238Y-74964956D01*
X137785611Y-74968115D01*
X137785608Y-74968116D01*
X137654788Y-75022303D01*
X137654782Y-75022306D01*
X137647159Y-75025464D01*
X137640611Y-75030487D01*
X137640608Y-75030490D01*
X137528263Y-75116695D01*
X137528259Y-75116698D01*
X137521718Y-75121718D01*
X137516698Y-75128259D01*
X137516695Y-75128263D01*
X137430490Y-75240608D01*
X137430487Y-75240611D01*
X137425464Y-75247159D01*
X137422306Y-75254782D01*
X137422303Y-75254788D01*
X137368116Y-75385608D01*
X137364956Y-75393238D01*
X137363879Y-75401418D01*
X137363877Y-75401426D01*
X137350771Y-75500984D01*
X137344318Y-75550000D01*
X135150500Y-75550000D01*
X135150500Y-71850000D01*
X142894318Y-71850000D01*
X142895396Y-71858188D01*
X142913877Y-71998573D01*
X142913878Y-71998579D01*
X142914956Y-72006762D01*
X142918115Y-72014390D01*
X142918116Y-72014391D01*
X142972303Y-72145211D01*
X142972304Y-72145214D01*
X142975464Y-72152841D01*
X143071718Y-72278282D01*
X143197159Y-72374536D01*
X143343238Y-72435044D01*
X143500000Y-72455682D01*
X143656762Y-72435044D01*
X143802841Y-72374536D01*
X143928282Y-72278282D01*
X144024536Y-72152841D01*
X144085044Y-72006762D01*
X144105682Y-71850000D01*
X144085044Y-71693238D01*
X144024536Y-71547159D01*
X143928282Y-71421718D01*
X143802841Y-71325464D01*
X143795214Y-71322304D01*
X143795211Y-71322303D01*
X143664391Y-71268116D01*
X143664390Y-71268115D01*
X143656762Y-71264956D01*
X143648579Y-71263878D01*
X143648573Y-71263877D01*
X143508188Y-71245396D01*
X143500000Y-71244318D01*
X143491812Y-71245396D01*
X143351426Y-71263877D01*
X143351418Y-71263879D01*
X143343238Y-71264956D01*
X143335611Y-71268115D01*
X143335608Y-71268116D01*
X143204788Y-71322303D01*
X143204782Y-71322306D01*
X143197159Y-71325464D01*
X143190611Y-71330487D01*
X143190608Y-71330490D01*
X143078263Y-71416695D01*
X143078259Y-71416698D01*
X143071718Y-71421718D01*
X143066698Y-71428259D01*
X143066695Y-71428263D01*
X142980490Y-71540608D01*
X142980487Y-71540611D01*
X142975464Y-71547159D01*
X142972306Y-71554782D01*
X142972303Y-71554788D01*
X142918116Y-71685608D01*
X142914956Y-71693238D01*
X142913879Y-71701418D01*
X142913877Y-71701426D01*
X142896001Y-71837215D01*
X142894318Y-71850000D01*
X135150500Y-71850000D01*
X135150500Y-70526500D01*
X135167381Y-70463500D01*
X135213500Y-70417381D01*
X135276500Y-70400500D01*
X151673500Y-70400500D01*
X151736500Y-70417381D01*
G37*
%TD.AperFunction*%
%TA.AperFunction,Conductor*%
G36*
X145136500Y-79367380D02*
G01*
X145182619Y-79413499D01*
X145199500Y-79476499D01*
X145199500Y-80191225D01*
X145199500Y-80191242D01*
X145199501Y-80194864D01*
X145199919Y-80198469D01*
X145199920Y-80198479D01*
X145200652Y-80204788D01*
X145202415Y-80219991D01*
X145206242Y-80228660D01*
X145206243Y-80228661D01*
X145242422Y-80310600D01*
X145247794Y-80322765D01*
X145256051Y-80331021D01*
X145256051Y-80331022D01*
X145270534Y-80345505D01*
X145301272Y-80395664D01*
X145305888Y-80454311D01*
X145283375Y-80508661D01*
X145238642Y-80546867D01*
X145181439Y-80560600D01*
X144339184Y-80560600D01*
X144279788Y-80545722D01*
X144234419Y-80504602D01*
X144213791Y-80446950D01*
X144222775Y-80386382D01*
X144223009Y-80385815D01*
X144235044Y-80356762D01*
X144255682Y-80200000D01*
X144235044Y-80043238D01*
X144236236Y-80043081D01*
X144237598Y-79980691D01*
X144276776Y-79922059D01*
X144341319Y-79893659D01*
X144406762Y-79885044D01*
X144552841Y-79824536D01*
X144678282Y-79728282D01*
X144774536Y-79602841D01*
X144796728Y-79549263D01*
X144821578Y-79510919D01*
X144858383Y-79484020D01*
X144864164Y-79483369D01*
X144873519Y-79477490D01*
X144884291Y-79475032D01*
X144904249Y-79459114D01*
X144910142Y-79454934D01*
X144912836Y-79452785D01*
X144918836Y-79449016D01*
X144923848Y-79444003D01*
X144926539Y-79441858D01*
X144931926Y-79437044D01*
X144951887Y-79421126D01*
X144956609Y-79411319D01*
X144957257Y-79410594D01*
X144980450Y-79387401D01*
X145021324Y-79360090D01*
X145069537Y-79350499D01*
X145073503Y-79350499D01*
X145136500Y-79367380D01*
G37*
%TD.AperFunction*%
%TD*%
%TA.AperFunction,NonConductor*%
G36*
X145261976Y-75936946D02*
G01*
X145327235Y-76002206D01*
X145337918Y-76006923D01*
X145344709Y-76011575D01*
X145384964Y-76056772D01*
X145399500Y-76115524D01*
X145399500Y-76126355D01*
X145389485Y-76175584D01*
X145361031Y-76216988D01*
X145339022Y-76231010D01*
X145340170Y-76232777D01*
X145329058Y-76239993D01*
X145316700Y-76244737D01*
X145307339Y-76254096D01*
X145307338Y-76254098D01*
X145305841Y-76255594D01*
X145304464Y-76256971D01*
X145243982Y-76290581D01*
X145174870Y-76287184D01*
X145117973Y-76247804D01*
X145090452Y-76184317D01*
X145086122Y-76151427D01*
X145086122Y-76151426D01*
X145085044Y-76143238D01*
X145056471Y-76074258D01*
X145048432Y-76006332D01*
X145077070Y-75944212D01*
X145133945Y-75906209D01*
X145202295Y-75903523D01*
X145261976Y-75936946D01*
G37*
%TD.AperFunction*%
%TA.AperFunction,NonConductor*%
G36*
X144016900Y-74050330D02*
G01*
X144073798Y-74089709D01*
X144101321Y-74153196D01*
X144113591Y-74246393D01*
X144114956Y-74256762D01*
X144118115Y-74264390D01*
X144118116Y-74264391D01*
X144172303Y-74395211D01*
X144172304Y-74395214D01*
X144175464Y-74402841D01*
X144271718Y-74528282D01*
X144278263Y-74533304D01*
X144278268Y-74533309D01*
X144281642Y-74535898D01*
X144321347Y-74587642D01*
X144329860Y-74652306D01*
X144304901Y-74712564D01*
X144253157Y-74752269D01*
X144204786Y-74772304D01*
X144204781Y-74772306D01*
X144197159Y-74775464D01*
X144190611Y-74780487D01*
X144190608Y-74780490D01*
X144078263Y-74866695D01*
X144078259Y-74866698D01*
X144071718Y-74871718D01*
X144066698Y-74878259D01*
X144066695Y-74878263D01*
X143980490Y-74990608D01*
X143980487Y-74990611D01*
X143975464Y-74997159D01*
X143972306Y-75004782D01*
X143972303Y-75004788D01*
X143918116Y-75135608D01*
X143914956Y-75143238D01*
X143913879Y-75151418D01*
X143913877Y-75151426D01*
X143900270Y-75254788D01*
X143894318Y-75300000D01*
X143895396Y-75308188D01*
X143913877Y-75448573D01*
X143913878Y-75448579D01*
X143914956Y-75456762D01*
X143918115Y-75464390D01*
X143918116Y-75464391D01*
X143972303Y-75595211D01*
X143972304Y-75595214D01*
X143975464Y-75602841D01*
X143980490Y-75609391D01*
X144067892Y-75723296D01*
X144090942Y-75772729D01*
X144090942Y-75827271D01*
X144067892Y-75876704D01*
X143980490Y-75990608D01*
X143980487Y-75990611D01*
X143975464Y-75997159D01*
X143972306Y-76004782D01*
X143972303Y-76004788D01*
X143921949Y-76126355D01*
X143914956Y-76143238D01*
X143913879Y-76151418D01*
X143913877Y-76151426D01*
X143900361Y-76254098D01*
X143894318Y-76300000D01*
X143895396Y-76308188D01*
X143913877Y-76448573D01*
X143913878Y-76448579D01*
X143914956Y-76456762D01*
X143918115Y-76464390D01*
X143918116Y-76464391D01*
X143972303Y-76595211D01*
X143972304Y-76595214D01*
X143975464Y-76602841D01*
X143980487Y-76609388D01*
X143980490Y-76609392D01*
X144063060Y-76716999D01*
X144087414Y-76773178D01*
X144082410Y-76834204D01*
X144049231Y-76885665D01*
X143997545Y-76914388D01*
X143993238Y-76914956D01*
X143985612Y-76918114D01*
X143985611Y-76918115D01*
X143854788Y-76972303D01*
X143854782Y-76972306D01*
X143847159Y-76975464D01*
X143840610Y-76980489D01*
X143833454Y-76984621D01*
X143832579Y-76983105D01*
X143777752Y-77004773D01*
X143709673Y-76992387D01*
X143658401Y-76945917D01*
X143639400Y-76879380D01*
X143639400Y-74380643D01*
X143648991Y-74332425D01*
X143676304Y-74291548D01*
X143778608Y-74189244D01*
X143887304Y-74080547D01*
X143947787Y-74046935D01*
X144016900Y-74050330D01*
G37*
%TD.AperFunction*%
%TA.AperFunction,NonConductor*%
G36*
X145147561Y-77241316D02*
G01*
X145185767Y-77286049D01*
X145199500Y-77343252D01*
X145199500Y-77823501D01*
X145182619Y-77886501D01*
X145136500Y-77932620D01*
X145073500Y-77949500D01*
X145055136Y-77949501D01*
X145051525Y-77949919D01*
X145051521Y-77949920D01*
X145039424Y-77951323D01*
X145039423Y-77951323D01*
X145030009Y-77952415D01*
X145021341Y-77956242D01*
X145021338Y-77956243D01*
X144937914Y-77993078D01*
X144937910Y-77993080D01*
X144927235Y-77997794D01*
X144921084Y-78003944D01*
X144865038Y-78024546D01*
X144803748Y-78015635D01*
X144764892Y-77999540D01*
X144764889Y-77999539D01*
X144757260Y-77996379D01*
X144749070Y-77995300D01*
X144745824Y-77994431D01*
X144695358Y-77967455D01*
X144662026Y-77920940D01*
X144652706Y-77864481D01*
X144669318Y-77809721D01*
X144669504Y-77809398D01*
X144674536Y-77802841D01*
X144735044Y-77656762D01*
X144752695Y-77522685D01*
X144764610Y-77483407D01*
X144788515Y-77450046D01*
X144984407Y-77254154D01*
X145034564Y-77223419D01*
X145093211Y-77218803D01*
X145147561Y-77241316D01*
G37*
%TD.AperFunction*%
%TA.AperFunction,NonConductor*%
G36*
X143832579Y-78016894D02*
G01*
X143833454Y-78015379D01*
X143840608Y-78019509D01*
X143847159Y-78024536D01*
X143993238Y-78085044D01*
X144001426Y-78086122D01*
X144004670Y-78086991D01*
X144055136Y-78113964D01*
X144088469Y-78160477D01*
X144097791Y-78216935D01*
X144081182Y-78271695D01*
X144080985Y-78272034D01*
X144075962Y-78278582D01*
X144072804Y-78286204D01*
X144072802Y-78286209D01*
X144035403Y-78376499D01*
X144015454Y-78424661D01*
X144014377Y-78432841D01*
X144014375Y-78432849D01*
X143998868Y-78550647D01*
X143994816Y-78581423D01*
X143995894Y-78589611D01*
X144004354Y-78653872D01*
X144001139Y-78702929D01*
X143979395Y-78747021D01*
X143947080Y-78775361D01*
X143947159Y-78775464D01*
X143945593Y-78776665D01*
X143945587Y-78776670D01*
X143940611Y-78780487D01*
X143940608Y-78780490D01*
X143842104Y-78856075D01*
X143777750Y-78881505D01*
X143709671Y-78869118D01*
X143658400Y-78822648D01*
X143639400Y-78756112D01*
X143639400Y-78120620D01*
X143658401Y-78054083D01*
X143709673Y-78007613D01*
X143777752Y-77995227D01*
X143832579Y-78016894D01*
G37*
%TD.AperFunction*%
%TA.AperFunction,NonConductor*%
G36*
X148240327Y-77907613D02*
G01*
X148291599Y-77954083D01*
X148310600Y-78020620D01*
X148310600Y-79769358D01*
X148301009Y-79817576D01*
X148273695Y-79858453D01*
X147608453Y-80523695D01*
X147567576Y-80551009D01*
X147519358Y-80560600D01*
X147318561Y-80560600D01*
X147261358Y-80546867D01*
X147216625Y-80508661D01*
X147194112Y-80454311D01*
X147198728Y-80395664D01*
X147229466Y-80345505D01*
X147234088Y-80340883D01*
X147252206Y-80322765D01*
X147297585Y-80219991D01*
X147300500Y-80194865D01*
X147300500Y-79985365D01*
X147314933Y-79926810D01*
X147354924Y-79881669D01*
X147411312Y-79860284D01*
X147490345Y-79850688D01*
X147643726Y-79792518D01*
X147778729Y-79699332D01*
X147887508Y-79576546D01*
X147963742Y-79431295D01*
X148003000Y-79272021D01*
X148003000Y-79107979D01*
X147963742Y-78948705D01*
X147887508Y-78803454D01*
X147859392Y-78771718D01*
X147783785Y-78686375D01*
X147783784Y-78686374D01*
X147778729Y-78680668D01*
X147772456Y-78676338D01*
X147772455Y-78676337D01*
X147650001Y-78591813D01*
X147649999Y-78591811D01*
X147643726Y-78587482D01*
X147636598Y-78584779D01*
X147636595Y-78584777D01*
X147497473Y-78532015D01*
X147497470Y-78532014D01*
X147490345Y-78529312D01*
X147482783Y-78528393D01*
X147482776Y-78528392D01*
X147372140Y-78514959D01*
X147372134Y-78514958D01*
X147368357Y-78514500D01*
X147286643Y-78514500D01*
X147282866Y-78514958D01*
X147282859Y-78514959D01*
X147172223Y-78528392D01*
X147172214Y-78528394D01*
X147164655Y-78529312D01*
X147157531Y-78532013D01*
X147157526Y-78532015D01*
X147071179Y-78564763D01*
X147011312Y-78572032D01*
X146954923Y-78550647D01*
X146914932Y-78505506D01*
X146900499Y-78446951D01*
X146900499Y-78376499D01*
X146917380Y-78313499D01*
X146963499Y-78267380D01*
X147026499Y-78250499D01*
X147041226Y-78250499D01*
X147044864Y-78250499D01*
X147069991Y-78247585D01*
X147172765Y-78202206D01*
X147252206Y-78122765D01*
X147297585Y-78019991D01*
X147298677Y-78010576D01*
X147301166Y-78001430D01*
X147302363Y-78001755D01*
X147320424Y-77954172D01*
X147367086Y-77913797D01*
X147427322Y-77900419D01*
X147486688Y-77917247D01*
X147490612Y-77919512D01*
X147497159Y-77924536D01*
X147643238Y-77985044D01*
X147651425Y-77986121D01*
X147651426Y-77986122D01*
X147704263Y-77993078D01*
X147800000Y-78005682D01*
X147956762Y-77985044D01*
X148102841Y-77924536D01*
X148109392Y-77919508D01*
X148116546Y-77915379D01*
X148117420Y-77916894D01*
X148172248Y-77895227D01*
X148240327Y-77907613D01*
G37*
%TD.AperFunction*%
%TA.AperFunction,NonConductor*%
G36*
X136946804Y-87615544D02*
G01*
X136992253Y-87657087D01*
X137012589Y-87715206D01*
X137002956Y-87776022D01*
X136965654Y-87825012D01*
X136945754Y-87840881D01*
X136939834Y-87845081D01*
X136937144Y-87847225D01*
X136931164Y-87850984D01*
X136926166Y-87855980D01*
X136923474Y-87858128D01*
X136918070Y-87862957D01*
X136909208Y-87870024D01*
X136909204Y-87870028D01*
X136898113Y-87878874D01*
X136893391Y-87888677D01*
X136892730Y-87889417D01*
X136815592Y-87966554D01*
X136765436Y-87997291D01*
X136706789Y-88001907D01*
X136652438Y-87979394D01*
X136614232Y-87934661D01*
X136600499Y-87877458D01*
X136600499Y-87758774D01*
X136600499Y-87755136D01*
X136598861Y-87741014D01*
X136610381Y-87672078D01*
X136656870Y-87619885D01*
X136724019Y-87600499D01*
X136887097Y-87600499D01*
X136946804Y-87615544D01*
G37*
%TD.AperFunction*%
%TA.AperFunction,NonConductor*%
G36*
X137892502Y-88198991D02*
G01*
X137933379Y-88226304D01*
X137960692Y-88267180D01*
X137972301Y-88295207D01*
X137972304Y-88295212D01*
X137975464Y-88302841D01*
X137980492Y-88309394D01*
X137980493Y-88309395D01*
X138010343Y-88348297D01*
X138033393Y-88397729D01*
X138033393Y-88452271D01*
X138010343Y-88501703D01*
X137980493Y-88540604D01*
X137980490Y-88540608D01*
X137975464Y-88547159D01*
X137972306Y-88554783D01*
X137972302Y-88554790D01*
X137919272Y-88682818D01*
X137891958Y-88723696D01*
X137851081Y-88751009D01*
X137802863Y-88760600D01*
X136883001Y-88760600D01*
X136882022Y-88760545D01*
X136871751Y-88756951D01*
X136857647Y-88758540D01*
X136849512Y-88757623D01*
X136785062Y-88730924D01*
X136744695Y-88674028D01*
X136740784Y-88604377D01*
X136774528Y-88543322D01*
X137091547Y-88226304D01*
X137132425Y-88198991D01*
X137180643Y-88189400D01*
X137844284Y-88189400D01*
X137892502Y-88198991D01*
G37*
%TD.AperFunction*%
%TA.AperFunction,NonConductor*%
G36*
X144349450Y-89738578D02*
G01*
X144402308Y-89770160D01*
X144573695Y-89941547D01*
X144601009Y-89982424D01*
X144610600Y-90030642D01*
X144610600Y-90352237D01*
X144595722Y-90411633D01*
X144554602Y-90457002D01*
X144496950Y-90477630D01*
X144436382Y-90468646D01*
X144314391Y-90418116D01*
X144314390Y-90418115D01*
X144306762Y-90414956D01*
X144298573Y-90413878D01*
X144290598Y-90411741D01*
X144290855Y-90410779D01*
X144243129Y-90392219D01*
X144203636Y-90347186D01*
X144189400Y-90289006D01*
X144189400Y-89933001D01*
X144189454Y-89932023D01*
X144193049Y-89921751D01*
X144190192Y-89896394D01*
X144189785Y-89889157D01*
X144189400Y-89885740D01*
X144189400Y-89878659D01*
X144188075Y-89872856D01*
X144196269Y-89812349D01*
X144232461Y-89762533D01*
X144287937Y-89735816D01*
X144349450Y-89738578D01*
G37*
%TD.AperFunction*%
%TA.AperFunction,NonConductor*%
G36*
X136759337Y-93198520D02*
G01*
X136812273Y-93230125D01*
X137268436Y-93686288D01*
X137299509Y-93737494D01*
X137303427Y-93797262D01*
X137279304Y-93852086D01*
X137232592Y-93889577D01*
X137173847Y-93901263D01*
X137116343Y-93884503D01*
X137109388Y-93880488D01*
X137102841Y-93875464D01*
X136956762Y-93814956D01*
X136948579Y-93813878D01*
X136948573Y-93813877D01*
X136808188Y-93795396D01*
X136800000Y-93794318D01*
X136791812Y-93795396D01*
X136791810Y-93795396D01*
X136742944Y-93801829D01*
X136673249Y-93791102D01*
X136620232Y-93744606D01*
X136600499Y-93676907D01*
X136600499Y-93358774D01*
X136600499Y-93355136D01*
X136598017Y-93333735D01*
X136606114Y-93272616D01*
X136642239Y-93222655D01*
X136697743Y-93195814D01*
X136759337Y-93198520D01*
G37*
%TD.AperFunction*%
%TA.AperFunction,NonConductor*%
G36*
X137815340Y-96204786D02*
G01*
X137868651Y-96236503D01*
X138144642Y-96512494D01*
X138145301Y-96513232D01*
X138150024Y-96523037D01*
X138161120Y-96531885D01*
X138161121Y-96531887D01*
X138169980Y-96538952D01*
X138175362Y-96543762D01*
X138178067Y-96545919D01*
X138183076Y-96550928D01*
X138189073Y-96554696D01*
X138191769Y-96556846D01*
X138197658Y-96561024D01*
X138217620Y-96576943D01*
X138228392Y-96579401D01*
X138237748Y-96585280D01*
X138242563Y-96585822D01*
X138277944Y-96611679D01*
X138302795Y-96650024D01*
X138322303Y-96697122D01*
X138322304Y-96697125D01*
X138325464Y-96704752D01*
X138330490Y-96711302D01*
X138330493Y-96711307D01*
X138401252Y-96803523D01*
X138426211Y-96863780D01*
X138417698Y-96928444D01*
X138377993Y-96980188D01*
X138317736Y-97005148D01*
X138251425Y-97013878D01*
X138251423Y-97013878D01*
X138243238Y-97014956D01*
X138235611Y-97018115D01*
X138235608Y-97018116D01*
X138104788Y-97072303D01*
X138104782Y-97072306D01*
X138097159Y-97075464D01*
X138090611Y-97080487D01*
X138090608Y-97080490D01*
X137978263Y-97166695D01*
X137978259Y-97166698D01*
X137971718Y-97171718D01*
X137966698Y-97178259D01*
X137966695Y-97178263D01*
X137880490Y-97290608D01*
X137880487Y-97290611D01*
X137875464Y-97297159D01*
X137872306Y-97304783D01*
X137872302Y-97304790D01*
X137840425Y-97381747D01*
X137800720Y-97433490D01*
X137740462Y-97458449D01*
X137675798Y-97449935D01*
X137624054Y-97410230D01*
X137599096Y-97349974D01*
X137585044Y-97243238D01*
X137524536Y-97097159D01*
X137453934Y-97005148D01*
X137430093Y-96974078D01*
X137405134Y-96913820D01*
X137413648Y-96849155D01*
X137453353Y-96797411D01*
X137471733Y-96783307D01*
X137471732Y-96783307D01*
X137478282Y-96778282D01*
X137574536Y-96652841D01*
X137635044Y-96506762D01*
X137655682Y-96350000D01*
X137654604Y-96341812D01*
X137654604Y-96333554D01*
X137655640Y-96333554D01*
X137661922Y-96280450D01*
X137697721Y-96229790D01*
X137753356Y-96202352D01*
X137815340Y-96204786D01*
G37*
%TD.AperFunction*%
%TA.AperFunction,NonConductor*%
G36*
X137724200Y-97550063D02*
G01*
X137775945Y-97589768D01*
X137800904Y-97650026D01*
X137813877Y-97748573D01*
X137813878Y-97748579D01*
X137814956Y-97756762D01*
X137818115Y-97764390D01*
X137818116Y-97764391D01*
X137843338Y-97825282D01*
X137852322Y-97885850D01*
X137831694Y-97943502D01*
X137786325Y-97984622D01*
X137726929Y-97999500D01*
X137552404Y-97999500D01*
X137485867Y-97980499D01*
X137439398Y-97929228D01*
X137427011Y-97861149D01*
X137452442Y-97796796D01*
X137519506Y-97709396D01*
X137519505Y-97709396D01*
X137524536Y-97702841D01*
X137559573Y-97618253D01*
X137599278Y-97566510D01*
X137659536Y-97541550D01*
X137724200Y-97550063D01*
G37*
%TD.AperFunction*%
%TA.AperFunction,NonConductor*%
G36*
X142646865Y-97748991D02*
G01*
X142687742Y-97776305D01*
X142695842Y-97784405D01*
X142726580Y-97834564D01*
X142731196Y-97893211D01*
X142708683Y-97947561D01*
X142663950Y-97985767D01*
X142606747Y-97999500D01*
X142158774Y-97999500D01*
X142158756Y-97999500D01*
X142155136Y-97999501D01*
X142151526Y-97999919D01*
X142151520Y-97999920D01*
X142139426Y-98001322D01*
X142139420Y-98001323D01*
X142130009Y-98002415D01*
X142127271Y-98003623D01*
X142069085Y-98004583D01*
X142014027Y-97975798D01*
X141979418Y-97924201D01*
X141973672Y-97862339D01*
X141992847Y-97817685D01*
X141990878Y-97816549D01*
X141995011Y-97809389D01*
X142000036Y-97802841D01*
X142001046Y-97800401D01*
X142045163Y-97756282D01*
X142108165Y-97739400D01*
X142598647Y-97739400D01*
X142646865Y-97748991D01*
G37*
%TD.AperFunction*%
M02*
