%TF.GenerationSoftware,KiCad,Pcbnew,(7.0.0)*%
%TF.CreationDate,2023-02-27T05:24:17-06:00*%
%TF.ProjectId,esp32-c3-vesc-express-gh_connectors,65737033-322d-4633-932d-766573632d65,rev?*%
%TF.SameCoordinates,Original*%
%TF.FileFunction,Drillmap*%
%TF.FilePolarity,Positive*%
%FSLAX45Y45*%
G04 Gerber Fmt 4.5, Leading zero omitted, Abs format (unit mm)*
G04 Created by KiCad (PCBNEW (7.0.0)) date 2023-02-27 05:24:17*
%MOMM*%
%LPD*%
G01*
G04 APERTURE LIST*
%ADD10C,0.100000*%
%ADD11C,0.200000*%
%ADD12C,0.030000*%
%ADD13C,0.065000*%
G04 APERTURE END LIST*
D10*
X13475000Y-7000000D02*
X15220000Y-7000000D01*
X15220000Y-7000000D02*
X15220000Y-10000000D01*
X15220000Y-10000000D02*
X13475000Y-10000000D01*
X13475000Y-10000000D02*
X13475000Y-7000000D01*
D11*
D12*
X13550000Y-7730000D02*
X13580000Y-7760000D01*
X13580000Y-7730000D02*
X13550000Y-7760000D01*
X13550000Y-8085000D02*
X13580000Y-8115000D01*
X13580000Y-8085000D02*
X13550000Y-8115000D01*
X13550000Y-8585000D02*
X13580000Y-8615000D01*
X13580000Y-8585000D02*
X13550000Y-8615000D01*
X13555000Y-7190000D02*
X13585000Y-7220000D01*
X13585000Y-7190000D02*
X13555000Y-7220000D01*
X13625000Y-9815000D02*
X13655000Y-9845000D01*
X13655000Y-9815000D02*
X13625000Y-9845000D01*
X13665000Y-9425000D02*
X13695000Y-9455000D01*
X13695000Y-9425000D02*
X13665000Y-9455000D01*
X13665000Y-9525000D02*
X13695000Y-9555000D01*
X13695000Y-9525000D02*
X13665000Y-9555000D01*
X13675000Y-9105000D02*
X13705000Y-9135000D01*
X13705000Y-9105000D02*
X13675000Y-9135000D01*
X13680000Y-8560000D02*
X13710000Y-8590000D01*
X13710000Y-8560000D02*
X13680000Y-8590000D01*
X13685000Y-9725000D02*
X13715000Y-9755000D01*
X13715000Y-9725000D02*
X13685000Y-9755000D01*
X13690000Y-9620000D02*
X13720000Y-9650000D01*
X13720000Y-9620000D02*
X13690000Y-9650000D01*
X13710000Y-9010000D02*
X13740000Y-9040000D01*
X13740000Y-9010000D02*
X13710000Y-9040000D01*
X13715000Y-9185000D02*
X13745000Y-9215000D01*
X13745000Y-9185000D02*
X13715000Y-9215000D01*
X13770000Y-8370000D02*
X13800000Y-8400000D01*
X13800000Y-8370000D02*
X13770000Y-8400000D01*
X13775000Y-8560000D02*
X13805000Y-8590000D01*
X13805000Y-8560000D02*
X13775000Y-8590000D01*
X13780000Y-7540000D02*
X13810000Y-7570000D01*
X13810000Y-7540000D02*
X13780000Y-7570000D01*
X13825000Y-9745000D02*
X13855000Y-9775000D01*
X13855000Y-9745000D02*
X13825000Y-9775000D01*
X13835000Y-8295000D02*
X13865000Y-8325000D01*
X13865000Y-8295000D02*
X13835000Y-8325000D01*
X13835000Y-8785000D02*
X13865000Y-8815000D01*
X13865000Y-8785000D02*
X13835000Y-8815000D01*
X13835000Y-8870000D02*
X13865000Y-8900000D01*
X13865000Y-8870000D02*
X13835000Y-8900000D01*
X13845000Y-7415000D02*
X13875000Y-7445000D01*
X13875000Y-7415000D02*
X13845000Y-7445000D01*
X13870000Y-9625191D02*
X13900000Y-9655191D01*
X13900000Y-9625191D02*
X13870000Y-9655191D01*
X13925726Y-8854947D02*
X13955726Y-8884947D01*
X13955726Y-8854947D02*
X13925726Y-8884947D01*
X13944950Y-8585050D02*
X13974950Y-8615050D01*
X13974950Y-8585050D02*
X13944950Y-8615050D01*
X13945000Y-7730000D02*
X13975000Y-7760000D01*
X13975000Y-7730000D02*
X13945000Y-7760000D01*
X13950000Y-9765000D02*
X13980000Y-9795000D01*
X13980000Y-9765000D02*
X13950000Y-9795000D01*
X13970000Y-7910000D02*
X14000000Y-7940000D01*
X14000000Y-7910000D02*
X13970000Y-7940000D01*
X14125000Y-9645000D02*
X14155000Y-9675000D01*
X14155000Y-9645000D02*
X14125000Y-9675000D01*
X14132550Y-9735000D02*
X14162550Y-9765000D01*
X14162550Y-9735000D02*
X14132550Y-9765000D01*
X14140000Y-8915050D02*
X14170000Y-8945050D01*
X14170000Y-8915050D02*
X14140000Y-8945050D01*
X14160000Y-9450000D02*
X14190000Y-9480000D01*
X14190000Y-9450000D02*
X14160000Y-9480000D01*
X14186537Y-8531538D02*
X14216537Y-8561538D01*
X14216537Y-8531538D02*
X14186537Y-8561538D01*
X14225000Y-7835000D02*
X14255000Y-7865000D01*
X14255000Y-7835000D02*
X14225000Y-7865000D01*
X14235000Y-7295000D02*
X14265000Y-7325000D01*
X14265000Y-7295000D02*
X14235000Y-7325000D01*
X14265000Y-7905000D02*
X14295000Y-7935000D01*
X14295000Y-7905000D02*
X14265000Y-7935000D01*
X14295000Y-8495000D02*
X14325000Y-8525000D01*
X14325000Y-8495000D02*
X14295000Y-8525000D01*
X14305000Y-8585050D02*
X14335000Y-8615050D01*
X14335000Y-8585050D02*
X14305000Y-8615050D01*
X14335000Y-7170000D02*
X14365000Y-7200000D01*
X14365000Y-7170000D02*
X14335000Y-7200000D01*
X14350000Y-8005000D02*
X14380000Y-8035000D01*
X14380000Y-8005000D02*
X14350000Y-8035000D01*
X14370000Y-9290000D02*
X14400000Y-9320000D01*
X14400000Y-9290000D02*
X14370000Y-9320000D01*
X14375000Y-8095000D02*
X14405000Y-8125000D01*
X14405000Y-8095000D02*
X14375000Y-8125000D01*
X14385000Y-9775000D02*
X14415000Y-9805000D01*
X14415000Y-9775000D02*
X14385000Y-9805000D01*
X14400000Y-7735000D02*
X14430000Y-7765000D01*
X14430000Y-7735000D02*
X14400000Y-7765000D01*
X14400000Y-9085000D02*
X14430000Y-9115000D01*
X14430000Y-9085000D02*
X14400000Y-9115000D01*
X14405000Y-9175000D02*
X14435000Y-9205000D01*
X14435000Y-9175000D02*
X14405000Y-9205000D01*
X14410000Y-7915000D02*
X14440000Y-7945000D01*
X14440000Y-7915000D02*
X14410000Y-7945000D01*
X14435000Y-7515000D02*
X14465000Y-7545000D01*
X14465000Y-7515000D02*
X14435000Y-7545000D01*
X14435000Y-7615000D02*
X14465000Y-7645000D01*
X14465000Y-7615000D02*
X14435000Y-7645000D01*
X14440000Y-7195000D02*
X14470000Y-7225000D01*
X14470000Y-7195000D02*
X14440000Y-7225000D01*
X14445050Y-7843142D02*
X14475050Y-7873142D01*
X14475050Y-7843142D02*
X14445050Y-7873142D01*
X14455000Y-7395000D02*
X14485000Y-7425000D01*
X14485000Y-7395000D02*
X14455000Y-7425000D01*
X14455000Y-8570000D02*
X14485000Y-8600000D01*
X14485000Y-8570000D02*
X14455000Y-8600000D01*
X14465000Y-7985000D02*
X14495000Y-8015000D01*
X14495000Y-7985000D02*
X14465000Y-8015000D01*
X14500000Y-8150000D02*
X14530000Y-8180000D01*
X14530000Y-8150000D02*
X14500000Y-8180000D01*
X14650000Y-9025000D02*
X14680000Y-9055000D01*
X14680000Y-9025000D02*
X14650000Y-9055000D01*
X14651804Y-8687978D02*
X14681804Y-8717978D01*
X14681804Y-8687978D02*
X14651804Y-8717978D01*
X14653407Y-8933741D02*
X14683407Y-8963741D01*
X14683407Y-8933741D02*
X14653407Y-8963741D01*
X14655000Y-9135000D02*
X14685000Y-9165000D01*
X14685000Y-9135000D02*
X14655000Y-9165000D01*
X14655000Y-9590000D02*
X14685000Y-9620000D01*
X14685000Y-9590000D02*
X14655000Y-9620000D01*
X14679926Y-8434950D02*
X14709926Y-8464950D01*
X14709926Y-8434950D02*
X14679926Y-8464950D01*
X14691484Y-8518602D02*
X14721484Y-8548602D01*
X14721484Y-8518602D02*
X14691484Y-8548602D01*
X14710000Y-8755000D02*
X14740000Y-8785000D01*
X14740000Y-8755000D02*
X14710000Y-8785000D01*
X14730000Y-8300000D02*
X14760000Y-8330000D01*
X14760000Y-8300000D02*
X14730000Y-8330000D01*
X14750000Y-7635000D02*
X14780000Y-7665000D01*
X14780000Y-7635000D02*
X14750000Y-7665000D01*
X14765000Y-7725000D02*
X14795000Y-7755000D01*
X14795000Y-7725000D02*
X14765000Y-7755000D01*
X14790000Y-8225000D02*
X14820000Y-8255000D01*
X14820000Y-8225000D02*
X14790000Y-8255000D01*
X14810000Y-7455000D02*
X14840000Y-7485000D01*
X14840000Y-7455000D02*
X14810000Y-7485000D01*
X14895000Y-8255000D02*
X14925000Y-8285000D01*
X14925000Y-8255000D02*
X14895000Y-8285000D01*
X14925050Y-8564681D02*
X14955050Y-8594681D01*
X14955050Y-8564681D02*
X14925050Y-8594681D01*
X14960000Y-8035000D02*
X14990000Y-8065000D01*
X14990000Y-8035000D02*
X14960000Y-8065000D01*
X15080000Y-7255000D02*
X15110000Y-7285000D01*
X15110000Y-7255000D02*
X15080000Y-7285000D01*
X15080000Y-7965000D02*
X15110000Y-7995000D01*
X15110000Y-7965000D02*
X15080000Y-7995000D01*
D13*
X14765250Y-7341000D02*
G75*
G03*
X14765250Y-7341000I-32500J0D01*
G01*
X14765250Y-7919000D02*
G75*
G03*
X14765250Y-7919000I-32500J0D01*
G01*
D11*
X13717619Y-10298476D02*
X13717619Y-10098476D01*
X13717619Y-10098476D02*
X13765238Y-10098476D01*
X13765238Y-10098476D02*
X13793809Y-10108000D01*
X13793809Y-10108000D02*
X13812857Y-10127048D01*
X13812857Y-10127048D02*
X13822381Y-10146095D01*
X13822381Y-10146095D02*
X13831905Y-10184190D01*
X13831905Y-10184190D02*
X13831905Y-10212762D01*
X13831905Y-10212762D02*
X13822381Y-10250857D01*
X13822381Y-10250857D02*
X13812857Y-10269905D01*
X13812857Y-10269905D02*
X13793809Y-10288952D01*
X13793809Y-10288952D02*
X13765238Y-10298476D01*
X13765238Y-10298476D02*
X13717619Y-10298476D01*
X13917619Y-10298476D02*
X13917619Y-10165143D01*
X13917619Y-10203238D02*
X13927143Y-10184190D01*
X13927143Y-10184190D02*
X13936667Y-10174667D01*
X13936667Y-10174667D02*
X13955714Y-10165143D01*
X13955714Y-10165143D02*
X13974762Y-10165143D01*
X14041428Y-10298476D02*
X14041428Y-10165143D01*
X14041428Y-10098476D02*
X14031905Y-10108000D01*
X14031905Y-10108000D02*
X14041428Y-10117524D01*
X14041428Y-10117524D02*
X14050952Y-10108000D01*
X14050952Y-10108000D02*
X14041428Y-10098476D01*
X14041428Y-10098476D02*
X14041428Y-10117524D01*
X14165238Y-10298476D02*
X14146190Y-10288952D01*
X14146190Y-10288952D02*
X14136667Y-10269905D01*
X14136667Y-10269905D02*
X14136667Y-10098476D01*
X14270000Y-10298476D02*
X14250952Y-10288952D01*
X14250952Y-10288952D02*
X14241428Y-10269905D01*
X14241428Y-10269905D02*
X14241428Y-10098476D01*
X14466190Y-10298476D02*
X14466190Y-10098476D01*
X14466190Y-10098476D02*
X14532857Y-10241333D01*
X14532857Y-10241333D02*
X14599524Y-10098476D01*
X14599524Y-10098476D02*
X14599524Y-10298476D01*
X14780476Y-10298476D02*
X14780476Y-10193714D01*
X14780476Y-10193714D02*
X14770952Y-10174667D01*
X14770952Y-10174667D02*
X14751905Y-10165143D01*
X14751905Y-10165143D02*
X14713809Y-10165143D01*
X14713809Y-10165143D02*
X14694762Y-10174667D01*
X14780476Y-10288952D02*
X14761428Y-10298476D01*
X14761428Y-10298476D02*
X14713809Y-10298476D01*
X14713809Y-10298476D02*
X14694762Y-10288952D01*
X14694762Y-10288952D02*
X14685238Y-10269905D01*
X14685238Y-10269905D02*
X14685238Y-10250857D01*
X14685238Y-10250857D02*
X14694762Y-10231810D01*
X14694762Y-10231810D02*
X14713809Y-10222286D01*
X14713809Y-10222286D02*
X14761428Y-10222286D01*
X14761428Y-10222286D02*
X14780476Y-10212762D01*
X14875714Y-10165143D02*
X14875714Y-10365143D01*
X14875714Y-10174667D02*
X14894762Y-10165143D01*
X14894762Y-10165143D02*
X14932857Y-10165143D01*
X14932857Y-10165143D02*
X14951905Y-10174667D01*
X14951905Y-10174667D02*
X14961428Y-10184190D01*
X14961428Y-10184190D02*
X14970952Y-10203238D01*
X14970952Y-10203238D02*
X14970952Y-10260381D01*
X14970952Y-10260381D02*
X14961428Y-10279429D01*
X14961428Y-10279429D02*
X14951905Y-10288952D01*
X14951905Y-10288952D02*
X14932857Y-10298476D01*
X14932857Y-10298476D02*
X14894762Y-10298476D01*
X14894762Y-10298476D02*
X14875714Y-10288952D01*
X15056667Y-10279429D02*
X15066190Y-10288952D01*
X15066190Y-10288952D02*
X15056667Y-10298476D01*
X15056667Y-10298476D02*
X15047143Y-10288952D01*
X15047143Y-10288952D02*
X15056667Y-10279429D01*
X15056667Y-10279429D02*
X15056667Y-10298476D01*
X15056667Y-10174667D02*
X15066190Y-10184190D01*
X15066190Y-10184190D02*
X15056667Y-10193714D01*
X15056667Y-10193714D02*
X15047143Y-10184190D01*
X15047143Y-10184190D02*
X15056667Y-10174667D01*
X15056667Y-10174667D02*
X15056667Y-10193714D01*
D12*
X13440000Y-10630000D02*
X13470000Y-10660000D01*
X13470000Y-10630000D02*
X13440000Y-10660000D01*
D11*
X13755714Y-10518476D02*
X13774762Y-10518476D01*
X13774762Y-10518476D02*
X13793809Y-10528000D01*
X13793809Y-10528000D02*
X13803333Y-10537524D01*
X13803333Y-10537524D02*
X13812857Y-10556571D01*
X13812857Y-10556571D02*
X13822381Y-10594667D01*
X13822381Y-10594667D02*
X13822381Y-10642286D01*
X13822381Y-10642286D02*
X13812857Y-10680381D01*
X13812857Y-10680381D02*
X13803333Y-10699429D01*
X13803333Y-10699429D02*
X13793809Y-10708952D01*
X13793809Y-10708952D02*
X13774762Y-10718476D01*
X13774762Y-10718476D02*
X13755714Y-10718476D01*
X13755714Y-10718476D02*
X13736667Y-10708952D01*
X13736667Y-10708952D02*
X13727143Y-10699429D01*
X13727143Y-10699429D02*
X13717619Y-10680381D01*
X13717619Y-10680381D02*
X13708095Y-10642286D01*
X13708095Y-10642286D02*
X13708095Y-10594667D01*
X13708095Y-10594667D02*
X13717619Y-10556571D01*
X13717619Y-10556571D02*
X13727143Y-10537524D01*
X13727143Y-10537524D02*
X13736667Y-10528000D01*
X13736667Y-10528000D02*
X13755714Y-10518476D01*
X13908095Y-10699429D02*
X13917619Y-10708952D01*
X13917619Y-10708952D02*
X13908095Y-10718476D01*
X13908095Y-10718476D02*
X13898571Y-10708952D01*
X13898571Y-10708952D02*
X13908095Y-10699429D01*
X13908095Y-10699429D02*
X13908095Y-10718476D01*
X13984286Y-10518476D02*
X14108095Y-10518476D01*
X14108095Y-10518476D02*
X14041428Y-10594667D01*
X14041428Y-10594667D02*
X14070000Y-10594667D01*
X14070000Y-10594667D02*
X14089048Y-10604190D01*
X14089048Y-10604190D02*
X14098571Y-10613714D01*
X14098571Y-10613714D02*
X14108095Y-10632762D01*
X14108095Y-10632762D02*
X14108095Y-10680381D01*
X14108095Y-10680381D02*
X14098571Y-10699429D01*
X14098571Y-10699429D02*
X14089048Y-10708952D01*
X14089048Y-10708952D02*
X14070000Y-10718476D01*
X14070000Y-10718476D02*
X14012857Y-10718476D01*
X14012857Y-10718476D02*
X13993809Y-10708952D01*
X13993809Y-10708952D02*
X13984286Y-10699429D01*
X14231905Y-10518476D02*
X14250952Y-10518476D01*
X14250952Y-10518476D02*
X14270000Y-10528000D01*
X14270000Y-10528000D02*
X14279524Y-10537524D01*
X14279524Y-10537524D02*
X14289048Y-10556571D01*
X14289048Y-10556571D02*
X14298571Y-10594667D01*
X14298571Y-10594667D02*
X14298571Y-10642286D01*
X14298571Y-10642286D02*
X14289048Y-10680381D01*
X14289048Y-10680381D02*
X14279524Y-10699429D01*
X14279524Y-10699429D02*
X14270000Y-10708952D01*
X14270000Y-10708952D02*
X14250952Y-10718476D01*
X14250952Y-10718476D02*
X14231905Y-10718476D01*
X14231905Y-10718476D02*
X14212857Y-10708952D01*
X14212857Y-10708952D02*
X14203333Y-10699429D01*
X14203333Y-10699429D02*
X14193809Y-10680381D01*
X14193809Y-10680381D02*
X14184286Y-10642286D01*
X14184286Y-10642286D02*
X14184286Y-10594667D01*
X14184286Y-10594667D02*
X14193809Y-10556571D01*
X14193809Y-10556571D02*
X14203333Y-10537524D01*
X14203333Y-10537524D02*
X14212857Y-10528000D01*
X14212857Y-10528000D02*
X14231905Y-10518476D01*
X14422381Y-10518476D02*
X14441429Y-10518476D01*
X14441429Y-10518476D02*
X14460476Y-10528000D01*
X14460476Y-10528000D02*
X14470000Y-10537524D01*
X14470000Y-10537524D02*
X14479524Y-10556571D01*
X14479524Y-10556571D02*
X14489048Y-10594667D01*
X14489048Y-10594667D02*
X14489048Y-10642286D01*
X14489048Y-10642286D02*
X14479524Y-10680381D01*
X14479524Y-10680381D02*
X14470000Y-10699429D01*
X14470000Y-10699429D02*
X14460476Y-10708952D01*
X14460476Y-10708952D02*
X14441429Y-10718476D01*
X14441429Y-10718476D02*
X14422381Y-10718476D01*
X14422381Y-10718476D02*
X14403333Y-10708952D01*
X14403333Y-10708952D02*
X14393809Y-10699429D01*
X14393809Y-10699429D02*
X14384286Y-10680381D01*
X14384286Y-10680381D02*
X14374762Y-10642286D01*
X14374762Y-10642286D02*
X14374762Y-10594667D01*
X14374762Y-10594667D02*
X14384286Y-10556571D01*
X14384286Y-10556571D02*
X14393809Y-10537524D01*
X14393809Y-10537524D02*
X14403333Y-10528000D01*
X14403333Y-10528000D02*
X14422381Y-10518476D01*
X14574762Y-10718476D02*
X14574762Y-10585143D01*
X14574762Y-10604190D02*
X14584286Y-10594667D01*
X14584286Y-10594667D02*
X14603333Y-10585143D01*
X14603333Y-10585143D02*
X14631905Y-10585143D01*
X14631905Y-10585143D02*
X14650952Y-10594667D01*
X14650952Y-10594667D02*
X14660476Y-10613714D01*
X14660476Y-10613714D02*
X14660476Y-10718476D01*
X14660476Y-10613714D02*
X14670000Y-10594667D01*
X14670000Y-10594667D02*
X14689048Y-10585143D01*
X14689048Y-10585143D02*
X14717619Y-10585143D01*
X14717619Y-10585143D02*
X14736667Y-10594667D01*
X14736667Y-10594667D02*
X14746190Y-10613714D01*
X14746190Y-10613714D02*
X14746190Y-10718476D01*
X14841429Y-10718476D02*
X14841429Y-10585143D01*
X14841429Y-10604190D02*
X14850952Y-10594667D01*
X14850952Y-10594667D02*
X14870000Y-10585143D01*
X14870000Y-10585143D02*
X14898571Y-10585143D01*
X14898571Y-10585143D02*
X14917619Y-10594667D01*
X14917619Y-10594667D02*
X14927143Y-10613714D01*
X14927143Y-10613714D02*
X14927143Y-10718476D01*
X14927143Y-10613714D02*
X14936667Y-10594667D01*
X14936667Y-10594667D02*
X14955714Y-10585143D01*
X14955714Y-10585143D02*
X14984286Y-10585143D01*
X14984286Y-10585143D02*
X15003333Y-10594667D01*
X15003333Y-10594667D02*
X15012857Y-10613714D01*
X15012857Y-10613714D02*
X15012857Y-10718476D01*
X15370952Y-10508952D02*
X15199524Y-10766095D01*
X15595714Y-10518476D02*
X15614762Y-10518476D01*
X15614762Y-10518476D02*
X15633810Y-10528000D01*
X15633810Y-10528000D02*
X15643333Y-10537524D01*
X15643333Y-10537524D02*
X15652857Y-10556571D01*
X15652857Y-10556571D02*
X15662381Y-10594667D01*
X15662381Y-10594667D02*
X15662381Y-10642286D01*
X15662381Y-10642286D02*
X15652857Y-10680381D01*
X15652857Y-10680381D02*
X15643333Y-10699429D01*
X15643333Y-10699429D02*
X15633810Y-10708952D01*
X15633810Y-10708952D02*
X15614762Y-10718476D01*
X15614762Y-10718476D02*
X15595714Y-10718476D01*
X15595714Y-10718476D02*
X15576667Y-10708952D01*
X15576667Y-10708952D02*
X15567143Y-10699429D01*
X15567143Y-10699429D02*
X15557619Y-10680381D01*
X15557619Y-10680381D02*
X15548095Y-10642286D01*
X15548095Y-10642286D02*
X15548095Y-10594667D01*
X15548095Y-10594667D02*
X15557619Y-10556571D01*
X15557619Y-10556571D02*
X15567143Y-10537524D01*
X15567143Y-10537524D02*
X15576667Y-10528000D01*
X15576667Y-10528000D02*
X15595714Y-10518476D01*
X15748095Y-10699429D02*
X15757619Y-10708952D01*
X15757619Y-10708952D02*
X15748095Y-10718476D01*
X15748095Y-10718476D02*
X15738571Y-10708952D01*
X15738571Y-10708952D02*
X15748095Y-10699429D01*
X15748095Y-10699429D02*
X15748095Y-10718476D01*
X15881429Y-10518476D02*
X15900476Y-10518476D01*
X15900476Y-10518476D02*
X15919524Y-10528000D01*
X15919524Y-10528000D02*
X15929048Y-10537524D01*
X15929048Y-10537524D02*
X15938571Y-10556571D01*
X15938571Y-10556571D02*
X15948095Y-10594667D01*
X15948095Y-10594667D02*
X15948095Y-10642286D01*
X15948095Y-10642286D02*
X15938571Y-10680381D01*
X15938571Y-10680381D02*
X15929048Y-10699429D01*
X15929048Y-10699429D02*
X15919524Y-10708952D01*
X15919524Y-10708952D02*
X15900476Y-10718476D01*
X15900476Y-10718476D02*
X15881429Y-10718476D01*
X15881429Y-10718476D02*
X15862381Y-10708952D01*
X15862381Y-10708952D02*
X15852857Y-10699429D01*
X15852857Y-10699429D02*
X15843333Y-10680381D01*
X15843333Y-10680381D02*
X15833810Y-10642286D01*
X15833810Y-10642286D02*
X15833810Y-10594667D01*
X15833810Y-10594667D02*
X15843333Y-10556571D01*
X15843333Y-10556571D02*
X15852857Y-10537524D01*
X15852857Y-10537524D02*
X15862381Y-10528000D01*
X15862381Y-10528000D02*
X15881429Y-10518476D01*
X16138571Y-10718476D02*
X16024286Y-10718476D01*
X16081429Y-10718476D02*
X16081429Y-10518476D01*
X16081429Y-10518476D02*
X16062381Y-10547048D01*
X16062381Y-10547048D02*
X16043333Y-10566095D01*
X16043333Y-10566095D02*
X16024286Y-10575619D01*
X16329048Y-10718476D02*
X16214762Y-10718476D01*
X16271905Y-10718476D02*
X16271905Y-10518476D01*
X16271905Y-10518476D02*
X16252857Y-10547048D01*
X16252857Y-10547048D02*
X16233810Y-10566095D01*
X16233810Y-10566095D02*
X16214762Y-10575619D01*
X16443333Y-10604190D02*
X16424286Y-10594667D01*
X16424286Y-10594667D02*
X16414762Y-10585143D01*
X16414762Y-10585143D02*
X16405238Y-10566095D01*
X16405238Y-10566095D02*
X16405238Y-10556571D01*
X16405238Y-10556571D02*
X16414762Y-10537524D01*
X16414762Y-10537524D02*
X16424286Y-10528000D01*
X16424286Y-10528000D02*
X16443333Y-10518476D01*
X16443333Y-10518476D02*
X16481429Y-10518476D01*
X16481429Y-10518476D02*
X16500476Y-10528000D01*
X16500476Y-10528000D02*
X16510000Y-10537524D01*
X16510000Y-10537524D02*
X16519524Y-10556571D01*
X16519524Y-10556571D02*
X16519524Y-10566095D01*
X16519524Y-10566095D02*
X16510000Y-10585143D01*
X16510000Y-10585143D02*
X16500476Y-10594667D01*
X16500476Y-10594667D02*
X16481429Y-10604190D01*
X16481429Y-10604190D02*
X16443333Y-10604190D01*
X16443333Y-10604190D02*
X16424286Y-10613714D01*
X16424286Y-10613714D02*
X16414762Y-10623238D01*
X16414762Y-10623238D02*
X16405238Y-10642286D01*
X16405238Y-10642286D02*
X16405238Y-10680381D01*
X16405238Y-10680381D02*
X16414762Y-10699429D01*
X16414762Y-10699429D02*
X16424286Y-10708952D01*
X16424286Y-10708952D02*
X16443333Y-10718476D01*
X16443333Y-10718476D02*
X16481429Y-10718476D01*
X16481429Y-10718476D02*
X16500476Y-10708952D01*
X16500476Y-10708952D02*
X16510000Y-10699429D01*
X16510000Y-10699429D02*
X16519524Y-10680381D01*
X16519524Y-10680381D02*
X16519524Y-10642286D01*
X16519524Y-10642286D02*
X16510000Y-10623238D01*
X16510000Y-10623238D02*
X16500476Y-10613714D01*
X16500476Y-10613714D02*
X16481429Y-10604190D01*
X16595714Y-10518476D02*
X16595714Y-10556571D01*
X16671905Y-10518476D02*
X16671905Y-10556571D01*
X16934762Y-10794667D02*
X16925238Y-10785143D01*
X16925238Y-10785143D02*
X16906191Y-10756571D01*
X16906191Y-10756571D02*
X16896667Y-10737524D01*
X16896667Y-10737524D02*
X16887143Y-10708952D01*
X16887143Y-10708952D02*
X16877619Y-10661333D01*
X16877619Y-10661333D02*
X16877619Y-10623238D01*
X16877619Y-10623238D02*
X16887143Y-10575619D01*
X16887143Y-10575619D02*
X16896667Y-10547048D01*
X16896667Y-10547048D02*
X16906191Y-10528000D01*
X16906191Y-10528000D02*
X16925238Y-10499429D01*
X16925238Y-10499429D02*
X16934762Y-10489905D01*
X16991905Y-10518476D02*
X17125238Y-10518476D01*
X17125238Y-10518476D02*
X17039524Y-10718476D01*
X17191905Y-10537524D02*
X17201429Y-10528000D01*
X17201429Y-10528000D02*
X17220476Y-10518476D01*
X17220476Y-10518476D02*
X17268095Y-10518476D01*
X17268095Y-10518476D02*
X17287143Y-10528000D01*
X17287143Y-10528000D02*
X17296667Y-10537524D01*
X17296667Y-10537524D02*
X17306191Y-10556571D01*
X17306191Y-10556571D02*
X17306191Y-10575619D01*
X17306191Y-10575619D02*
X17296667Y-10604190D01*
X17296667Y-10604190D02*
X17182381Y-10718476D01*
X17182381Y-10718476D02*
X17306191Y-10718476D01*
X17511905Y-10718476D02*
X17511905Y-10518476D01*
X17597619Y-10718476D02*
X17597619Y-10613714D01*
X17597619Y-10613714D02*
X17588095Y-10594667D01*
X17588095Y-10594667D02*
X17569048Y-10585143D01*
X17569048Y-10585143D02*
X17540476Y-10585143D01*
X17540476Y-10585143D02*
X17521429Y-10594667D01*
X17521429Y-10594667D02*
X17511905Y-10604190D01*
X17721429Y-10718476D02*
X17702381Y-10708952D01*
X17702381Y-10708952D02*
X17692857Y-10699429D01*
X17692857Y-10699429D02*
X17683334Y-10680381D01*
X17683334Y-10680381D02*
X17683334Y-10623238D01*
X17683334Y-10623238D02*
X17692857Y-10604190D01*
X17692857Y-10604190D02*
X17702381Y-10594667D01*
X17702381Y-10594667D02*
X17721429Y-10585143D01*
X17721429Y-10585143D02*
X17750000Y-10585143D01*
X17750000Y-10585143D02*
X17769048Y-10594667D01*
X17769048Y-10594667D02*
X17778572Y-10604190D01*
X17778572Y-10604190D02*
X17788095Y-10623238D01*
X17788095Y-10623238D02*
X17788095Y-10680381D01*
X17788095Y-10680381D02*
X17778572Y-10699429D01*
X17778572Y-10699429D02*
X17769048Y-10708952D01*
X17769048Y-10708952D02*
X17750000Y-10718476D01*
X17750000Y-10718476D02*
X17721429Y-10718476D01*
X17902381Y-10718476D02*
X17883334Y-10708952D01*
X17883334Y-10708952D02*
X17873810Y-10689905D01*
X17873810Y-10689905D02*
X17873810Y-10518476D01*
X18054762Y-10708952D02*
X18035715Y-10718476D01*
X18035715Y-10718476D02*
X17997619Y-10718476D01*
X17997619Y-10718476D02*
X17978572Y-10708952D01*
X17978572Y-10708952D02*
X17969048Y-10689905D01*
X17969048Y-10689905D02*
X17969048Y-10613714D01*
X17969048Y-10613714D02*
X17978572Y-10594667D01*
X17978572Y-10594667D02*
X17997619Y-10585143D01*
X17997619Y-10585143D02*
X18035715Y-10585143D01*
X18035715Y-10585143D02*
X18054762Y-10594667D01*
X18054762Y-10594667D02*
X18064286Y-10613714D01*
X18064286Y-10613714D02*
X18064286Y-10632762D01*
X18064286Y-10632762D02*
X17969048Y-10651810D01*
X18140476Y-10708952D02*
X18159524Y-10718476D01*
X18159524Y-10718476D02*
X18197619Y-10718476D01*
X18197619Y-10718476D02*
X18216667Y-10708952D01*
X18216667Y-10708952D02*
X18226191Y-10689905D01*
X18226191Y-10689905D02*
X18226191Y-10680381D01*
X18226191Y-10680381D02*
X18216667Y-10661333D01*
X18216667Y-10661333D02*
X18197619Y-10651810D01*
X18197619Y-10651810D02*
X18169048Y-10651810D01*
X18169048Y-10651810D02*
X18150000Y-10642286D01*
X18150000Y-10642286D02*
X18140476Y-10623238D01*
X18140476Y-10623238D02*
X18140476Y-10613714D01*
X18140476Y-10613714D02*
X18150000Y-10594667D01*
X18150000Y-10594667D02*
X18169048Y-10585143D01*
X18169048Y-10585143D02*
X18197619Y-10585143D01*
X18197619Y-10585143D02*
X18216667Y-10594667D01*
X18292857Y-10794667D02*
X18302381Y-10785143D01*
X18302381Y-10785143D02*
X18321429Y-10756571D01*
X18321429Y-10756571D02*
X18330953Y-10737524D01*
X18330953Y-10737524D02*
X18340476Y-10708952D01*
X18340476Y-10708952D02*
X18350000Y-10661333D01*
X18350000Y-10661333D02*
X18350000Y-10623238D01*
X18350000Y-10623238D02*
X18340476Y-10575619D01*
X18340476Y-10575619D02*
X18330953Y-10547048D01*
X18330953Y-10547048D02*
X18321429Y-10528000D01*
X18321429Y-10528000D02*
X18302381Y-10499429D01*
X18302381Y-10499429D02*
X18292857Y-10489905D01*
D13*
X13470000Y-10909000D02*
G75*
G03*
X13470000Y-10909000I-32500J0D01*
G01*
D11*
X13755714Y-10782476D02*
X13774762Y-10782476D01*
X13774762Y-10782476D02*
X13793809Y-10792000D01*
X13793809Y-10792000D02*
X13803333Y-10801524D01*
X13803333Y-10801524D02*
X13812857Y-10820571D01*
X13812857Y-10820571D02*
X13822381Y-10858667D01*
X13822381Y-10858667D02*
X13822381Y-10906286D01*
X13822381Y-10906286D02*
X13812857Y-10944381D01*
X13812857Y-10944381D02*
X13803333Y-10963429D01*
X13803333Y-10963429D02*
X13793809Y-10972952D01*
X13793809Y-10972952D02*
X13774762Y-10982476D01*
X13774762Y-10982476D02*
X13755714Y-10982476D01*
X13755714Y-10982476D02*
X13736667Y-10972952D01*
X13736667Y-10972952D02*
X13727143Y-10963429D01*
X13727143Y-10963429D02*
X13717619Y-10944381D01*
X13717619Y-10944381D02*
X13708095Y-10906286D01*
X13708095Y-10906286D02*
X13708095Y-10858667D01*
X13708095Y-10858667D02*
X13717619Y-10820571D01*
X13717619Y-10820571D02*
X13727143Y-10801524D01*
X13727143Y-10801524D02*
X13736667Y-10792000D01*
X13736667Y-10792000D02*
X13755714Y-10782476D01*
X13908095Y-10963429D02*
X13917619Y-10972952D01*
X13917619Y-10972952D02*
X13908095Y-10982476D01*
X13908095Y-10982476D02*
X13898571Y-10972952D01*
X13898571Y-10972952D02*
X13908095Y-10963429D01*
X13908095Y-10963429D02*
X13908095Y-10982476D01*
X14089048Y-10782476D02*
X14050952Y-10782476D01*
X14050952Y-10782476D02*
X14031905Y-10792000D01*
X14031905Y-10792000D02*
X14022381Y-10801524D01*
X14022381Y-10801524D02*
X14003333Y-10830095D01*
X14003333Y-10830095D02*
X13993809Y-10868190D01*
X13993809Y-10868190D02*
X13993809Y-10944381D01*
X13993809Y-10944381D02*
X14003333Y-10963429D01*
X14003333Y-10963429D02*
X14012857Y-10972952D01*
X14012857Y-10972952D02*
X14031905Y-10982476D01*
X14031905Y-10982476D02*
X14070000Y-10982476D01*
X14070000Y-10982476D02*
X14089048Y-10972952D01*
X14089048Y-10972952D02*
X14098571Y-10963429D01*
X14098571Y-10963429D02*
X14108095Y-10944381D01*
X14108095Y-10944381D02*
X14108095Y-10896762D01*
X14108095Y-10896762D02*
X14098571Y-10877714D01*
X14098571Y-10877714D02*
X14089048Y-10868190D01*
X14089048Y-10868190D02*
X14070000Y-10858667D01*
X14070000Y-10858667D02*
X14031905Y-10858667D01*
X14031905Y-10858667D02*
X14012857Y-10868190D01*
X14012857Y-10868190D02*
X14003333Y-10877714D01*
X14003333Y-10877714D02*
X13993809Y-10896762D01*
X14289048Y-10782476D02*
X14193809Y-10782476D01*
X14193809Y-10782476D02*
X14184286Y-10877714D01*
X14184286Y-10877714D02*
X14193809Y-10868190D01*
X14193809Y-10868190D02*
X14212857Y-10858667D01*
X14212857Y-10858667D02*
X14260476Y-10858667D01*
X14260476Y-10858667D02*
X14279524Y-10868190D01*
X14279524Y-10868190D02*
X14289048Y-10877714D01*
X14289048Y-10877714D02*
X14298571Y-10896762D01*
X14298571Y-10896762D02*
X14298571Y-10944381D01*
X14298571Y-10944381D02*
X14289048Y-10963429D01*
X14289048Y-10963429D02*
X14279524Y-10972952D01*
X14279524Y-10972952D02*
X14260476Y-10982476D01*
X14260476Y-10982476D02*
X14212857Y-10982476D01*
X14212857Y-10982476D02*
X14193809Y-10972952D01*
X14193809Y-10972952D02*
X14184286Y-10963429D01*
X14422381Y-10782476D02*
X14441429Y-10782476D01*
X14441429Y-10782476D02*
X14460476Y-10792000D01*
X14460476Y-10792000D02*
X14470000Y-10801524D01*
X14470000Y-10801524D02*
X14479524Y-10820571D01*
X14479524Y-10820571D02*
X14489048Y-10858667D01*
X14489048Y-10858667D02*
X14489048Y-10906286D01*
X14489048Y-10906286D02*
X14479524Y-10944381D01*
X14479524Y-10944381D02*
X14470000Y-10963429D01*
X14470000Y-10963429D02*
X14460476Y-10972952D01*
X14460476Y-10972952D02*
X14441429Y-10982476D01*
X14441429Y-10982476D02*
X14422381Y-10982476D01*
X14422381Y-10982476D02*
X14403333Y-10972952D01*
X14403333Y-10972952D02*
X14393809Y-10963429D01*
X14393809Y-10963429D02*
X14384286Y-10944381D01*
X14384286Y-10944381D02*
X14374762Y-10906286D01*
X14374762Y-10906286D02*
X14374762Y-10858667D01*
X14374762Y-10858667D02*
X14384286Y-10820571D01*
X14384286Y-10820571D02*
X14393809Y-10801524D01*
X14393809Y-10801524D02*
X14403333Y-10792000D01*
X14403333Y-10792000D02*
X14422381Y-10782476D01*
X14574762Y-10982476D02*
X14574762Y-10849143D01*
X14574762Y-10868190D02*
X14584286Y-10858667D01*
X14584286Y-10858667D02*
X14603333Y-10849143D01*
X14603333Y-10849143D02*
X14631905Y-10849143D01*
X14631905Y-10849143D02*
X14650952Y-10858667D01*
X14650952Y-10858667D02*
X14660476Y-10877714D01*
X14660476Y-10877714D02*
X14660476Y-10982476D01*
X14660476Y-10877714D02*
X14670000Y-10858667D01*
X14670000Y-10858667D02*
X14689048Y-10849143D01*
X14689048Y-10849143D02*
X14717619Y-10849143D01*
X14717619Y-10849143D02*
X14736667Y-10858667D01*
X14736667Y-10858667D02*
X14746190Y-10877714D01*
X14746190Y-10877714D02*
X14746190Y-10982476D01*
X14841429Y-10982476D02*
X14841429Y-10849143D01*
X14841429Y-10868190D02*
X14850952Y-10858667D01*
X14850952Y-10858667D02*
X14870000Y-10849143D01*
X14870000Y-10849143D02*
X14898571Y-10849143D01*
X14898571Y-10849143D02*
X14917619Y-10858667D01*
X14917619Y-10858667D02*
X14927143Y-10877714D01*
X14927143Y-10877714D02*
X14927143Y-10982476D01*
X14927143Y-10877714D02*
X14936667Y-10858667D01*
X14936667Y-10858667D02*
X14955714Y-10849143D01*
X14955714Y-10849143D02*
X14984286Y-10849143D01*
X14984286Y-10849143D02*
X15003333Y-10858667D01*
X15003333Y-10858667D02*
X15012857Y-10877714D01*
X15012857Y-10877714D02*
X15012857Y-10982476D01*
X15370952Y-10772952D02*
X15199524Y-11030095D01*
X15595714Y-10782476D02*
X15614762Y-10782476D01*
X15614762Y-10782476D02*
X15633810Y-10792000D01*
X15633810Y-10792000D02*
X15643333Y-10801524D01*
X15643333Y-10801524D02*
X15652857Y-10820571D01*
X15652857Y-10820571D02*
X15662381Y-10858667D01*
X15662381Y-10858667D02*
X15662381Y-10906286D01*
X15662381Y-10906286D02*
X15652857Y-10944381D01*
X15652857Y-10944381D02*
X15643333Y-10963429D01*
X15643333Y-10963429D02*
X15633810Y-10972952D01*
X15633810Y-10972952D02*
X15614762Y-10982476D01*
X15614762Y-10982476D02*
X15595714Y-10982476D01*
X15595714Y-10982476D02*
X15576667Y-10972952D01*
X15576667Y-10972952D02*
X15567143Y-10963429D01*
X15567143Y-10963429D02*
X15557619Y-10944381D01*
X15557619Y-10944381D02*
X15548095Y-10906286D01*
X15548095Y-10906286D02*
X15548095Y-10858667D01*
X15548095Y-10858667D02*
X15557619Y-10820571D01*
X15557619Y-10820571D02*
X15567143Y-10801524D01*
X15567143Y-10801524D02*
X15576667Y-10792000D01*
X15576667Y-10792000D02*
X15595714Y-10782476D01*
X15748095Y-10963429D02*
X15757619Y-10972952D01*
X15757619Y-10972952D02*
X15748095Y-10982476D01*
X15748095Y-10982476D02*
X15738571Y-10972952D01*
X15738571Y-10972952D02*
X15748095Y-10963429D01*
X15748095Y-10963429D02*
X15748095Y-10982476D01*
X15881429Y-10782476D02*
X15900476Y-10782476D01*
X15900476Y-10782476D02*
X15919524Y-10792000D01*
X15919524Y-10792000D02*
X15929048Y-10801524D01*
X15929048Y-10801524D02*
X15938571Y-10820571D01*
X15938571Y-10820571D02*
X15948095Y-10858667D01*
X15948095Y-10858667D02*
X15948095Y-10906286D01*
X15948095Y-10906286D02*
X15938571Y-10944381D01*
X15938571Y-10944381D02*
X15929048Y-10963429D01*
X15929048Y-10963429D02*
X15919524Y-10972952D01*
X15919524Y-10972952D02*
X15900476Y-10982476D01*
X15900476Y-10982476D02*
X15881429Y-10982476D01*
X15881429Y-10982476D02*
X15862381Y-10972952D01*
X15862381Y-10972952D02*
X15852857Y-10963429D01*
X15852857Y-10963429D02*
X15843333Y-10944381D01*
X15843333Y-10944381D02*
X15833810Y-10906286D01*
X15833810Y-10906286D02*
X15833810Y-10858667D01*
X15833810Y-10858667D02*
X15843333Y-10820571D01*
X15843333Y-10820571D02*
X15852857Y-10801524D01*
X15852857Y-10801524D02*
X15862381Y-10792000D01*
X15862381Y-10792000D02*
X15881429Y-10782476D01*
X16024286Y-10801524D02*
X16033810Y-10792000D01*
X16033810Y-10792000D02*
X16052857Y-10782476D01*
X16052857Y-10782476D02*
X16100476Y-10782476D01*
X16100476Y-10782476D02*
X16119524Y-10792000D01*
X16119524Y-10792000D02*
X16129048Y-10801524D01*
X16129048Y-10801524D02*
X16138571Y-10820571D01*
X16138571Y-10820571D02*
X16138571Y-10839619D01*
X16138571Y-10839619D02*
X16129048Y-10868190D01*
X16129048Y-10868190D02*
X16014762Y-10982476D01*
X16014762Y-10982476D02*
X16138571Y-10982476D01*
X16319524Y-10782476D02*
X16224286Y-10782476D01*
X16224286Y-10782476D02*
X16214762Y-10877714D01*
X16214762Y-10877714D02*
X16224286Y-10868190D01*
X16224286Y-10868190D02*
X16243333Y-10858667D01*
X16243333Y-10858667D02*
X16290952Y-10858667D01*
X16290952Y-10858667D02*
X16310000Y-10868190D01*
X16310000Y-10868190D02*
X16319524Y-10877714D01*
X16319524Y-10877714D02*
X16329048Y-10896762D01*
X16329048Y-10896762D02*
X16329048Y-10944381D01*
X16329048Y-10944381D02*
X16319524Y-10963429D01*
X16319524Y-10963429D02*
X16310000Y-10972952D01*
X16310000Y-10972952D02*
X16290952Y-10982476D01*
X16290952Y-10982476D02*
X16243333Y-10982476D01*
X16243333Y-10982476D02*
X16224286Y-10972952D01*
X16224286Y-10972952D02*
X16214762Y-10963429D01*
X16500476Y-10782476D02*
X16462381Y-10782476D01*
X16462381Y-10782476D02*
X16443333Y-10792000D01*
X16443333Y-10792000D02*
X16433810Y-10801524D01*
X16433810Y-10801524D02*
X16414762Y-10830095D01*
X16414762Y-10830095D02*
X16405238Y-10868190D01*
X16405238Y-10868190D02*
X16405238Y-10944381D01*
X16405238Y-10944381D02*
X16414762Y-10963429D01*
X16414762Y-10963429D02*
X16424286Y-10972952D01*
X16424286Y-10972952D02*
X16443333Y-10982476D01*
X16443333Y-10982476D02*
X16481429Y-10982476D01*
X16481429Y-10982476D02*
X16500476Y-10972952D01*
X16500476Y-10972952D02*
X16510000Y-10963429D01*
X16510000Y-10963429D02*
X16519524Y-10944381D01*
X16519524Y-10944381D02*
X16519524Y-10896762D01*
X16519524Y-10896762D02*
X16510000Y-10877714D01*
X16510000Y-10877714D02*
X16500476Y-10868190D01*
X16500476Y-10868190D02*
X16481429Y-10858667D01*
X16481429Y-10858667D02*
X16443333Y-10858667D01*
X16443333Y-10858667D02*
X16424286Y-10868190D01*
X16424286Y-10868190D02*
X16414762Y-10877714D01*
X16414762Y-10877714D02*
X16405238Y-10896762D01*
X16595714Y-10782476D02*
X16595714Y-10820571D01*
X16671905Y-10782476D02*
X16671905Y-10820571D01*
X16934762Y-11058667D02*
X16925238Y-11049143D01*
X16925238Y-11049143D02*
X16906191Y-11020571D01*
X16906191Y-11020571D02*
X16896667Y-11001524D01*
X16896667Y-11001524D02*
X16887143Y-10972952D01*
X16887143Y-10972952D02*
X16877619Y-10925333D01*
X16877619Y-10925333D02*
X16877619Y-10887238D01*
X16877619Y-10887238D02*
X16887143Y-10839619D01*
X16887143Y-10839619D02*
X16896667Y-10811048D01*
X16896667Y-10811048D02*
X16906191Y-10792000D01*
X16906191Y-10792000D02*
X16925238Y-10763429D01*
X16925238Y-10763429D02*
X16934762Y-10753905D01*
X17001429Y-10801524D02*
X17010953Y-10792000D01*
X17010953Y-10792000D02*
X17030000Y-10782476D01*
X17030000Y-10782476D02*
X17077619Y-10782476D01*
X17077619Y-10782476D02*
X17096667Y-10792000D01*
X17096667Y-10792000D02*
X17106191Y-10801524D01*
X17106191Y-10801524D02*
X17115714Y-10820571D01*
X17115714Y-10820571D02*
X17115714Y-10839619D01*
X17115714Y-10839619D02*
X17106191Y-10868190D01*
X17106191Y-10868190D02*
X16991905Y-10982476D01*
X16991905Y-10982476D02*
X17115714Y-10982476D01*
X17321429Y-10982476D02*
X17321429Y-10782476D01*
X17407143Y-10982476D02*
X17407143Y-10877714D01*
X17407143Y-10877714D02*
X17397619Y-10858667D01*
X17397619Y-10858667D02*
X17378572Y-10849143D01*
X17378572Y-10849143D02*
X17350000Y-10849143D01*
X17350000Y-10849143D02*
X17330953Y-10858667D01*
X17330953Y-10858667D02*
X17321429Y-10868190D01*
X17530953Y-10982476D02*
X17511905Y-10972952D01*
X17511905Y-10972952D02*
X17502381Y-10963429D01*
X17502381Y-10963429D02*
X17492857Y-10944381D01*
X17492857Y-10944381D02*
X17492857Y-10887238D01*
X17492857Y-10887238D02*
X17502381Y-10868190D01*
X17502381Y-10868190D02*
X17511905Y-10858667D01*
X17511905Y-10858667D02*
X17530953Y-10849143D01*
X17530953Y-10849143D02*
X17559524Y-10849143D01*
X17559524Y-10849143D02*
X17578572Y-10858667D01*
X17578572Y-10858667D02*
X17588095Y-10868190D01*
X17588095Y-10868190D02*
X17597619Y-10887238D01*
X17597619Y-10887238D02*
X17597619Y-10944381D01*
X17597619Y-10944381D02*
X17588095Y-10963429D01*
X17588095Y-10963429D02*
X17578572Y-10972952D01*
X17578572Y-10972952D02*
X17559524Y-10982476D01*
X17559524Y-10982476D02*
X17530953Y-10982476D01*
X17711905Y-10982476D02*
X17692857Y-10972952D01*
X17692857Y-10972952D02*
X17683334Y-10953905D01*
X17683334Y-10953905D02*
X17683334Y-10782476D01*
X17864286Y-10972952D02*
X17845238Y-10982476D01*
X17845238Y-10982476D02*
X17807143Y-10982476D01*
X17807143Y-10982476D02*
X17788095Y-10972952D01*
X17788095Y-10972952D02*
X17778572Y-10953905D01*
X17778572Y-10953905D02*
X17778572Y-10877714D01*
X17778572Y-10877714D02*
X17788095Y-10858667D01*
X17788095Y-10858667D02*
X17807143Y-10849143D01*
X17807143Y-10849143D02*
X17845238Y-10849143D01*
X17845238Y-10849143D02*
X17864286Y-10858667D01*
X17864286Y-10858667D02*
X17873810Y-10877714D01*
X17873810Y-10877714D02*
X17873810Y-10896762D01*
X17873810Y-10896762D02*
X17778572Y-10915810D01*
X17950000Y-10972952D02*
X17969048Y-10982476D01*
X17969048Y-10982476D02*
X18007143Y-10982476D01*
X18007143Y-10982476D02*
X18026191Y-10972952D01*
X18026191Y-10972952D02*
X18035715Y-10953905D01*
X18035715Y-10953905D02*
X18035715Y-10944381D01*
X18035715Y-10944381D02*
X18026191Y-10925333D01*
X18026191Y-10925333D02*
X18007143Y-10915810D01*
X18007143Y-10915810D02*
X17978572Y-10915810D01*
X17978572Y-10915810D02*
X17959524Y-10906286D01*
X17959524Y-10906286D02*
X17950000Y-10887238D01*
X17950000Y-10887238D02*
X17950000Y-10877714D01*
X17950000Y-10877714D02*
X17959524Y-10858667D01*
X17959524Y-10858667D02*
X17978572Y-10849143D01*
X17978572Y-10849143D02*
X18007143Y-10849143D01*
X18007143Y-10849143D02*
X18026191Y-10858667D01*
X18102381Y-11058667D02*
X18111905Y-11049143D01*
X18111905Y-11049143D02*
X18130953Y-11020571D01*
X18130953Y-11020571D02*
X18140476Y-11001524D01*
X18140476Y-11001524D02*
X18150000Y-10972952D01*
X18150000Y-10972952D02*
X18159524Y-10925333D01*
X18159524Y-10925333D02*
X18159524Y-10887238D01*
X18159524Y-10887238D02*
X18150000Y-10839619D01*
X18150000Y-10839619D02*
X18140476Y-10811048D01*
X18140476Y-10811048D02*
X18130953Y-10792000D01*
X18130953Y-10792000D02*
X18111905Y-10763429D01*
X18111905Y-10763429D02*
X18102381Y-10753905D01*
M02*
