M48
; DRILL file {KiCad (7.0.0)} date Mon Feb 27 05:24:16 2023
; FORMAT={-:-/ absolute / inch / decimal}
; #@! TF.CreationDate,2023-02-27T05:24:16-06:00
; #@! TF.GenerationSoftware,Kicad,Pcbnew,(7.0.0)
; #@! TF.FileFunction,Plated,1,4,PTH
FMAT,2
INCH
; #@! TA.AperFunction,Plated,PTH,ViaDrill
T1C0.0118
; #@! TA.AperFunction,Plated,PTH,ComponentDrill
T2C0.0256
%
G90
G05
T1
X5.3406Y-3.0492
X5.3406Y-3.189
X5.3406Y-3.3858
X5.3425Y-2.8366
X5.3701Y-3.8701
X5.3858Y-3.7165
X5.3858Y-3.7559
X5.3898Y-3.5906
X5.3917Y-3.376
X5.3937Y-3.8346
X5.3957Y-3.7933
X5.4035Y-3.5531
X5.4055Y-3.622
X5.4272Y-3.3012
X5.4291Y-3.376
X5.4311Y-2.9744
X5.4488Y-3.8425
X5.4528Y-3.2717
X5.4528Y-3.4646
X5.4528Y-3.498
X5.4567Y-2.9252
X5.4665Y-3.7954
X5.4885Y-3.4921
X5.496Y-3.3858
X5.4961Y-3.0492
X5.498Y-3.8504
X5.5059Y-3.1201
X5.5669Y-3.8031
X5.5699Y-3.8386
X5.5728Y-3.5158
X5.5807Y-3.7264
X5.5912Y-3.3648
X5.6063Y-3.0906
X5.6102Y-2.878
X5.622Y-3.1181
X5.6339Y-3.3504
X5.6378Y-3.3858
X5.6496Y-2.8287
X5.6555Y-3.1575
X5.6634Y-3.6634
X5.6654Y-3.1929
X5.6693Y-3.8543
X5.6752Y-3.0512
X5.6752Y-3.5827
X5.6772Y-3.6181
X5.6791Y-3.122
X5.689Y-2.9646
X5.689Y-3.0039
X5.6909Y-2.8386
X5.6929Y-3.0938
X5.6969Y-2.9173
X5.6969Y-3.3799
X5.7008Y-3.1496
X5.7146Y-3.2146
X5.7736Y-3.5591
X5.7743Y-3.4264
X5.775Y-3.5231
X5.7756Y-3.6024
X5.7756Y-3.7815
X5.7854Y-3.3268
X5.79Y-3.3597
X5.7972Y-3.4528
X5.8051Y-3.2736
X5.813Y-3.0118
X5.8189Y-3.0472
X5.8287Y-3.2441
X5.8366Y-2.9409
X5.8701Y-3.2559
X5.8819Y-3.3778
X5.8957Y-3.1693
X5.9429Y-2.8622
X5.9429Y-3.1417
T2
X5.8003Y-2.8902
X5.8003Y-3.1177
T0
M30
