%TF.GenerationSoftware,KiCad,Pcbnew,(7.0.0)*%
%TF.CreationDate,2023-02-27T05:24:14-06:00*%
%TF.ProjectId,esp32-c3-vesc-express-gh_connectors,65737033-322d-4633-932d-766573632d65,rev?*%
%TF.SameCoordinates,Original*%
%TF.FileFunction,Legend,Top*%
%TF.FilePolarity,Positive*%
%FSLAX46Y46*%
G04 Gerber Fmt 4.6, Leading zero omitted, Abs format (unit mm)*
G04 Created by KiCad (PCBNEW (7.0.0)) date 2023-02-27 05:24:14*
%MOMM*%
%LPD*%
G01*
G04 APERTURE LIST*
%ADD10C,0.100000*%
%ADD11C,0.150000*%
%ADD12C,0.300000*%
%ADD13C,0.400000*%
%ADD14C,0.075000*%
%ADD15C,0.120000*%
%ADD16C,0.350000*%
%ADD17C,0.200000*%
%ADD18C,0.050000*%
G04 APERTURE END LIST*
D10*
D11*
X177002200Y-166007200D02*
X285002200Y-166007200D01*
X285002200Y-198007200D01*
X177002200Y-198007200D01*
X177002200Y-166007200D01*
D10*
D11*
X10000000Y-10000000D02*
X287002200Y-10000000D01*
X287002200Y-200007200D01*
X10000000Y-200007200D01*
X10000000Y-10000000D01*
D10*
D11*
X12000000Y-12000000D02*
X285002200Y-12000000D01*
X285002200Y-198007200D01*
X12000000Y-198007200D01*
X12000000Y-12000000D01*
D10*
D11*
X60000000Y-12000000D02*
X60000000Y-10000000D01*
D10*
D11*
X110000000Y-12000000D02*
X110000000Y-10000000D01*
D10*
D11*
X160000000Y-12000000D02*
X160000000Y-10000000D01*
D10*
D11*
X210000000Y-12000000D02*
X210000000Y-10000000D01*
D10*
D11*
X260000000Y-12000000D02*
X260000000Y-10000000D01*
D10*
D11*
X35990476Y-11477595D02*
X35247619Y-11477595D01*
X35619047Y-11477595D02*
X35619047Y-10177595D01*
X35619047Y-10177595D02*
X35495238Y-10363309D01*
X35495238Y-10363309D02*
X35371428Y-10487119D01*
X35371428Y-10487119D02*
X35247619Y-10549023D01*
D10*
D11*
X85247619Y-10301404D02*
X85309523Y-10239500D01*
X85309523Y-10239500D02*
X85433333Y-10177595D01*
X85433333Y-10177595D02*
X85742857Y-10177595D01*
X85742857Y-10177595D02*
X85866666Y-10239500D01*
X85866666Y-10239500D02*
X85928571Y-10301404D01*
X85928571Y-10301404D02*
X85990476Y-10425214D01*
X85990476Y-10425214D02*
X85990476Y-10549023D01*
X85990476Y-10549023D02*
X85928571Y-10734738D01*
X85928571Y-10734738D02*
X85185714Y-11477595D01*
X85185714Y-11477595D02*
X85990476Y-11477595D01*
D10*
D11*
X135185714Y-10177595D02*
X135990476Y-10177595D01*
X135990476Y-10177595D02*
X135557142Y-10672833D01*
X135557142Y-10672833D02*
X135742857Y-10672833D01*
X135742857Y-10672833D02*
X135866666Y-10734738D01*
X135866666Y-10734738D02*
X135928571Y-10796642D01*
X135928571Y-10796642D02*
X135990476Y-10920452D01*
X135990476Y-10920452D02*
X135990476Y-11229976D01*
X135990476Y-11229976D02*
X135928571Y-11353785D01*
X135928571Y-11353785D02*
X135866666Y-11415690D01*
X135866666Y-11415690D02*
X135742857Y-11477595D01*
X135742857Y-11477595D02*
X135371428Y-11477595D01*
X135371428Y-11477595D02*
X135247619Y-11415690D01*
X135247619Y-11415690D02*
X135185714Y-11353785D01*
D10*
D11*
X185866666Y-10610928D02*
X185866666Y-11477595D01*
X185557142Y-10115690D02*
X185247619Y-11044261D01*
X185247619Y-11044261D02*
X186052380Y-11044261D01*
D10*
D11*
X235928571Y-10177595D02*
X235309523Y-10177595D01*
X235309523Y-10177595D02*
X235247619Y-10796642D01*
X235247619Y-10796642D02*
X235309523Y-10734738D01*
X235309523Y-10734738D02*
X235433333Y-10672833D01*
X235433333Y-10672833D02*
X235742857Y-10672833D01*
X235742857Y-10672833D02*
X235866666Y-10734738D01*
X235866666Y-10734738D02*
X235928571Y-10796642D01*
X235928571Y-10796642D02*
X235990476Y-10920452D01*
X235990476Y-10920452D02*
X235990476Y-11229976D01*
X235990476Y-11229976D02*
X235928571Y-11353785D01*
X235928571Y-11353785D02*
X235866666Y-11415690D01*
X235866666Y-11415690D02*
X235742857Y-11477595D01*
X235742857Y-11477595D02*
X235433333Y-11477595D01*
X235433333Y-11477595D02*
X235309523Y-11415690D01*
X235309523Y-11415690D02*
X235247619Y-11353785D01*
D10*
D11*
X285866666Y-10177595D02*
X285619047Y-10177595D01*
X285619047Y-10177595D02*
X285495238Y-10239500D01*
X285495238Y-10239500D02*
X285433333Y-10301404D01*
X285433333Y-10301404D02*
X285309523Y-10487119D01*
X285309523Y-10487119D02*
X285247619Y-10734738D01*
X285247619Y-10734738D02*
X285247619Y-11229976D01*
X285247619Y-11229976D02*
X285309523Y-11353785D01*
X285309523Y-11353785D02*
X285371428Y-11415690D01*
X285371428Y-11415690D02*
X285495238Y-11477595D01*
X285495238Y-11477595D02*
X285742857Y-11477595D01*
X285742857Y-11477595D02*
X285866666Y-11415690D01*
X285866666Y-11415690D02*
X285928571Y-11353785D01*
X285928571Y-11353785D02*
X285990476Y-11229976D01*
X285990476Y-11229976D02*
X285990476Y-10920452D01*
X285990476Y-10920452D02*
X285928571Y-10796642D01*
X285928571Y-10796642D02*
X285866666Y-10734738D01*
X285866666Y-10734738D02*
X285742857Y-10672833D01*
X285742857Y-10672833D02*
X285495238Y-10672833D01*
X285495238Y-10672833D02*
X285371428Y-10734738D01*
X285371428Y-10734738D02*
X285309523Y-10796642D01*
X285309523Y-10796642D02*
X285247619Y-10920452D01*
D10*
D11*
X60000000Y-198007200D02*
X60000000Y-200007200D01*
D10*
D11*
X110000000Y-198007200D02*
X110000000Y-200007200D01*
D10*
D11*
X160000000Y-198007200D02*
X160000000Y-200007200D01*
D10*
D11*
X210000000Y-198007200D02*
X210000000Y-200007200D01*
D10*
D11*
X260000000Y-198007200D02*
X260000000Y-200007200D01*
D10*
D11*
X35990476Y-199484795D02*
X35247619Y-199484795D01*
X35619047Y-199484795D02*
X35619047Y-198184795D01*
X35619047Y-198184795D02*
X35495238Y-198370509D01*
X35495238Y-198370509D02*
X35371428Y-198494319D01*
X35371428Y-198494319D02*
X35247619Y-198556223D01*
D10*
D11*
X85247619Y-198308604D02*
X85309523Y-198246700D01*
X85309523Y-198246700D02*
X85433333Y-198184795D01*
X85433333Y-198184795D02*
X85742857Y-198184795D01*
X85742857Y-198184795D02*
X85866666Y-198246700D01*
X85866666Y-198246700D02*
X85928571Y-198308604D01*
X85928571Y-198308604D02*
X85990476Y-198432414D01*
X85990476Y-198432414D02*
X85990476Y-198556223D01*
X85990476Y-198556223D02*
X85928571Y-198741938D01*
X85928571Y-198741938D02*
X85185714Y-199484795D01*
X85185714Y-199484795D02*
X85990476Y-199484795D01*
D10*
D11*
X135185714Y-198184795D02*
X135990476Y-198184795D01*
X135990476Y-198184795D02*
X135557142Y-198680033D01*
X135557142Y-198680033D02*
X135742857Y-198680033D01*
X135742857Y-198680033D02*
X135866666Y-198741938D01*
X135866666Y-198741938D02*
X135928571Y-198803842D01*
X135928571Y-198803842D02*
X135990476Y-198927652D01*
X135990476Y-198927652D02*
X135990476Y-199237176D01*
X135990476Y-199237176D02*
X135928571Y-199360985D01*
X135928571Y-199360985D02*
X135866666Y-199422890D01*
X135866666Y-199422890D02*
X135742857Y-199484795D01*
X135742857Y-199484795D02*
X135371428Y-199484795D01*
X135371428Y-199484795D02*
X135247619Y-199422890D01*
X135247619Y-199422890D02*
X135185714Y-199360985D01*
D10*
D11*
X185866666Y-198618128D02*
X185866666Y-199484795D01*
X185557142Y-198122890D02*
X185247619Y-199051461D01*
X185247619Y-199051461D02*
X186052380Y-199051461D01*
D10*
D11*
X235928571Y-198184795D02*
X235309523Y-198184795D01*
X235309523Y-198184795D02*
X235247619Y-198803842D01*
X235247619Y-198803842D02*
X235309523Y-198741938D01*
X235309523Y-198741938D02*
X235433333Y-198680033D01*
X235433333Y-198680033D02*
X235742857Y-198680033D01*
X235742857Y-198680033D02*
X235866666Y-198741938D01*
X235866666Y-198741938D02*
X235928571Y-198803842D01*
X235928571Y-198803842D02*
X235990476Y-198927652D01*
X235990476Y-198927652D02*
X235990476Y-199237176D01*
X235990476Y-199237176D02*
X235928571Y-199360985D01*
X235928571Y-199360985D02*
X235866666Y-199422890D01*
X235866666Y-199422890D02*
X235742857Y-199484795D01*
X235742857Y-199484795D02*
X235433333Y-199484795D01*
X235433333Y-199484795D02*
X235309523Y-199422890D01*
X235309523Y-199422890D02*
X235247619Y-199360985D01*
D10*
D11*
X285866666Y-198184795D02*
X285619047Y-198184795D01*
X285619047Y-198184795D02*
X285495238Y-198246700D01*
X285495238Y-198246700D02*
X285433333Y-198308604D01*
X285433333Y-198308604D02*
X285309523Y-198494319D01*
X285309523Y-198494319D02*
X285247619Y-198741938D01*
X285247619Y-198741938D02*
X285247619Y-199237176D01*
X285247619Y-199237176D02*
X285309523Y-199360985D01*
X285309523Y-199360985D02*
X285371428Y-199422890D01*
X285371428Y-199422890D02*
X285495238Y-199484795D01*
X285495238Y-199484795D02*
X285742857Y-199484795D01*
X285742857Y-199484795D02*
X285866666Y-199422890D01*
X285866666Y-199422890D02*
X285928571Y-199360985D01*
X285928571Y-199360985D02*
X285990476Y-199237176D01*
X285990476Y-199237176D02*
X285990476Y-198927652D01*
X285990476Y-198927652D02*
X285928571Y-198803842D01*
X285928571Y-198803842D02*
X285866666Y-198741938D01*
X285866666Y-198741938D02*
X285742857Y-198680033D01*
X285742857Y-198680033D02*
X285495238Y-198680033D01*
X285495238Y-198680033D02*
X285371428Y-198741938D01*
X285371428Y-198741938D02*
X285309523Y-198803842D01*
X285309523Y-198803842D02*
X285247619Y-198927652D01*
D10*
D11*
X10000000Y-60000000D02*
X12000000Y-60000000D01*
D10*
D11*
X10000000Y-110000000D02*
X12000000Y-110000000D01*
D10*
D11*
X10000000Y-160000000D02*
X12000000Y-160000000D01*
D10*
D11*
X10690476Y-35106166D02*
X11309523Y-35106166D01*
X10566666Y-35477595D02*
X10999999Y-34177595D01*
X10999999Y-34177595D02*
X11433333Y-35477595D01*
D10*
D11*
X11092857Y-84796642D02*
X11278571Y-84858547D01*
X11278571Y-84858547D02*
X11340476Y-84920452D01*
X11340476Y-84920452D02*
X11402380Y-85044261D01*
X11402380Y-85044261D02*
X11402380Y-85229976D01*
X11402380Y-85229976D02*
X11340476Y-85353785D01*
X11340476Y-85353785D02*
X11278571Y-85415690D01*
X11278571Y-85415690D02*
X11154761Y-85477595D01*
X11154761Y-85477595D02*
X10659523Y-85477595D01*
X10659523Y-85477595D02*
X10659523Y-84177595D01*
X10659523Y-84177595D02*
X11092857Y-84177595D01*
X11092857Y-84177595D02*
X11216666Y-84239500D01*
X11216666Y-84239500D02*
X11278571Y-84301404D01*
X11278571Y-84301404D02*
X11340476Y-84425214D01*
X11340476Y-84425214D02*
X11340476Y-84549023D01*
X11340476Y-84549023D02*
X11278571Y-84672833D01*
X11278571Y-84672833D02*
X11216666Y-84734738D01*
X11216666Y-84734738D02*
X11092857Y-84796642D01*
X11092857Y-84796642D02*
X10659523Y-84796642D01*
D10*
D11*
X11402380Y-135353785D02*
X11340476Y-135415690D01*
X11340476Y-135415690D02*
X11154761Y-135477595D01*
X11154761Y-135477595D02*
X11030952Y-135477595D01*
X11030952Y-135477595D02*
X10845238Y-135415690D01*
X10845238Y-135415690D02*
X10721428Y-135291880D01*
X10721428Y-135291880D02*
X10659523Y-135168071D01*
X10659523Y-135168071D02*
X10597619Y-134920452D01*
X10597619Y-134920452D02*
X10597619Y-134734738D01*
X10597619Y-134734738D02*
X10659523Y-134487119D01*
X10659523Y-134487119D02*
X10721428Y-134363309D01*
X10721428Y-134363309D02*
X10845238Y-134239500D01*
X10845238Y-134239500D02*
X11030952Y-134177595D01*
X11030952Y-134177595D02*
X11154761Y-134177595D01*
X11154761Y-134177595D02*
X11340476Y-134239500D01*
X11340476Y-134239500D02*
X11402380Y-134301404D01*
D10*
D11*
X10659523Y-185477595D02*
X10659523Y-184177595D01*
X10659523Y-184177595D02*
X10969047Y-184177595D01*
X10969047Y-184177595D02*
X11154761Y-184239500D01*
X11154761Y-184239500D02*
X11278571Y-184363309D01*
X11278571Y-184363309D02*
X11340476Y-184487119D01*
X11340476Y-184487119D02*
X11402380Y-184734738D01*
X11402380Y-184734738D02*
X11402380Y-184920452D01*
X11402380Y-184920452D02*
X11340476Y-185168071D01*
X11340476Y-185168071D02*
X11278571Y-185291880D01*
X11278571Y-185291880D02*
X11154761Y-185415690D01*
X11154761Y-185415690D02*
X10969047Y-185477595D01*
X10969047Y-185477595D02*
X10659523Y-185477595D01*
D10*
D11*
X287002200Y-60000000D02*
X285002200Y-60000000D01*
D10*
D11*
X287002200Y-110000000D02*
X285002200Y-110000000D01*
D10*
D11*
X287002200Y-160000000D02*
X285002200Y-160000000D01*
D10*
D11*
X285692676Y-35106166D02*
X286311723Y-35106166D01*
X285568866Y-35477595D02*
X286002199Y-34177595D01*
X286002199Y-34177595D02*
X286435533Y-35477595D01*
D10*
D11*
X286095057Y-84796642D02*
X286280771Y-84858547D01*
X286280771Y-84858547D02*
X286342676Y-84920452D01*
X286342676Y-84920452D02*
X286404580Y-85044261D01*
X286404580Y-85044261D02*
X286404580Y-85229976D01*
X286404580Y-85229976D02*
X286342676Y-85353785D01*
X286342676Y-85353785D02*
X286280771Y-85415690D01*
X286280771Y-85415690D02*
X286156961Y-85477595D01*
X286156961Y-85477595D02*
X285661723Y-85477595D01*
X285661723Y-85477595D02*
X285661723Y-84177595D01*
X285661723Y-84177595D02*
X286095057Y-84177595D01*
X286095057Y-84177595D02*
X286218866Y-84239500D01*
X286218866Y-84239500D02*
X286280771Y-84301404D01*
X286280771Y-84301404D02*
X286342676Y-84425214D01*
X286342676Y-84425214D02*
X286342676Y-84549023D01*
X286342676Y-84549023D02*
X286280771Y-84672833D01*
X286280771Y-84672833D02*
X286218866Y-84734738D01*
X286218866Y-84734738D02*
X286095057Y-84796642D01*
X286095057Y-84796642D02*
X285661723Y-84796642D01*
D10*
D11*
X286404580Y-135353785D02*
X286342676Y-135415690D01*
X286342676Y-135415690D02*
X286156961Y-135477595D01*
X286156961Y-135477595D02*
X286033152Y-135477595D01*
X286033152Y-135477595D02*
X285847438Y-135415690D01*
X285847438Y-135415690D02*
X285723628Y-135291880D01*
X285723628Y-135291880D02*
X285661723Y-135168071D01*
X285661723Y-135168071D02*
X285599819Y-134920452D01*
X285599819Y-134920452D02*
X285599819Y-134734738D01*
X285599819Y-134734738D02*
X285661723Y-134487119D01*
X285661723Y-134487119D02*
X285723628Y-134363309D01*
X285723628Y-134363309D02*
X285847438Y-134239500D01*
X285847438Y-134239500D02*
X286033152Y-134177595D01*
X286033152Y-134177595D02*
X286156961Y-134177595D01*
X286156961Y-134177595D02*
X286342676Y-134239500D01*
X286342676Y-134239500D02*
X286404580Y-134301404D01*
D10*
D11*
X285661723Y-185477595D02*
X285661723Y-184177595D01*
X285661723Y-184177595D02*
X285971247Y-184177595D01*
X285971247Y-184177595D02*
X286156961Y-184239500D01*
X286156961Y-184239500D02*
X286280771Y-184363309D01*
X286280771Y-184363309D02*
X286342676Y-184487119D01*
X286342676Y-184487119D02*
X286404580Y-184734738D01*
X286404580Y-184734738D02*
X286404580Y-184920452D01*
X286404580Y-184920452D02*
X286342676Y-185168071D01*
X286342676Y-185168071D02*
X286280771Y-185291880D01*
X286280771Y-185291880D02*
X286156961Y-185415690D01*
X286156961Y-185415690D02*
X285971247Y-185477595D01*
X285971247Y-185477595D02*
X285661723Y-185477595D01*
D10*
D11*
X200359342Y-193658271D02*
X200359342Y-192158271D01*
X200359342Y-192158271D02*
X200716485Y-192158271D01*
X200716485Y-192158271D02*
X200930771Y-192229700D01*
X200930771Y-192229700D02*
X201073628Y-192372557D01*
X201073628Y-192372557D02*
X201145057Y-192515414D01*
X201145057Y-192515414D02*
X201216485Y-192801128D01*
X201216485Y-192801128D02*
X201216485Y-193015414D01*
X201216485Y-193015414D02*
X201145057Y-193301128D01*
X201145057Y-193301128D02*
X201073628Y-193443985D01*
X201073628Y-193443985D02*
X200930771Y-193586842D01*
X200930771Y-193586842D02*
X200716485Y-193658271D01*
X200716485Y-193658271D02*
X200359342Y-193658271D01*
X202502200Y-193658271D02*
X202502200Y-192872557D01*
X202502200Y-192872557D02*
X202430771Y-192729700D01*
X202430771Y-192729700D02*
X202287914Y-192658271D01*
X202287914Y-192658271D02*
X202002200Y-192658271D01*
X202002200Y-192658271D02*
X201859342Y-192729700D01*
X202502200Y-193586842D02*
X202359342Y-193658271D01*
X202359342Y-193658271D02*
X202002200Y-193658271D01*
X202002200Y-193658271D02*
X201859342Y-193586842D01*
X201859342Y-193586842D02*
X201787914Y-193443985D01*
X201787914Y-193443985D02*
X201787914Y-193301128D01*
X201787914Y-193301128D02*
X201859342Y-193158271D01*
X201859342Y-193158271D02*
X202002200Y-193086842D01*
X202002200Y-193086842D02*
X202359342Y-193086842D01*
X202359342Y-193086842D02*
X202502200Y-193015414D01*
X203002200Y-192658271D02*
X203573628Y-192658271D01*
X203216485Y-192158271D02*
X203216485Y-193443985D01*
X203216485Y-193443985D02*
X203287914Y-193586842D01*
X203287914Y-193586842D02*
X203430771Y-193658271D01*
X203430771Y-193658271D02*
X203573628Y-193658271D01*
X204645057Y-193586842D02*
X204502200Y-193658271D01*
X204502200Y-193658271D02*
X204216486Y-193658271D01*
X204216486Y-193658271D02*
X204073628Y-193586842D01*
X204073628Y-193586842D02*
X204002200Y-193443985D01*
X204002200Y-193443985D02*
X204002200Y-192872557D01*
X204002200Y-192872557D02*
X204073628Y-192729700D01*
X204073628Y-192729700D02*
X204216486Y-192658271D01*
X204216486Y-192658271D02*
X204502200Y-192658271D01*
X204502200Y-192658271D02*
X204645057Y-192729700D01*
X204645057Y-192729700D02*
X204716486Y-192872557D01*
X204716486Y-192872557D02*
X204716486Y-193015414D01*
X204716486Y-193015414D02*
X204002200Y-193158271D01*
X205359342Y-193515414D02*
X205430771Y-193586842D01*
X205430771Y-193586842D02*
X205359342Y-193658271D01*
X205359342Y-193658271D02*
X205287914Y-193586842D01*
X205287914Y-193586842D02*
X205359342Y-193515414D01*
X205359342Y-193515414D02*
X205359342Y-193658271D01*
X205359342Y-192729700D02*
X205430771Y-192801128D01*
X205430771Y-192801128D02*
X205359342Y-192872557D01*
X205359342Y-192872557D02*
X205287914Y-192801128D01*
X205287914Y-192801128D02*
X205359342Y-192729700D01*
X205359342Y-192729700D02*
X205359342Y-192872557D01*
D10*
D11*
X177002200Y-194507200D02*
X285002200Y-194507200D01*
D10*
D11*
X178359342Y-196458271D02*
X178359342Y-194958271D01*
X179216485Y-196458271D02*
X178573628Y-195601128D01*
X179216485Y-194958271D02*
X178359342Y-195815414D01*
X179859342Y-196458271D02*
X179859342Y-195458271D01*
X179859342Y-194958271D02*
X179787914Y-195029700D01*
X179787914Y-195029700D02*
X179859342Y-195101128D01*
X179859342Y-195101128D02*
X179930771Y-195029700D01*
X179930771Y-195029700D02*
X179859342Y-194958271D01*
X179859342Y-194958271D02*
X179859342Y-195101128D01*
X181430771Y-196315414D02*
X181359343Y-196386842D01*
X181359343Y-196386842D02*
X181145057Y-196458271D01*
X181145057Y-196458271D02*
X181002200Y-196458271D01*
X181002200Y-196458271D02*
X180787914Y-196386842D01*
X180787914Y-196386842D02*
X180645057Y-196243985D01*
X180645057Y-196243985D02*
X180573628Y-196101128D01*
X180573628Y-196101128D02*
X180502200Y-195815414D01*
X180502200Y-195815414D02*
X180502200Y-195601128D01*
X180502200Y-195601128D02*
X180573628Y-195315414D01*
X180573628Y-195315414D02*
X180645057Y-195172557D01*
X180645057Y-195172557D02*
X180787914Y-195029700D01*
X180787914Y-195029700D02*
X181002200Y-194958271D01*
X181002200Y-194958271D02*
X181145057Y-194958271D01*
X181145057Y-194958271D02*
X181359343Y-195029700D01*
X181359343Y-195029700D02*
X181430771Y-195101128D01*
X182716486Y-196458271D02*
X182716486Y-195672557D01*
X182716486Y-195672557D02*
X182645057Y-195529700D01*
X182645057Y-195529700D02*
X182502200Y-195458271D01*
X182502200Y-195458271D02*
X182216486Y-195458271D01*
X182216486Y-195458271D02*
X182073628Y-195529700D01*
X182716486Y-196386842D02*
X182573628Y-196458271D01*
X182573628Y-196458271D02*
X182216486Y-196458271D01*
X182216486Y-196458271D02*
X182073628Y-196386842D01*
X182073628Y-196386842D02*
X182002200Y-196243985D01*
X182002200Y-196243985D02*
X182002200Y-196101128D01*
X182002200Y-196101128D02*
X182073628Y-195958271D01*
X182073628Y-195958271D02*
X182216486Y-195886842D01*
X182216486Y-195886842D02*
X182573628Y-195886842D01*
X182573628Y-195886842D02*
X182716486Y-195815414D01*
X184073629Y-196458271D02*
X184073629Y-194958271D01*
X184073629Y-196386842D02*
X183930771Y-196458271D01*
X183930771Y-196458271D02*
X183645057Y-196458271D01*
X183645057Y-196458271D02*
X183502200Y-196386842D01*
X183502200Y-196386842D02*
X183430771Y-196315414D01*
X183430771Y-196315414D02*
X183359343Y-196172557D01*
X183359343Y-196172557D02*
X183359343Y-195743985D01*
X183359343Y-195743985D02*
X183430771Y-195601128D01*
X183430771Y-195601128D02*
X183502200Y-195529700D01*
X183502200Y-195529700D02*
X183645057Y-195458271D01*
X183645057Y-195458271D02*
X183930771Y-195458271D01*
X183930771Y-195458271D02*
X184073629Y-195529700D01*
X185687914Y-195672557D02*
X186187914Y-195672557D01*
X186402200Y-196458271D02*
X185687914Y-196458271D01*
X185687914Y-196458271D02*
X185687914Y-194958271D01*
X185687914Y-194958271D02*
X186402200Y-194958271D01*
X187045057Y-196315414D02*
X187116486Y-196386842D01*
X187116486Y-196386842D02*
X187045057Y-196458271D01*
X187045057Y-196458271D02*
X186973629Y-196386842D01*
X186973629Y-196386842D02*
X187045057Y-196315414D01*
X187045057Y-196315414D02*
X187045057Y-196458271D01*
X187759343Y-196458271D02*
X187759343Y-194958271D01*
X187759343Y-194958271D02*
X188116486Y-194958271D01*
X188116486Y-194958271D02*
X188330772Y-195029700D01*
X188330772Y-195029700D02*
X188473629Y-195172557D01*
X188473629Y-195172557D02*
X188545058Y-195315414D01*
X188545058Y-195315414D02*
X188616486Y-195601128D01*
X188616486Y-195601128D02*
X188616486Y-195815414D01*
X188616486Y-195815414D02*
X188545058Y-196101128D01*
X188545058Y-196101128D02*
X188473629Y-196243985D01*
X188473629Y-196243985D02*
X188330772Y-196386842D01*
X188330772Y-196386842D02*
X188116486Y-196458271D01*
X188116486Y-196458271D02*
X187759343Y-196458271D01*
X189259343Y-196315414D02*
X189330772Y-196386842D01*
X189330772Y-196386842D02*
X189259343Y-196458271D01*
X189259343Y-196458271D02*
X189187915Y-196386842D01*
X189187915Y-196386842D02*
X189259343Y-196315414D01*
X189259343Y-196315414D02*
X189259343Y-196458271D01*
X189902201Y-196029700D02*
X190616487Y-196029700D01*
X189759344Y-196458271D02*
X190259344Y-194958271D01*
X190259344Y-194958271D02*
X190759344Y-196458271D01*
X191259343Y-196315414D02*
X191330772Y-196386842D01*
X191330772Y-196386842D02*
X191259343Y-196458271D01*
X191259343Y-196458271D02*
X191187915Y-196386842D01*
X191187915Y-196386842D02*
X191259343Y-196315414D01*
X191259343Y-196315414D02*
X191259343Y-196458271D01*
X193773629Y-196458271D02*
X193773629Y-194958271D01*
X193916487Y-195886842D02*
X194345058Y-196458271D01*
X194345058Y-195458271D02*
X193773629Y-196029700D01*
X194987915Y-196458271D02*
X194987915Y-195458271D01*
X194987915Y-194958271D02*
X194916487Y-195029700D01*
X194916487Y-195029700D02*
X194987915Y-195101128D01*
X194987915Y-195101128D02*
X195059344Y-195029700D01*
X195059344Y-195029700D02*
X194987915Y-194958271D01*
X194987915Y-194958271D02*
X194987915Y-195101128D01*
X196345059Y-196386842D02*
X196202201Y-196458271D01*
X196202201Y-196458271D02*
X195916487Y-196458271D01*
X195916487Y-196458271D02*
X195773630Y-196386842D01*
X195773630Y-196386842D02*
X195702201Y-196315414D01*
X195702201Y-196315414D02*
X195630773Y-196172557D01*
X195630773Y-196172557D02*
X195630773Y-195743985D01*
X195630773Y-195743985D02*
X195702201Y-195601128D01*
X195702201Y-195601128D02*
X195773630Y-195529700D01*
X195773630Y-195529700D02*
X195916487Y-195458271D01*
X195916487Y-195458271D02*
X196202201Y-195458271D01*
X196202201Y-195458271D02*
X196345059Y-195529700D01*
X197630773Y-196458271D02*
X197630773Y-195672557D01*
X197630773Y-195672557D02*
X197559344Y-195529700D01*
X197559344Y-195529700D02*
X197416487Y-195458271D01*
X197416487Y-195458271D02*
X197130773Y-195458271D01*
X197130773Y-195458271D02*
X196987915Y-195529700D01*
X197630773Y-196386842D02*
X197487915Y-196458271D01*
X197487915Y-196458271D02*
X197130773Y-196458271D01*
X197130773Y-196458271D02*
X196987915Y-196386842D01*
X196987915Y-196386842D02*
X196916487Y-196243985D01*
X196916487Y-196243985D02*
X196916487Y-196101128D01*
X196916487Y-196101128D02*
X196987915Y-195958271D01*
X196987915Y-195958271D02*
X197130773Y-195886842D01*
X197130773Y-195886842D02*
X197487915Y-195886842D01*
X197487915Y-195886842D02*
X197630773Y-195815414D01*
X198987916Y-196458271D02*
X198987916Y-194958271D01*
X198987916Y-196386842D02*
X198845058Y-196458271D01*
X198845058Y-196458271D02*
X198559344Y-196458271D01*
X198559344Y-196458271D02*
X198416487Y-196386842D01*
X198416487Y-196386842D02*
X198345058Y-196315414D01*
X198345058Y-196315414D02*
X198273630Y-196172557D01*
X198273630Y-196172557D02*
X198273630Y-195743985D01*
X198273630Y-195743985D02*
X198345058Y-195601128D01*
X198345058Y-195601128D02*
X198416487Y-195529700D01*
X198416487Y-195529700D02*
X198559344Y-195458271D01*
X198559344Y-195458271D02*
X198845058Y-195458271D01*
X198845058Y-195458271D02*
X198987916Y-195529700D01*
X201030773Y-197029700D02*
X200959344Y-196958271D01*
X200959344Y-196958271D02*
X200816487Y-196743985D01*
X200816487Y-196743985D02*
X200745059Y-196601128D01*
X200745059Y-196601128D02*
X200673630Y-196386842D01*
X200673630Y-196386842D02*
X200602201Y-196029700D01*
X200602201Y-196029700D02*
X200602201Y-195743985D01*
X200602201Y-195743985D02*
X200673630Y-195386842D01*
X200673630Y-195386842D02*
X200745059Y-195172557D01*
X200745059Y-195172557D02*
X200816487Y-195029700D01*
X200816487Y-195029700D02*
X200959344Y-194815414D01*
X200959344Y-194815414D02*
X201030773Y-194743985D01*
X201459344Y-194958271D02*
X202459344Y-194958271D01*
X202459344Y-194958271D02*
X201816487Y-196458271D01*
X203030772Y-196315414D02*
X203102201Y-196386842D01*
X203102201Y-196386842D02*
X203030772Y-196458271D01*
X203030772Y-196458271D02*
X202959344Y-196386842D01*
X202959344Y-196386842D02*
X203030772Y-196315414D01*
X203030772Y-196315414D02*
X203030772Y-196458271D01*
X204030773Y-194958271D02*
X204173630Y-194958271D01*
X204173630Y-194958271D02*
X204316487Y-195029700D01*
X204316487Y-195029700D02*
X204387916Y-195101128D01*
X204387916Y-195101128D02*
X204459344Y-195243985D01*
X204459344Y-195243985D02*
X204530773Y-195529700D01*
X204530773Y-195529700D02*
X204530773Y-195886842D01*
X204530773Y-195886842D02*
X204459344Y-196172557D01*
X204459344Y-196172557D02*
X204387916Y-196315414D01*
X204387916Y-196315414D02*
X204316487Y-196386842D01*
X204316487Y-196386842D02*
X204173630Y-196458271D01*
X204173630Y-196458271D02*
X204030773Y-196458271D01*
X204030773Y-196458271D02*
X203887916Y-196386842D01*
X203887916Y-196386842D02*
X203816487Y-196315414D01*
X203816487Y-196315414D02*
X203745058Y-196172557D01*
X203745058Y-196172557D02*
X203673630Y-195886842D01*
X203673630Y-195886842D02*
X203673630Y-195529700D01*
X203673630Y-195529700D02*
X203745058Y-195243985D01*
X203745058Y-195243985D02*
X203816487Y-195101128D01*
X203816487Y-195101128D02*
X203887916Y-195029700D01*
X203887916Y-195029700D02*
X204030773Y-194958271D01*
X205173629Y-196315414D02*
X205245058Y-196386842D01*
X205245058Y-196386842D02*
X205173629Y-196458271D01*
X205173629Y-196458271D02*
X205102201Y-196386842D01*
X205102201Y-196386842D02*
X205173629Y-196315414D01*
X205173629Y-196315414D02*
X205173629Y-196458271D01*
X206173630Y-194958271D02*
X206316487Y-194958271D01*
X206316487Y-194958271D02*
X206459344Y-195029700D01*
X206459344Y-195029700D02*
X206530773Y-195101128D01*
X206530773Y-195101128D02*
X206602201Y-195243985D01*
X206602201Y-195243985D02*
X206673630Y-195529700D01*
X206673630Y-195529700D02*
X206673630Y-195886842D01*
X206673630Y-195886842D02*
X206602201Y-196172557D01*
X206602201Y-196172557D02*
X206530773Y-196315414D01*
X206530773Y-196315414D02*
X206459344Y-196386842D01*
X206459344Y-196386842D02*
X206316487Y-196458271D01*
X206316487Y-196458271D02*
X206173630Y-196458271D01*
X206173630Y-196458271D02*
X206030773Y-196386842D01*
X206030773Y-196386842D02*
X205959344Y-196315414D01*
X205959344Y-196315414D02*
X205887915Y-196172557D01*
X205887915Y-196172557D02*
X205816487Y-195886842D01*
X205816487Y-195886842D02*
X205816487Y-195529700D01*
X205816487Y-195529700D02*
X205887915Y-195243985D01*
X205887915Y-195243985D02*
X205959344Y-195101128D01*
X205959344Y-195101128D02*
X206030773Y-195029700D01*
X206030773Y-195029700D02*
X206173630Y-194958271D01*
X207173629Y-197029700D02*
X207245058Y-196958271D01*
X207245058Y-196958271D02*
X207387915Y-196743985D01*
X207387915Y-196743985D02*
X207459344Y-196601128D01*
X207459344Y-196601128D02*
X207530772Y-196386842D01*
X207530772Y-196386842D02*
X207602201Y-196029700D01*
X207602201Y-196029700D02*
X207602201Y-195743985D01*
X207602201Y-195743985D02*
X207530772Y-195386842D01*
X207530772Y-195386842D02*
X207459344Y-195172557D01*
X207459344Y-195172557D02*
X207387915Y-195029700D01*
X207387915Y-195029700D02*
X207245058Y-194815414D01*
X207245058Y-194815414D02*
X207173629Y-194743985D01*
D10*
D11*
X177002200Y-191507200D02*
X285002200Y-191507200D01*
D10*
D12*
X264216485Y-193658271D02*
X263716485Y-192943985D01*
X263359342Y-193658271D02*
X263359342Y-192158271D01*
X263359342Y-192158271D02*
X263930771Y-192158271D01*
X263930771Y-192158271D02*
X264073628Y-192229700D01*
X264073628Y-192229700D02*
X264145057Y-192301128D01*
X264145057Y-192301128D02*
X264216485Y-192443985D01*
X264216485Y-192443985D02*
X264216485Y-192658271D01*
X264216485Y-192658271D02*
X264145057Y-192801128D01*
X264145057Y-192801128D02*
X264073628Y-192872557D01*
X264073628Y-192872557D02*
X263930771Y-192943985D01*
X263930771Y-192943985D02*
X263359342Y-192943985D01*
X265430771Y-193586842D02*
X265287914Y-193658271D01*
X265287914Y-193658271D02*
X265002200Y-193658271D01*
X265002200Y-193658271D02*
X264859342Y-193586842D01*
X264859342Y-193586842D02*
X264787914Y-193443985D01*
X264787914Y-193443985D02*
X264787914Y-192872557D01*
X264787914Y-192872557D02*
X264859342Y-192729700D01*
X264859342Y-192729700D02*
X265002200Y-192658271D01*
X265002200Y-192658271D02*
X265287914Y-192658271D01*
X265287914Y-192658271D02*
X265430771Y-192729700D01*
X265430771Y-192729700D02*
X265502200Y-192872557D01*
X265502200Y-192872557D02*
X265502200Y-193015414D01*
X265502200Y-193015414D02*
X264787914Y-193158271D01*
X266002199Y-192658271D02*
X266359342Y-193658271D01*
X266359342Y-193658271D02*
X266716485Y-192658271D01*
X267287913Y-193515414D02*
X267359342Y-193586842D01*
X267359342Y-193586842D02*
X267287913Y-193658271D01*
X267287913Y-193658271D02*
X267216485Y-193586842D01*
X267216485Y-193586842D02*
X267287913Y-193515414D01*
X267287913Y-193515414D02*
X267287913Y-193658271D01*
X267287913Y-192729700D02*
X267359342Y-192801128D01*
X267359342Y-192801128D02*
X267287913Y-192872557D01*
X267287913Y-192872557D02*
X267216485Y-192801128D01*
X267216485Y-192801128D02*
X267287913Y-192729700D01*
X267287913Y-192729700D02*
X267287913Y-192872557D01*
D10*
D11*
X178287914Y-193586842D02*
X178502200Y-193658271D01*
X178502200Y-193658271D02*
X178859342Y-193658271D01*
X178859342Y-193658271D02*
X179002200Y-193586842D01*
X179002200Y-193586842D02*
X179073628Y-193515414D01*
X179073628Y-193515414D02*
X179145057Y-193372557D01*
X179145057Y-193372557D02*
X179145057Y-193229700D01*
X179145057Y-193229700D02*
X179073628Y-193086842D01*
X179073628Y-193086842D02*
X179002200Y-193015414D01*
X179002200Y-193015414D02*
X178859342Y-192943985D01*
X178859342Y-192943985D02*
X178573628Y-192872557D01*
X178573628Y-192872557D02*
X178430771Y-192801128D01*
X178430771Y-192801128D02*
X178359342Y-192729700D01*
X178359342Y-192729700D02*
X178287914Y-192586842D01*
X178287914Y-192586842D02*
X178287914Y-192443985D01*
X178287914Y-192443985D02*
X178359342Y-192301128D01*
X178359342Y-192301128D02*
X178430771Y-192229700D01*
X178430771Y-192229700D02*
X178573628Y-192158271D01*
X178573628Y-192158271D02*
X178930771Y-192158271D01*
X178930771Y-192158271D02*
X179145057Y-192229700D01*
X179787913Y-193658271D02*
X179787913Y-192658271D01*
X179787913Y-192158271D02*
X179716485Y-192229700D01*
X179716485Y-192229700D02*
X179787913Y-192301128D01*
X179787913Y-192301128D02*
X179859342Y-192229700D01*
X179859342Y-192229700D02*
X179787913Y-192158271D01*
X179787913Y-192158271D02*
X179787913Y-192301128D01*
X180359342Y-192658271D02*
X181145057Y-192658271D01*
X181145057Y-192658271D02*
X180359342Y-193658271D01*
X180359342Y-193658271D02*
X181145057Y-193658271D01*
X182287914Y-193586842D02*
X182145057Y-193658271D01*
X182145057Y-193658271D02*
X181859343Y-193658271D01*
X181859343Y-193658271D02*
X181716485Y-193586842D01*
X181716485Y-193586842D02*
X181645057Y-193443985D01*
X181645057Y-193443985D02*
X181645057Y-192872557D01*
X181645057Y-192872557D02*
X181716485Y-192729700D01*
X181716485Y-192729700D02*
X181859343Y-192658271D01*
X181859343Y-192658271D02*
X182145057Y-192658271D01*
X182145057Y-192658271D02*
X182287914Y-192729700D01*
X182287914Y-192729700D02*
X182359343Y-192872557D01*
X182359343Y-192872557D02*
X182359343Y-193015414D01*
X182359343Y-193015414D02*
X181645057Y-193158271D01*
X183002199Y-193515414D02*
X183073628Y-193586842D01*
X183073628Y-193586842D02*
X183002199Y-193658271D01*
X183002199Y-193658271D02*
X182930771Y-193586842D01*
X182930771Y-193586842D02*
X183002199Y-193515414D01*
X183002199Y-193515414D02*
X183002199Y-193658271D01*
X183002199Y-192729700D02*
X183073628Y-192801128D01*
X183073628Y-192801128D02*
X183002199Y-192872557D01*
X183002199Y-192872557D02*
X182930771Y-192801128D01*
X182930771Y-192801128D02*
X183002199Y-192729700D01*
X183002199Y-192729700D02*
X183002199Y-192872557D01*
X184545057Y-193229700D02*
X185259343Y-193229700D01*
X184402200Y-193658271D02*
X184902200Y-192158271D01*
X184902200Y-192158271D02*
X185402200Y-193658271D01*
X186545057Y-192658271D02*
X186545057Y-193658271D01*
X186187914Y-192086842D02*
X185830771Y-193158271D01*
X185830771Y-193158271D02*
X186759342Y-193158271D01*
D10*
D11*
X263359342Y-196458271D02*
X263359342Y-194958271D01*
X264716486Y-196458271D02*
X264716486Y-194958271D01*
X264716486Y-196386842D02*
X264573628Y-196458271D01*
X264573628Y-196458271D02*
X264287914Y-196458271D01*
X264287914Y-196458271D02*
X264145057Y-196386842D01*
X264145057Y-196386842D02*
X264073628Y-196315414D01*
X264073628Y-196315414D02*
X264002200Y-196172557D01*
X264002200Y-196172557D02*
X264002200Y-195743985D01*
X264002200Y-195743985D02*
X264073628Y-195601128D01*
X264073628Y-195601128D02*
X264145057Y-195529700D01*
X264145057Y-195529700D02*
X264287914Y-195458271D01*
X264287914Y-195458271D02*
X264573628Y-195458271D01*
X264573628Y-195458271D02*
X264716486Y-195529700D01*
X265430771Y-196315414D02*
X265502200Y-196386842D01*
X265502200Y-196386842D02*
X265430771Y-196458271D01*
X265430771Y-196458271D02*
X265359343Y-196386842D01*
X265359343Y-196386842D02*
X265430771Y-196315414D01*
X265430771Y-196315414D02*
X265430771Y-196458271D01*
X265430771Y-195529700D02*
X265502200Y-195601128D01*
X265502200Y-195601128D02*
X265430771Y-195672557D01*
X265430771Y-195672557D02*
X265359343Y-195601128D01*
X265359343Y-195601128D02*
X265430771Y-195529700D01*
X265430771Y-195529700D02*
X265430771Y-195672557D01*
X267830772Y-196458271D02*
X266973629Y-196458271D01*
X267402200Y-196458271D02*
X267402200Y-194958271D01*
X267402200Y-194958271D02*
X267259343Y-195172557D01*
X267259343Y-195172557D02*
X267116486Y-195315414D01*
X267116486Y-195315414D02*
X266973629Y-195386842D01*
X269545057Y-194886842D02*
X268259343Y-196815414D01*
X270830772Y-196458271D02*
X269973629Y-196458271D01*
X270402200Y-196458271D02*
X270402200Y-194958271D01*
X270402200Y-194958271D02*
X270259343Y-195172557D01*
X270259343Y-195172557D02*
X270116486Y-195315414D01*
X270116486Y-195315414D02*
X269973629Y-195386842D01*
D10*
D11*
X177002200Y-187507200D02*
X285002200Y-187507200D01*
D10*
D13*
X178454580Y-188041961D02*
X179597438Y-188041961D01*
X178776009Y-190041961D02*
X179026009Y-188041961D01*
X180014105Y-190041961D02*
X180180771Y-188708628D01*
X180264105Y-188041961D02*
X180156962Y-188137200D01*
X180156962Y-188137200D02*
X180240295Y-188232438D01*
X180240295Y-188232438D02*
X180347438Y-188137200D01*
X180347438Y-188137200D02*
X180264105Y-188041961D01*
X180264105Y-188041961D02*
X180240295Y-188232438D01*
X180847438Y-188708628D02*
X181609343Y-188708628D01*
X181216486Y-188041961D02*
X181002200Y-189756247D01*
X181002200Y-189756247D02*
X181073629Y-189946723D01*
X181073629Y-189946723D02*
X181252200Y-190041961D01*
X181252200Y-190041961D02*
X181442676Y-190041961D01*
X182395057Y-190041961D02*
X182216486Y-189946723D01*
X182216486Y-189946723D02*
X182145057Y-189756247D01*
X182145057Y-189756247D02*
X182359343Y-188041961D01*
X183930771Y-189946723D02*
X183728390Y-190041961D01*
X183728390Y-190041961D02*
X183347438Y-190041961D01*
X183347438Y-190041961D02*
X183168867Y-189946723D01*
X183168867Y-189946723D02*
X183097438Y-189756247D01*
X183097438Y-189756247D02*
X183192676Y-188994342D01*
X183192676Y-188994342D02*
X183311724Y-188803866D01*
X183311724Y-188803866D02*
X183514105Y-188708628D01*
X183514105Y-188708628D02*
X183895057Y-188708628D01*
X183895057Y-188708628D02*
X184073628Y-188803866D01*
X184073628Y-188803866D02*
X184145057Y-188994342D01*
X184145057Y-188994342D02*
X184121247Y-189184819D01*
X184121247Y-189184819D02*
X183145057Y-189375295D01*
X184895057Y-189851485D02*
X184978391Y-189946723D01*
X184978391Y-189946723D02*
X184871248Y-190041961D01*
X184871248Y-190041961D02*
X184787914Y-189946723D01*
X184787914Y-189946723D02*
X184895057Y-189851485D01*
X184895057Y-189851485D02*
X184871248Y-190041961D01*
X185026010Y-188803866D02*
X185109343Y-188899104D01*
X185109343Y-188899104D02*
X185002200Y-188994342D01*
X185002200Y-188994342D02*
X184918867Y-188899104D01*
X184918867Y-188899104D02*
X185026010Y-188803866D01*
X185026010Y-188803866D02*
X185002200Y-188994342D01*
D10*
D11*
X178859342Y-185472557D02*
X178359342Y-185472557D01*
X178359342Y-186258271D02*
X178359342Y-184758271D01*
X178359342Y-184758271D02*
X179073628Y-184758271D01*
X179645056Y-186258271D02*
X179645056Y-185258271D01*
X179645056Y-184758271D02*
X179573628Y-184829700D01*
X179573628Y-184829700D02*
X179645056Y-184901128D01*
X179645056Y-184901128D02*
X179716485Y-184829700D01*
X179716485Y-184829700D02*
X179645056Y-184758271D01*
X179645056Y-184758271D02*
X179645056Y-184901128D01*
X180573628Y-186258271D02*
X180430771Y-186186842D01*
X180430771Y-186186842D02*
X180359342Y-186043985D01*
X180359342Y-186043985D02*
X180359342Y-184758271D01*
X181716485Y-186186842D02*
X181573628Y-186258271D01*
X181573628Y-186258271D02*
X181287914Y-186258271D01*
X181287914Y-186258271D02*
X181145056Y-186186842D01*
X181145056Y-186186842D02*
X181073628Y-186043985D01*
X181073628Y-186043985D02*
X181073628Y-185472557D01*
X181073628Y-185472557D02*
X181145056Y-185329700D01*
X181145056Y-185329700D02*
X181287914Y-185258271D01*
X181287914Y-185258271D02*
X181573628Y-185258271D01*
X181573628Y-185258271D02*
X181716485Y-185329700D01*
X181716485Y-185329700D02*
X181787914Y-185472557D01*
X181787914Y-185472557D02*
X181787914Y-185615414D01*
X181787914Y-185615414D02*
X181073628Y-185758271D01*
X182430770Y-186115414D02*
X182502199Y-186186842D01*
X182502199Y-186186842D02*
X182430770Y-186258271D01*
X182430770Y-186258271D02*
X182359342Y-186186842D01*
X182359342Y-186186842D02*
X182430770Y-186115414D01*
X182430770Y-186115414D02*
X182430770Y-186258271D01*
X182430770Y-185329700D02*
X182502199Y-185401128D01*
X182502199Y-185401128D02*
X182430770Y-185472557D01*
X182430770Y-185472557D02*
X182359342Y-185401128D01*
X182359342Y-185401128D02*
X182430770Y-185329700D01*
X182430770Y-185329700D02*
X182430770Y-185472557D01*
X184616485Y-186186842D02*
X184473628Y-186258271D01*
X184473628Y-186258271D02*
X184187914Y-186258271D01*
X184187914Y-186258271D02*
X184045056Y-186186842D01*
X184045056Y-186186842D02*
X183973628Y-186043985D01*
X183973628Y-186043985D02*
X183973628Y-185472557D01*
X183973628Y-185472557D02*
X184045056Y-185329700D01*
X184045056Y-185329700D02*
X184187914Y-185258271D01*
X184187914Y-185258271D02*
X184473628Y-185258271D01*
X184473628Y-185258271D02*
X184616485Y-185329700D01*
X184616485Y-185329700D02*
X184687914Y-185472557D01*
X184687914Y-185472557D02*
X184687914Y-185615414D01*
X184687914Y-185615414D02*
X183973628Y-185758271D01*
X185259342Y-186186842D02*
X185402199Y-186258271D01*
X185402199Y-186258271D02*
X185687913Y-186258271D01*
X185687913Y-186258271D02*
X185830770Y-186186842D01*
X185830770Y-186186842D02*
X185902199Y-186043985D01*
X185902199Y-186043985D02*
X185902199Y-185972557D01*
X185902199Y-185972557D02*
X185830770Y-185829700D01*
X185830770Y-185829700D02*
X185687913Y-185758271D01*
X185687913Y-185758271D02*
X185473628Y-185758271D01*
X185473628Y-185758271D02*
X185330770Y-185686842D01*
X185330770Y-185686842D02*
X185259342Y-185543985D01*
X185259342Y-185543985D02*
X185259342Y-185472557D01*
X185259342Y-185472557D02*
X185330770Y-185329700D01*
X185330770Y-185329700D02*
X185473628Y-185258271D01*
X185473628Y-185258271D02*
X185687913Y-185258271D01*
X185687913Y-185258271D02*
X185830770Y-185329700D01*
X186545056Y-185258271D02*
X186545056Y-186758271D01*
X186545056Y-185329700D02*
X186687914Y-185258271D01*
X186687914Y-185258271D02*
X186973628Y-185258271D01*
X186973628Y-185258271D02*
X187116485Y-185329700D01*
X187116485Y-185329700D02*
X187187914Y-185401128D01*
X187187914Y-185401128D02*
X187259342Y-185543985D01*
X187259342Y-185543985D02*
X187259342Y-185972557D01*
X187259342Y-185972557D02*
X187187914Y-186115414D01*
X187187914Y-186115414D02*
X187116485Y-186186842D01*
X187116485Y-186186842D02*
X186973628Y-186258271D01*
X186973628Y-186258271D02*
X186687914Y-186258271D01*
X186687914Y-186258271D02*
X186545056Y-186186842D01*
X187759342Y-184758271D02*
X188687914Y-184758271D01*
X188687914Y-184758271D02*
X188187914Y-185329700D01*
X188187914Y-185329700D02*
X188402199Y-185329700D01*
X188402199Y-185329700D02*
X188545057Y-185401128D01*
X188545057Y-185401128D02*
X188616485Y-185472557D01*
X188616485Y-185472557D02*
X188687914Y-185615414D01*
X188687914Y-185615414D02*
X188687914Y-185972557D01*
X188687914Y-185972557D02*
X188616485Y-186115414D01*
X188616485Y-186115414D02*
X188545057Y-186186842D01*
X188545057Y-186186842D02*
X188402199Y-186258271D01*
X188402199Y-186258271D02*
X187973628Y-186258271D01*
X187973628Y-186258271D02*
X187830771Y-186186842D01*
X187830771Y-186186842D02*
X187759342Y-186115414D01*
X189259342Y-184901128D02*
X189330770Y-184829700D01*
X189330770Y-184829700D02*
X189473628Y-184758271D01*
X189473628Y-184758271D02*
X189830770Y-184758271D01*
X189830770Y-184758271D02*
X189973628Y-184829700D01*
X189973628Y-184829700D02*
X190045056Y-184901128D01*
X190045056Y-184901128D02*
X190116485Y-185043985D01*
X190116485Y-185043985D02*
X190116485Y-185186842D01*
X190116485Y-185186842D02*
X190045056Y-185401128D01*
X190045056Y-185401128D02*
X189187913Y-186258271D01*
X189187913Y-186258271D02*
X190116485Y-186258271D01*
X190759341Y-185686842D02*
X191902199Y-185686842D01*
X193259342Y-186186842D02*
X193116484Y-186258271D01*
X193116484Y-186258271D02*
X192830770Y-186258271D01*
X192830770Y-186258271D02*
X192687913Y-186186842D01*
X192687913Y-186186842D02*
X192616484Y-186115414D01*
X192616484Y-186115414D02*
X192545056Y-185972557D01*
X192545056Y-185972557D02*
X192545056Y-185543985D01*
X192545056Y-185543985D02*
X192616484Y-185401128D01*
X192616484Y-185401128D02*
X192687913Y-185329700D01*
X192687913Y-185329700D02*
X192830770Y-185258271D01*
X192830770Y-185258271D02*
X193116484Y-185258271D01*
X193116484Y-185258271D02*
X193259342Y-185329700D01*
X193759341Y-184758271D02*
X194687913Y-184758271D01*
X194687913Y-184758271D02*
X194187913Y-185329700D01*
X194187913Y-185329700D02*
X194402198Y-185329700D01*
X194402198Y-185329700D02*
X194545056Y-185401128D01*
X194545056Y-185401128D02*
X194616484Y-185472557D01*
X194616484Y-185472557D02*
X194687913Y-185615414D01*
X194687913Y-185615414D02*
X194687913Y-185972557D01*
X194687913Y-185972557D02*
X194616484Y-186115414D01*
X194616484Y-186115414D02*
X194545056Y-186186842D01*
X194545056Y-186186842D02*
X194402198Y-186258271D01*
X194402198Y-186258271D02*
X193973627Y-186258271D01*
X193973627Y-186258271D02*
X193830770Y-186186842D01*
X193830770Y-186186842D02*
X193759341Y-186115414D01*
X195330769Y-185686842D02*
X196473627Y-185686842D01*
X197045055Y-185258271D02*
X197402198Y-186258271D01*
X197402198Y-186258271D02*
X197759341Y-185258271D01*
X198902198Y-186186842D02*
X198759341Y-186258271D01*
X198759341Y-186258271D02*
X198473627Y-186258271D01*
X198473627Y-186258271D02*
X198330769Y-186186842D01*
X198330769Y-186186842D02*
X198259341Y-186043985D01*
X198259341Y-186043985D02*
X198259341Y-185472557D01*
X198259341Y-185472557D02*
X198330769Y-185329700D01*
X198330769Y-185329700D02*
X198473627Y-185258271D01*
X198473627Y-185258271D02*
X198759341Y-185258271D01*
X198759341Y-185258271D02*
X198902198Y-185329700D01*
X198902198Y-185329700D02*
X198973627Y-185472557D01*
X198973627Y-185472557D02*
X198973627Y-185615414D01*
X198973627Y-185615414D02*
X198259341Y-185758271D01*
X199545055Y-186186842D02*
X199687912Y-186258271D01*
X199687912Y-186258271D02*
X199973626Y-186258271D01*
X199973626Y-186258271D02*
X200116483Y-186186842D01*
X200116483Y-186186842D02*
X200187912Y-186043985D01*
X200187912Y-186043985D02*
X200187912Y-185972557D01*
X200187912Y-185972557D02*
X200116483Y-185829700D01*
X200116483Y-185829700D02*
X199973626Y-185758271D01*
X199973626Y-185758271D02*
X199759341Y-185758271D01*
X199759341Y-185758271D02*
X199616483Y-185686842D01*
X199616483Y-185686842D02*
X199545055Y-185543985D01*
X199545055Y-185543985D02*
X199545055Y-185472557D01*
X199545055Y-185472557D02*
X199616483Y-185329700D01*
X199616483Y-185329700D02*
X199759341Y-185258271D01*
X199759341Y-185258271D02*
X199973626Y-185258271D01*
X199973626Y-185258271D02*
X200116483Y-185329700D01*
X201473627Y-186186842D02*
X201330769Y-186258271D01*
X201330769Y-186258271D02*
X201045055Y-186258271D01*
X201045055Y-186258271D02*
X200902198Y-186186842D01*
X200902198Y-186186842D02*
X200830769Y-186115414D01*
X200830769Y-186115414D02*
X200759341Y-185972557D01*
X200759341Y-185972557D02*
X200759341Y-185543985D01*
X200759341Y-185543985D02*
X200830769Y-185401128D01*
X200830769Y-185401128D02*
X200902198Y-185329700D01*
X200902198Y-185329700D02*
X201045055Y-185258271D01*
X201045055Y-185258271D02*
X201330769Y-185258271D01*
X201330769Y-185258271D02*
X201473627Y-185329700D01*
X202116483Y-185686842D02*
X203259341Y-185686842D01*
X204545055Y-186186842D02*
X204402198Y-186258271D01*
X204402198Y-186258271D02*
X204116484Y-186258271D01*
X204116484Y-186258271D02*
X203973626Y-186186842D01*
X203973626Y-186186842D02*
X203902198Y-186043985D01*
X203902198Y-186043985D02*
X203902198Y-185472557D01*
X203902198Y-185472557D02*
X203973626Y-185329700D01*
X203973626Y-185329700D02*
X204116484Y-185258271D01*
X204116484Y-185258271D02*
X204402198Y-185258271D01*
X204402198Y-185258271D02*
X204545055Y-185329700D01*
X204545055Y-185329700D02*
X204616484Y-185472557D01*
X204616484Y-185472557D02*
X204616484Y-185615414D01*
X204616484Y-185615414D02*
X203902198Y-185758271D01*
X205116483Y-186258271D02*
X205902198Y-185258271D01*
X205116483Y-185258271D02*
X205902198Y-186258271D01*
X206473626Y-185258271D02*
X206473626Y-186758271D01*
X206473626Y-185329700D02*
X206616484Y-185258271D01*
X206616484Y-185258271D02*
X206902198Y-185258271D01*
X206902198Y-185258271D02*
X207045055Y-185329700D01*
X207045055Y-185329700D02*
X207116484Y-185401128D01*
X207116484Y-185401128D02*
X207187912Y-185543985D01*
X207187912Y-185543985D02*
X207187912Y-185972557D01*
X207187912Y-185972557D02*
X207116484Y-186115414D01*
X207116484Y-186115414D02*
X207045055Y-186186842D01*
X207045055Y-186186842D02*
X206902198Y-186258271D01*
X206902198Y-186258271D02*
X206616484Y-186258271D01*
X206616484Y-186258271D02*
X206473626Y-186186842D01*
X207830769Y-186258271D02*
X207830769Y-185258271D01*
X207830769Y-185543985D02*
X207902198Y-185401128D01*
X207902198Y-185401128D02*
X207973627Y-185329700D01*
X207973627Y-185329700D02*
X208116484Y-185258271D01*
X208116484Y-185258271D02*
X208259341Y-185258271D01*
X209330769Y-186186842D02*
X209187912Y-186258271D01*
X209187912Y-186258271D02*
X208902198Y-186258271D01*
X208902198Y-186258271D02*
X208759340Y-186186842D01*
X208759340Y-186186842D02*
X208687912Y-186043985D01*
X208687912Y-186043985D02*
X208687912Y-185472557D01*
X208687912Y-185472557D02*
X208759340Y-185329700D01*
X208759340Y-185329700D02*
X208902198Y-185258271D01*
X208902198Y-185258271D02*
X209187912Y-185258271D01*
X209187912Y-185258271D02*
X209330769Y-185329700D01*
X209330769Y-185329700D02*
X209402198Y-185472557D01*
X209402198Y-185472557D02*
X209402198Y-185615414D01*
X209402198Y-185615414D02*
X208687912Y-185758271D01*
X209973626Y-186186842D02*
X210116483Y-186258271D01*
X210116483Y-186258271D02*
X210402197Y-186258271D01*
X210402197Y-186258271D02*
X210545054Y-186186842D01*
X210545054Y-186186842D02*
X210616483Y-186043985D01*
X210616483Y-186043985D02*
X210616483Y-185972557D01*
X210616483Y-185972557D02*
X210545054Y-185829700D01*
X210545054Y-185829700D02*
X210402197Y-185758271D01*
X210402197Y-185758271D02*
X210187912Y-185758271D01*
X210187912Y-185758271D02*
X210045054Y-185686842D01*
X210045054Y-185686842D02*
X209973626Y-185543985D01*
X209973626Y-185543985D02*
X209973626Y-185472557D01*
X209973626Y-185472557D02*
X210045054Y-185329700D01*
X210045054Y-185329700D02*
X210187912Y-185258271D01*
X210187912Y-185258271D02*
X210402197Y-185258271D01*
X210402197Y-185258271D02*
X210545054Y-185329700D01*
X211187912Y-186186842D02*
X211330769Y-186258271D01*
X211330769Y-186258271D02*
X211616483Y-186258271D01*
X211616483Y-186258271D02*
X211759340Y-186186842D01*
X211759340Y-186186842D02*
X211830769Y-186043985D01*
X211830769Y-186043985D02*
X211830769Y-185972557D01*
X211830769Y-185972557D02*
X211759340Y-185829700D01*
X211759340Y-185829700D02*
X211616483Y-185758271D01*
X211616483Y-185758271D02*
X211402198Y-185758271D01*
X211402198Y-185758271D02*
X211259340Y-185686842D01*
X211259340Y-185686842D02*
X211187912Y-185543985D01*
X211187912Y-185543985D02*
X211187912Y-185472557D01*
X211187912Y-185472557D02*
X211259340Y-185329700D01*
X211259340Y-185329700D02*
X211402198Y-185258271D01*
X211402198Y-185258271D02*
X211616483Y-185258271D01*
X211616483Y-185258271D02*
X211759340Y-185329700D01*
X212473626Y-185686842D02*
X213616484Y-185686842D01*
X214973627Y-185258271D02*
X214973627Y-186472557D01*
X214973627Y-186472557D02*
X214902198Y-186615414D01*
X214902198Y-186615414D02*
X214830769Y-186686842D01*
X214830769Y-186686842D02*
X214687912Y-186758271D01*
X214687912Y-186758271D02*
X214473627Y-186758271D01*
X214473627Y-186758271D02*
X214330769Y-186686842D01*
X214973627Y-186186842D02*
X214830769Y-186258271D01*
X214830769Y-186258271D02*
X214545055Y-186258271D01*
X214545055Y-186258271D02*
X214402198Y-186186842D01*
X214402198Y-186186842D02*
X214330769Y-186115414D01*
X214330769Y-186115414D02*
X214259341Y-185972557D01*
X214259341Y-185972557D02*
X214259341Y-185543985D01*
X214259341Y-185543985D02*
X214330769Y-185401128D01*
X214330769Y-185401128D02*
X214402198Y-185329700D01*
X214402198Y-185329700D02*
X214545055Y-185258271D01*
X214545055Y-185258271D02*
X214830769Y-185258271D01*
X214830769Y-185258271D02*
X214973627Y-185329700D01*
X215687912Y-186258271D02*
X215687912Y-184758271D01*
X216330770Y-186258271D02*
X216330770Y-185472557D01*
X216330770Y-185472557D02*
X216259341Y-185329700D01*
X216259341Y-185329700D02*
X216116484Y-185258271D01*
X216116484Y-185258271D02*
X215902198Y-185258271D01*
X215902198Y-185258271D02*
X215759341Y-185329700D01*
X215759341Y-185329700D02*
X215687912Y-185401128D01*
X216687913Y-186401128D02*
X217830770Y-186401128D01*
X218830770Y-186186842D02*
X218687912Y-186258271D01*
X218687912Y-186258271D02*
X218402198Y-186258271D01*
X218402198Y-186258271D02*
X218259341Y-186186842D01*
X218259341Y-186186842D02*
X218187912Y-186115414D01*
X218187912Y-186115414D02*
X218116484Y-185972557D01*
X218116484Y-185972557D02*
X218116484Y-185543985D01*
X218116484Y-185543985D02*
X218187912Y-185401128D01*
X218187912Y-185401128D02*
X218259341Y-185329700D01*
X218259341Y-185329700D02*
X218402198Y-185258271D01*
X218402198Y-185258271D02*
X218687912Y-185258271D01*
X218687912Y-185258271D02*
X218830770Y-185329700D01*
X219687912Y-186258271D02*
X219545055Y-186186842D01*
X219545055Y-186186842D02*
X219473626Y-186115414D01*
X219473626Y-186115414D02*
X219402198Y-185972557D01*
X219402198Y-185972557D02*
X219402198Y-185543985D01*
X219402198Y-185543985D02*
X219473626Y-185401128D01*
X219473626Y-185401128D02*
X219545055Y-185329700D01*
X219545055Y-185329700D02*
X219687912Y-185258271D01*
X219687912Y-185258271D02*
X219902198Y-185258271D01*
X219902198Y-185258271D02*
X220045055Y-185329700D01*
X220045055Y-185329700D02*
X220116484Y-185401128D01*
X220116484Y-185401128D02*
X220187912Y-185543985D01*
X220187912Y-185543985D02*
X220187912Y-185972557D01*
X220187912Y-185972557D02*
X220116484Y-186115414D01*
X220116484Y-186115414D02*
X220045055Y-186186842D01*
X220045055Y-186186842D02*
X219902198Y-186258271D01*
X219902198Y-186258271D02*
X219687912Y-186258271D01*
X220830769Y-185258271D02*
X220830769Y-186258271D01*
X220830769Y-185401128D02*
X220902198Y-185329700D01*
X220902198Y-185329700D02*
X221045055Y-185258271D01*
X221045055Y-185258271D02*
X221259341Y-185258271D01*
X221259341Y-185258271D02*
X221402198Y-185329700D01*
X221402198Y-185329700D02*
X221473627Y-185472557D01*
X221473627Y-185472557D02*
X221473627Y-186258271D01*
X222187912Y-185258271D02*
X222187912Y-186258271D01*
X222187912Y-185401128D02*
X222259341Y-185329700D01*
X222259341Y-185329700D02*
X222402198Y-185258271D01*
X222402198Y-185258271D02*
X222616484Y-185258271D01*
X222616484Y-185258271D02*
X222759341Y-185329700D01*
X222759341Y-185329700D02*
X222830770Y-185472557D01*
X222830770Y-185472557D02*
X222830770Y-186258271D01*
X224116484Y-186186842D02*
X223973627Y-186258271D01*
X223973627Y-186258271D02*
X223687913Y-186258271D01*
X223687913Y-186258271D02*
X223545055Y-186186842D01*
X223545055Y-186186842D02*
X223473627Y-186043985D01*
X223473627Y-186043985D02*
X223473627Y-185472557D01*
X223473627Y-185472557D02*
X223545055Y-185329700D01*
X223545055Y-185329700D02*
X223687913Y-185258271D01*
X223687913Y-185258271D02*
X223973627Y-185258271D01*
X223973627Y-185258271D02*
X224116484Y-185329700D01*
X224116484Y-185329700D02*
X224187913Y-185472557D01*
X224187913Y-185472557D02*
X224187913Y-185615414D01*
X224187913Y-185615414D02*
X223473627Y-185758271D01*
X225473627Y-186186842D02*
X225330769Y-186258271D01*
X225330769Y-186258271D02*
X225045055Y-186258271D01*
X225045055Y-186258271D02*
X224902198Y-186186842D01*
X224902198Y-186186842D02*
X224830769Y-186115414D01*
X224830769Y-186115414D02*
X224759341Y-185972557D01*
X224759341Y-185972557D02*
X224759341Y-185543985D01*
X224759341Y-185543985D02*
X224830769Y-185401128D01*
X224830769Y-185401128D02*
X224902198Y-185329700D01*
X224902198Y-185329700D02*
X225045055Y-185258271D01*
X225045055Y-185258271D02*
X225330769Y-185258271D01*
X225330769Y-185258271D02*
X225473627Y-185329700D01*
X225902198Y-185258271D02*
X226473626Y-185258271D01*
X226116483Y-184758271D02*
X226116483Y-186043985D01*
X226116483Y-186043985D02*
X226187912Y-186186842D01*
X226187912Y-186186842D02*
X226330769Y-186258271D01*
X226330769Y-186258271D02*
X226473626Y-186258271D01*
X227187912Y-186258271D02*
X227045055Y-186186842D01*
X227045055Y-186186842D02*
X226973626Y-186115414D01*
X226973626Y-186115414D02*
X226902198Y-185972557D01*
X226902198Y-185972557D02*
X226902198Y-185543985D01*
X226902198Y-185543985D02*
X226973626Y-185401128D01*
X226973626Y-185401128D02*
X227045055Y-185329700D01*
X227045055Y-185329700D02*
X227187912Y-185258271D01*
X227187912Y-185258271D02*
X227402198Y-185258271D01*
X227402198Y-185258271D02*
X227545055Y-185329700D01*
X227545055Y-185329700D02*
X227616484Y-185401128D01*
X227616484Y-185401128D02*
X227687912Y-185543985D01*
X227687912Y-185543985D02*
X227687912Y-185972557D01*
X227687912Y-185972557D02*
X227616484Y-186115414D01*
X227616484Y-186115414D02*
X227545055Y-186186842D01*
X227545055Y-186186842D02*
X227402198Y-186258271D01*
X227402198Y-186258271D02*
X227187912Y-186258271D01*
X228330769Y-186258271D02*
X228330769Y-185258271D01*
X228330769Y-185543985D02*
X228402198Y-185401128D01*
X228402198Y-185401128D02*
X228473627Y-185329700D01*
X228473627Y-185329700D02*
X228616484Y-185258271D01*
X228616484Y-185258271D02*
X228759341Y-185258271D01*
X229187912Y-186186842D02*
X229330769Y-186258271D01*
X229330769Y-186258271D02*
X229616483Y-186258271D01*
X229616483Y-186258271D02*
X229759340Y-186186842D01*
X229759340Y-186186842D02*
X229830769Y-186043985D01*
X229830769Y-186043985D02*
X229830769Y-185972557D01*
X229830769Y-185972557D02*
X229759340Y-185829700D01*
X229759340Y-185829700D02*
X229616483Y-185758271D01*
X229616483Y-185758271D02*
X229402198Y-185758271D01*
X229402198Y-185758271D02*
X229259340Y-185686842D01*
X229259340Y-185686842D02*
X229187912Y-185543985D01*
X229187912Y-185543985D02*
X229187912Y-185472557D01*
X229187912Y-185472557D02*
X229259340Y-185329700D01*
X229259340Y-185329700D02*
X229402198Y-185258271D01*
X229402198Y-185258271D02*
X229616483Y-185258271D01*
X229616483Y-185258271D02*
X229759340Y-185329700D01*
X230473626Y-186115414D02*
X230545055Y-186186842D01*
X230545055Y-186186842D02*
X230473626Y-186258271D01*
X230473626Y-186258271D02*
X230402198Y-186186842D01*
X230402198Y-186186842D02*
X230473626Y-186115414D01*
X230473626Y-186115414D02*
X230473626Y-186258271D01*
X231187912Y-186258271D02*
X231187912Y-184758271D01*
X231330770Y-185686842D02*
X231759341Y-186258271D01*
X231759341Y-185258271D02*
X231187912Y-185829700D01*
X232402198Y-186258271D02*
X232402198Y-185258271D01*
X232402198Y-184758271D02*
X232330770Y-184829700D01*
X232330770Y-184829700D02*
X232402198Y-184901128D01*
X232402198Y-184901128D02*
X232473627Y-184829700D01*
X232473627Y-184829700D02*
X232402198Y-184758271D01*
X232402198Y-184758271D02*
X232402198Y-184901128D01*
X233759342Y-186186842D02*
X233616484Y-186258271D01*
X233616484Y-186258271D02*
X233330770Y-186258271D01*
X233330770Y-186258271D02*
X233187913Y-186186842D01*
X233187913Y-186186842D02*
X233116484Y-186115414D01*
X233116484Y-186115414D02*
X233045056Y-185972557D01*
X233045056Y-185972557D02*
X233045056Y-185543985D01*
X233045056Y-185543985D02*
X233116484Y-185401128D01*
X233116484Y-185401128D02*
X233187913Y-185329700D01*
X233187913Y-185329700D02*
X233330770Y-185258271D01*
X233330770Y-185258271D02*
X233616484Y-185258271D01*
X233616484Y-185258271D02*
X233759342Y-185329700D01*
X235045056Y-186258271D02*
X235045056Y-185472557D01*
X235045056Y-185472557D02*
X234973627Y-185329700D01*
X234973627Y-185329700D02*
X234830770Y-185258271D01*
X234830770Y-185258271D02*
X234545056Y-185258271D01*
X234545056Y-185258271D02*
X234402198Y-185329700D01*
X235045056Y-186186842D02*
X234902198Y-186258271D01*
X234902198Y-186258271D02*
X234545056Y-186258271D01*
X234545056Y-186258271D02*
X234402198Y-186186842D01*
X234402198Y-186186842D02*
X234330770Y-186043985D01*
X234330770Y-186043985D02*
X234330770Y-185901128D01*
X234330770Y-185901128D02*
X234402198Y-185758271D01*
X234402198Y-185758271D02*
X234545056Y-185686842D01*
X234545056Y-185686842D02*
X234902198Y-185686842D01*
X234902198Y-185686842D02*
X235045056Y-185615414D01*
X236402199Y-186258271D02*
X236402199Y-184758271D01*
X236402199Y-186186842D02*
X236259341Y-186258271D01*
X236259341Y-186258271D02*
X235973627Y-186258271D01*
X235973627Y-186258271D02*
X235830770Y-186186842D01*
X235830770Y-186186842D02*
X235759341Y-186115414D01*
X235759341Y-186115414D02*
X235687913Y-185972557D01*
X235687913Y-185972557D02*
X235687913Y-185543985D01*
X235687913Y-185543985D02*
X235759341Y-185401128D01*
X235759341Y-185401128D02*
X235830770Y-185329700D01*
X235830770Y-185329700D02*
X235973627Y-185258271D01*
X235973627Y-185258271D02*
X236259341Y-185258271D01*
X236259341Y-185258271D02*
X236402199Y-185329700D01*
X236759342Y-186401128D02*
X237902199Y-186401128D01*
X238259341Y-185258271D02*
X238259341Y-186758271D01*
X238259341Y-185329700D02*
X238402199Y-185258271D01*
X238402199Y-185258271D02*
X238687913Y-185258271D01*
X238687913Y-185258271D02*
X238830770Y-185329700D01*
X238830770Y-185329700D02*
X238902199Y-185401128D01*
X238902199Y-185401128D02*
X238973627Y-185543985D01*
X238973627Y-185543985D02*
X238973627Y-185972557D01*
X238973627Y-185972557D02*
X238902199Y-186115414D01*
X238902199Y-186115414D02*
X238830770Y-186186842D01*
X238830770Y-186186842D02*
X238687913Y-186258271D01*
X238687913Y-186258271D02*
X238402199Y-186258271D01*
X238402199Y-186258271D02*
X238259341Y-186186842D01*
X240259342Y-186186842D02*
X240116484Y-186258271D01*
X240116484Y-186258271D02*
X239830770Y-186258271D01*
X239830770Y-186258271D02*
X239687913Y-186186842D01*
X239687913Y-186186842D02*
X239616484Y-186115414D01*
X239616484Y-186115414D02*
X239545056Y-185972557D01*
X239545056Y-185972557D02*
X239545056Y-185543985D01*
X239545056Y-185543985D02*
X239616484Y-185401128D01*
X239616484Y-185401128D02*
X239687913Y-185329700D01*
X239687913Y-185329700D02*
X239830770Y-185258271D01*
X239830770Y-185258271D02*
X240116484Y-185258271D01*
X240116484Y-185258271D02*
X240259342Y-185329700D01*
X240902198Y-186258271D02*
X240902198Y-184758271D01*
X240902198Y-185329700D02*
X241045056Y-185258271D01*
X241045056Y-185258271D02*
X241330770Y-185258271D01*
X241330770Y-185258271D02*
X241473627Y-185329700D01*
X241473627Y-185329700D02*
X241545056Y-185401128D01*
X241545056Y-185401128D02*
X241616484Y-185543985D01*
X241616484Y-185543985D02*
X241616484Y-185972557D01*
X241616484Y-185972557D02*
X241545056Y-186115414D01*
X241545056Y-186115414D02*
X241473627Y-186186842D01*
X241473627Y-186186842D02*
X241330770Y-186258271D01*
X241330770Y-186258271D02*
X241045056Y-186258271D01*
X241045056Y-186258271D02*
X240902198Y-186186842D01*
D10*
D11*
X177002200Y-181507200D02*
X285002200Y-181507200D01*
D10*
D11*
X178287914Y-183486842D02*
X178502200Y-183558271D01*
X178502200Y-183558271D02*
X178859342Y-183558271D01*
X178859342Y-183558271D02*
X179002200Y-183486842D01*
X179002200Y-183486842D02*
X179073628Y-183415414D01*
X179073628Y-183415414D02*
X179145057Y-183272557D01*
X179145057Y-183272557D02*
X179145057Y-183129700D01*
X179145057Y-183129700D02*
X179073628Y-182986842D01*
X179073628Y-182986842D02*
X179002200Y-182915414D01*
X179002200Y-182915414D02*
X178859342Y-182843985D01*
X178859342Y-182843985D02*
X178573628Y-182772557D01*
X178573628Y-182772557D02*
X178430771Y-182701128D01*
X178430771Y-182701128D02*
X178359342Y-182629700D01*
X178359342Y-182629700D02*
X178287914Y-182486842D01*
X178287914Y-182486842D02*
X178287914Y-182343985D01*
X178287914Y-182343985D02*
X178359342Y-182201128D01*
X178359342Y-182201128D02*
X178430771Y-182129700D01*
X178430771Y-182129700D02*
X178573628Y-182058271D01*
X178573628Y-182058271D02*
X178930771Y-182058271D01*
X178930771Y-182058271D02*
X179145057Y-182129700D01*
X179787913Y-183558271D02*
X179787913Y-182058271D01*
X180430771Y-183558271D02*
X180430771Y-182772557D01*
X180430771Y-182772557D02*
X180359342Y-182629700D01*
X180359342Y-182629700D02*
X180216485Y-182558271D01*
X180216485Y-182558271D02*
X180002199Y-182558271D01*
X180002199Y-182558271D02*
X179859342Y-182629700D01*
X179859342Y-182629700D02*
X179787913Y-182701128D01*
X181716485Y-183486842D02*
X181573628Y-183558271D01*
X181573628Y-183558271D02*
X181287914Y-183558271D01*
X181287914Y-183558271D02*
X181145056Y-183486842D01*
X181145056Y-183486842D02*
X181073628Y-183343985D01*
X181073628Y-183343985D02*
X181073628Y-182772557D01*
X181073628Y-182772557D02*
X181145056Y-182629700D01*
X181145056Y-182629700D02*
X181287914Y-182558271D01*
X181287914Y-182558271D02*
X181573628Y-182558271D01*
X181573628Y-182558271D02*
X181716485Y-182629700D01*
X181716485Y-182629700D02*
X181787914Y-182772557D01*
X181787914Y-182772557D02*
X181787914Y-182915414D01*
X181787914Y-182915414D02*
X181073628Y-183058271D01*
X183002199Y-183486842D02*
X182859342Y-183558271D01*
X182859342Y-183558271D02*
X182573628Y-183558271D01*
X182573628Y-183558271D02*
X182430770Y-183486842D01*
X182430770Y-183486842D02*
X182359342Y-183343985D01*
X182359342Y-183343985D02*
X182359342Y-182772557D01*
X182359342Y-182772557D02*
X182430770Y-182629700D01*
X182430770Y-182629700D02*
X182573628Y-182558271D01*
X182573628Y-182558271D02*
X182859342Y-182558271D01*
X182859342Y-182558271D02*
X183002199Y-182629700D01*
X183002199Y-182629700D02*
X183073628Y-182772557D01*
X183073628Y-182772557D02*
X183073628Y-182915414D01*
X183073628Y-182915414D02*
X182359342Y-183058271D01*
X183502199Y-182558271D02*
X184073627Y-182558271D01*
X183716484Y-182058271D02*
X183716484Y-183343985D01*
X183716484Y-183343985D02*
X183787913Y-183486842D01*
X183787913Y-183486842D02*
X183930770Y-183558271D01*
X183930770Y-183558271D02*
X184073627Y-183558271D01*
X184573627Y-183415414D02*
X184645056Y-183486842D01*
X184645056Y-183486842D02*
X184573627Y-183558271D01*
X184573627Y-183558271D02*
X184502199Y-183486842D01*
X184502199Y-183486842D02*
X184573627Y-183415414D01*
X184573627Y-183415414D02*
X184573627Y-183558271D01*
X184573627Y-182629700D02*
X184645056Y-182701128D01*
X184645056Y-182701128D02*
X184573627Y-182772557D01*
X184573627Y-182772557D02*
X184502199Y-182701128D01*
X184502199Y-182701128D02*
X184573627Y-182629700D01*
X184573627Y-182629700D02*
X184573627Y-182772557D01*
D10*
D12*
D10*
D11*
D10*
D11*
D10*
D11*
D10*
D11*
D10*
D11*
X197002200Y-191507200D02*
X197002200Y-194507200D01*
D10*
D11*
X261002200Y-191507200D02*
X261002200Y-198007200D01*
D14*
%TO.C,D107*%
X149760714Y-83160214D02*
X149589285Y-83160214D01*
X149675000Y-83160214D02*
X149675000Y-82860214D01*
X149675000Y-82860214D02*
X149646428Y-82903071D01*
X149646428Y-82903071D02*
X149617857Y-82931642D01*
X149617857Y-82931642D02*
X149589285Y-82945928D01*
D11*
%TO.C,P103*%
X144766666Y-97067380D02*
X144766666Y-97876904D01*
X144766666Y-97876904D02*
X144814285Y-97972142D01*
X144814285Y-97972142D02*
X144861904Y-98019761D01*
X144861904Y-98019761D02*
X144957142Y-98067380D01*
X144957142Y-98067380D02*
X145147618Y-98067380D01*
X145147618Y-98067380D02*
X145242856Y-98019761D01*
X145242856Y-98019761D02*
X145290475Y-97972142D01*
X145290475Y-97972142D02*
X145338094Y-97876904D01*
X145338094Y-97876904D02*
X145338094Y-97067380D01*
X146242856Y-98067380D02*
X146242856Y-97543571D01*
X146242856Y-97543571D02*
X146195237Y-97448333D01*
X146195237Y-97448333D02*
X146099999Y-97400714D01*
X146099999Y-97400714D02*
X145909523Y-97400714D01*
X145909523Y-97400714D02*
X145814285Y-97448333D01*
X146242856Y-98019761D02*
X146147618Y-98067380D01*
X146147618Y-98067380D02*
X145909523Y-98067380D01*
X145909523Y-98067380D02*
X145814285Y-98019761D01*
X145814285Y-98019761D02*
X145766666Y-97924523D01*
X145766666Y-97924523D02*
X145766666Y-97829285D01*
X145766666Y-97829285D02*
X145814285Y-97734047D01*
X145814285Y-97734047D02*
X145909523Y-97686428D01*
X145909523Y-97686428D02*
X146147618Y-97686428D01*
X146147618Y-97686428D02*
X146242856Y-97638809D01*
X146719047Y-98067380D02*
X146719047Y-97400714D01*
X146719047Y-97591190D02*
X146766666Y-97495952D01*
X146766666Y-97495952D02*
X146814285Y-97448333D01*
X146814285Y-97448333D02*
X146909523Y-97400714D01*
X146909523Y-97400714D02*
X147004761Y-97400714D01*
X147195238Y-97400714D02*
X147576190Y-97400714D01*
X147338095Y-97067380D02*
X147338095Y-97924523D01*
X147338095Y-97924523D02*
X147385714Y-98019761D01*
X147385714Y-98019761D02*
X147480952Y-98067380D01*
X147480952Y-98067380D02*
X147576190Y-98067380D01*
%TO.C,P101*%
X137472142Y-76219047D02*
X137519761Y-76266666D01*
X137519761Y-76266666D02*
X137567380Y-76409523D01*
X137567380Y-76409523D02*
X137567380Y-76504761D01*
X137567380Y-76504761D02*
X137519761Y-76647618D01*
X137519761Y-76647618D02*
X137424523Y-76742856D01*
X137424523Y-76742856D02*
X137329285Y-76790475D01*
X137329285Y-76790475D02*
X137138809Y-76838094D01*
X137138809Y-76838094D02*
X136995952Y-76838094D01*
X136995952Y-76838094D02*
X136805476Y-76790475D01*
X136805476Y-76790475D02*
X136710238Y-76742856D01*
X136710238Y-76742856D02*
X136615000Y-76647618D01*
X136615000Y-76647618D02*
X136567380Y-76504761D01*
X136567380Y-76504761D02*
X136567380Y-76409523D01*
X136567380Y-76409523D02*
X136615000Y-76266666D01*
X136615000Y-76266666D02*
X136662619Y-76219047D01*
X137281666Y-75838094D02*
X137281666Y-75361904D01*
X137567380Y-75933332D02*
X136567380Y-75599999D01*
X136567380Y-75599999D02*
X137567380Y-75266666D01*
X137567380Y-74933332D02*
X136567380Y-74933332D01*
X136567380Y-74933332D02*
X137567380Y-74361904D01*
X137567380Y-74361904D02*
X136567380Y-74361904D01*
X137567380Y-72761904D02*
X137567380Y-73333332D01*
X137567380Y-73047618D02*
X136567380Y-73047618D01*
X136567380Y-73047618D02*
X136710238Y-73142856D01*
X136710238Y-73142856D02*
X136805476Y-73238094D01*
X136805476Y-73238094D02*
X136853095Y-73333332D01*
D14*
%TO.C,D106*%
X149760714Y-85960214D02*
X149589285Y-85960214D01*
X149675000Y-85960214D02*
X149675000Y-85660214D01*
X149675000Y-85660214D02*
X149646428Y-85703071D01*
X149646428Y-85703071D02*
X149617857Y-85731642D01*
X149617857Y-85731642D02*
X149589285Y-85745928D01*
D11*
%TO.C,J101*%
X136315000Y-97066666D02*
X136267380Y-97161904D01*
X136267380Y-97161904D02*
X136267380Y-97304761D01*
X136267380Y-97304761D02*
X136315000Y-97447618D01*
X136315000Y-97447618D02*
X136410238Y-97542856D01*
X136410238Y-97542856D02*
X136505476Y-97590475D01*
X136505476Y-97590475D02*
X136695952Y-97638094D01*
X136695952Y-97638094D02*
X136838809Y-97638094D01*
X136838809Y-97638094D02*
X137029285Y-97590475D01*
X137029285Y-97590475D02*
X137124523Y-97542856D01*
X137124523Y-97542856D02*
X137219761Y-97447618D01*
X137219761Y-97447618D02*
X137267380Y-97304761D01*
X137267380Y-97304761D02*
X137267380Y-97209523D01*
X137267380Y-97209523D02*
X137219761Y-97066666D01*
X137219761Y-97066666D02*
X137172142Y-97019047D01*
X137172142Y-97019047D02*
X136838809Y-97019047D01*
X136838809Y-97019047D02*
X136838809Y-97209523D01*
X137267380Y-96590475D02*
X136267380Y-96590475D01*
X136267380Y-96590475D02*
X136267380Y-96209523D01*
X136267380Y-96209523D02*
X136315000Y-96114285D01*
X136315000Y-96114285D02*
X136362619Y-96066666D01*
X136362619Y-96066666D02*
X136457857Y-96019047D01*
X136457857Y-96019047D02*
X136600714Y-96019047D01*
X136600714Y-96019047D02*
X136695952Y-96066666D01*
X136695952Y-96066666D02*
X136743571Y-96114285D01*
X136743571Y-96114285D02*
X136791190Y-96209523D01*
X136791190Y-96209523D02*
X136791190Y-96590475D01*
X137219761Y-95638094D02*
X137267380Y-95495237D01*
X137267380Y-95495237D02*
X137267380Y-95257142D01*
X137267380Y-95257142D02*
X137219761Y-95161904D01*
X137219761Y-95161904D02*
X137172142Y-95114285D01*
X137172142Y-95114285D02*
X137076904Y-95066666D01*
X137076904Y-95066666D02*
X136981666Y-95066666D01*
X136981666Y-95066666D02*
X136886428Y-95114285D01*
X136886428Y-95114285D02*
X136838809Y-95161904D01*
X136838809Y-95161904D02*
X136791190Y-95257142D01*
X136791190Y-95257142D02*
X136743571Y-95447618D01*
X136743571Y-95447618D02*
X136695952Y-95542856D01*
X136695952Y-95542856D02*
X136648333Y-95590475D01*
X136648333Y-95590475D02*
X136553095Y-95638094D01*
X136553095Y-95638094D02*
X136457857Y-95638094D01*
X136457857Y-95638094D02*
X136362619Y-95590475D01*
X136362619Y-95590475D02*
X136315000Y-95542856D01*
X136315000Y-95542856D02*
X136267380Y-95447618D01*
X136267380Y-95447618D02*
X136267380Y-95209523D01*
X136267380Y-95209523D02*
X136315000Y-95066666D01*
X137362619Y-94876190D02*
X137362619Y-94114285D01*
X137172142Y-93304761D02*
X137219761Y-93352380D01*
X137219761Y-93352380D02*
X137267380Y-93495237D01*
X137267380Y-93495237D02*
X137267380Y-93590475D01*
X137267380Y-93590475D02*
X137219761Y-93733332D01*
X137219761Y-93733332D02*
X137124523Y-93828570D01*
X137124523Y-93828570D02*
X137029285Y-93876189D01*
X137029285Y-93876189D02*
X136838809Y-93923808D01*
X136838809Y-93923808D02*
X136695952Y-93923808D01*
X136695952Y-93923808D02*
X136505476Y-93876189D01*
X136505476Y-93876189D02*
X136410238Y-93828570D01*
X136410238Y-93828570D02*
X136315000Y-93733332D01*
X136315000Y-93733332D02*
X136267380Y-93590475D01*
X136267380Y-93590475D02*
X136267380Y-93495237D01*
X136267380Y-93495237D02*
X136315000Y-93352380D01*
X136315000Y-93352380D02*
X136362619Y-93304761D01*
X136267380Y-92685713D02*
X136267380Y-92495237D01*
X136267380Y-92495237D02*
X136315000Y-92399999D01*
X136315000Y-92399999D02*
X136410238Y-92304761D01*
X136410238Y-92304761D02*
X136600714Y-92257142D01*
X136600714Y-92257142D02*
X136934047Y-92257142D01*
X136934047Y-92257142D02*
X137124523Y-92304761D01*
X137124523Y-92304761D02*
X137219761Y-92399999D01*
X137219761Y-92399999D02*
X137267380Y-92495237D01*
X137267380Y-92495237D02*
X137267380Y-92685713D01*
X137267380Y-92685713D02*
X137219761Y-92780951D01*
X137219761Y-92780951D02*
X137124523Y-92876189D01*
X137124523Y-92876189D02*
X136934047Y-92923808D01*
X136934047Y-92923808D02*
X136600714Y-92923808D01*
X136600714Y-92923808D02*
X136410238Y-92876189D01*
X136410238Y-92876189D02*
X136315000Y-92780951D01*
X136315000Y-92780951D02*
X136267380Y-92685713D01*
X137267380Y-91828570D02*
X136267380Y-91828570D01*
X136267380Y-91828570D02*
X137267380Y-91257142D01*
X137267380Y-91257142D02*
X136267380Y-91257142D01*
X137267380Y-90780951D02*
X136267380Y-90780951D01*
X136267380Y-90780951D02*
X137267380Y-90209523D01*
X137267380Y-90209523D02*
X136267380Y-90209523D01*
%TO.C,P102*%
X137572142Y-85019047D02*
X137619761Y-85066666D01*
X137619761Y-85066666D02*
X137667380Y-85209523D01*
X137667380Y-85209523D02*
X137667380Y-85304761D01*
X137667380Y-85304761D02*
X137619761Y-85447618D01*
X137619761Y-85447618D02*
X137524523Y-85542856D01*
X137524523Y-85542856D02*
X137429285Y-85590475D01*
X137429285Y-85590475D02*
X137238809Y-85638094D01*
X137238809Y-85638094D02*
X137095952Y-85638094D01*
X137095952Y-85638094D02*
X136905476Y-85590475D01*
X136905476Y-85590475D02*
X136810238Y-85542856D01*
X136810238Y-85542856D02*
X136715000Y-85447618D01*
X136715000Y-85447618D02*
X136667380Y-85304761D01*
X136667380Y-85304761D02*
X136667380Y-85209523D01*
X136667380Y-85209523D02*
X136715000Y-85066666D01*
X136715000Y-85066666D02*
X136762619Y-85019047D01*
X137381666Y-84638094D02*
X137381666Y-84161904D01*
X137667380Y-84733332D02*
X136667380Y-84399999D01*
X136667380Y-84399999D02*
X137667380Y-84066666D01*
X137667380Y-83733332D02*
X136667380Y-83733332D01*
X136667380Y-83733332D02*
X137667380Y-83161904D01*
X137667380Y-83161904D02*
X136667380Y-83161904D01*
X136762619Y-82133332D02*
X136715000Y-82085713D01*
X136715000Y-82085713D02*
X136667380Y-81990475D01*
X136667380Y-81990475D02*
X136667380Y-81752380D01*
X136667380Y-81752380D02*
X136715000Y-81657142D01*
X136715000Y-81657142D02*
X136762619Y-81609523D01*
X136762619Y-81609523D02*
X136857857Y-81561904D01*
X136857857Y-81561904D02*
X136953095Y-81561904D01*
X136953095Y-81561904D02*
X137095952Y-81609523D01*
X137095952Y-81609523D02*
X137667380Y-82180951D01*
X137667380Y-82180951D02*
X137667380Y-81561904D01*
D14*
%TO.C,D105*%
X149760714Y-88760214D02*
X149589285Y-88760214D01*
X149675000Y-88760214D02*
X149675000Y-88460214D01*
X149675000Y-88460214D02*
X149646428Y-88503071D01*
X149646428Y-88503071D02*
X149617857Y-88531642D01*
X149617857Y-88531642D02*
X149589285Y-88545928D01*
D11*
%TO.C,P104*%
X146867380Y-86876189D02*
X145867380Y-86876189D01*
X145962619Y-86447618D02*
X145915000Y-86399999D01*
X145915000Y-86399999D02*
X145867380Y-86304761D01*
X145867380Y-86304761D02*
X145867380Y-86066666D01*
X145867380Y-86066666D02*
X145915000Y-85971428D01*
X145915000Y-85971428D02*
X145962619Y-85923809D01*
X145962619Y-85923809D02*
X146057857Y-85876190D01*
X146057857Y-85876190D02*
X146153095Y-85876190D01*
X146153095Y-85876190D02*
X146295952Y-85923809D01*
X146295952Y-85923809D02*
X146867380Y-86495237D01*
X146867380Y-86495237D02*
X146867380Y-85876190D01*
X146772142Y-84876190D02*
X146819761Y-84923809D01*
X146819761Y-84923809D02*
X146867380Y-85066666D01*
X146867380Y-85066666D02*
X146867380Y-85161904D01*
X146867380Y-85161904D02*
X146819761Y-85304761D01*
X146819761Y-85304761D02*
X146724523Y-85399999D01*
X146724523Y-85399999D02*
X146629285Y-85447618D01*
X146629285Y-85447618D02*
X146438809Y-85495237D01*
X146438809Y-85495237D02*
X146295952Y-85495237D01*
X146295952Y-85495237D02*
X146105476Y-85447618D01*
X146105476Y-85447618D02*
X146010238Y-85399999D01*
X146010238Y-85399999D02*
X145915000Y-85304761D01*
X145915000Y-85304761D02*
X145867380Y-85161904D01*
X145867380Y-85161904D02*
X145867380Y-85066666D01*
X145867380Y-85066666D02*
X145915000Y-84923809D01*
X145915000Y-84923809D02*
X145962619Y-84876190D01*
%TO.C,J301*%
X148177500Y-80800000D02*
X147697500Y-80800000D01*
X148177500Y-80800000D02*
X148177500Y-80800000D01*
X148177500Y-80800000D02*
X150017500Y-80800000D01*
X152127500Y-80800000D02*
X153677500Y-80800000D01*
X152197500Y-80800000D02*
X151757500Y-80800000D01*
X152197500Y-80800000D02*
X152197500Y-80800000D01*
X153677500Y-80800000D02*
X153677500Y-71800000D01*
X146227500Y-80290000D02*
X146227500Y-79980000D01*
X146227500Y-72620000D02*
X146227500Y-72310000D01*
X148177500Y-71800000D02*
X147727500Y-71800000D01*
X148177500Y-71800000D02*
X148177500Y-71800000D01*
X150017500Y-71800000D02*
X148177500Y-71800000D01*
X150017500Y-71800000D02*
X150017500Y-71800000D01*
X150017500Y-71800000D02*
X150197500Y-71800000D01*
X152127500Y-71800000D02*
X151757500Y-71800000D01*
X152127500Y-71800000D02*
X152127500Y-71800000D01*
X153677500Y-71800000D02*
X152127500Y-71800000D01*
D10*
%TO.C,D107*%
X151450000Y-82650000D02*
X150800000Y-82650000D01*
X151450000Y-83300000D02*
X151450000Y-82650000D01*
D15*
%TO.C,C101*%
X143000000Y-73400000D02*
X142200000Y-73400000D01*
X142200000Y-72400000D02*
X143000000Y-72400000D01*
D16*
X142775000Y-72900000D02*
G75*
G03*
X142775000Y-72900000I-175000J0D01*
G01*
D15*
%TO.C,C108*%
X141200000Y-98750000D02*
X140800000Y-98750000D01*
X140800000Y-98050000D02*
X141200000Y-98050000D01*
D17*
X141100000Y-98400000D02*
G75*
G03*
X141100000Y-98400000I-100000J0D01*
G01*
D15*
%TO.C,R105*%
X150350000Y-94000000D02*
X149950000Y-94000000D01*
X149950000Y-93300000D02*
X150350000Y-93300000D01*
D18*
X150275000Y-93825000D02*
X150025000Y-93825000D01*
X150025000Y-93825000D02*
X150025000Y-93475000D01*
X150025000Y-93475000D02*
X150275000Y-93475000D01*
X150275000Y-93475000D02*
X150275000Y-93825000D01*
G36*
X150275000Y-93825000D02*
G01*
X150025000Y-93825000D01*
X150025000Y-93475000D01*
X150275000Y-93475000D01*
X150275000Y-93825000D01*
G37*
D15*
%TO.C,P103*%
X150435000Y-96340000D02*
X150435000Y-94740000D01*
X150435000Y-94740000D02*
X148635000Y-94740000D01*
X149165000Y-99210000D02*
X143235000Y-99210000D01*
X148635000Y-94740000D02*
X148635000Y-93800000D01*
X141965000Y-96340000D02*
X141965000Y-94740000D01*
X141965000Y-94740000D02*
X143765000Y-94740000D01*
%TO.C,D103*%
X144250000Y-85000000D02*
X144250000Y-85400000D01*
X143750000Y-85050000D02*
X144050000Y-85050000D01*
X143900000Y-85105000D02*
X143775000Y-85350000D01*
X144025000Y-85350000D02*
X143900000Y-85105000D01*
X143775000Y-85350000D02*
X144025000Y-85350000D01*
X143550000Y-85400000D02*
X143550000Y-85000000D01*
%TO.C,C107*%
X142400000Y-86350000D02*
X142000000Y-86350000D01*
X142000000Y-85650000D02*
X142400000Y-85650000D01*
D17*
X142300000Y-86000000D02*
G75*
G03*
X142300000Y-86000000I-100000J0D01*
G01*
D15*
%TO.C,R106*%
X142400000Y-82050000D02*
X142800000Y-82050000D01*
X142800000Y-82750000D02*
X142400000Y-82750000D01*
D18*
X142475000Y-82225000D02*
X142725000Y-82225000D01*
X142725000Y-82225000D02*
X142725000Y-82575000D01*
X142725000Y-82575000D02*
X142475000Y-82575000D01*
X142475000Y-82575000D02*
X142475000Y-82225000D01*
G36*
X142475000Y-82225000D02*
G01*
X142725000Y-82225000D01*
X142725000Y-82575000D01*
X142475000Y-82575000D01*
X142475000Y-82225000D01*
G37*
D15*
%TO.C,C104*%
X143100000Y-79700000D02*
X142300000Y-79700000D01*
X142300000Y-78700000D02*
X143100000Y-78700000D01*
D16*
X142875000Y-79200000D02*
G75*
G03*
X142875000Y-79200000I-175000J0D01*
G01*
D15*
%TO.C,P101*%
X138260000Y-78985000D02*
X139860000Y-78985000D01*
X139860000Y-78985000D02*
X139860000Y-77185000D01*
X135390000Y-77715000D02*
X135390000Y-71785000D01*
X139860000Y-77185000D02*
X140800000Y-77185000D01*
X138260000Y-70515000D02*
X139860000Y-70515000D01*
X139860000Y-70515000D02*
X139860000Y-72315000D01*
%TO.C,U201*%
X143200000Y-86690000D02*
X140200000Y-86690000D01*
X141700000Y-89910000D02*
X140200000Y-89910000D01*
%TO.C,R102*%
X142800000Y-83650000D02*
X142400000Y-83650000D01*
X142400000Y-82950000D02*
X142800000Y-82950000D01*
D18*
X142725000Y-83475000D02*
X142475000Y-83475000D01*
X142475000Y-83475000D02*
X142475000Y-83125000D01*
X142475000Y-83125000D02*
X142725000Y-83125000D01*
X142725000Y-83125000D02*
X142725000Y-83475000D01*
G36*
X142725000Y-83475000D02*
G01*
X142475000Y-83475000D01*
X142475000Y-83125000D01*
X142725000Y-83125000D01*
X142725000Y-83475000D01*
G37*
D10*
%TO.C,D106*%
X151450000Y-85450000D02*
X150800000Y-85450000D01*
X151450000Y-86100000D02*
X151450000Y-85450000D01*
D15*
%TO.C,C106*%
X150400000Y-87350000D02*
X150800000Y-87350000D01*
X150800000Y-88050000D02*
X150400000Y-88050000D01*
D17*
X150700000Y-87700000D02*
G75*
G03*
X150700000Y-87700000I-100000J0D01*
G01*
%TO.C,C102*%
X141200000Y-77900000D02*
G75*
G03*
X141200000Y-77900000I-100000J0D01*
G01*
D15*
X141300000Y-78250000D02*
X140900000Y-78250000D01*
X140900000Y-77550000D02*
X141300000Y-77550000D01*
D18*
%TO.C,R301*%
X149025000Y-71175000D02*
X148775000Y-71175000D01*
X148775000Y-71175000D02*
X148775000Y-70825000D01*
X148775000Y-70825000D02*
X149025000Y-70825000D01*
X149025000Y-70825000D02*
X149025000Y-71175000D01*
G36*
X149025000Y-71175000D02*
G01*
X148775000Y-71175000D01*
X148775000Y-70825000D01*
X149025000Y-70825000D01*
X149025000Y-71175000D01*
G37*
D15*
X148700000Y-70650000D02*
X149100000Y-70650000D01*
X149100000Y-71350000D02*
X148700000Y-71350000D01*
%TO.C,D104*%
X142100000Y-70550000D02*
X142100000Y-72250000D01*
X142100000Y-70550000D02*
X144650000Y-70550000D01*
X142100000Y-72250000D02*
X144650000Y-72250000D01*
%TO.C,D101*%
X142150000Y-72000000D02*
X142150000Y-70800000D01*
X140300000Y-72000000D02*
X142150000Y-72000000D01*
X140300000Y-70800000D02*
X142150000Y-70800000D01*
%TO.C,C103*%
X143100000Y-78250000D02*
X142700000Y-78250000D01*
X142700000Y-77550000D02*
X143100000Y-77550000D01*
D17*
X143000000Y-77900000D02*
G75*
G03*
X143000000Y-77900000I-100000J0D01*
G01*
D15*
%TO.C,C105*%
X143650000Y-83050000D02*
X143650000Y-82650000D01*
X144350000Y-82650000D02*
X144350000Y-83050000D01*
D17*
X144100000Y-82850000D02*
G75*
G03*
X144100000Y-82850000I-100000J0D01*
G01*
D15*
%TO.C,R103*%
X142400000Y-81150000D02*
X142800000Y-81150000D01*
X142800000Y-81850000D02*
X142400000Y-81850000D01*
D18*
X142475000Y-81325000D02*
X142725000Y-81325000D01*
X142725000Y-81325000D02*
X142725000Y-81675000D01*
X142725000Y-81675000D02*
X142475000Y-81675000D01*
X142475000Y-81675000D02*
X142475000Y-81325000D01*
G36*
X142475000Y-81325000D02*
G01*
X142725000Y-81325000D01*
X142725000Y-81675000D01*
X142475000Y-81675000D01*
X142475000Y-81325000D01*
G37*
D15*
%TO.C,D102*%
X141400000Y-78850000D02*
X140200000Y-78850000D01*
X141400000Y-80700000D02*
X141400000Y-78850000D01*
X140200000Y-80700000D02*
X140200000Y-78850000D01*
%TO.C,SW101*%
X141590000Y-90285000D02*
X143440000Y-90285000D01*
X143440000Y-89635000D02*
X143440000Y-90285000D01*
X143440000Y-89635000D02*
X148960000Y-89635000D01*
X143440000Y-92295000D02*
X143440000Y-93565000D01*
X143440000Y-93565000D02*
X148960000Y-93565000D01*
X148960000Y-89635000D02*
X148960000Y-90904000D01*
X148960000Y-92295000D02*
X148960000Y-93565000D01*
%TO.C,J101*%
X138260000Y-99485000D02*
X139860000Y-99485000D01*
X139860000Y-99485000D02*
X139860000Y-97685000D01*
X135390000Y-98215000D02*
X135390000Y-89785000D01*
X139860000Y-97685000D02*
X140800000Y-97685000D01*
X138260000Y-88515000D02*
X139860000Y-88515000D01*
X139860000Y-88515000D02*
X139860000Y-90315000D01*
%TO.C,R302*%
X149100000Y-81950000D02*
X148700000Y-81950000D01*
X148700000Y-81250000D02*
X149100000Y-81250000D01*
D18*
X149025000Y-81775000D02*
X148775000Y-81775000D01*
X148775000Y-81775000D02*
X148775000Y-81425000D01*
X148775000Y-81425000D02*
X149025000Y-81425000D01*
X149025000Y-81425000D02*
X149025000Y-81775000D01*
G36*
X149025000Y-81775000D02*
G01*
X148775000Y-81775000D01*
X148775000Y-81425000D01*
X149025000Y-81425000D01*
X149025000Y-81775000D01*
G37*
D15*
%TO.C,U101*%
X144060000Y-75437500D02*
X144060000Y-73637500D01*
X144060000Y-75437500D02*
X144060000Y-76237500D01*
X140940000Y-75437500D02*
X140940000Y-74637500D01*
X140940000Y-75437500D02*
X140940000Y-76237500D01*
%TO.C,R101*%
X142000000Y-84250000D02*
X142400000Y-84250000D01*
X142400000Y-84950000D02*
X142000000Y-84950000D01*
D18*
X142075000Y-84425000D02*
X142325000Y-84425000D01*
X142325000Y-84425000D02*
X142325000Y-84775000D01*
X142325000Y-84775000D02*
X142075000Y-84775000D01*
X142075000Y-84775000D02*
X142075000Y-84425000D01*
G36*
X142075000Y-84425000D02*
G01*
X142325000Y-84425000D01*
X142325000Y-84775000D01*
X142075000Y-84775000D01*
X142075000Y-84425000D01*
G37*
D15*
%TO.C,P102*%
X138260000Y-87985000D02*
X139860000Y-87985000D01*
X139860000Y-87985000D02*
X139860000Y-86185000D01*
X135390000Y-86715000D02*
X135390000Y-80785000D01*
X139860000Y-86185000D02*
X140800000Y-86185000D01*
X138260000Y-79515000D02*
X139860000Y-79515000D01*
X139860000Y-79515000D02*
X139860000Y-81315000D01*
%TO.C,R104*%
X142400000Y-80250000D02*
X142800000Y-80250000D01*
X142800000Y-80950000D02*
X142400000Y-80950000D01*
D18*
X142475000Y-80425000D02*
X142725000Y-80425000D01*
X142725000Y-80425000D02*
X142725000Y-80775000D01*
X142725000Y-80775000D02*
X142475000Y-80775000D01*
X142475000Y-80775000D02*
X142475000Y-80425000D01*
G36*
X142475000Y-80425000D02*
G01*
X142725000Y-80425000D01*
X142725000Y-80775000D01*
X142475000Y-80775000D01*
X142475000Y-80425000D01*
G37*
D10*
%TO.C,D105*%
X151450000Y-88250000D02*
X150800000Y-88250000D01*
X151450000Y-88900000D02*
X151450000Y-88250000D01*
D15*
%TO.C,P104*%
X147060000Y-88710000D02*
X148210000Y-88710000D01*
X148210000Y-88710000D02*
X148210000Y-87660000D01*
X148210000Y-87660000D02*
X149200000Y-87660000D01*
X145090000Y-87540000D02*
X145090000Y-83660000D01*
X147060000Y-82490000D02*
X148210000Y-82490000D01*
X148210000Y-82490000D02*
X148210000Y-83540000D01*
%TO.C,C201*%
X144650000Y-87950000D02*
X144650000Y-88350000D01*
X143950000Y-88350000D02*
X143950000Y-87950000D01*
D17*
X144400000Y-88150000D02*
G75*
G03*
X144400000Y-88150000I-100000J0D01*
G01*
%TD*%
M02*
